# Blender 5.1.1
# www.blender.org
mtllib multiple_portals.mtl
o entity0_brush0
v -128.000000 -0.000010 -128.000000
v -128.000000 0.000010 128.000000
v -128.000000 16.000010 128.000000
v -128.000000 15.999990 -128.000000
v 128.000000 16.000010 128.000000
v 128.000000 0.000010 128.000000
v 128.000000 -0.000010 -128.000000
v 128.000000 15.999990 -128.000000
vn 1.0000 -0.0000 -0.0000
vn -0.0000 -0.0000 -1.0000
vn -0.0000 1.0000 -0.0000
vn -0.0000 -1.0000 -0.0000
vn -0.0000 -0.0000 1.0000
vn -1.0000 -0.0000 -0.0000
vt 8.000000 -0.000000
vt 8.000000 1.000000
vt -8.000000 1.000000
vt -8.000000 -0.000000
vt 8.000000 -8.000000
vt 8.000000 8.000000
vt -8.000000 8.000000
vt -8.000000 -8.000000
s 1
usemtl test_texture
f 1/1/1 4/2/1 3/3/1 2/4/1
f 5/2/2 6/1/2 2/4/2 3/3/2
f 6/5/3 7/6/3 1/7/3 2/8/3
f 8/6/4 5/5/4 3/8/4 4/7/4
f 7/1/5 8/2/5 4/3/5 1/4/5
f 8/2/6 7/1/6 6/4/6 5/3/6
o entity0_brush1
v -144.000000 -0.000005 -64.000000
v -144.000000 0.000000 0.000000
v -144.000000 112.000000 -0.000008
v -144.000000 111.999992 -64.000008
v -128.000000 112.000000 -0.000008
v -128.000000 0.000000 0.000000
v -128.000000 -0.000005 -64.000000
v -128.000000 111.999992 -64.000008
vn 1.0000 -0.0000 -0.0000
vn -0.0000 -0.0000 -1.0000
vn -0.0000 1.0000 -0.0000
vn -0.0000 -1.0000 -0.0000
vn -0.0000 -0.0000 1.0000
vn -1.0000 -0.0000 -0.0000
vt 4.000000 -0.000000
vt 4.000000 7.000000
vt 0.000000 7.000000
vt 0.000000 -0.000000
vt -8.000000 7.000000
vt -8.000000 -0.000000
vt -9.000000 -0.000000
vt -9.000000 7.000000
vt -8.000000 4.000000
vt -9.000000 4.000000
s 1
usemtl blue_test_texture
f 9/9/7 12/10/7 11/11/7 10/12/7
f 13/13/8 14/14/8 10/15/8 11/16/8
f 14/14/9 15/17/9 9/18/9 10/15/9
f 16/17/10 13/14/10 11/15/10 12/18/10
f 15/14/11 16/13/11 12/16/11 9/15/11
f 16/10/12 15/9/12 14/12/12 13/11/12
o entity0_brush10_purple
v 64.000000 -0.000019 -256.000000
v 64.000000 -0.000021 -272.000000
v 64.000000 -128.000015 -272.000000
v 64.000000 -128.000015 -255.999985
v 320.000000 -128.000046 -624.000000
v 320.000000 -0.000047 -624.000000
v 320.000000 -128.000046 -608.000000
v 320.000000 -0.000046 -608.000000
vn 1.0000 -0.0000 -0.0000
vn 0.8087 -0.0000 0.5882
vn -0.0000 1.0000 -0.0000
vn -0.0000 -1.0000 -0.0000
vn -0.8087 -0.0000 -0.5882
vn -1.0000 -0.0000 -0.0000
vt 16.000000 -0.000000
vt 16.000000 -8.000000
vt 17.000000 -8.000000
vt 17.000000 -0.000000
vt 38.000000 -8.000000
vt 38.000000 -0.000000
vt 20.000000 38.000000
vt 20.000000 39.000000
vt 4.000000 17.000000
vt 4.000000 16.000000
vt 39.000000 -0.000000
vt 39.000000 -8.000000
s 1
usemtl purple_test_texture
f 17/19/13 20/20/13 19/21/13 18/22/13
f 21/23/14 22/24/14 18/19/14 19/20/14
f 23/25/15 21/26/15 19/27/15 20/28/15
f 22/26/16 24/25/16 17/28/16 18/27/16
f 24/24/17 23/23/17 20/20/17 17/19/17
f 22/29/18 21/30/18 23/23/18 24/24/18
o entity0_brush11
v -320.000000 -0.000047 -624.000000
v -64.000000 -0.000021 -272.000000
v -64.000000 15.999979 -272.000000
v -320.000000 15.999953 -624.000000
v 64.000000 15.999979 -272.000000
v 64.000000 -0.000021 -272.000000
v 320.000000 -0.000047 -624.000000
v 320.000000 15.999953 -624.000000
vn 0.8087 -0.0000 -0.5882
vn -0.0000 -0.0000 -1.0000
vn -0.0000 1.0000 -0.0000
vn -0.0000 -1.0000 -0.0000
vn -0.0000 -0.0000 1.0000
vn -0.8087 -0.0000 -0.5882
vt 39.000000 -0.000000
vt 39.000000 1.000000
vt 17.000000 1.000000
vt 17.000000 -0.000000
vt 4.000000 1.000000
vt 4.000000 -0.000000
vt -4.000000 -0.000000
vt -4.000000 1.000000
vt 4.000000 17.000000
vt 20.000000 39.000000
vt -20.000000 39.000000
vt -4.000000 17.000000
vt 20.000000 -0.000000
vt 20.000000 1.000000
vt -20.000000 1.000000
vt -20.000000 -0.000000
s 1
usemtl test_texture
f 25/31/19 28/32/19 27/33/19 26/34/19
f 29/35/20 30/36/20 26/37/20 27/38/20
f 30/39/21 31/40/21 25/41/21 26/42/21
f 32/40/22 29/39/22 27/42/22 28/41/22
f 31/43/23 32/44/23 28/45/23 25/46/23
f 32/32/24 31/31/24 30/34/24 29/33/24
o entity0_brush12_purple
v 448.000000 -16.000010 -128.000000
v 448.000000 -15.999990 128.000000
v 448.000000 0.000010 128.000000
v 448.000000 -0.000010 -128.000000
v 688.000000 0.000010 128.000000
v 688.000000 -15.999990 128.000000
v 688.000000 -16.000010 -128.000000
v 688.000000 -0.000010 -128.000000
vn 1.0000 -0.0000 -0.0000
vn -0.0000 -0.0000 -1.0000
vn -0.0000 1.0000 -0.0000
vn -0.0000 -1.0000 -0.0000
vn -0.0000 -0.0000 1.0000
vn -1.0000 -0.0000 -0.0000
vt 8.000000 -1.000000
vt 8.000000 -0.000000
vt -8.000000 -0.000000
vt -8.000000 -1.000000
vt 43.000000 -0.000000
vt 43.000000 -1.000000
vt 28.000000 -1.000000
vt 28.000000 -0.000000
vt 43.000000 -8.000000
vt 43.000000 8.000000
vt 28.000000 8.000000
vt 28.000000 -8.000000
s 1
usemtl purple_test_texture
f 33/47/25 36/48/25 35/49/25 34/50/25
f 37/51/26 38/52/26 34/53/26 35/54/26
f 38/55/27 39/56/27 33/57/27 34/58/27
f 40/56/28 37/55/28 35/58/28 36/57/28
f 39/52/29 40/51/29 36/54/29 33/53/29
f 40/48/30 39/47/30 38/50/30 37/49/30
o entity0_brush13_purple
v 448.000000 -16.000011 -144.000000
v 448.000000 -16.000010 -128.000000
v 448.000000 127.999992 -128.000015
v 448.000000 127.999992 -144.000015
v 704.000000 127.999992 -128.000015
v 704.000000 -16.000010 -128.000000
v 704.000000 -16.000011 -144.000000
v 704.000000 127.999992 -144.000015
vn 1.0000 -0.0000 -0.0000
vn -0.0000 -0.0000 -1.0000
vn -0.0000 1.0000 -0.0000
vn -0.0000 -1.0000 -0.0000
vn -0.0000 -0.0000 1.0000
vn -1.0000 -0.0000 -0.0000
vt 9.000000 -1.000000
vt 9.000000 8.000000
vt 8.000000 8.000000
vt 8.000000 -1.000000
vt 44.000000 8.000000
vt 44.000000 -1.000000
vt 28.000000 -1.000000
vt 28.000000 8.000000
vt 44.000000 9.000000
vt 28.000000 9.000000
s 1
usemtl purple_test_texture
f 41/59/31 44/60/31 43/61/31 42/62/31
f 45/63/32 46/64/32 42/65/32 43/66/32
f 46/63/33 47/67/33 41/68/33 42/66/33
f 48/67/34 45/63/34 43/66/34 44/68/34
f 47/64/35 48/63/35 44/66/35 41/65/35
f 48/60/36 47/59/36 46/62/36 45/61/36
o entity0_brush14_purple
v 448.000000 -15.999990 128.000000
v 448.000000 -15.999990 144.000000
v 448.000000 128.000015 143.999985
v 448.000000 128.000015 127.999992
v 704.000000 128.000015 143.999985
v 704.000000 -15.999990 144.000000
v 704.000000 -15.999990 128.000000
v 704.000000 128.000015 127.999992
vn 1.0000 -0.0000 -0.0000
vn -0.0000 -0.0000 -1.0000
vn -0.0000 1.0000 -0.0000
vn -0.0000 -1.0000 -0.0000
vn -0.0000 -0.0000 1.0000
vn -1.0000 -0.0000 -0.0000
vt -8.000000 -1.000000
vt -8.000000 8.000000
vt -9.000000 8.000000
vt -9.000000 -1.000000
vt 44.000000 8.000000
vt 44.000000 -1.000000
vt 28.000000 -1.000000
vt 28.000000 8.000000
vt 44.000000 -9.000000
vt 44.000000 -8.000000
vt 28.000000 -8.000000
vt 28.000000 -9.000000
s 1
usemtl purple_test_texture
f 49/69/37 52/70/37 51/71/37 50/72/37
f 53/73/38 54/74/38 50/75/38 51/76/38
f 54/77/39 55/78/39 49/79/39 50/80/39
f 56/78/40 53/77/40 51/80/40 52/79/40
f 55/74/41 56/73/41 52/76/41 49/75/41
f 56/70/42 55/69/42 54/72/42 53/71/42
o entity0_brush15_purple
v 688.000000 -16.000010 -128.000000
v 688.000000 -16.000004 -48.000000
v 688.000000 128.000000 -48.000011
v 688.000000 127.999992 -128.000015
v 704.000000 128.000000 -48.000011
v 704.000000 -16.000004 -48.000000
v 704.000000 -16.000010 -128.000000
v 704.000000 127.999992 -128.000015
vn 1.0000 -0.0000 -0.0000
vn -0.0000 -0.0000 -1.0000
vn -0.0000 1.0000 -0.0000
vn -0.0000 -1.0000 -0.0000
vn -0.0000 -0.0000 1.0000
vn -1.0000 -0.0000 -0.0000
vt 8.000000 -1.000000
vt 8.000000 8.000000
vt 3.000000 8.000000
vt 3.000000 -1.000000
vt 44.000000 8.000000
vt 44.000000 -1.000000
vt 43.000000 -1.000000
vt 43.000000 8.000000
vt 44.000000 3.000000
vt 43.000000 3.000000
s 1
usemtl purple_test_texture
f 57/81/43 60/82/43 59/83/43 58/84/43
f 61/85/44 62/86/44 58/87/44 59/88/44
f 62/89/45 63/85/45 57/88/45 58/90/45
f 64/85/46 61/89/46 59/90/46 60/88/46
f 63/86/47 64/85/47 60/88/47 57/87/47
f 64/82/48 63/81/48 62/84/48 61/83/48
o entity0_brush16
v 256.000000 -64.000015 -160.000000
v 256.000000 -63.999989 160.000000
v 256.000000 192.000015 159.999985
v 256.000000 191.999985 -160.000015
v 272.000000 192.000015 159.999985
v 272.000000 -63.999989 160.000000
v 272.000000 -64.000015 -160.000000
v 272.000000 191.999985 -160.000015
vn 1.0000 -0.0000 -0.0000
vn -0.0000 -0.0000 -1.0000
vn -0.0000 1.0000 -0.0000
vn -0.0000 -1.0000 -0.0000
vn -0.0000 -0.0000 1.0000
vn -1.0000 -0.0000 -0.0000
vt 10.000000 -4.000000
vt 10.000000 12.000000
vt -10.000000 12.000000
vt -10.000000 -4.000000
vt 17.000000 12.000000
vt 17.000000 -4.000000
vt 16.000000 -4.000000
vt 16.000000 12.000000
vt 17.000000 -10.000000
vt 17.000000 10.000000
vt 16.000000 10.000000
vt 16.000000 -10.000000
s 1
usemtl test_texture
f 65/91/49 68/92/49 67/93/49 66/94/49
f 69/95/50 70/96/50 66/97/50 67/98/50
f 70/99/51 71/100/51 65/101/51 66/102/51
f 72/100/52 69/99/52 67/102/52 68/101/52
f 71/96/53 72/95/53 68/98/53 65/97/53
f 72/92/54 71/91/54 70/94/54 69/93/54
o entity0_brush17_purple
v 688.000000 -15.999996 48.000000
v 688.000000 -15.999990 128.000000
v 688.000000 128.000015 127.999992
v 688.000000 128.000000 47.999989
v 704.000000 128.000015 127.999992
v 704.000000 -15.999990 128.000000
v 704.000000 -15.999996 48.000000
v 704.000000 128.000000 47.999989
vn 1.0000 -0.0000 -0.0000
vn -0.0000 -0.0000 -1.0000
vn -0.0000 1.0000 -0.0000
vn -0.0000 -1.0000 -0.0000
vn -0.0000 -0.0000 1.0000
vn -1.0000 -0.0000 -0.0000
vt -3.000000 -1.000000
vt -3.000000 8.000000
vt -8.000000 8.000000
vt -8.000000 -1.000000
vt 44.000000 8.000000
vt 44.000000 -1.000000
vt 43.000000 -1.000000
vt 43.000000 8.000000
vt 44.000000 -8.000000
vt 44.000000 -3.000000
vt 43.000000 -3.000000
vt 43.000000 -8.000000
s 1
usemtl purple_test_texture
f 73/103/55 76/104/55 75/105/55 74/106/55
f 77/107/56 78/108/56 74/109/56 75/110/56
f 78/111/57 79/112/57 73/113/57 74/114/57
f 80/112/58 77/111/58 75/114/58 76/113/58
f 79/108/59 80/107/59 76/110/59 73/109/59
f 80/104/60 79/103/60 78/106/60 77/105/60
o entity0_brush18_purple
v 0.000000 -128.000046 -640.000000
v 0.000000 -128.000046 -624.000000
v 0.000000 -0.000047 -624.000000
v 0.000000 -0.000048 -640.000000
v 320.000000 -0.000047 -624.000000
v 320.000000 -128.000046 -624.000000
v 320.000000 -128.000046 -640.000000
v 320.000000 -0.000048 -640.000000
vn 1.0000 -0.0000 -0.0000
vn -0.0000 -0.0000 -1.0000
vn -0.0000 1.0000 -0.0000
vn -0.0000 -1.0000 -0.0000
vn -0.0000 -0.0000 1.0000
vn -1.0000 -0.0000 -0.0000
vt 40.000000 -8.000000
vt 40.000000 -0.000000
vt 39.000000 -0.000000
vt 39.000000 -8.000000
vt 20.000000 -0.000000
vt 20.000000 -8.000000
vt 0.000000 -8.000000
vt 0.000000 -0.000000
vt 20.000000 39.000000
vt 20.000000 40.000000
vt 0.000000 40.000000
vt 0.000000 39.000000
s 1
usemtl purple_test_texture
f 81/115/61 84/116/61 83/117/61 82/118/61
f 85/119/62 86/120/62 82/121/62 83/122/62
f 86/123/63 87/124/63 81/125/63 82/126/63
f 88/124/64 85/123/64 83/126/64 84/125/64
f 87/120/65 88/119/65 84/122/65 81/121/65
f 88/116/66 87/115/66 86/118/66 85/117/66
o entity0_brush19_blue
v -128.000000 -0.000011 -144.000000
v -128.000000 -0.000010 -128.000000
v -128.000000 127.999992 -128.000015
v -128.000000 127.999992 -144.000015
v -64.000000 127.999992 -128.000015
v -64.000000 -0.000010 -128.000000
v -64.000000 -0.000011 -144.000000
v -64.000000 127.999992 -144.000015
vn 1.0000 -0.0000 -0.0000
vn -0.0000 -0.0000 -1.0000
vn -0.0000 1.0000 -0.0000
vn -0.0000 -1.0000 -0.0000
vn -0.0000 -0.0000 1.0000
vn -1.0000 -0.0000 -0.0000
vt 9.000000 -0.000000
vt 9.000000 8.000000
vt 8.000000 8.000000
vt 8.000000 -0.000000
vt -4.000000 8.000000
vt -4.000000 -0.000000
vt -8.000000 -0.000000
vt -8.000000 8.000000
vt -4.000000 9.000000
vt -8.000000 9.000000
s 1
usemtl blue_test_texture
f 89/127/67 92/128/67 91/129/67 90/130/67
f 93/131/68 94/132/68 90/133/68 91/134/68
f 94/131/69 95/135/69 89/136/69 90/134/69
f 96/135/70 93/131/70 91/134/70 92/136/70
f 95/132/71 96/131/71 92/134/71 89/133/71
f 96/128/72 95/127/72 94/130/72 93/129/72
o portal_entrance_0
v 128.000000 -0.000010 -128.000000
v 128.000000 0.000010 128.000000
v 128.000000 112.000008 127.999992
v 128.000000 111.999992 -128.000015
v 144.000000 112.000008 127.999992
v 144.000000 0.000010 128.000000
v 144.000000 -0.000010 -128.000000
v 144.000000 111.999992 -128.000015
vn 1.0000 -0.0000 -0.0000
vn -0.0000 -0.0000 -1.0000
vn -0.0000 1.0000 -0.0000
vn -0.0000 -1.0000 -0.0000
vn -0.0000 -0.0000 1.0000
vn -1.0000 -0.0000 -0.0000
vt 8.000000 -0.000000
vt 8.000000 7.000000
vt -8.000000 7.000000
vt -8.000000 -0.000000
vt 9.000000 7.000000
vt 9.000000 -0.000000
vt 9.000000 -8.000000
vt 9.000000 8.000000
vt 8.000000 8.000000
vt 8.000000 -8.000000
s 1
usemtl purple_test_texture
f 97/137/73 100/138/73 99/139/73 98/140/73
f 101/141/74 102/142/74 98/137/74 99/138/74
f 102/143/75 103/144/75 97/145/75 98/146/75
f 104/144/76 101/143/76 99/146/76 100/145/76
f 103/142/77 104/141/77 100/138/77 97/137/77
f 104/138/78 103/137/78 102/140/78 101/139/78
o entity0_brush20_purple
v 64.000000 -0.000011 -144.000000
v 64.000000 -0.000010 -128.000000
v 64.000000 127.999992 -128.000015
v 64.000000 127.999992 -144.000015
v 128.000000 127.999992 -128.000015
v 128.000000 -0.000010 -128.000000
v 128.000000 -0.000011 -144.000000
v 128.000000 127.999992 -144.000015
vn 1.0000 -0.0000 -0.0000
vn -0.0000 -0.0000 -1.0000
vn -0.0000 1.0000 -0.0000
vn -0.0000 -1.0000 -0.0000
vn -0.0000 -0.0000 1.0000
vn -1.0000 -0.0000 -0.0000
vt 9.000000 -0.000000
vt 9.000000 8.000000
vt 8.000000 8.000000
vt 8.000000 -0.000000
vt 4.000000 -0.000000
vt 4.000000 8.000000
vt 8.000000 9.000000
vt 4.000000 9.000000
s 1
usemtl purple_test_texture
f 105/147/79 108/148/79 107/149/79 106/150/79
f 109/149/80 110/150/80 106/151/80 107/152/80
f 110/149/81 111/153/81 105/154/81 106/152/81
f 112/153/82 109/149/82 107/152/82 108/154/82
f 111/150/83 112/149/83 108/152/83 105/151/83
f 112/148/84 111/147/84 110/150/84 109/149/84
o entity0_brush21_blue
v -144.000000 111.999992 -128.000015
v -144.000000 112.000008 127.999992
v -144.000000 128.000015 127.999992
v -144.000000 127.999992 -128.000015
v -32.000000 128.000015 127.999992
v -32.000000 112.000008 127.999992
v -32.000000 111.999992 -128.000015
v -32.000000 127.999992 -128.000015
vn 1.0000 -0.0000 -0.0000
vn -0.0000 -0.0000 -1.0000
vn -0.0000 1.0000 -0.0000
vn -0.0000 -1.0000 -0.0000
vn -0.0000 -0.0000 1.0000
vn -1.0000 -0.0000 -0.0000
vt 8.000000 7.000000
vt 8.000000 8.000000
vt -8.000000 8.000000
vt -8.000000 7.000000
vt -2.000000 8.000000
vt -2.000000 7.000000
vt -9.000000 7.000000
vt -9.000000 8.000000
vt -2.000000 -8.000000
vt -9.000000 -8.000000
s 1
usemtl blue_test_texture
f 113/155/85 116/156/85 115/157/85 114/158/85
f 117/159/86 118/160/86 114/161/86 115/162/86
f 118/163/87 119/159/87 113/162/87 114/164/87
f 120/159/88 117/163/88 115/164/88 116/162/88
f 119/160/89 120/159/89 116/162/89 113/161/89
f 120/156/90 119/155/90 118/158/90 117/157/90
o entity0_brush22_purple
v 32.000000 111.999992 -128.000015
v 32.000000 112.000008 127.999992
v 32.000000 128.000015 127.999992
v 32.000000 127.999992 -128.000015
v 144.000000 128.000015 127.999992
v 144.000000 112.000008 127.999992
v 144.000000 111.999992 -128.000015
v 144.000000 127.999992 -128.000015
vn 1.0000 -0.0000 -0.0000
vn -0.0000 -0.0000 -1.0000
vn -0.0000 1.0000 -0.0000
vn -0.0000 -1.0000 -0.0000
vn -0.0000 -0.0000 1.0000
vn -1.0000 -0.0000 -0.0000
vt 8.000000 7.000000
vt 8.000000 8.000000
vt -8.000000 8.000000
vt -8.000000 7.000000
vt 9.000000 8.000000
vt 9.000000 7.000000
vt 2.000000 7.000000
vt 2.000000 8.000000
vt 9.000000 -8.000000
vt 2.000000 -8.000000
s 1
usemtl purple_test_texture
f 121/165/91 124/166/91 123/167/91 122/168/91
f 125/169/92 126/170/92 122/171/92 123/172/92
f 126/173/93 127/169/93 121/172/93 122/174/93
f 128/169/94 125/173/94 123/174/94 124/172/94
f 127/170/95 128/169/95 124/172/95 121/171/95
f 128/166/96 127/165/96 126/168/96 125/167/96
o entity0_brush23
v -32.000000 111.999992 -128.000015
v -32.000000 112.000008 127.999992
v -32.000000 128.000015 127.999992
v -32.000000 127.999992 -128.000015
v 32.000000 128.000015 127.999992
v 32.000000 112.000008 127.999992
v 32.000000 111.999992 -128.000015
v 32.000000 127.999992 -128.000015
vn 1.0000 -0.0000 -0.0000
vn -0.0000 -0.0000 -1.0000
vn -0.0000 1.0000 -0.0000
vn -0.0000 -1.0000 -0.0000
vn -0.0000 -0.0000 1.0000
vn -1.0000 -0.0000 -0.0000
vt 8.000000 7.000000
vt 8.000000 8.000000
vt -8.000000 8.000000
vt -8.000000 7.000000
vt 2.000000 8.000000
vt 2.000000 7.000000
vt -2.000000 7.000000
vt -2.000000 8.000000
vt 2.000000 -8.000000
vt -2.000000 -8.000000
s 1
usemtl test_texture
f 129/175/97 132/176/97 131/177/97 130/178/97
f 133/179/98 134/180/98 130/181/98 131/182/98
f 134/183/99 135/179/99 129/182/99 130/184/99
f 136/179/100 133/183/100 131/184/100 132/182/100
f 135/180/101 136/179/101 132/182/101 129/181/101
f 136/176/102 135/175/102 134/178/102 133/177/102
o entity0_brush24
v -64.000000 0.000011 144.000000
v -64.000000 0.000012 160.000000
v -64.000000 128.000015 159.999985
v -64.000000 128.000015 143.999985
v 64.000000 128.000015 159.999985
v 64.000000 0.000012 160.000000
v 64.000000 0.000011 144.000000
v 64.000000 128.000015 143.999985
vn 1.0000 -0.0000 -0.0000
vn -0.0000 -0.0000 -1.0000
vn -0.0000 1.0000 -0.0000
vn -0.0000 -1.0000 -0.0000
vn -0.0000 -0.0000 1.0000
vn -1.0000 -0.0000 -0.0000
vt -9.000000 -0.000000
vt -9.000000 8.000000
vt -10.000000 8.000000
vt -10.000000 -0.000000
vt 4.000000 8.000000
vt 4.000000 -0.000000
vt -4.000000 -0.000000
vt -4.000000 8.000000
vt 4.000000 -10.000000
vt 4.000000 -9.000000
vt -4.000000 -9.000000
vt -4.000000 -10.000000
s 1
usemtl test_texture
f 137/185/103 140/186/103 139/187/103 138/188/103
f 141/189/104 142/190/104 138/191/104 139/192/104
f 142/193/105 143/194/105 137/195/105 138/196/105
f 144/194/106 141/193/106 139/196/106 140/195/106
f 143/190/107 144/189/107 140/192/107 137/191/107
f 144/186/108 143/185/108 142/188/108 141/187/108
o entity0_brush25
v -128.000000 0.000019 256.000000
v -128.000000 0.000029 384.000000
v -128.000000 128.000031 384.000000
v -128.000000 128.000015 255.999985
v -112.000000 128.000031 384.000000
v -112.000000 0.000029 384.000000
v -112.000000 0.000019 256.000000
v -112.000000 128.000015 255.999985
vn 1.0000 -0.0000 -0.0000
vn -0.0000 -0.0000 -1.0000
vn -0.0000 1.0000 -0.0000
vn -0.0000 -1.0000 -0.0000
vn -0.0000 -0.0000 1.0000
vn -1.0000 -0.0000 -0.0000
vt -16.000000 -0.000000
vt -16.000000 8.000000
vt -24.000000 8.000000
vt -24.000000 -0.000000
vt -7.000000 8.000000
vt -7.000000 -0.000000
vt -8.000000 -0.000000
vt -8.000000 8.000000
vt -7.000000 -24.000000
vt -7.000000 -16.000000
vt -8.000000 -16.000000
vt -8.000000 -24.000000
s 1
usemtl test_texture
f 145/197/109 148/198/109 147/199/109 146/200/109
f 149/201/110 150/202/110 146/203/110 147/204/110
f 150/205/111 151/206/111 145/207/111 146/208/111
f 152/206/112 149/205/112 147/208/112 148/207/112
f 151/202/113 152/201/113 148/204/113 145/203/113
f 152/198/114 151/197/114 150/200/114 149/199/114
o entity0_brush26
v -256.000000 0.000019 256.000000
v -256.000000 0.000029 384.000000
v -256.000000 16.000029 384.000000
v -256.000000 16.000019 256.000000
v -128.000000 16.000029 384.000000
v -128.000000 0.000029 384.000000
v -128.000000 0.000019 256.000000
v -128.000000 16.000019 256.000000
vn 1.0000 -0.0000 -0.0000
vn -0.0000 -0.0000 -1.0000
vn -0.0000 1.0000 -0.0000
vn -0.0000 -1.0000 -0.0000
vn -0.0000 -0.0000 1.0000
vn -1.0000 -0.0000 -0.0000
vt -16.000000 -0.000000
vt -16.000000 1.000000
vt -24.000000 1.000000
vt -24.000000 -0.000000
vt -8.000000 1.000000
vt -8.000000 -0.000000
vt -8.000000 -24.000000
vt -8.000000 -16.000000
vt -16.000000 -16.000000
vt -16.000000 -24.000000
s 1
usemtl test_texture
f 153/209/115 156/210/115 155/211/115 154/212/115
f 157/213/116 158/214/116 154/209/116 155/210/116
f 158/215/117 159/216/117 153/217/117 154/218/117
f 160/216/118 157/215/118 155/218/118 156/217/118
f 159/214/119 160/213/119 156/210/119 153/209/119
f 160/210/120 159/209/120 158/212/120 157/211/120
o portal_exit_0
v 432.000000 -16.000010 -128.000000
v 432.000000 -15.999990 128.000000
v 432.000000 128.000015 127.999992
v 432.000000 127.999992 -128.000015
v 448.000000 128.000015 127.999992
v 448.000000 -15.999990 128.000000
v 448.000000 -16.000010 -128.000000
v 448.000000 127.999992 -128.000015
vn 1.0000 -0.0000 -0.0000
vn -0.0000 -0.0000 -1.0000
vn -0.0000 1.0000 -0.0000
vn -0.0000 -1.0000 -0.0000
vn -0.0000 -0.0000 1.0000
vn -1.0000 -0.0000 -0.0000
vt 8.000000 -1.000000
vt 8.000000 8.000000
vt -8.000000 8.000000
vt -8.000000 -1.000000
vt 28.000000 8.000000
vt 28.000000 -1.000000
vt 27.000000 -1.000000
vt 27.000000 8.000000
vt 28.000000 -8.000000
vt 27.000000 -8.000000
s 1
usemtl purple_test_texture
f 161/219/121 164/220/121 163/221/121 162/222/121
f 165/223/122 166/224/122 162/225/122 163/226/122
f 166/227/123 167/223/123 161/226/123 162/228/123
f 168/223/124 165/227/124 163/228/124 164/226/124
f 167/224/125 168/223/125 164/226/125 161/225/125
f 168/220/126 167/219/126 166/222/126 165/221/126
o entity0_brush4
v -320.000000 -16.000006 -64.000000
v -320.000000 -15.999995 64.000000
v -320.000000 128.000000 63.999989
v -320.000000 127.999992 -64.000008
v -304.000000 128.000000 63.999989
v -304.000000 -15.999995 64.000000
v -304.000000 -16.000006 -64.000000
v -304.000000 127.999992 -64.000008
vn 1.0000 -0.0000 -0.0000
vn -0.0000 -0.0000 -1.0000
vn -0.0000 1.0000 -0.0000
vn -0.0000 -1.0000 -0.0000
vn -0.0000 -0.0000 1.0000
vn -1.0000 -0.0000 -0.0000
vt 4.000000 -1.000000
vt 4.000000 8.000000
vt -4.000000 8.000000
vt -4.000000 -1.000000
vt -19.000000 8.000000
vt -19.000000 -1.000000
vt -20.000000 -1.000000
vt -20.000000 8.000000
vt -19.000000 -4.000000
vt -19.000000 4.000000
vt -20.000000 4.000000
vt -20.000000 -4.000000
s 1
usemtl blue_test_texture
f 169/229/127 172/230/127 171/231/127 170/232/127
f 173/233/128 174/234/128 170/235/128 171/236/128
f 174/237/129 175/238/129 169/239/129 170/240/129
f 176/238/130 173/237/130 171/240/130 172/239/130
f 175/234/131 176/233/131 172/236/131 169/235/131
f 176/230/132 175/229/132 174/232/132 173/231/132
o portal_entrance_1
v -64.000000 -0.000011 -144.000000
v -64.000000 -0.000010 -128.000000
v -64.000000 127.999992 -128.000015
v -64.000000 127.999992 -144.000015
v 64.000000 127.999992 -128.000015
v 64.000000 -0.000010 -128.000000
v 64.000000 -0.000011 -144.000000
v 64.000000 127.999992 -144.000015
vn 1.0000 -0.0000 -0.0000
vn -0.0000 -0.0000 -1.0000
vn -0.0000 1.0000 -0.0000
vn -0.0000 -1.0000 -0.0000
vn -0.0000 -0.0000 1.0000
vn -1.0000 -0.0000 -0.0000
vt 9.000000 -0.000000
vt 9.000000 8.000000
vt 8.000000 8.000000
vt 8.000000 -0.000000
vt 4.000000 8.000000
vt 4.000000 -0.000000
vt -4.000000 -0.000000
vt -4.000000 8.000000
vt 4.000000 9.000000
vt -4.000000 9.000000
s 1
usemtl test_texture
f 177/241/133 180/242/133 179/243/133 178/244/133
f 181/245/134 182/246/134 178/247/134 179/248/134
f 182/245/135 183/249/135 177/250/135 178/248/135
f 184/249/136 181/245/136 179/248/136 180/250/136
f 183/246/137 184/245/137 180/248/137 177/247/137
f 184/242/138 183/241/138 182/244/138 181/243/138
o portal_exit_1
v -64.000000 -128.000015 -272.000000
v -64.000000 -128.000015 -255.999985
v -64.000000 -0.000019 -256.000000
v -64.000000 -0.000021 -272.000000
v 64.000000 -0.000019 -256.000000
v 64.000000 -128.000015 -255.999985
v 64.000000 -128.000015 -272.000000
v 64.000000 -0.000021 -272.000000
vn 1.0000 -0.0000 -0.0000
vn -0.0000 -0.0000 -1.0000
vn -0.0000 1.0000 -0.0000
vn -0.0000 -1.0000 -0.0000
vn -0.0000 -0.0000 1.0000
vn -1.0000 -0.0000 -0.0000
vt 17.000000 -8.000000
vt 17.000000 -0.000000
vt 16.000000 -0.000000
vt 16.000000 -8.000000
vt 4.000000 -0.000000
vt 4.000000 -8.000000
vt -4.000000 -8.000000
vt -4.000000 -0.000000
vt 4.000000 16.000000
vt 4.000000 17.000000
vt -4.000000 17.000000
vt -4.000000 16.000000
s 1
usemtl test_texture
f 185/251/139 188/252/139 187/253/139 186/254/139
f 189/255/140 190/256/140 186/257/140 187/258/140
f 190/259/141 191/260/141 185/261/141 186/262/141
f 192/260/142 189/259/142 187/262/142 188/261/142
f 191/256/143 192/255/143 188/258/143 185/257/143
f 192/252/144 191/251/144 190/254/144 189/253/144
o entity0_brush7
v -320.000000 -128.000046 -640.000000
v -320.000000 -128.000046 -624.000000
v -320.000000 -0.000047 -624.000000
v -320.000000 -0.000048 -640.000000
v 0.000000 -0.000047 -624.000000
v 0.000000 -128.000046 -624.000000
v 0.000000 -128.000046 -640.000000
v 0.000000 -0.000048 -640.000000
vn 1.0000 -0.0000 -0.0000
vn -0.0000 -0.0000 -1.0000
vn -0.0000 1.0000 -0.0000
vn -0.0000 -1.0000 -0.0000
vn -0.0000 -0.0000 1.0000
vn -1.0000 -0.0000 -0.0000
vt 40.000000 -8.000000
vt 40.000000 -0.000000
vt 39.000000 -0.000000
vt 39.000000 -8.000000
vt 0.000000 -0.000000
vt 0.000000 -8.000000
vt -20.000000 -8.000000
vt -20.000000 -0.000000
vt 0.000000 39.000000
vt 0.000000 40.000000
vt -20.000000 40.000000
vt -20.000000 39.000000
s 1
usemtl blue_test_texture
f 193/263/145 196/264/145 195/265/145 194/266/145
f 197/267/146 198/268/146 194/269/146 195/270/146
f 198/271/147 199/272/147 193/273/147 194/274/147
f 200/272/148 197/271/148 195/274/148 196/273/148
f 199/268/149 200/267/149 196/270/149 193/269/149
f 200/264/150 199/263/150 198/266/150 197/265/150
o entity0_brush8
v -320.000000 -128.000046 -624.000000
v -64.000000 -128.000015 -272.000000
v -64.000000 -112.000023 -272.000000
v -320.000000 -112.000046 -624.000000
v 64.000000 -112.000023 -272.000000
v 64.000000 -128.000015 -272.000000
v 320.000000 -128.000046 -624.000000
v 320.000000 -112.000046 -624.000000
vn 0.8087 -0.0000 -0.5882
vn -0.0000 -0.0000 -1.0000
vn -0.0000 1.0000 -0.0000
vn -0.0000 -1.0000 -0.0000
vn -0.0000 -0.0000 1.0000
vn -0.8087 -0.0000 -0.5882
vt 39.000000 -8.000000
vt 39.000000 -7.000000
vt 17.000000 -7.000000
vt 17.000000 -8.000000
vt 4.000000 -7.000000
vt 4.000000 -8.000000
vt -4.000000 -8.000000
vt -4.000000 -7.000000
vt 4.000000 17.000000
vt 20.000000 39.000000
vt -20.000000 39.000000
vt -4.000000 17.000000
vt 20.000000 -8.000000
vt 20.000000 -7.000000
vt -20.000000 -7.000000
vt -20.000000 -8.000000
s 1
usemtl test_texture
f 201/275/151 204/276/151 203/277/151 202/278/151
f 205/279/152 206/280/152 202/281/152 203/282/152
f 206/283/153 207/284/153 201/285/153 202/286/153
f 208/284/154 205/283/154 203/286/154 204/285/154
f 207/287/155 208/288/155 204/289/155 201/290/155
f 208/276/156 207/275/156 206/278/156 205/277/156
o entity0_brush9_blue
v -320.000000 -128.000046 -624.000000
v -320.000000 -128.000046 -608.000000
v -320.000000 -0.000046 -608.000000
v -320.000000 -0.000047 -624.000000
v -64.000000 -0.000019 -256.000000
v -64.000000 -128.000015 -255.999985
v -64.000000 -128.000015 -272.000000
v -64.000000 -0.000021 -272.000000
vn 1.0000 -0.0000 -0.0000
vn 0.8087 -0.0000 -0.5882
vn -0.0000 1.0000 -0.0000
vn -0.0000 -1.0000 -0.0000
vn -0.8087 -0.0000 0.5882
vn -1.0000 -0.0000 -0.0000
vt 39.000000 -8.000000
vt 39.000000 -0.000000
vt 38.000000 -0.000000
vt 38.000000 -8.000000
vt 16.000000 -0.000000
vt 16.000000 -8.000000
vt -4.000000 16.000000
vt -4.000000 17.000000
vt -20.000000 39.000000
vt -20.000000 38.000000
vt 17.000000 -8.000000
vt 17.000000 -0.000000
s 1
usemtl blue_test_texture
f 209/291/157 212/292/157 211/293/157 210/294/157
f 213/295/158 214/296/158 210/294/158 211/293/158
f 214/297/159 215/298/159 209/299/159 210/300/159
f 216/298/160 213/297/160 211/300/160 212/299/160
f 215/296/161 216/295/161 212/293/161 209/294/161
f 215/301/162 214/296/162 213/295/162 216/302/162
