# Blender 5.1.1
# www.blender.org
mtllib sandbox_chamber.mtl
o entity0_brush0
v -64.000000 80.000000 -32.000008
v -64.000000 63.999996 -32.000004
v -64.000000 64.000000 31.999994
v -64.000000 80.000000 31.999994
v -32.000000 64.000008 63.999996
v -32.000000 80.000008 63.999992
v -32.000000 63.999996 -64.000008
v -32.000000 79.999992 -64.000008
v 32.000000 80.000008 63.999992
v 32.000000 64.000008 63.999996
v 64.000000 64.000000 31.999994
v 32.000000 63.999996 -64.000008
v 64.000000 63.999996 -32.000004
v 64.000000 80.000000 -32.000008
v 32.000000 79.999992 -64.000008
v 64.000000 80.000000 31.999994
vn -1.0000 -0.0000 -0.0000
vn -0.7071 -0.0000 0.7071
vn -0.7071 -0.0000 -0.7071
vn -0.0000 -0.0000 1.0000
vn -0.0000 -1.0000 -0.0000
vn -0.0000 1.0000 -0.0000
vn -0.0000 -0.0000 -1.0000
vn 0.7071 -0.0000 0.7071
vn 0.7071 -0.0000 -0.7071
vn 1.0000 -0.0000 -0.0000
vt 0.320000 0.800000
vt 0.320000 0.640000
vt -0.320000 0.640000
vt -0.320000 0.800000
vt -0.640000 0.640000
vt -0.640000 0.800000
vt 0.640000 0.640000
vt 0.640000 0.800000
vt 0.640000 -0.320000
vt 0.320000 -0.640000
vt -0.320000 -0.640000
vt -0.640000 -0.320000
vt -0.640000 0.320000
vt 0.640000 0.320000
s 1
usemtl marble4_blue
f 1/1/1 2/2/1 3/3/1 4/4/1
f 4/4/2 3/3/2 5/5/2 6/6/2
f 7/7/3 2/2/3 1/1/3 8/8/3
f 9/1/4 6/4/4 5/3/4 10/2/4
f 11/9/5 10/10/5 5/11/5 3/12/5 2/13/5 7/3/5 12/2/5 13/14/5
f 14/14/6 15/2/6 8/3/6 1/13/6 4/12/6 6/11/6 9/10/6 16/9/6
f 12/2/7 7/3/7 8/4/7 15/1/7
f 16/4/8 9/6/8 10/5/8 11/3/8
f 13/2/9 12/7/9 15/8/9 14/1/9
f 16/4/10 11/3/10 13/2/10 14/1/10
o entity0_brush1_black
v -1792.000000 -0.000067 -888.070801
v -1792.000000 0.000067 888.070801
v -1792.000000 1280.000122 888.070679
v -1792.000000 1279.999878 -888.070923
v -1776.141602 1280.000122 888.070679
v -1776.141602 0.000067 888.070801
v -1776.141602 -0.000067 -888.070801
v -1776.141602 1279.999878 -888.070923
vn -1.0000 -0.0000 -0.0000
vn -0.0000 -0.0000 1.0000
vn -0.0000 -1.0000 -0.0000
vn -0.0000 1.0000 -0.0000
vn -0.0000 -0.0000 -1.0000
vn 1.0000 -0.0000 -0.0000
vt 55.504425 -0.000000
vt -55.504425 -0.000000
vt -55.504425 80.000000
vt 55.504425 80.000000
vt -111.008850 80.000000
vt -112.000000 80.000000
vt -112.000000 -0.000000
vt -111.008850 -0.000000
vt -111.008850 -55.504425
vt -112.000000 -55.504425
vt -112.000000 55.504425
vt -111.008850 55.504425
s 1
usemtl test_texture
f 17/15/11 18/16/11 19/17/11 20/18/11
f 21/19/12 19/20/12 18/21/12 22/22/12
f 22/23/13 18/24/13 17/25/13 23/26/13
f 24/26/14 20/25/14 19/24/14 21/23/14
f 23/22/15 17/21/15 20/20/15 24/19/15
f 24/18/16 21/17/16 22/16/16 23/15/16
o entity0_brush10
v -160.000000 15.999994 -80.000000
v -160.000000 -1.777795 -80.000000
v -160.000000 -1.777783 80.000000
v -160.000000 16.000006 80.000000
v -80.000000 -1.777777 160.000000
v -80.000000 16.000011 160.000000
v -80.000000 -1.777801 -160.000000
v -80.000000 15.999988 -160.000000
v 80.000000 16.000011 160.000000
v 80.000000 -1.777777 160.000000
v 160.000000 -1.777783 80.000000
v 80.000000 -1.777801 -160.000000
v 160.000000 -1.777795 -80.000000
v 160.000000 15.999994 -80.000000
v 80.000000 15.999988 -160.000000
v 160.000000 16.000006 80.000000
vn -1.0000 -0.0000 -0.0000
vn -0.7071 -0.0000 0.7071
vn -0.7071 -0.0000 -0.7071
vn -0.0000 -0.0000 1.0000
vn -0.0000 -1.0000 -0.0000
vn -0.0000 1.0000 -0.0000
vn -0.0000 -0.0000 -1.0000
vn 0.7071 -0.0000 0.7071
vn 0.7071 -0.0000 -0.7071
vn 1.0000 -0.0000 -0.0000
vt 0.800000 0.160000
vt 0.800000 -0.017778
vt -0.800000 -0.017778
vt -0.800000 0.160000
vt -1.600000 -0.017778
vt -1.600000 0.160000
vt 1.600000 -0.017778
vt 1.600000 0.160000
vt 1.600000 -0.800000
vt 0.800000 -1.600000
vt -0.800000 -1.600000
vt -1.600000 -0.800000
vt -1.600000 0.800000
vt -0.800000 1.600000
vt 0.800000 1.600000
vt 1.600000 0.800000
s 1
usemtl marble4_blue
f 25/27/17 26/28/17 27/29/17 28/30/17
f 28/30/18 27/29/18 29/31/18 30/32/18
f 31/33/19 26/28/19 25/27/19 32/34/19
f 33/27/20 30/30/20 29/29/20 34/28/20
f 35/35/21 34/36/21 29/37/21 27/38/21 26/39/21 31/40/21 36/41/21 37/42/21
f 38/42/22 39/41/22 32/40/22 25/39/22 28/38/22 30/37/22 33/36/22 40/35/22
f 36/28/23 31/29/23 32/30/23 39/27/23
f 40/30/24 33/32/24 34/31/24 35/29/24
f 37/28/25 36/33/25 39/34/25 38/27/25
f 40/30/26 35/29/26 37/28/26 38/27/26
o entity0_brush11
v -1792.000000 -0.000067 -888.070801
v -1792.000000 0.000067 888.070801
v -1792.000000 1280.000122 888.070679
v -1792.000000 1279.999878 -888.070923
v -1776.141602 1280.000122 888.070679
v -1776.141602 0.000067 888.070801
v -1776.141602 -0.000067 -888.070801
v -1776.141602 1279.999878 -888.070923
vn -1.0000 -0.0000 -0.0000
vn -0.0000 -0.0000 1.0000
vn -0.0000 -1.0000 -0.0000
vn -0.0000 1.0000 -0.0000
vn -0.0000 -0.0000 -1.0000
vn 1.0000 -0.0000 -0.0000
vt 55.504425 -0.000000
vt -55.504425 -0.000000
vt -55.504425 80.000000
vt 55.504425 80.000000
vt -111.008850 80.000000
vt -112.000000 80.000000
vt -112.000000 -0.000000
vt -111.008850 -0.000000
vt -111.008850 -55.504425
vt -112.000000 -55.504425
vt -112.000000 55.504425
vt -111.008850 55.504425
s 1
usemtl test_texture
f 41/43/27 42/44/27 43/45/27 44/46/27
f 45/47/28 43/48/28 42/49/28 46/50/28
f 46/51/29 42/52/29 41/53/29 47/54/29
f 48/54/30 44/53/30 43/52/30 45/51/30
f 47/50/31 41/49/31 44/48/31 48/47/31
f 48/46/32 45/45/32 46/44/32 47/43/32
o entity0_brush12_black
v -888.070801 -0.000135 -1792.000000
v -1792.000000 -0.000067 -888.070801
v -1792.000000 1279.999878 -888.070923
v -888.070801 1279.999878 -1792.000122
v -1776.141602 1279.999878 -888.070923
v -1776.141602 -0.000067 -888.070801
v -888.070801 -0.000134 -1776.141602
v -888.070801 1279.999878 -1776.141724
vn -0.7071 -0.0000 -0.7071
vn -0.0000 -0.0000 1.0000
vn -0.0000 -1.0000 -0.0000
vn -0.0000 1.0000 -0.0000
vn 0.7071 -0.0000 0.7071
vn 1.0000 -0.0000 -0.0000
vt -55.504425 -0.000000
vt -112.000000 -0.000000
vt -112.000000 80.000000
vt -55.504425 80.000000
vt -111.008850 80.000000
vt -111.008850 -0.000000
vt -55.504425 111.008850
vt -111.008850 55.504425
vt -112.000000 55.504425
vt -55.504425 112.000000
vt 112.000000 -0.000000
vt 112.000000 80.000000
vt 111.008850 80.000000
vt 111.008850 -0.000000
s 1
usemtl test_texture
f 49/55/33 50/56/33 51/57/33 52/58/33
f 53/59/34 51/57/34 50/56/34 54/60/34
f 55/61/35 54/62/35 50/63/35 49/64/35
f 52/64/36 51/63/36 53/62/36 56/61/36
f 56/58/37 53/59/37 54/60/37 55/55/37
f 49/65/38 52/66/38 56/67/38 55/68/38
o entity0_brush13_white
v 1776.141602 -0.000067 -888.070801
v 1776.141602 0.000067 888.070801
v 1776.141602 1280.000122 888.070679
v 1776.141602 1279.999878 -888.070923
v 1792.000000 1280.000122 888.070679
v 1792.000000 0.000067 888.070801
v 1792.000000 -0.000067 -888.070801
v 1792.000000 1279.999878 -888.070923
vn -1.0000 -0.0000 -0.0000
vn -0.0000 -0.0000 1.0000
vn -0.0000 -1.0000 -0.0000
vn -0.0000 1.0000 -0.0000
vn -0.0000 -0.0000 -1.0000
vn 1.0000 -0.0000 -0.0000
vt 55.504425 -0.000000
vt -55.504425 -0.000000
vt -55.504425 80.000000
vt 55.504425 80.000000
vt 112.000000 80.000000
vt 111.008850 80.000000
vt 111.008850 -0.000000
vt 112.000000 -0.000000
vt 112.000000 -55.504425
vt 111.008850 -55.504425
vt 111.008850 55.504425
vt 112.000000 55.504425
s 1
usemtl test_texture
f 57/69/39 58/70/39 59/71/39 60/72/39
f 61/73/40 59/74/40 58/75/40 62/76/40
f 62/77/41 58/78/41 57/79/41 63/80/41
f 64/80/42 60/79/42 59/78/42 61/77/42
f 63/76/43 57/75/43 60/74/43 64/73/43
f 64/72/44 61/71/44 62/70/44 63/69/44
o entity0_brush14
v -888.070801 -16.000135 -1792.000000
v -888.070801 -16.000134 -1776.141602
v -888.070801 1279.999878 -1776.141724
v -888.070801 1279.999878 -1792.000122
v 888.070801 1279.999878 -1776.141724
v 888.070801 -16.000134 -1776.141602
v 888.070801 -16.000135 -1792.000000
v 888.070801 1279.999878 -1792.000122
vn -1.0000 -0.0000 -0.0000
vn -0.0000 -0.0000 1.0000
vn -0.0000 -1.0000 -0.0000
vn -0.0000 1.0000 -0.0000
vn -0.0000 -0.0000 -1.0000
vn 1.0000 -0.0000 -0.0000
vt 112.000000 -1.000000
vt 111.008850 -1.000000
vt 111.008850 80.000000
vt 112.000000 80.000000
vt 55.504425 80.000000
vt -55.504425 80.000000
vt -55.504425 -1.000000
vt 55.504425 -1.000000
vt 55.504425 111.008850
vt -55.504425 111.008850
vt -55.504425 112.000000
vt 55.504425 112.000000
s 1
usemtl test_texture
f 65/81/45 66/82/45 67/83/45 68/84/45
f 69/85/46 67/86/46 66/87/46 70/88/46
f 70/89/47 66/90/47 65/91/47 71/92/47
f 72/92/48 68/91/48 67/90/48 69/89/48
f 71/88/49 65/87/49 68/86/49 72/85/49
f 72/84/50 69/83/50 70/82/50 71/81/50
o entity0_brush15
v -888.070801 -15.999866 1776.141602
v -888.070801 -15.999865 1792.000000
v -888.070801 1280.000122 1791.999878
v -888.070801 1280.000122 1776.141479
v 888.070801 1280.000122 1791.999878
v 888.070801 -15.999865 1792.000000
v 888.070801 -15.999866 1776.141602
v 888.070801 1280.000122 1776.141479
vn -1.0000 -0.0000 -0.0000
vn -0.0000 -0.0000 1.0000
vn -0.0000 -1.0000 -0.0000
vn -0.0000 1.0000 -0.0000
vn -0.0000 -0.0000 -1.0000
vn 1.0000 -0.0000 -0.0000
vt -111.008850 -1.000000
vt -112.000000 -1.000000
vt -112.000000 80.000000
vt -111.008850 80.000000
vt 55.504425 80.000000
vt -55.504425 80.000000
vt -55.504425 -1.000000
vt 55.504425 -1.000000
vt 55.504425 -112.000000
vt -55.504425 -112.000000
vt -55.504425 -111.008850
vt 55.504425 -111.008850
s 1
usemtl test_texture
f 73/93/51 74/94/51 75/95/51 76/96/51
f 77/97/52 75/98/52 74/99/52 78/100/52
f 78/101/53 74/102/53 73/103/53 79/104/53
f 80/104/54 76/103/54 75/102/54 77/101/54
f 79/100/55 73/99/55 76/98/55 80/97/55
f 80/96/56 77/95/56 78/94/56 79/93/56
o entity0_brush16_white
v 888.070801 1280.000122 1791.999878
v 888.070801 1280.000122 1776.141479
v 888.070801 -15.999866 1776.141602
v 888.070801 -15.999865 1792.000000
v 1776.141602 -15.999933 888.070801
v 1776.141602 1280.000122 888.070679
v 1792.000000 -15.999933 888.070801
v 1792.000000 1280.000122 888.070679
vn -1.0000 -0.0000 -0.0000
vn -0.7071 -0.0000 -0.7071
vn -0.0000 -1.0000 -0.0000
vn -0.0000 1.0000 -0.0000
vn -0.0000 -0.0000 -1.0000
vn 0.7071 -0.0000 0.7071
vt -112.000000 80.000000
vt -111.008850 80.000000
vt -111.008850 -1.000000
vt -112.000000 -1.000000
vt -55.504425 -1.000000
vt -55.504425 80.000000
vt 55.504425 -112.000000
vt 55.504425 -111.008850
vt 111.008850 -55.504425
vt 112.000000 -55.504425
vt 112.000000 -1.000000
vt 111.008850 -1.000000
vt 111.008850 80.000000
vt 112.000000 80.000000
vt -55.254425 80.000000
vt -111.750000 80.000000
vt -111.750000 -1.000000
vt -55.254425 -1.000000
s 1
usemtl test_texture
f 81/105/57 82/106/57 83/107/57 84/108/57
f 85/109/58 83/107/58 82/106/58 86/110/58
f 84/111/59 83/112/59 85/113/59 87/114/59
f 88/114/60 86/113/60 82/112/60 81/111/60
f 87/115/61 85/116/61 86/117/61 88/118/61
f 88/119/62 81/120/62 84/121/62 87/122/62
o entity0_brush17_black
v -888.070801 1280.000122 1791.999878
v -1792.000000 1280.000122 888.070679
v -1792.000000 -15.999933 888.070801
v -888.070801 -15.999865 1792.000000
v -1776.141602 -15.999933 888.070801
v -888.070801 -15.999866 1776.141602
v -888.070801 1280.000122 1776.141479
v -1776.141602 1280.000122 888.070679
vn -0.7071 -0.0000 0.7071
vn -0.0000 -1.0000 -0.0000
vn -0.0000 1.0000 -0.0000
vn -0.0000 -0.0000 -1.0000
vn 0.7071 -0.0000 -0.7071
vn 1.0000 -0.0000 -0.0000
vt -111.750000 80.000000
vt -55.254425 80.000000
vt -55.254425 -1.000000
vt -111.750000 -1.000000
vt -55.504425 -112.000000
vt -112.000000 -55.504425
vt -111.008850 -55.504425
vt -55.504425 -111.008850
vt -111.008850 -1.000000
vt -112.000000 -1.000000
vt -112.000000 80.000000
vt -111.008850 80.000000
vt -55.504425 -1.000000
vt -55.504425 80.000000
s 1
usemtl test_texture
f 89/123/63 90/124/63 91/125/63 92/126/63
f 92/127/64 91/128/64 93/129/64 94/130/64
f 95/130/65 96/129/65 90/128/65 89/127/65
f 93/131/66 91/132/66 90/133/66 96/134/66
f 94/131/67 93/135/67 96/136/67 95/134/67
f 92/132/68 94/131/68 95/134/68 89/133/68
o entity0_brush18_white
v 888.070801 -16.000135 -1792.000000
v 888.070801 -16.000134 -1776.141602
v 888.070801 1279.999878 -1776.141724
v 888.070801 1279.999878 -1792.000122
v 1776.141602 -16.000067 -888.070801
v 1776.141602 1279.999878 -888.070923
v 1792.000000 1279.999878 -888.070923
v 1792.000000 -16.000067 -888.070801
vn -1.0000 -0.0000 -0.0000
vn -0.7071 -0.0000 0.7071
vn -0.0000 -0.0000 1.0000
vn -0.0000 -1.0000 -0.0000
vn -0.0000 1.0000 -0.0000
vn 0.7071 -0.0000 -0.7071
vt 112.000000 -1.000000
vt 111.008850 -1.000000
vt 111.008850 80.000000
vt 112.000000 80.000000
vt 55.504425 -1.000000
vt 55.504425 80.000000
vt 112.000000 55.504425
vt 111.008850 55.504425
vt 55.504425 111.008850
vt 55.504425 112.000000
s 1
usemtl test_texture
f 97/137/69 98/138/69 99/139/69 100/140/69
f 99/139/70 98/138/70 101/141/70 102/142/70
f 103/140/71 102/139/71 101/138/71 104/137/71
f 104/143/72 101/144/72 98/145/72 97/146/72
f 100/146/73 99/145/73 102/144/73 103/143/73
f 104/141/74 97/137/74 100/140/74 103/142/74
o entity0_brush19
v -448.000000 1056.000000 -224.000076
v -448.000000 287.999969 -224.000015
v -448.000000 288.000031 223.999985
v -448.000000 1056.000000 223.999924
v -432.000000 1056.000000 239.999924
v -432.000000 288.000031 239.999985
v -432.000000 287.999969 -240.000015
v -432.000000 1056.000000 -240.000076
vn -1.0000 -0.0000 -0.0000
vn -0.7071 -0.0000 0.7071
vn -0.7071 -0.0000 -0.7071
vn -0.0000 -1.0000 -0.0000
vn -0.0000 1.0000 -0.0000
vn 1.0000 -0.0000 -0.0000
vt 14.000000 66.000000
vt 14.000000 18.000000
vt -14.000000 18.000000
vt -14.000000 66.000000
vt -15.000000 66.000000
vt -15.000000 18.000000
vt 15.000000 18.000000
vt 15.000000 66.000000
vt -27.000000 -15.000000
vt -28.000000 -14.000000
vt -28.000000 14.000000
vt -27.000000 15.000000
s 1
usemtl blue_test_texture
f 105/147/75 106/148/75 107/149/75 108/150/75
f 109/151/76 108/150/76 107/149/76 110/152/76
f 111/153/77 106/148/77 105/147/77 112/154/77
f 110/155/78 107/156/78 106/157/78 111/158/78
f 112/158/79 105/157/79 108/156/79 109/155/79
f 109/151/80 110/152/80 111/153/80 112/154/80
o entity0_brush2
v -888.070801 -0.000135 -1792.000000
v -1792.000000 -0.000067 -888.070801
v -1792.000000 1279.999878 -888.070923
v -888.070801 1279.999878 -1792.000122
v -1776.141602 1279.999878 -888.070923
v -1776.141602 -0.000067 -888.070801
v -888.070801 -0.000134 -1776.141602
v -888.070801 1279.999878 -1776.141724
vn -0.7071 -0.0000 -0.7071
vn -0.0000 -0.0000 1.0000
vn -0.0000 -1.0000 -0.0000
vn -0.0000 1.0000 -0.0000
vn 0.7071 -0.0000 0.7071
vn 1.0000 -0.0000 -0.0000
vt -55.504425 -0.000000
vt -112.000000 -0.000000
vt -112.000000 80.000000
vt -55.504425 80.000000
vt -111.008850 80.000000
vt -111.008850 -0.000000
vt -55.504425 111.008850
vt -111.008850 55.504425
vt -112.000000 55.504425
vt -55.504425 112.000000
vt 112.000000 -0.000000
vt 112.000000 80.000000
vt 111.008850 80.000000
vt 111.008850 -0.000000
s 1
usemtl test_texture
f 113/159/81 114/160/81 115/161/81 116/162/81
f 117/163/82 115/161/82 114/160/82 118/164/82
f 119/165/83 118/166/83 114/167/83 113/168/83
f 116/168/84 115/167/84 117/166/84 120/165/84
f 120/162/85 117/163/85 118/164/85 119/159/85
f 113/169/86 116/170/86 120/171/86 119/172/86
o entity0_brush20
v -201.372589 287.999969 -448.000031
v -217.372589 287.999969 -432.000031
v -217.372589 1056.000000 -432.000092
v -201.372589 1056.000000 -448.000092
v 217.372589 1056.000000 -432.000092
v 217.372589 287.999969 -432.000031
v 201.372589 287.999969 -448.000031
v 201.372589 1056.000000 -448.000092
vn -0.7071 -0.0000 -0.7071
vn -0.0000 -0.0000 1.0000
vn -0.0000 -1.0000 -0.0000
vn -0.0000 1.0000 -0.0000
vn -0.0000 -0.0000 -1.0000
vn 0.7071 -0.0000 -0.7071
vt 28.707108 18.000000
vt 27.707108 18.000000
vt 27.707108 66.000000
vt 28.707108 66.000000
vt 13.585787 66.000000
vt -13.585787 66.000000
vt -13.585787 18.000000
vt 13.585787 18.000000
vt 13.585787 27.000000
vt -13.585787 27.000000
vt -12.585787 28.000000
vt 12.585787 28.000000
vt 12.585787 18.000000
vt -12.585787 18.000000
vt -12.585787 66.000000
vt 12.585787 66.000000
s 1
usemtl blue_test_texture
f 121/173/87 122/174/87 123/175/87 124/176/87
f 125/177/88 123/178/88 122/179/88 126/180/88
f 126/181/89 122/182/89 121/183/89 127/184/89
f 128/184/90 124/183/90 123/182/90 125/181/90
f 127/185/91 121/186/91 124/187/91 128/188/91
f 128/176/92 125/175/92 126/174/92 127/173/92
o portal_entrance_1
v -432.000000 -0.000016 -217.372589
v -432.000000 0.000016 217.372589
v -217.372589 0.000033 432.000000
v -217.372589 -0.000033 -432.000000
v 217.372589 0.000033 432.000000
v 432.000000 -0.000016 -217.372589
v 217.372589 -0.000033 -432.000000
v 432.000000 0.000016 217.372589
vn -0.0000 1.0000 -0.0000
vt 13.500000 6.792893
vt 6.792893 13.500000
vt -6.792893 13.500000
vt -13.500000 6.792893
vt -13.500000 -6.792893
vt -6.792893 -13.500000
vt 6.792893 -13.500000
vt 13.500000 -6.792893
s 1
usemtl __TB_empty
f 134/189/93 135/190/93 132/191/93 129/192/93 130/193/93 131/194/93 133/195/93 136/196/93
o entity0_brush22
v 64.000000 63.999996 -32.000004
v 64.000000 64.000000 31.999994
v 64.000000 80.000000 31.999994
v 64.000000 80.000000 -32.000008
v 464.000000 80.000000 31.999994
v 464.000000 64.000000 31.999994
v 464.000000 63.999996 -32.000004
v 464.000000 80.000000 -32.000008
vn -1.0000 -0.0000 -0.0000
vn -0.0000 -0.0000 1.0000
vn -0.0000 -1.0000 -0.0000
vn -0.0000 1.0000 -0.0000
vn -0.0000 -0.0000 -1.0000
vn 1.0000 -0.0000 -0.0000
vt 0.320000 0.640000
vt -0.320000 0.640000
vt -0.320000 0.800000
vt 0.320000 0.800000
vt 4.640000 0.800000
vt 0.640000 0.800000
vt 0.640000 0.640000
vt 4.640000 0.640000
vt 4.640000 -0.320000
vt 0.640000 -0.320000
vt 0.640000 0.320000
vt 4.640000 0.320000
s 1
usemtl marble4_blue
f 137/197/94 138/198/94 139/199/94 140/200/94
f 141/201/95 139/202/95 138/203/95 142/204/95
f 142/205/96 138/206/96 137/207/96 143/208/96
f 144/208/97 140/207/97 139/206/97 141/205/97
f 143/204/98 137/203/98 140/202/98 144/201/98
f 144/200/99 141/199/99 142/198/99 143/197/99
o entity0_brush23
v -464.000000 63.999996 -32.000004
v -464.000000 64.000000 31.999994
v -464.000000 80.000000 31.999994
v -464.000000 80.000000 -32.000008
v -64.000000 80.000000 31.999994
v -64.000000 64.000000 31.999994
v -64.000000 63.999996 -32.000004
v -64.000000 80.000000 -32.000008
vn -1.0000 -0.0000 -0.0000
vn -0.0000 -0.0000 1.0000
vn -0.0000 -1.0000 -0.0000
vn -0.0000 1.0000 -0.0000
vn -0.0000 -0.0000 -1.0000
vn 1.0000 -0.0000 -0.0000
vt 0.320000 0.640000
vt -0.320000 0.640000
vt -0.320000 0.800000
vt 0.320000 0.800000
vt -0.640000 0.800000
vt -4.640000 0.800000
vt -4.640000 0.640000
vt -0.640000 0.640000
vt -0.640000 -0.320000
vt -4.640000 -0.320000
vt -4.640000 0.320000
vt -0.640000 0.320000
s 1
usemtl marble4_blue
f 145/209/100 146/210/100 147/211/100 148/212/100
f 149/213/101 147/214/101 146/215/101 150/216/101
f 150/217/102 146/218/102 145/219/102 151/220/102
f 152/220/103 148/219/103 147/218/103 149/217/103
f 151/216/104 145/215/104 148/214/104 152/213/104
f 152/212/105 149/211/105 150/210/105 151/209/105
o entity0_brush24
v -32.000000 63.999966 -464.000000
v -32.000000 63.999996 -64.000008
v -32.000000 79.999992 -64.000008
v -32.000000 79.999962 -464.000000
v 32.000000 79.999992 -64.000008
v 32.000000 63.999996 -64.000008
v 32.000000 63.999966 -464.000000
v 32.000000 79.999962 -464.000000
vn -1.0000 -0.0000 -0.0000
vn -0.0000 -0.0000 1.0000
vn -0.0000 -1.0000 -0.0000
vn -0.0000 1.0000 -0.0000
vn -0.0000 -0.0000 -1.0000
vn 1.0000 -0.0000 -0.0000
vt 4.640000 0.640000
vt 0.640000 0.640000
vt 0.640000 0.800000
vt 4.640000 0.800000
vt 0.320000 0.800000
vt -0.320000 0.800000
vt -0.320000 0.640000
vt 0.320000 0.640000
vt -0.320000 4.640000
vt 0.320000 4.640000
s 1
usemtl marble4_blue
f 153/221/106 154/222/106 155/223/106 156/224/106
f 157/225/107 155/226/107 154/227/107 158/228/107
f 158/228/108 154/227/108 153/229/108 159/230/108
f 160/230/109 156/229/109 155/227/109 157/228/109
f 159/228/110 153/227/110 156/226/110 160/225/110
f 160/224/111 157/223/111 158/222/111 159/221/111
o entity0_brush25
v -32.000000 64.000008 63.999996
v -32.000000 64.000038 464.000000
v -32.000000 80.000038 464.000000
v -32.000000 80.000008 63.999992
v 32.000000 80.000038 464.000000
v 32.000000 64.000038 464.000000
v 32.000000 64.000008 63.999996
v 32.000000 80.000008 63.999992
vn -1.0000 -0.0000 -0.0000
vn -0.0000 -0.0000 1.0000
vn -0.0000 -1.0000 -0.0000
vn -0.0000 1.0000 -0.0000
vn -0.0000 -0.0000 -1.0000
vn 1.0000 -0.0000 -0.0000
vt -0.640000 0.640000
vt -4.640000 0.640000
vt -4.640000 0.800000
vt -0.640000 0.800000
vt 0.320000 0.800000
vt -0.320000 0.800000
vt -0.320000 0.640000
vt 0.320000 0.640000
vt 0.320000 -4.640000
vt -0.320000 -4.640000
vt -0.320000 -0.640000
vt 0.320000 -0.640000
s 1
usemtl marble4_blue
f 161/231/112 162/232/112 163/233/112 164/234/112
f 165/235/113 163/236/113 162/237/113 166/238/113
f 166/239/114 162/240/114 161/241/114 167/242/114
f 168/242/115 164/241/115 163/240/115 165/239/115
f 167/238/116 161/237/116 164/236/116 168/235/116
f 168/234/117 165/233/117 166/232/117 167/231/117
o entity0_brush26
v 464.000000 80.000000 -32.000008
v 464.000000 63.999996 -32.000004
v 464.000000 64.000000 31.999994
v 464.000000 80.000000 31.999994
v 544.000000 -15.999997 32.000000
v 544.000000 -16.000002 -31.999998
v 544.000000 0.000002 32.000000
v 544.000000 -0.000002 -32.000000
vn -1.0000 -0.0000 -0.0000
vn -0.7071 -0.7071 -0.0000
vn -0.0000 -0.0000 1.0000
vn -0.0000 -0.0000 -1.0000
vn 0.7071 0.7071 -0.0000
vn 1.0000 -0.0000 -0.0000
vt 0.320000 0.800000
vt 0.320000 0.640000
vt -0.320000 0.640000
vt -0.320000 0.800000
vt 5.440000 -0.320000
vt 4.640000 -0.320000
vt 4.640000 0.320000
vt 5.440000 0.320000
vt 5.440000 -0.000000
vt 4.640000 0.800000
vt 4.640000 0.640000
vt 5.440000 -0.160000
vt 0.320000 -0.160000
vt 0.320000 -0.000000
vt -0.320000 -0.000000
vt -0.320000 -0.160000
s 1
usemtl marble4_blue
f 169/243/118 170/244/118 171/245/118 172/246/118
f 173/247/119 171/248/119 170/249/119 174/250/119
f 175/251/120 172/252/120 171/253/120 173/254/120
f 174/254/121 170/253/121 169/252/121 176/251/121
f 176/250/122 169/249/122 172/248/122 175/247/122
f 174/255/123 176/256/123 175/257/123 173/258/123
o entity0_brush27
v -544.000000 -15.999997 32.000000
v -544.000000 0.000002 32.000000
v -544.000000 -0.000002 -31.858408
v -544.000000 -16.000002 -31.858406
v -464.000000 80.000000 -31.858414
v -464.000000 80.000000 31.999994
v -464.000000 64.000000 31.999994
v -464.000000 63.999996 -31.858414
vn -1.0000 -0.0000 -0.0000
vn -0.7071 0.7071 -0.0000
vn -0.0000 -0.0000 1.0000
vn -0.0000 -0.0000 -1.0000
vn 0.7071 -0.7071 -0.0000
vn 1.0000 -0.0000 -0.0000
vt -0.320000 -0.160000
vt -0.320000 -0.000000
vt 0.318584 -0.000000
vt 0.318584 -0.160000
vt -4.640000 0.318584
vt -5.440000 0.318584
vt -5.440000 -0.320000
vt -4.640000 -0.320000
vt -4.640000 0.800000
vt -5.440000 -0.000000
vt -5.440000 -0.160000
vt -4.640000 0.640000
vt -4.640000 1.200000
vt -5.440000 0.400000
vt -5.440000 0.560000
vt -4.640000 1.360000
vt 0.318584 0.640000
vt 0.318584 0.800000
vt -0.320000 0.800000
vt -0.320000 0.640000
s 1
usemtl marble4_blue
f 177/259/124 178/260/124 179/261/124 180/262/124
f 181/263/125 179/264/125 178/265/125 182/266/125
f 182/267/126 178/268/126 177/269/126 183/270/126
f 184/271/127 180/272/127 179/273/127 181/274/127
f 183/266/128 177/265/128 180/264/128 184/263/128
f 184/275/129 181/276/129 182/277/129 183/278/129
o entity0_brush28
v -48.000000 64.000038 464.000000
v -48.000000 -15.999959 544.000000
v -32.000000 0.000041 544.000000
v -32.000000 80.000038 464.000000
v 32.000000 0.000041 544.000000
v 48.000000 -15.999959 544.000000
v 32.000000 80.000038 464.000000
v 48.000000 64.000038 464.000000
vn -0.5774 0.5774 0.5774
vn -0.0000 -0.0000 1.0000
vn -0.0000 0.7071 0.7071
vn -0.0000 -0.7071 -0.7071
vn -0.0000 -0.0000 -1.0000
vn 0.5774 0.5774 0.5774
vt -1.240000 -4.200000
vt -1.240000 -5.000000
vt -1.080000 -5.000000
vt -1.080000 -4.200000
vt 0.320000 -0.000000
vt -0.320000 -0.000000
vt -0.480000 -0.160000
vt 0.480000 -0.160000
vt 0.320000 -4.640000
vt -0.320000 -4.640000
vt -0.320000 -5.440000
vt 0.320000 -5.440000
vt 0.480000 -5.440000
vt -0.480000 -5.440000
vt -0.480000 -4.640000
vt 0.480000 -4.640000
vt 0.480000 0.640000
vt -0.480000 0.640000
vt -0.320000 0.800000
vt 0.320000 0.800000
vt -0.160000 -5.160000
vt 0.000000 -5.160000
vt 0.000000 -4.360000
vt -0.160000 -4.360000
s 1
usemtl marble4_blue
f 185/279/130 186/280/130 187/281/130 188/282/130
f 189/283/131 187/284/131 186/285/131 190/286/131
f 191/287/132 188/288/132 187/289/132 189/290/132
f 190/291/133 186/292/133 185/293/133 192/294/133
f 192/295/134 185/296/134 188/297/134 191/298/134
f 189/299/135 190/300/135 192/301/135 191/302/135
o entity0_brush29
v -48.000000 -16.000042 -544.000000
v -48.000000 63.999966 -464.000000
v -32.000000 79.999962 -464.000000
v -32.000000 -0.000041 -544.000000
v 32.000000 79.999962 -464.000000
v 48.000000 63.999966 -464.000000
v 48.000000 -16.000042 -544.000000
v 32.000000 -0.000041 -544.000000
vn -0.5774 0.5774 -0.5774
vn -0.0000 -0.0000 1.0000
vn -0.0000 -0.7071 0.7071
vn -0.0000 0.7071 -0.7071
vn -0.0000 -0.0000 -1.0000
vn 0.5774 0.5774 -0.5774
vt -0.080000 4.720000
vt -0.080000 3.920000
vt 0.080000 3.920000
vt 0.080000 4.720000
vt 0.320000 0.800000
vt -0.320000 0.800000
vt -0.480000 0.640000
vt 0.480000 0.640000
vt 0.480000 4.640000
vt -0.480000 4.640000
vt -0.480000 5.440000
vt 0.480000 5.440000
vt 0.320000 5.440000
vt -0.320000 5.440000
vt -0.320000 4.640000
vt 0.320000 4.640000
vt 0.480000 -0.160000
vt -0.480000 -0.160000
vt -0.320000 -0.000000
vt 0.320000 -0.000000
vt 0.840000 4.720000
vt 0.840000 3.920000
vt 1.000000 3.920000
vt 1.000000 4.720000
s 1
usemtl marble4_blue
f 193/303/136 194/304/136 195/305/136 196/306/136
f 197/307/137 195/308/137 194/309/137 198/310/137
f 198/311/138 194/312/138 193/313/138 199/314/138
f 200/315/139 196/316/139 195/317/139 197/318/139
f 199/319/140 193/320/140 196/321/140 200/322/140
f 200/323/141 197/324/141 198/325/141 199/326/141
o entity0_brush3
v 1776.141602 -0.000067 -888.070801
v 1776.141602 0.000067 888.070801
v 1776.141602 1280.000122 888.070679
v 1776.141602 1279.999878 -888.070923
v 1792.000000 1280.000122 888.070679
v 1792.000000 0.000067 888.070801
v 1792.000000 -0.000067 -888.070801
v 1792.000000 1279.999878 -888.070923
vn -1.0000 -0.0000 -0.0000
vn -0.0000 -0.0000 1.0000
vn -0.0000 -1.0000 -0.0000
vn -0.0000 1.0000 -0.0000
vn -0.0000 -0.0000 -1.0000
vn 1.0000 -0.0000 -0.0000
vt 55.504425 -0.000000
vt -55.504425 -0.000000
vt -55.504425 80.000000
vt 55.504425 80.000000
vt 112.000000 80.000000
vt 111.008850 80.000000
vt 111.008850 -0.000000
vt 112.000000 -0.000000
vt 112.000000 -55.504425
vt 111.008850 -55.504425
vt 111.008850 55.504425
vt 112.000000 55.504425
s 1
usemtl test_texture
f 201/327/142 202/328/142 203/329/142 204/330/142
f 205/331/143 203/332/143 202/333/143 206/334/143
f 206/335/144 202/336/144 201/337/144 207/338/144
f 208/338/145 204/337/145 203/336/145 205/335/145
f 207/334/146 201/333/146 204/332/146 208/331/146
f 208/330/147 205/329/147 206/328/147 207/327/147
o portal_exit_1
v -432.000000 1008.000000 -217.372665
v -432.000000 1008.000000 217.372513
v -217.372589 1008.000061 431.999939
v -217.372589 1007.999939 -432.000061
v 217.372589 1008.000061 431.999939
v 432.000000 1008.000000 217.372513
v 217.372589 1007.999939 -432.000061
v 432.000000 1008.000000 -217.372665
vn -0.0000 -1.0000 -0.0000
vt 13.500000 -6.792893
vt 6.792893 -13.500000
vt -6.792893 -13.500000
vt -13.500000 -6.792893
vt -13.500000 6.792893
vt -6.792893 13.500000
vt 6.792893 13.500000
vt 13.500000 6.792893
s 1
usemtl __TB_empty
f 214/339/148 213/340/148 211/341/148 210/342/148 209/343/148 212/344/148 215/345/148 216/346/148
o entity0_brush31
v -432.000000 1056.000000 -217.372665
v -432.000000 1056.000000 -240.000076
v -432.000000 287.999969 -240.000015
v -432.000000 287.999969 -217.372604
v -224.000000 287.999969 -448.000031
v -224.000000 1056.000000 -448.000092
v -201.372589 287.999969 -448.000031
v -201.372589 1056.000000 -448.000092
vn -1.0000 -0.0000 -0.0000
vn -0.7071 -0.0000 -0.7071
vn -0.0000 -1.0000 -0.0000
vn -0.0000 1.0000 -0.0000
vn -0.0000 -0.0000 -1.0000
vn 0.7071 -0.0000 0.7071
vt 13.585787 66.000000
vt 15.000000 66.000000
vt 15.000000 18.000000
vt 13.585787 18.000000
vt 28.000000 18.000000
vt 28.000000 66.000000
vt -27.000000 13.585787
vt -27.000000 15.000000
vt -14.000000 28.000000
vt -12.585787 28.000000
vt -12.585787 18.000000
vt -14.000000 18.000000
vt -14.000000 66.000000
vt -12.585787 66.000000
vt 28.707108 66.000000
vt 14.292894 66.000000
vt 14.292894 18.000000
vt 28.707108 18.000000
s 1
usemtl test_texture
f 217/347/149 218/348/149 219/349/149 220/350/149
f 221/351/150 219/349/150 218/348/150 222/352/150
f 220/353/151 219/354/151 221/355/151 223/356/151
f 224/356/152 222/355/152 218/354/152 217/353/152
f 223/357/153 221/358/153 222/359/153 224/360/153
f 224/361/154 217/362/154 220/363/154 223/364/154
o entity0_brush32
v -432.000000 288.000031 217.372574
v -432.000000 288.000031 239.999985
v -432.000000 1056.000000 239.999924
v -432.000000 1056.000000 217.372513
v -224.000000 288.000031 447.999969
v -224.000000 1056.000000 447.999908
v -201.372589 1056.000000 447.999908
v -201.372589 288.000031 447.999969
vn -1.0000 -0.0000 -0.0000
vn -0.7071 -0.0000 0.7071
vn -0.0000 -0.0000 1.0000
vn -0.0000 -1.0000 -0.0000
vn -0.0000 1.0000 -0.0000
vn 0.7071 -0.0000 -0.7071
vt -13.585787 18.000000
vt -15.000000 18.000000
vt -15.000000 66.000000
vt -13.585787 66.000000
vt -28.000000 18.000000
vt -28.000000 66.000000
vt -12.585787 66.000000
vt -14.000000 66.000000
vt -14.000000 18.000000
vt -12.585787 18.000000
vt -12.585787 -28.000000
vt -14.000000 -28.000000
vt -27.000000 -15.000000
vt -27.000000 -13.585787
vt -28.707108 18.000000
vt -14.292894 18.000000
vt -14.292894 66.000000
vt -28.707108 66.000000
s 1
usemtl test_texture
f 225/365/155 226/366/155 227/367/155 228/368/155
f 227/367/156 226/366/156 229/369/156 230/370/156
f 231/371/157 230/372/157 229/373/157 232/374/157
f 232/375/158 229/376/158 226/377/158 225/378/158
f 228/378/159 227/377/159 230/376/159 231/375/159
f 232/379/160 225/380/160 228/381/160 231/382/160
o entity0_brush33
v 432.000000 287.999969 -240.000015
v 432.000000 288.000031 239.999985
v 432.000000 1056.000000 239.999924
v 432.000000 1056.000000 -240.000076
v 448.000000 288.000031 223.999985
v 448.000000 287.999969 -224.000015
v 448.000000 1056.000000 -224.000076
v 448.000000 1056.000000 223.999924
vn -1.0000 -0.0000 -0.0000
vn -0.0000 -1.0000 -0.0000
vn -0.0000 1.0000 -0.0000
vn 0.7071 -0.0000 0.7071
vn 0.7071 -0.0000 -0.7071
vn 1.0000 -0.0000 -0.0000
vt 15.000000 18.000000
vt -15.000000 18.000000
vt -15.000000 66.000000
vt 15.000000 66.000000
vt 28.000000 -14.000000
vt 27.000000 -15.000000
vt 27.000000 15.000000
vt 28.000000 14.000000
vt -14.000000 66.000000
vt -14.000000 18.000000
vt 14.000000 18.000000
vt 14.000000 66.000000
s 1
usemtl blue_test_texture
f 233/383/161 234/384/161 235/385/161 236/386/161
f 237/387/162 234/388/162 233/389/162 238/390/162
f 239/390/163 236/389/163 235/388/163 240/387/163
f 240/391/164 235/385/164 234/384/164 237/392/164
f 238/393/165 233/383/165 236/386/165 239/394/165
f 238/393/166 239/394/166 240/391/166 237/392/166
o entity0_brush34
v 432.000000 1056.000000 -217.372665
v 201.372589 1056.000000 -448.000092
v 201.372589 287.999969 -448.000031
v 432.000000 287.999969 -217.372604
v 224.000000 287.999969 -448.000031
v 432.000000 287.999969 -240.000015
v 432.000000 1056.000000 -240.000076
v 224.000000 1056.000000 -448.000092
vn -0.7071 -0.0000 0.7071
vn -0.0000 -1.0000 -0.0000
vn -0.0000 1.0000 -0.0000
vn -0.0000 -0.0000 -1.0000
vn 0.7071 -0.0000 -0.7071
vn 1.0000 -0.0000 -0.0000
vt 14.292894 66.000000
vt 28.707108 66.000000
vt 28.707108 18.000000
vt 14.292894 18.000000
vt 27.000000 13.585787
vt 12.585787 28.000000
vt 14.000000 28.000000
vt 27.000000 15.000000
vt 14.000000 18.000000
vt 12.585787 18.000000
vt 12.585787 66.000000
vt 14.000000 66.000000
vt 15.000000 18.000000
vt 28.000000 18.000000
vt 28.000000 66.000000
vt 15.000000 66.000000
vt 13.585787 66.000000
vt 13.585787 18.000000
s 1
usemtl test_texture
f 241/395/167 242/396/167 243/397/167 244/398/167
f 244/399/168 243/400/168 245/401/168 246/402/168
f 247/402/169 248/401/169 242/400/169 241/399/169
f 245/403/170 243/404/170 242/405/170 248/406/170
f 246/407/171 245/408/171 248/409/171 247/410/171
f 247/410/172 241/411/172 244/412/172 246/407/172
o entity0_brush35
v 432.000000 288.000031 217.372574
v 201.372589 288.000031 447.999969
v 201.372589 1056.000000 447.999908
v 432.000000 1056.000000 217.372513
v 224.000000 1056.000000 447.999908
v 224.000000 288.000031 447.999969
v 432.000000 288.000031 239.999985
v 432.000000 1056.000000 239.999924
vn -0.7071 -0.0000 -0.7071
vn -0.0000 -0.0000 1.0000
vn -0.0000 -1.0000 -0.0000
vn -0.0000 1.0000 -0.0000
vn 0.7071 -0.0000 0.7071
vn 1.0000 -0.0000 -0.0000
vt 26.292892 18.000000
vt 11.878679 18.000000
vt 11.878679 66.000000
vt 26.292892 66.000000
vt 14.000000 66.000000
vt 12.585787 66.000000
vt 12.585787 18.000000
vt 14.000000 18.000000
vt 27.000000 -15.000000
vt 14.000000 -28.000000
vt 12.585787 -28.000000
vt 27.000000 -13.585787
vt -15.000000 66.000000
vt -28.000000 66.000000
vt -28.000000 18.000000
vt -15.000000 18.000000
vt -13.585787 18.000000
vt -13.585787 66.000000
s 1
usemtl test_texture
f 249/413/173 250/414/173 251/415/173 252/416/173
f 253/417/174 251/418/174 250/419/174 254/420/174
f 255/421/175 254/422/175 250/423/175 249/424/175
f 252/424/176 251/423/176 253/422/176 256/421/176
f 256/425/177 253/426/177 254/427/177 255/428/177
f 249/429/178 252/430/178 256/425/178 255/428/178
o entity0_brush36
v -217.372589 288.000031 431.999969
v -201.372589 288.000031 447.999969
v -201.372589 1056.000000 447.999908
v -217.372589 1056.000000 431.999908
v 201.372589 1056.000000 447.999908
v 201.372589 288.000031 447.999969
v 217.372589 288.000031 431.999969
v 217.372589 1056.000000 431.999908
vn -0.7071 -0.0000 0.7071
vn -0.0000 -0.0000 1.0000
vn -0.0000 -1.0000 -0.0000
vn -0.0000 1.0000 -0.0000
vn -0.0000 -0.0000 -1.0000
vn 0.7071 -0.0000 0.7071
vt -27.707108 18.000000
vt -28.707108 18.000000
vt -28.707108 66.000000
vt -27.707108 66.000000
vt 12.585787 66.000000
vt -12.585787 66.000000
vt -12.585787 18.000000
vt 12.585787 18.000000
vt 12.585787 -28.000000
vt -12.585787 -28.000000
vt -13.585787 -27.000000
vt 13.585787 -27.000000
vt 13.585787 18.000000
vt -13.585787 18.000000
vt -13.585787 66.000000
vt 13.585787 66.000000
s 1
usemtl blue_test_texture
f 257/431/179 258/432/179 259/433/179 260/434/179
f 261/435/180 259/436/180 258/437/180 262/438/180
f 262/439/181 258/440/181 257/441/181 263/442/181
f 264/442/182 260/441/182 259/440/182 261/439/182
f 263/443/183 257/444/183 260/445/183 264/446/183
f 263/431/184 264/434/184 261/433/184 262/432/184
o entity0_brush37
v -1472.000000 -0.000014 -192.000000
v -1472.000000 0.000016 208.000000
v -1472.000000 320.000031 207.999969
v -1472.000000 320.000000 -192.000031
v -1456.000000 320.000031 207.999969
v -1456.000000 0.000016 208.000000
v -1456.000000 -0.000014 -192.000000
v -1456.000000 320.000000 -192.000031
vn -1.0000 -0.0000 -0.0000
vn -0.0000 -0.0000 1.0000
vn -0.0000 -1.0000 -0.0000
vn -0.0000 1.0000 -0.0000
vn -0.0000 -0.0000 -1.0000
vn 1.0000 -0.0000 -0.0000
vt 12.000000 -0.000000
vt -13.000000 -0.000000
vt -13.000000 20.000000
vt 12.000000 20.000000
vt -91.000000 20.000000
vt -92.000000 20.000000
vt -92.000000 -0.000000
vt -91.000000 -0.000000
vt -91.000000 -13.000000
vt -92.000000 -13.000000
vt -92.000000 12.000000
vt -91.000000 12.000000
s 1
usemtl blue_test_texture
f 265/447/185 266/448/185 267/449/185 268/450/185
f 269/451/186 267/452/186 266/453/186 270/454/186
f 270/455/187 266/456/187 265/457/187 271/458/187
f 272/458/188 268/457/188 267/456/188 269/455/188
f 271/454/189 265/453/189 268/452/189 272/451/189
f 272/450/190 269/449/190 270/448/190 271/447/190
o entity0_brush38
v -1456.000000 -0.000014 -192.000000
v -1456.000000 -0.000013 -176.000000
v -1456.000000 320.000000 -176.000031
v -1456.000000 320.000000 -192.000031
v -1040.000000 320.000000 -176.000031
v -1040.000000 -0.000013 -176.000000
v -1040.000000 -0.000014 -192.000000
v -1040.000000 320.000000 -192.000031
vn -1.0000 -0.0000 -0.0000
vn -0.0000 -0.0000 1.0000
vn -0.0000 -1.0000 -0.0000
vn -0.0000 1.0000 -0.0000
vn -0.0000 -0.0000 -1.0000
vn 1.0000 -0.0000 -0.0000
vt 12.000000 -0.000000
vt 11.000000 -0.000000
vt 11.000000 20.000000
vt 12.000000 20.000000
vt -65.000000 20.000000
vt -91.000000 20.000000
vt -91.000000 -0.000000
vt -65.000000 -0.000000
vt -65.000000 11.000000
vt -91.000000 11.000000
vt -91.000000 12.000000
vt -65.000000 12.000000
s 1
usemtl blue_test_texture
f 273/459/191 274/460/191 275/461/191 276/462/191
f 277/463/192 275/464/192 274/465/192 278/466/192
f 278/467/193 274/468/193 273/469/193 279/470/193
f 280/470/194 276/469/194 275/468/194 277/467/194
f 279/466/195 273/465/195 276/464/195 280/463/195
f 280/462/196 277/461/196 278/460/196 279/459/196
o entity0_brush39
v -1456.000000 0.000014 192.000000
v -1456.000000 0.000016 208.000000
v -1456.000000 320.000031 207.999969
v -1456.000000 320.000000 191.999969
v -1040.000000 320.000031 207.999969
v -1040.000000 0.000016 208.000000
v -1040.000000 0.000014 192.000000
v -1040.000000 320.000000 191.999969
vn -1.0000 -0.0000 -0.0000
vn -0.0000 -0.0000 1.0000
vn -0.0000 -1.0000 -0.0000
vn -0.0000 1.0000 -0.0000
vn -0.0000 -0.0000 -1.0000
vn 1.0000 -0.0000 -0.0000
vt -12.000000 -0.000000
vt -13.000000 -0.000000
vt -13.000000 20.000000
vt -12.000000 20.000000
vt -65.000000 20.000000
vt -91.000000 20.000000
vt -91.000000 -0.000000
vt -65.000000 -0.000000
vt -65.000000 -13.000000
vt -91.000000 -13.000000
vt -91.000000 -12.000000
vt -65.000000 -12.000000
s 1
usemtl blue_test_texture
f 281/471/197 282/472/197 283/473/197 284/474/197
f 285/475/198 283/476/198 282/477/198 286/478/198
f 286/479/199 282/480/199 281/481/199 287/482/199
f 288/482/200 284/481/200 283/480/200 285/479/200
f 287/478/201 281/477/201 284/476/201 288/475/201
f 288/474/202 285/473/202 286/472/202 287/471/202
o entity0_brush4
v -888.070801 -16.000135 -1792.000000
v -888.070801 -16.000134 -1776.141602
v -888.070801 1279.999878 -1776.141724
v -888.070801 1279.999878 -1792.000122
v 888.070801 1279.999878 -1776.141724
v 888.070801 -16.000134 -1776.141602
v 888.070801 -16.000135 -1792.000000
v 888.070801 1279.999878 -1792.000122
vn -1.0000 -0.0000 -0.0000
vn -0.0000 -0.0000 1.0000
vn -0.0000 -1.0000 -0.0000
vn -0.0000 1.0000 -0.0000
vn -0.0000 -0.0000 -1.0000
vn 1.0000 -0.0000 -0.0000
vt 112.000000 -1.000000
vt 111.008850 -1.000000
vt 111.008850 80.000000
vt 112.000000 80.000000
vt 55.504425 80.000000
vt -55.504425 80.000000
vt -55.504425 -1.000000
vt 55.504425 -1.000000
vt 55.504425 111.008850
vt -55.504425 111.008850
vt -55.504425 112.000000
vt 55.504425 112.000000
s 1
usemtl test_texture
f 289/483/203 290/484/203 291/485/203 292/486/203
f 293/487/204 291/488/204 290/489/204 294/490/204
f 294/491/205 290/492/205 289/493/205 295/494/205
f 296/494/206 292/493/206 291/492/206 293/491/206
f 295/490/207 289/489/207 292/488/207 296/487/207
f 296/486/208 293/485/208 294/484/208 295/483/208
o entity0_brush40
v -1456.000000 304.000000 -176.000031
v -1456.000000 304.000000 191.999969
v -1456.000000 320.000000 191.999969
v -1456.000000 320.000000 -176.000031
v -1040.000000 320.000000 191.999969
v -1040.000000 304.000000 191.999969
v -1040.000000 304.000000 -176.000031
v -1040.000000 320.000000 -176.000031
vn -1.0000 -0.0000 -0.0000
vn -0.0000 -0.0000 1.0000
vn -0.0000 -1.0000 -0.0000
vn -0.0000 1.0000 -0.0000
vn -0.0000 -0.0000 -1.0000
vn 1.0000 -0.0000 -0.0000
vt 11.000000 19.000000
vt -12.000000 19.000000
vt -12.000000 20.000000
vt 11.000000 20.000000
vt -65.000000 20.000000
vt -91.000000 20.000000
vt -91.000000 19.000000
vt -65.000000 19.000000
vt -65.000000 -12.000000
vt -91.000000 -12.000000
vt -91.000000 11.000000
vt -65.000000 11.000000
s 1
usemtl blue_test_texture
f 297/495/209 298/496/209 299/497/209 300/498/209
f 301/499/210 299/500/210 298/501/210 302/502/210
f 302/503/211 298/504/211 297/505/211 303/506/211
f 304/506/212 300/505/212 299/504/212 301/503/212
f 303/502/213 297/501/213 300/500/213 304/499/213
f 304/498/214 301/497/214 302/496/214 303/495/214
o entity0_brush41
v -1456.000000 -0.000013 -176.000000
v -1456.000000 0.000014 192.000000
v -1456.000000 16.000015 192.000000
v -1456.000000 15.999987 -176.000000
v -1040.000000 16.000015 192.000000
v -1040.000000 0.000014 192.000000
v -1040.000000 -0.000013 -176.000000
v -1040.000000 15.999987 -176.000000
vn -1.0000 -0.0000 -0.0000
vn -0.0000 -0.0000 1.0000
vn -0.0000 -1.0000 -0.0000
vn -0.0000 1.0000 -0.0000
vn -0.0000 -0.0000 -1.0000
vn 1.0000 -0.0000 -0.0000
vt 11.000000 -0.000000
vt -12.000000 -0.000000
vt -12.000000 1.000000
vt 11.000000 1.000000
vt -65.000000 1.000000
vt -91.000000 1.000000
vt -91.000000 -0.000000
vt -65.000000 -0.000000
vt -65.000000 -12.000000
vt -91.000000 -12.000000
vt -91.000000 11.000000
vt -65.000000 11.000000
s 1
usemtl test_texture
f 305/507/215 306/508/215 307/509/215 308/510/215
f 309/511/216 307/512/216 306/513/216 310/514/216
f 310/515/217 306/516/217 305/517/217 311/518/217
f 312/518/218 308/517/218 307/516/218 309/515/218
f 311/514/219 305/513/219 308/512/219 312/511/219
f 312/510/220 309/509/220 310/508/220 311/507/220
o portal_entrance_2
v -1040.000000 15.999995 -64.000000
v -1040.000000 16.000006 64.000000
v -1040.000000 144.000000 63.999989
v -1040.000000 144.000000 -64.000008
vn -1.0000 -0.0000 -0.0000
vt 2.000000 0.500000
vt -2.000000 0.500000
vt -2.000000 4.500000
vt 2.000000 4.500000
s 1
usemtl __TB_empty
f 313/519/221 314/520/221 315/521/221 316/522/221
o entity0_brush43
v 432.000000 -16.000135 -1792.000000
v 432.000000 -15.999865 1792.000000
v 432.000000 0.000135 1792.000000
v 432.000000 -0.000135 -1792.000000
v 896.000000 0.000135 1792.000000
v 896.000000 -15.999865 1792.000000
v 1792.000000 -15.999932 896.000000
v 896.000000 -16.000135 -1792.000000
v 1792.000000 -16.000067 -896.000000
v 1792.000000 -0.000068 -896.000000
v 896.000000 -0.000135 -1792.000000
v 1792.000000 0.000068 896.000000
vn -1.0000 -0.0000 -0.0000
vn -0.0000 -0.0000 1.0000
vn -0.0000 -1.0000 -0.0000
vn -0.0000 1.0000 -0.0000
vn -0.0000 -0.0000 -1.0000
vn 0.7071 -0.0000 0.7071
vn 0.7071 -0.0000 -0.7071
vn 1.0000 -0.0000 -0.0000
vt 56.000000 -0.500000
vt -56.000000 -0.500000
vt -56.000000 -0.000000
vt 56.000000 -0.000000
vt 27.000000 -0.000000
vt 27.000000 -1.000000
vt 56.000000 -1.000000
vt 56.000000 -28.000000
vt 28.000000 -56.000000
vt 13.500000 -56.000000
vt 13.500000 56.000000
vt 28.000000 56.000000
vt 56.000000 28.000000
vt -112.000000 -0.000000
vt -112.000000 -1.000000
vt -56.000000 -1.000000
vt 112.000000 -1.000000
vt 112.000000 -0.000000
s 1
usemtl __TB_empty
f 317/523/222 318/524/222 319/525/222 320/526/222
f 323/530/224 322/531/224 318/532/224 317/533/224 324/534/224 325/535/224
f 326/535/225 327/534/225 320/533/225 319/532/225 321/531/225 328/530/225
usemtl test_texture
f 321/526/223 319/527/223 318/528/223 322/529/223
f 324/529/226 317/528/226 320/527/226 327/526/226
f 328/525/227 321/536/227 322/537/227 323/538/227
f 325/529/228 324/539/228 327/540/228 326/526/228
f 328/525/229 323/538/229 325/529/229 326/526/229
o entity0_brush44
v -1792.000000 -0.000068 -896.000000
v -1792.000000 -16.000067 -896.000000
v -1792.000000 -15.999932 896.000000
v -1792.000000 0.000068 896.000000
v -896.000000 -15.999865 1792.000000
v -896.000000 0.000135 1792.000000
v -896.000000 -16.000135 -1792.000000
v -896.000000 -0.000135 -1792.000000
v -432.000000 0.000135 1792.000000
v -432.000000 -15.999865 1792.000000
v -432.000000 -16.000135 -1792.000000
v -432.000000 -0.000135 -1792.000000
vn -1.0000 -0.0000 -0.0000
vn -0.7071 -0.0000 0.7071
vn -0.7071 -0.0000 -0.7071
vn -0.0000 -0.0000 1.0000
vn -0.0000 -1.0000 -0.0000
vn -0.0000 1.0000 -0.0000
vn -0.0000 -0.0000 -1.0000
vn 1.0000 -0.0000 -0.0000
vt 56.000000 -0.000000
vt 56.000000 -1.000000
vt -56.000000 -1.000000
vt -56.000000 -0.000000
vt -112.000000 -1.000000
vt -112.000000 -0.000000
vt 112.000000 -1.000000
vt 112.000000 -0.000000
vt -27.000000 -0.000000
vt -27.000000 -1.000000
vt -13.500000 -56.000000
vt -28.000000 -56.000000
vt -56.000000 -28.000000
vt -56.000000 28.000000
vt -28.000000 56.000000
vt -13.500000 56.000000
vt -56.000000 -0.500000
vt 56.000000 -0.500000
s 1
usemtl test_texture
f 329/541/230 330/542/230 331/543/230 332/544/230
f 332/544/231 331/543/231 333/545/231 334/546/231
f 335/547/232 330/542/232 329/541/232 336/548/232
f 337/549/233 334/544/233 333/543/233 338/550/233
f 339/550/236 335/543/236 336/544/236 340/549/236
usemtl __TB_empty
f 338/551/234 333/552/234 331/553/234 330/554/234 335/555/234 339/556/234
f 340/556/235 336/555/235 329/554/235 332/553/235 334/552/235 337/551/235
f 340/541/237 337/544/237 338/557/237 339/558/237
o entity0_brush45
v -432.000000 -15.999984 217.372589
v -432.000000 -15.999865 1792.000000
v -432.000000 0.000135 1792.000000
v -432.000000 0.000016 217.372589
v 432.000000 0.000135 1792.000000
v 432.000000 -15.999865 1792.000000
v 432.000000 -15.999918 1081.372559
v 432.000000 0.000082 1081.372559
vn -1.0000 -0.0000 -0.0000
vn -0.0000 -0.0000 1.0000
vn -0.0000 -1.0000 -0.0000
vn -0.0000 1.0000 -0.0000
vn 0.7071 -0.0000 -0.7071
vn 1.0000 -0.0000 -0.0000
vt -6.792893 -0.500000
vt -56.000000 -0.500000
vt -56.000000 -0.000000
vt -6.792893 -0.000000
vt 27.000000 -0.000000
vt -27.000000 -0.000000
vt -27.000000 -1.000000
vt 27.000000 -1.000000
vt 13.500000 -56.000000
vt -13.500000 -56.000000
vt -13.500000 -6.792893
vt 13.500000 -33.792892
vt -34.146446 -0.500000
vt -7.146447 -0.500000
vt -7.146447 -0.000000
vt -34.146446 -0.000000
vt -33.792892 -0.000000
vt -33.792892 -0.500000
s 1
usemtl __TB_empty
f 341/559/238 342/560/238 343/561/238 344/562/238
f 346/567/240 342/568/240 341/569/240 347/570/240
f 348/570/241 344/569/241 343/568/241 345/567/241
f 347/571/242 341/572/242 344/573/242 348/574/242
f 348/575/243 345/561/243 346/560/243 347/576/243
usemtl test_texture
f 345/563/239 343/564/239 342/565/239 346/566/239
o entity0_brush46
v -432.000000 -16.000135 -1792.000000
v -432.000000 -16.000082 -1081.372559
v -432.000000 -0.000082 -1081.372559
v -432.000000 -0.000135 -1792.000000
v 432.000000 -0.000016 -217.372589
v 432.000000 -16.000017 -217.372589
v 432.000000 -16.000135 -1792.000000
v 432.000000 -0.000135 -1792.000000
vn -1.0000 -0.0000 -0.0000
vn -0.7071 -0.0000 0.7071
vn -0.0000 -1.0000 -0.0000
vn -0.0000 1.0000 -0.0000
vn -0.0000 -0.0000 -1.0000
vn 1.0000 -0.0000 -0.0000
vt 56.000000 -0.500000
vt 33.792892 -0.500000
vt 33.792892 -0.000000
vt 56.000000 -0.000000
vt 13.853554 -0.000000
vt -13.146446 -0.000000
vt -13.146446 -0.500000
vt 13.853554 -0.500000
vt 13.500000 6.792893
vt -13.500000 33.792892
vt -13.500000 56.000000
vt 13.500000 56.000000
vt 27.000000 -1.000000
vt -27.000000 -1.000000
vt -27.000000 -0.000000
vt 27.000000 -0.000000
vt 6.792893 -0.000000
vt 6.792893 -0.500000
s 1
usemtl __TB_empty
f 349/577/244 350/578/244 351/579/244 352/580/244
f 353/581/245 351/582/245 350/583/245 354/584/245
f 354/585/246 350/586/246 349/587/246 355/588/246
f 356/588/247 352/587/247 351/586/247 353/585/247
f 356/580/249 353/593/249 354/594/249 355/577/249
usemtl test_texture
f 355/589/248 349/590/248 352/591/248 356/592/248
o entity0_brush47
v 432.000000 0.000082 1081.372559
v 0.000000 0.000049 649.372559
v 0.000000 -15.999951 649.372559
v 432.000000 -15.999918 1081.372559
v 432.000000 -15.999984 217.372589
v 432.000000 0.000016 217.372589
vn -0.7071 -0.0000 0.7071
vn -0.7071 -0.0000 -0.7071
vn -0.0000 -1.0000 -0.0000
vn -0.0000 1.0000 -0.0000
vn 1.0000 -0.0000 -0.0000
vt -34.146446 -0.000000
vt -20.646446 -0.000000
vt -20.646446 -0.500000
vt -34.146446 -0.500000
vt -7.146447 -0.500000
vt -7.146447 -0.000000
vt 13.500000 -33.792892
vt 0.000000 -20.292892
vt 13.500000 -6.792893
vt -33.792892 -0.000000
vt -33.792892 -0.500000
vt -6.792893 -0.500000
vt -6.792893 -0.000000
s 1
usemtl __TB_empty
f 357/595/250 358/596/250 359/597/250 360/598/250
f 361/599/251 359/597/251 358/596/251 362/600/251
f 360/601/252 359/602/252 361/603/252
f 362/603/253 358/602/253 357/601/253
f 357/604/254 360/605/254 361/606/254 362/607/254
o entity0_brush48
v -432.000000 -0.000016 -217.372589
v -432.000000 -0.000082 -1081.372559
v -432.000000 -16.000082 -1081.372559
v -432.000000 -16.000017 -217.372589
v 0.000000 -16.000050 -649.372559
v 0.000000 -0.000049 -649.372559
vn -1.0000 -0.0000 -0.0000
vn -0.0000 -1.0000 -0.0000
vn -0.0000 1.0000 -0.0000
vn 0.7071 -0.0000 -0.7071
vn 0.7071 -0.0000 0.7071
vt 6.792893 -0.000000
vt 33.792892 -0.000000
vt 33.792892 -0.500000
vt 6.792893 -0.500000
vt -13.500000 6.792893
vt -13.500000 33.792892
vt 0.000000 20.292892
vt 0.353554 -0.500000
vt -13.146446 -0.500000
vt -13.146446 -0.000000
vt 0.353554 -0.000000
vt 7.146447 -0.000000
vt 7.146447 -0.500000
vt 20.646446 -0.500000
vt 20.646446 -0.000000
s 1
usemtl __TB_empty
f 363/608/255 364/609/255 365/610/255 366/611/255
f 366/612/256 365/613/256 367/614/256
f 368/614/257 364/613/257 363/612/257
f 367/615/258 365/616/258 364/617/258 368/618/258
f 363/619/259 366/620/259 367/621/259 368/622/259
o entity0_brush49
v 0.000000 -16.000050 -649.372559
v -217.372589 -16.000032 -432.000000
v -217.372589 -0.000033 -432.000000
v 0.000000 -0.000049 -649.372559
v 217.372589 -0.000033 -432.000000
v 217.372589 -16.000032 -432.000000
vn -0.7071 -0.0000 -0.7071
vn -0.0000 -0.0000 1.0000
vn -0.0000 -1.0000 -0.0000
vn -0.0000 1.0000 -0.0000
vn 0.7071 -0.0000 -0.7071
vt 20.646446 -0.500000
vt 13.853554 -0.500000
vt 13.853554 -0.000000
vt 20.646446 -0.000000
vt 6.792893 -0.000000
vt -6.792893 -0.000000
vt -6.792893 -0.500000
vt 6.792893 -0.500000
vt 6.792893 13.500000
vt -6.792893 13.500000
vt 0.000000 20.292892
vt 7.146447 -0.500000
vt 0.353554 -0.500000
vt 0.353554 -0.000000
vt 7.146447 -0.000000
s 1
usemtl __TB_empty
f 369/623/260 370/624/260 371/625/260 372/626/260
f 373/627/261 371/628/261 370/629/261 374/630/261
f 374/631/262 370/632/262 369/633/262
f 372/633/263 371/632/263 373/631/263
f 374/634/264 369/635/264 372/636/264 373/637/264
o entity0_brush5
v -888.070801 -15.999866 1776.141602
v -888.070801 -15.999865 1792.000000
v -888.070801 1280.000122 1791.999878
v -888.070801 1280.000122 1776.141479
v 888.070801 1280.000122 1791.999878
v 888.070801 -15.999865 1792.000000
v 888.070801 -15.999866 1776.141602
v 888.070801 1280.000122 1776.141479
vn -1.0000 -0.0000 -0.0000
vn -0.0000 -0.0000 1.0000
vn -0.0000 -1.0000 -0.0000
vn -0.0000 1.0000 -0.0000
vn -0.0000 -0.0000 -1.0000
vn 1.0000 -0.0000 -0.0000
vt -111.008850 -1.000000
vt -112.000000 -1.000000
vt -112.000000 80.000000
vt -111.008850 80.000000
vt 55.504425 80.000000
vt -55.504425 80.000000
vt -55.504425 -1.000000
vt 55.504425 -1.000000
vt 55.504425 -112.000000
vt -55.504425 -112.000000
vt -55.504425 -111.008850
vt 55.504425 -111.008850
s 1
usemtl test_texture
f 375/638/265 376/639/265 377/640/265 378/641/265
f 379/642/266 377/643/266 376/644/266 380/645/266
f 380/646/267 376/647/267 375/648/267 381/649/267
f 382/649/268 378/648/268 377/647/268 379/646/268
f 381/645/269 375/644/269 378/643/269 382/642/269
f 382/641/270 379/640/270 380/639/270 381/638/270
o entity0_brush50
v 0.000000 0.000049 649.372559
v -217.372589 0.000033 432.000000
v -217.372589 -15.999968 432.000000
v 0.000000 -15.999951 649.372559
v 217.372589 -15.999968 432.000000
v 217.372589 0.000033 432.000000
vn -0.7071 -0.0000 0.7071
vn -0.0000 -1.0000 -0.0000
vn -0.0000 1.0000 -0.0000
vn -0.0000 -0.0000 -1.0000
vn 0.7071 -0.0000 0.7071
vt -0.353554 -0.000000
vt -7.146447 -0.000000
vt -7.146447 -0.500000
vt -0.353554 -0.500000
vt 0.000000 -20.292892
vt -6.792893 -13.500000
vt 6.792893 -13.500000
vt 6.792893 -0.500000
vt -6.792893 -0.500000
vt -6.792893 -0.000000
vt 6.792893 -0.000000
vt -13.853554 -0.500000
vt -13.853554 -0.000000
vt -20.646446 -0.000000
vt -20.646446 -0.500000
s 1
usemtl __TB_empty
f 383/650/271 384/651/271 385/652/271 386/653/271
f 386/654/272 385/655/272 387/656/272
f 388/656/273 384/655/273 383/654/273
f 387/657/274 385/658/274 384/659/274 388/660/274
f 387/661/275 388/662/275 383/663/275 386/664/275
o entity0_brush51
v -432.000000 -55.999985 217.372589
v -432.000000 -55.999866 1792.000000
v -432.000000 8.000135 1792.000000
v -432.000000 8.000016 217.372589
v 432.000000 8.000135 1792.000000
v 432.000000 -55.999866 1792.000000
v 432.000000 -55.999920 1081.372559
v 432.000000 8.000082 1081.372559
vn -1.0000 -0.0000 -0.0000
vn -0.0000 -0.0000 1.0000
vn -0.0000 -1.0000 -0.0000
vn -0.0000 1.0000 -0.0000
vn 0.7071 -0.0000 -0.7071
vn 1.0000 -0.0000 -0.0000
vt -6.792893 -1.750000
vt -56.000000 -1.750000
vt -56.000000 0.250000
vt -6.792893 0.250000
vt 27.000000 0.500000
vt -27.000000 0.500000
vt -27.000000 -3.500000
vt 27.000000 -3.500000
vt 13.500000 -56.000000
vt -13.500000 -56.000000
vt -13.500000 -6.792893
vt 13.500000 -33.792892
vt -34.146446 -1.750000
vt -7.146447 -1.750000
vt -7.146447 0.250000
vt -34.146446 0.250000
vt -33.792892 0.250000
vt -33.792892 -1.750000
s 1
usemtl __TB_empty
f 389/665/276 390/666/276 391/667/276 392/668/276
f 394/673/278 390/674/278 389/675/278 395/676/278
f 396/676/279 392/675/279 391/674/279 393/673/279
f 395/677/280 389/678/280 392/679/280 396/680/280
f 396/681/281 393/667/281 394/666/281 395/682/281
usemtl test_texture
f 393/669/277 391/670/277 390/671/277 394/672/277
o entity0_brush52
v -432.000000 -56.000134 -1792.000000
v -432.000000 -56.000080 -1081.372559
v -432.000000 7.999918 -1081.372559
v -432.000000 7.999865 -1792.000000
v 432.000000 7.999984 -217.372589
v 432.000000 -56.000015 -217.372589
v 432.000000 -56.000134 -1792.000000
v 432.000000 7.999865 -1792.000000
vn -1.0000 -0.0000 -0.0000
vn -0.7071 -0.0000 0.7071
vn -0.0000 -1.0000 -0.0000
vn -0.0000 1.0000 -0.0000
vn -0.0000 -0.0000 -1.0000
vn 1.0000 -0.0000 -0.0000
vt 56.000000 -1.750000
vt 33.792892 -1.750000
vt 33.792892 0.250000
vt 56.000000 0.250000
vt 13.853554 0.250000
vt -13.146446 0.250000
vt -13.146446 -1.750000
vt 13.853554 -1.750000
vt 13.500000 6.792893
vt -13.500000 33.792892
vt -13.500000 56.000000
vt 13.500000 56.000000
vt 27.000000 -3.500000
vt -27.000000 -3.500000
vt -27.000000 0.500000
vt 27.000000 0.500000
vt 6.792893 0.250000
vt 6.792893 -1.750000
s 1
usemtl __TB_empty
f 397/683/282 398/684/282 399/685/282 400/686/282
f 401/687/283 399/688/283 398/689/283 402/690/283
f 402/691/284 398/692/284 397/693/284 403/694/284
f 404/694/285 400/693/285 399/692/285 401/691/285
f 404/686/287 401/699/287 402/700/287 403/683/287
usemtl test_texture
f 403/695/286 397/696/286 400/697/286 404/698/286
o entity0_brush53
v 432.000000 8.000082 1081.372559
v 0.000000 8.000049 649.372559
v 0.000000 -55.999950 649.372559
v 432.000000 -55.999920 1081.372559
v 432.000000 -55.999985 217.372589
v 432.000000 8.000016 217.372589
vn -0.7071 -0.0000 0.7071
vn -0.7071 -0.0000 -0.7071
vn -0.0000 -1.0000 -0.0000
vn -0.0000 1.0000 -0.0000
vn 1.0000 -0.0000 -0.0000
vt -1.067076 0.007812
vt -0.645201 0.007812
vt -0.645201 -0.054688
vt -1.067076 -0.054688
vt -0.223326 -0.054688
vt -0.223326 0.007812
vt 0.421875 -1.056028
vt 0.000000 -0.634153
vt 0.421875 -0.212278
vt -1.056028 0.007812
vt -1.056028 -0.054688
vt -0.212278 -0.054688
vt -0.212278 0.007812
s 1
usemtl Tiles058_1K-JPG_Color
f 405/701/288 406/702/288 407/703/288 408/704/288
f 409/705/289 407/703/289 406/702/289 410/706/289
f 408/707/290 407/708/290 409/709/290
f 410/709/291 406/708/291 405/707/291
f 405/710/292 408/711/292 409/712/292 410/713/292
o entity0_brush54
v -432.000000 7.999984 -217.372589
v -432.000000 7.999918 -1081.372559
v -432.000000 -56.000080 -1081.372559
v -432.000000 -56.000015 -217.372589
v 0.000000 -56.000050 -649.372559
v 0.000000 7.999951 -649.372559
vn -1.0000 -0.0000 -0.0000
vn -0.0000 -1.0000 -0.0000
vn -0.0000 1.0000 -0.0000
vn 0.7071 -0.0000 -0.7071
vn 0.7071 -0.0000 0.7071
vt 6.792893 0.250000
vt 33.792892 0.250000
vt 33.792892 -1.750000
vt 6.792893 -1.750000
vt -13.500000 6.792893
vt -13.500000 33.792892
vt 0.000000 20.292892
vt 0.353554 -1.750000
vt -13.146446 -1.750000
vt -13.146446 0.250000
vt 0.353554 0.250000
vt 7.146447 0.250000
vt 7.146447 -1.750000
vt 20.646446 -1.750000
vt 20.646446 0.250000
s 1
usemtl __TB_empty
f 411/714/293 412/715/293 413/716/293 414/717/293
f 414/718/294 413/719/294 415/720/294
f 416/720/295 412/719/295 411/718/295
f 415/721/296 413/722/296 412/723/296 416/724/296
f 411/725/297 414/726/297 415/727/297 416/728/297
o entity0_brush55
v 0.000000 -56.000050 -649.372559
v -217.372589 -56.000034 -432.000000
v -217.372589 7.999968 -432.000000
v 0.000000 7.999951 -649.372559
v 217.372589 7.999968 -432.000000
v 217.372589 -56.000034 -432.000000
vn -0.7071 -0.0000 -0.7071
vn -0.0000 -0.0000 1.0000
vn -0.0000 -1.0000 -0.0000
vn -0.0000 1.0000 -0.0000
vn 0.7071 -0.0000 -0.7071
vt 20.646446 -1.750000
vt 13.853554 -1.750000
vt 13.853554 0.250000
vt 20.646446 0.250000
vt 6.792893 0.250000
vt -6.792893 0.250000
vt -6.792893 -1.750000
vt 6.792893 -1.750000
vt 6.792893 13.500000
vt -6.792893 13.500000
vt 0.000000 20.292892
vt 7.146447 -1.750000
vt 0.353554 -1.750000
vt 0.353554 0.250000
vt 7.146447 0.250000
s 1
usemtl __TB_empty
f 417/729/298 418/730/298 419/731/298 420/732/298
f 421/733/299 419/734/299 418/735/299 422/736/299
f 422/737/300 418/738/300 417/739/300
f 420/739/301 419/738/301 421/737/301
f 422/740/302 417/741/302 420/742/302 421/743/302
o entity0_brush56
v 0.000000 8.000049 649.372559
v -217.372589 8.000032 432.000000
v -217.372589 -55.999966 432.000000
v 0.000000 -55.999950 649.372559
v 217.372589 -55.999966 432.000000
v 217.372589 8.000032 432.000000
vn -0.7071 -0.0000 0.7071
vn -0.0000 -1.0000 -0.0000
vn -0.0000 1.0000 -0.0000
vn -0.0000 -0.0000 -1.0000
vn 0.7071 -0.0000 0.7071
vt -0.353554 0.250000
vt -7.146447 0.250000
vt -7.146447 -1.750000
vt -0.353554 -1.750000
vt 0.000000 -20.292892
vt -6.792893 -13.500000
vt 6.792893 -13.500000
vt 6.792893 -1.750000
vt -6.792893 -1.750000
vt -6.792893 0.250000
vt 6.792893 0.250000
vt -13.853554 -1.750000
vt -13.853554 0.250000
vt -20.646446 0.250000
vt -20.646446 -1.750000
s 1
usemtl __TB_empty
f 423/744/303 424/745/303 425/746/303 426/747/303
f 426/748/304 425/749/304 427/750/304
f 428/750/305 424/749/305 423/748/305
f 427/751/306 425/752/306 424/753/306 428/754/306
f 427/755/307 428/756/307 423/757/307 426/758/307
o entity0_brush57
v -1792.000000 7.999932 -896.000000
v -1792.000000 -56.000069 -896.000000
v -1792.000000 -55.999931 896.000000
v -1792.000000 8.000068 896.000000
v -896.000000 -55.999866 1792.000000
v -896.000000 8.000135 1792.000000
v -896.000000 -56.000134 -1792.000000
v -896.000000 7.999865 -1792.000000
v -432.000000 8.000135 1792.000000
v -432.000000 -55.999866 1792.000000
v -432.000000 -56.000134 -1792.000000
v -432.000000 7.999865 -1792.000000
vn -1.0000 -0.0000 -0.0000
vn -0.7071 -0.0000 0.7071
vn -0.7071 -0.0000 -0.7071
vn -0.0000 -0.0000 1.0000
vn -0.0000 -1.0000 -0.0000
vn -0.0000 1.0000 -0.0000
vn -0.0000 -0.0000 -1.0000
vn 1.0000 -0.0000 -0.0000
vt 56.000000 0.500000
vt 56.000000 -3.500000
vt -56.000000 -3.500000
vt -56.000000 0.500000
vt -112.000000 -3.500000
vt -112.000000 0.500000
vt 112.000000 -3.500000
vt 112.000000 0.500000
vt -27.000000 0.500000
vt -27.000000 -3.500000
vt -13.500000 -56.000000
vt -28.000000 -56.000000
vt -56.000000 -28.000000
vt -56.000000 28.000000
vt -28.000000 56.000000
vt -13.500000 56.000000
vt 56.000000 0.250000
vt -56.000000 0.250000
vt -56.000000 -1.750000
vt 56.000000 -1.750000
s 1
usemtl test_texture
f 429/759/308 430/760/308 431/761/308 432/762/308
f 432/762/309 431/761/309 433/763/309 434/764/309
f 435/765/310 430/760/310 429/759/310 436/766/310
f 437/767/311 434/762/311 433/761/311 438/768/311
f 439/768/314 435/761/314 436/762/314 440/767/314
usemtl __TB_empty
f 438/769/312 433/770/312 431/771/312 430/772/312 435/773/312 439/774/312
f 440/774/313 436/773/313 429/772/313 432/771/313 434/770/313 437/769/313
f 440/775/315 437/776/315 438/777/315 439/778/315
o entity0_brush58
v -1024.000000 -0.000014 -192.000000
v -1024.000000 0.000016 208.000000
v -1024.000000 320.000031 207.999969
v -1024.000000 320.000000 -192.000031
v -1008.000000 320.000031 207.999969
v -1008.000000 0.000016 208.000000
v -1008.000000 -0.000014 -192.000000
v -1008.000000 320.000000 -192.000031
vn -1.0000 -0.0000 -0.0000
vn -0.0000 -0.0000 1.0000
vn -0.0000 -1.0000 -0.0000
vn -0.0000 1.0000 -0.0000
vn -0.0000 -0.0000 -1.0000
vn 1.0000 -0.0000 -0.0000
vt 6.000000 -0.000000
vt -6.500000 -0.000000
vt -6.500000 10.000000
vt 6.000000 10.000000
vt -63.000000 20.000000
vt -64.000000 20.000000
vt -64.000000 -0.000000
vt -63.000000 -0.000000
vt -63.000000 -13.000000
vt -64.000000 -13.000000
vt -64.000000 12.000000
vt -63.000000 12.000000
vt 12.000000 20.000000
vt -13.000000 20.000000
vt -13.000000 -0.000000
vt 12.000000 -0.000000
s 1
usemtl __TB_empty
f 441/779/316 442/780/316 443/781/316 444/782/316
usemtl blue_test_texture
f 445/783/317 443/784/317 442/785/317 446/786/317
f 446/787/318 442/788/318 441/789/318 447/790/318
f 448/790/319 444/789/319 443/788/319 445/787/319
f 447/786/320 441/785/320 444/784/320 448/783/320
f 448/791/321 445/792/321 446/793/321 447/794/321
o entity0_brush59
v -1040.000000 -0.000014 -192.000000
v -1040.000000 -0.000005 -64.000000
v -1040.000000 320.000000 -64.000023
v -1040.000000 320.000000 -192.000031
v -1024.000000 320.000000 -64.000023
v -1024.000000 -0.000005 -64.000000
v -1024.000000 -0.000014 -192.000000
v -1024.000000 320.000000 -192.000031
vn -1.0000 -0.0000 -0.0000
vn -0.0000 -0.0000 1.0000
vn -0.0000 -1.0000 -0.0000
vn -0.0000 1.0000 -0.0000
vn -0.0000 -0.0000 -1.0000
vn 1.0000 -0.0000 -0.0000
vt 6.000000 -0.000000
vt 2.000000 -0.000000
vt 2.000000 10.000000
vt 6.000000 10.000000
vt -32.000000 10.000000
vt -32.500000 10.000000
vt -32.500000 -0.000000
vt -32.000000 -0.000000
vt -64.000000 4.000000
vt -65.000000 4.000000
vt -65.000000 12.000000
vt -64.000000 12.000000
vt -64.000000 -0.000000
vt -65.000000 -0.000000
vt -65.000000 20.000000
vt -64.000000 20.000000
s 1
usemtl __TB_empty
f 449/795/322 450/796/322 451/797/322 452/798/322
f 453/799/323 451/800/323 450/801/323 454/802/323
f 456/798/327 453/797/327 454/796/327 455/795/327
usemtl blue_test_texture
f 454/803/324 450/804/324 449/805/324 455/806/324
f 456/806/325 452/805/325 451/804/325 453/803/325
f 455/807/326 449/808/326 452/809/326 456/810/326
o entity0_brush6
v 888.070801 1280.000122 1791.999878
v 888.070801 1280.000122 1776.141479
v 888.070801 -15.999866 1776.141602
v 888.070801 -15.999865 1792.000000
v 1776.141602 -15.999933 888.070801
v 1776.141602 1280.000122 888.070679
v 1792.000000 -15.999933 888.070801
v 1792.000000 1280.000122 888.070679
vn -1.0000 -0.0000 -0.0000
vn -0.7071 -0.0000 -0.7071
vn -0.0000 -1.0000 -0.0000
vn -0.0000 1.0000 -0.0000
vn -0.0000 -0.0000 -1.0000
vn 0.7071 -0.0000 0.7071
vt -112.000000 80.000000
vt -111.008850 80.000000
vt -111.008850 -1.000000
vt -112.000000 -1.000000
vt -55.504425 -1.000000
vt -55.504425 80.000000
vt 55.504425 -112.000000
vt 55.504425 -111.008850
vt 111.008850 -55.504425
vt 112.000000 -55.504425
vt 112.000000 -1.000000
vt 111.008850 -1.000000
vt 111.008850 80.000000
vt 112.000000 80.000000
vt -55.254425 80.000000
vt -111.750000 80.000000
vt -111.750000 -1.000000
vt -55.254425 -1.000000
s 1
usemtl test_texture
f 457/811/328 458/812/328 459/813/328 460/814/328
f 461/815/329 459/813/329 458/812/329 462/816/329
f 460/817/330 459/818/330 461/819/330 463/820/330
f 464/820/331 462/819/331 458/818/331 457/817/331
f 463/821/332 461/822/332 462/823/332 464/824/332
f 464/825/333 457/826/333 460/827/333 463/828/333
o entity0_brush60
v -1040.000000 0.000005 64.000000
v -1040.000000 0.000016 208.000000
v -1040.000000 320.000031 207.999969
v -1040.000000 320.000000 63.999977
v -1024.000000 320.000031 207.999969
v -1024.000000 0.000016 208.000000
v -1024.000000 0.000005 64.000000
v -1024.000000 320.000000 63.999977
vn -1.0000 -0.0000 -0.0000
vn -0.0000 -0.0000 1.0000
vn -0.0000 -1.0000 -0.0000
vn -0.0000 1.0000 -0.0000
vn -0.0000 -0.0000 -1.0000
vn 1.0000 -0.0000 -0.0000
vt -2.000000 -0.000000
vt -6.500000 -0.000000
vt -6.500000 10.000000
vt -2.000000 10.000000
vt -64.000000 20.000000
vt -65.000000 20.000000
vt -65.000000 -0.000000
vt -64.000000 -0.000000
vt -64.000000 -13.000000
vt -65.000000 -13.000000
vt -65.000000 -4.000000
vt -64.000000 -4.000000
vt -32.000000 -0.000000
vt -32.500000 -0.000000
vt -32.500000 10.000000
vt -32.000000 10.000000
s 1
usemtl __TB_empty
f 465/829/334 466/830/334 467/831/334 468/832/334
f 471/841/338 465/842/338 468/843/338 472/844/338
f 472/832/339 469/831/339 470/830/339 471/829/339
usemtl blue_test_texture
f 469/833/335 467/834/335 466/835/335 470/836/335
f 470/837/336 466/838/336 465/839/336 471/840/336
f 472/840/337 468/839/337 467/838/337 469/837/337
o entity0_brush61
v -1040.000000 144.000000 -64.000008
v -1040.000000 144.000000 63.999989
v -1040.000000 320.000000 63.999977
v -1040.000000 320.000000 -64.000023
v -1024.000000 320.000000 63.999977
v -1024.000000 144.000000 63.999989
v -1024.000000 144.000000 -64.000008
v -1024.000000 320.000000 -64.000023
vn -1.0000 -0.0000 -0.0000
vn -0.0000 -0.0000 1.0000
vn -0.0000 -1.0000 -0.0000
vn -0.0000 1.0000 -0.0000
vn -0.0000 -0.0000 -1.0000
vn 1.0000 -0.0000 -0.0000
vt 2.000000 4.500000
vt -2.000000 4.500000
vt -2.000000 10.000000
vt 2.000000 10.000000
vt -32.000000 10.000000
vt -32.500000 10.000000
vt -32.500000 4.500000
vt -32.000000 4.500000
vt -32.000000 -2.000000
vt -32.500000 -2.000000
vt -32.500000 2.000000
vt -32.000000 2.000000
vt -64.000000 4.000000
vt -65.000000 4.000000
vt -65.000000 -4.000000
vt -64.000000 -4.000000
s 1
usemtl __TB_empty
f 473/845/340 474/846/340 475/847/340 476/848/340
f 477/849/341 475/850/341 474/851/341 478/852/341
f 478/853/342 474/854/342 473/855/342 479/856/342
f 479/852/344 473/851/344 476/850/344 480/849/344
f 480/848/345 477/847/345 478/846/345 479/845/345
usemtl blue_test_texture
f 480/857/343 476/858/343 475/859/343 477/860/343
o entity0_brush62
v -1040.000000 -0.000005 -64.000000
v -1040.000000 0.000005 64.000000
v -1040.000000 16.000006 64.000000
v -1040.000000 15.999995 -64.000000
v -1024.000000 16.000006 64.000000
v -1024.000000 0.000005 64.000000
v -1024.000000 -0.000005 -64.000000
v -1024.000000 15.999995 -64.000000
vn -1.0000 -0.0000 -0.0000
vn -0.0000 -0.0000 1.0000
vn -0.0000 -1.0000 -0.0000
vn -0.0000 1.0000 -0.0000
vn -0.0000 -0.0000 -1.0000
vn 1.0000 -0.0000 -0.0000
vt 2.000000 -0.000000
vt -2.000000 -0.000000
vt -2.000000 0.500000
vt 2.000000 0.500000
vt -32.000000 0.500000
vt -32.500000 0.500000
vt -32.500000 -0.000000
vt -32.000000 -0.000000
vt -64.000000 -4.000000
vt -65.000000 -4.000000
vt -65.000000 4.000000
vt -64.000000 4.000000
vt -32.000000 2.000000
vt -32.500000 2.000000
vt -32.500000 -2.000000
vt -32.000000 -2.000000
s 1
usemtl __TB_empty
f 481/861/346 482/862/346 483/863/346 484/864/346
f 485/865/347 483/866/347 482/867/347 486/868/347
f 488/873/349 484/874/349 483/875/349 485/876/349
f 487/868/350 481/867/350 484/866/350 488/865/350
f 488/864/351 485/863/351 486/862/351 487/861/351
usemtl blue_test_texture
f 486/869/348 482/870/348 481/871/348 487/872/348
o portal_exit_2
v 720.000000 -0.000005 -64.000000
v 720.000000 0.000005 64.000000
v 720.000000 144.000000 63.999989
v 720.000000 144.000000 -64.000008
vn -1.0000 -0.0000 -0.0000
vt 2.000000 -0.000000
vt -2.000000 -0.000000
vt -2.000000 4.500000
vt 2.000000 4.500000
s 1
usemtl __TB_empty
f 489/877/352 490/878/352 491/879/352 492/880/352
o entity0_brush64
v 720.000000 -0.000019 -256.000000
v 720.000000 -0.000005 -64.000000
v 720.000000 256.000000 -64.000023
v 720.000000 255.999985 -256.000031
v 736.000000 256.000000 -64.000023
v 736.000000 -0.000005 -64.000000
v 736.000000 -0.000019 -256.000000
v 736.000000 255.999985 -256.000031
vn -1.0000 -0.0000 -0.0000
vn -0.0000 -0.0000 1.0000
vn -0.0000 -1.0000 -0.0000
vn -0.0000 1.0000 -0.0000
vn -0.0000 -0.0000 -1.0000
vn 1.0000 -0.0000 -0.0000
vt 8.000000 -0.000000
vt 2.000000 -0.000000
vt 2.000000 8.000000
vt 8.000000 8.000000
vt 23.000000 8.000000
vt 22.500000 8.000000
vt 22.500000 -0.000000
vt 23.000000 -0.000000
vt 23.000000 2.000000
vt 22.500000 2.000000
vt 46.000000 16.000000
vt 45.000000 16.000000
vt 45.000000 4.000000
vt 46.000000 4.000000
vt 46.000000 -0.000000
vt 45.000000 -0.000000
s 1
usemtl __TB_empty
f 493/881/353 494/882/353 495/883/353 496/884/353
f 497/885/354 495/886/354 494/887/354 498/888/354
f 498/889/355 494/890/355 493/886/355 499/885/355
f 500/884/358 497/883/358 498/882/358 499/881/358
usemtl blue_test_texture
f 500/891/356 496/892/356 495/893/356 497/894/356
f 499/895/357 493/896/357 496/892/357 500/891/357
o entity0_brush65
v 720.000000 0.000005 64.000000
v 720.000000 0.000019 256.000000
v 720.000000 256.000031 255.999985
v 720.000000 256.000000 63.999981
v 736.000000 256.000031 255.999985
v 736.000000 0.000019 256.000000
v 736.000000 0.000005 64.000000
v 736.000000 256.000000 63.999981
vn -1.0000 -0.0000 -0.0000
vn -0.0000 -0.0000 1.0000
vn -0.0000 -1.0000 -0.0000
vn -0.0000 1.0000 -0.0000
vn -0.0000 -0.0000 -1.0000
vn 1.0000 -0.0000 -0.0000
vt -2.000000 -0.000000
vt -8.000000 -0.000000
vt -8.000000 8.000000
vt -2.000000 8.000000
vt 46.000000 16.000000
vt 45.000000 16.000000
vt 45.000000 -0.000000
vt 46.000000 -0.000000
vt 23.000000 -8.000000
vt 22.500000 -8.000000
vt 22.500000 -2.000000
vt 23.000000 -2.000000
vt 46.000000 -4.000000
vt 45.000000 -4.000000
vt 45.000000 -16.000000
vt 46.000000 -16.000000
vt 23.000000 -0.000000
vt 22.500000 -0.000000
vt 22.500000 8.000000
vt 23.000000 8.000000
s 1
usemtl __TB_empty
f 501/897/359 502/898/359 503/899/359 504/900/359
f 506/905/361 502/906/361 501/907/361 507/908/361
f 507/913/363 501/914/363 504/915/363 508/916/363
f 508/900/364 505/899/364 506/898/364 507/897/364
usemtl blue_test_texture
f 505/901/360 503/902/360 502/903/360 506/904/360
f 508/909/362 504/910/362 503/911/362 505/912/362
o entity0_brush66
v 720.000000 144.000000 -64.000008
v 720.000000 144.000000 63.999989
v 720.000000 256.000000 63.999981
v 720.000000 256.000000 -64.000023
v 736.000000 256.000000 63.999981
v 736.000000 144.000000 63.999989
v 736.000000 144.000000 -64.000008
v 736.000000 256.000000 -64.000023
vn -1.0000 -0.0000 -0.0000
vn -0.0000 -0.0000 1.0000
vn -0.0000 -1.0000 -0.0000
vn -0.0000 1.0000 -0.0000
vn -0.0000 -0.0000 -1.0000
vn 1.0000 -0.0000 -0.0000
vt 2.000000 4.500000
vt -2.000000 4.500000
vt -2.000000 8.000000
vt 2.000000 8.000000
vt 23.000000 8.000000
vt 22.500000 8.000000
vt 22.500000 4.500000
vt 23.000000 4.500000
vt 23.000000 -2.000000
vt 22.500000 -2.000000
vt 22.500000 2.000000
vt 23.000000 2.000000
vt 46.000000 4.000000
vt 45.000000 4.000000
vt 45.000000 -4.000000
vt 46.000000 -4.000000
s 1
usemtl __TB_empty
f 509/917/365 510/918/365 511/919/365 512/920/365
f 513/921/366 511/922/366 510/923/366 514/924/366
f 514/925/367 510/926/367 509/927/367 515/928/367
f 515/924/369 509/923/369 512/922/369 516/921/369
f 516/920/370 513/919/370 514/918/370 515/917/370
usemtl blue_test_texture
f 516/929/368 512/930/368 511/931/368 513/932/368
o entity0_brush67
v 736.000000 -56.000134 -1792.000000
v 736.000000 -55.999866 1792.000000
v 736.000000 8.000135 1792.000000
v 736.000000 7.999865 -1792.000000
v 896.000000 8.000135 1792.000000
v 896.000000 -55.999866 1792.000000
v 1792.000000 -55.999931 896.000000
v 896.000000 -56.000134 -1792.000000
v 1792.000000 -56.000069 -896.000000
v 1792.000000 7.999932 -896.000000
v 896.000000 7.999865 -1792.000000
v 1792.000000 8.000068 896.000000
vn -1.0000 -0.0000 -0.0000
vn -0.0000 -0.0000 1.0000
vn -0.0000 -1.0000 -0.0000
vn -0.0000 1.0000 -0.0000
vn -0.0000 -0.0000 -1.0000
vn 0.7071 -0.0000 0.7071
vn 0.7071 -0.0000 -0.7071
vn 1.0000 -0.0000 -0.0000
vt 56.000000 -1.750000
vt -56.000000 -1.750000
vt -56.000000 0.250000
vt 56.000000 0.250000
vt 0.875000 0.007812
vt 0.718750 0.007812
vt 0.718750 -0.054688
vt 0.875000 -0.054688
vt 1.750000 -0.875000
vt 0.875000 -1.750000
vt 0.718750 -1.750000
vt 0.718750 1.750000
vt 0.875000 1.750000
vt 1.750000 0.875000
vt -0.875000 0.007812
vt -1.750000 0.007812
vt -1.750000 -0.054688
vt -0.875000 -0.054688
vt 1.750000 -0.054688
vt 1.750000 0.007812
s 1
usemtl __TB_empty
f 517/933/371 518/934/371 519/935/371 520/936/371
usemtl Tiles045_1K-JPG_Color
f 521/937/372 519/938/372 518/939/372 522/940/372
f 523/941/373 522/942/373 518/943/373 517/944/373 524/945/373 525/946/373
f 526/946/374 527/945/374 520/944/374 519/943/374 521/942/374 528/941/374
f 524/940/375 517/939/375 520/938/375 527/937/375
f 528/947/376 521/948/376 522/949/376 523/950/376
f 525/940/377 524/951/377 527/952/377 526/937/377
f 528/947/378 523/950/378 525/940/378 526/937/378
o entity0_brush68
v 432.000000 -56.000134 -1792.000000
v 432.000000 -55.999866 1792.000000
v 432.000000 8.000135 1792.000000
v 432.000000 7.999865 -1792.000000
v 720.000000 8.000135 1792.000000
v 720.000000 -55.999866 1792.000000
v 720.000000 -56.000134 -1792.000000
v 720.000000 7.999865 -1792.000000
vn -1.0000 -0.0000 -0.0000
vn -0.0000 -0.0000 1.0000
vn -0.0000 -1.0000 -0.0000
vn -0.0000 1.0000 -0.0000
vn -0.0000 -0.0000 -1.0000
vn 1.0000 -0.0000 -0.0000
vt 1.750000 -0.054688
vt -1.750000 -0.054688
vt -1.750000 0.007812
vt 1.750000 0.007812
vt 0.703125 0.007812
vt 0.421875 0.007812
vt 0.421875 -0.054688
vt 0.703125 -0.054688
vt 0.703125 -1.750000
vt 0.421875 -1.750000
vt 0.421875 1.750000
vt 0.703125 1.750000
vt 56.000000 0.250000
vt -56.000000 0.250000
vt -56.000000 -1.750000
vt 56.000000 -1.750000
s 1
usemtl Tiles045_1K-JPG_Color
f 529/953/379 530/954/379 531/955/379 532/956/379
f 533/957/380 531/958/380 530/959/380 534/960/380
f 534/961/381 530/962/381 529/963/381 535/964/381
f 536/964/382 532/963/382 531/962/382 533/961/382
f 535/960/383 529/959/383 532/958/383 536/957/383
usemtl __TB_empty
f 536/965/384 533/966/384 534/967/384 535/968/384
o entity0_brush69
v 720.000000 -56.000134 -1792.000000
v 720.000000 -56.000004 -63.999996
v 720.000000 7.999995 -64.000000
v 720.000000 7.999865 -1792.000000
v 736.000000 7.999995 -64.000000
v 736.000000 -56.000004 -63.999996
v 736.000000 -56.000134 -1792.000000
v 736.000000 7.999865 -1792.000000
vn -1.0000 -0.0000 -0.0000
vn -0.0000 -0.0000 1.0000
vn -0.0000 -1.0000 -0.0000
vn -0.0000 1.0000 -0.0000
vn -0.0000 -0.0000 -1.0000
vn 1.0000 -0.0000 -0.0000
vt 56.000000 -1.750000
vt 2.000000 -1.750000
vt 2.000000 0.250000
vt 56.000000 0.250000
vt 23.000000 0.250000
vt 22.500000 0.250000
vt 22.500000 -1.750000
vt 23.000000 -1.750000
vt 0.718750 0.062500
vt 0.703125 0.062500
vt 0.703125 1.750000
vt 0.718750 1.750000
vt 0.718750 -0.054688
vt 0.703125 -0.054688
vt 0.703125 0.007812
vt 0.718750 0.007812
s 1
usemtl __TB_empty
f 537/969/385 538/970/385 539/971/385 540/972/385
f 541/973/386 539/974/386 538/975/386 542/976/386
f 544/972/390 541/971/390 542/970/390 543/969/390
usemtl Tiles045_1K-JPG_Color
f 542/977/387 538/978/387 537/979/387 543/980/387
f 544/980/388 540/979/388 539/978/388 541/977/388
f 543/981/389 537/982/389 540/983/389 544/984/389
o entity0_brush7
v -888.070801 1280.000122 1791.999878
v -1792.000000 1280.000122 888.070679
v -1792.000000 -15.999933 888.070801
v -888.070801 -15.999865 1792.000000
v -1776.141602 -15.999933 888.070801
v -888.070801 -15.999866 1776.141602
v -888.070801 1280.000122 1776.141479
v -1776.141602 1280.000122 888.070679
vn -0.7071 -0.0000 0.7071
vn -0.0000 -1.0000 -0.0000
vn -0.0000 1.0000 -0.0000
vn -0.0000 -0.0000 -1.0000
vn 0.7071 -0.0000 -0.7071
vn 1.0000 -0.0000 -0.0000
vt -111.750000 80.000000
vt -55.254425 80.000000
vt -55.254425 -1.000000
vt -111.750000 -1.000000
vt -55.504425 -112.000000
vt -112.000000 -55.504425
vt -111.008850 -55.504425
vt -55.504425 -111.008850
vt -111.008850 -1.000000
vt -112.000000 -1.000000
vt -112.000000 80.000000
vt -111.008850 80.000000
vt -55.504425 -1.000000
vt -55.504425 80.000000
s 1
usemtl test_texture
f 545/985/391 546/986/391 547/987/391 548/988/391
f 548/989/392 547/990/392 549/991/392 550/992/392
f 551/992/393 552/991/393 546/990/393 545/989/393
f 549/993/394 547/994/394 546/995/394 552/996/394
f 550/993/395 549/997/395 552/998/395 551/996/395
f 548/994/396 550/993/396 551/996/396 545/995/396
o entity0_brush70
v 720.000000 -55.999996 64.000008
v 720.000000 -55.999866 1792.000000
v 720.000000 8.000135 1792.000000
v 720.000000 8.000005 64.000000
v 736.000000 8.000135 1792.000000
v 736.000000 -55.999866 1792.000000
v 736.000000 -55.999996 64.000008
v 736.000000 8.000005 64.000000
vn -1.0000 -0.0000 -0.0000
vn -0.0000 -0.0000 1.0000
vn -0.0000 -1.0000 -0.0000
vn -0.0000 1.0000 -0.0000
vn -0.0000 -0.0000 -1.0000
vn 1.0000 -0.0000 -0.0000
vt -2.000000 -1.750000
vt -56.000000 -1.750000
vt -56.000000 0.250000
vt -2.000000 0.250000
vt 0.718750 0.007812
vt 0.703125 0.007812
vt 0.703125 -0.054688
vt 0.718750 -0.054688
vt 0.718750 -1.750000
vt 0.703125 -1.750000
vt 0.703125 -0.062500
vt 0.718750 -0.062500
vt 23.000000 -1.750000
vt 22.500000 -1.750000
vt 22.500000 0.250000
vt 23.000000 0.250000
s 1
usemtl __TB_empty
f 553/999/397 554/1000/397 555/1001/397 556/1002/397
f 559/1011/401 553/1012/401 556/1013/401 560/1014/401
f 560/1002/402 557/1001/402 558/1000/402 559/999/402
usemtl Tiles045_1K-JPG_Color
f 557/1003/398 555/1004/398 554/1005/398 558/1006/398
f 558/1007/399 554/1008/399 553/1009/399 559/1010/399
f 560/1010/400 556/1009/400 555/1008/400 557/1007/400
o entity0_brush71
v 720.000000 -56.000004 -63.999996
v 720.000000 -55.999996 64.000008
v 720.000000 0.000005 64.000000
v 720.000000 -0.000005 -64.000000
v 736.000000 0.000005 64.000000
v 736.000000 -55.999996 64.000008
v 736.000000 -56.000004 -63.999996
v 736.000000 -0.000005 -64.000000
vn -1.0000 -0.0000 -0.0000
vn -0.0000 -0.0000 1.0000
vn -0.0000 -1.0000 -0.0000
vn -0.0000 1.0000 -0.0000
vn -0.0000 -0.0000 -1.0000
vn 1.0000 -0.0000 -0.0000
vt 2.000000 -1.750000
vt -2.000000 -1.750000
vt -2.000000 -0.000000
vt 2.000000 -0.000000
vt 23.000000 -0.000000
vt 22.500000 -0.000000
vt 22.500000 -1.750000
vt 23.000000 -1.750000
vt 0.718750 -0.062500
vt 0.703125 -0.062500
vt 0.703125 0.062500
vt 0.718750 0.062500
vt 23.000000 2.000000
vt 22.500000 2.000000
vt 22.500000 -2.000000
vt 23.000000 -2.000000
s 1
usemtl __TB_empty
f 561/1015/403 562/1016/403 563/1017/403 564/1018/403
f 565/1019/404 563/1020/404 562/1021/404 566/1022/404
f 568/1027/406 564/1028/406 563/1029/406 565/1030/406
f 567/1022/407 561/1021/407 564/1020/407 568/1019/407
f 568/1018/408 565/1017/408 566/1016/408 567/1015/408
usemtl Tiles045_1K-JPG_Color
f 566/1023/405 562/1024/405 561/1025/405 567/1026/405
o entity0_brush8
v 888.070801 -16.000135 -1792.000000
v 888.070801 -16.000134 -1776.141602
v 888.070801 1279.999878 -1776.141724
v 888.070801 1279.999878 -1792.000122
v 1776.141602 -16.000067 -888.070801
v 1776.141602 1279.999878 -888.070923
v 1792.000000 1279.999878 -888.070923
v 1792.000000 -16.000067 -888.070801
vn -1.0000 -0.0000 -0.0000
vn -0.7071 -0.0000 0.7071
vn -0.0000 -0.0000 1.0000
vn -0.0000 -1.0000 -0.0000
vn -0.0000 1.0000 -0.0000
vn 0.7071 -0.0000 -0.7071
vt 112.000000 -1.000000
vt 111.008850 -1.000000
vt 111.008850 80.000000
vt 112.000000 80.000000
vt 55.504425 -1.000000
vt 55.504425 80.000000
vt 112.000000 55.504425
vt 111.008850 55.504425
vt 55.504425 111.008850
vt 55.504425 112.000000
s 1
usemtl test_texture
f 569/1031/409 570/1032/409 571/1033/409 572/1034/409
f 571/1033/410 570/1032/410 573/1035/410 574/1036/410
f 575/1034/411 574/1033/411 573/1032/411 576/1031/411
f 576/1037/412 573/1038/412 570/1039/412 569/1040/412
f 572/1040/413 571/1039/413 574/1038/413 575/1037/413
f 576/1035/414 569/1031/414 572/1034/414 575/1036/414
o entity0_brush9
v -1792.000000 1295.999878 -896.000122
v -1792.000000 1279.999878 -896.000122
v -1792.000000 1280.000122 895.999878
v -1792.000000 1296.000122 895.999878
v -896.000000 1280.000122 1791.999878
v -896.000000 1296.000122 1791.999878
v -896.000000 1279.999878 -1792.000122
v -896.000000 1295.999878 -1792.000122
v 896.000000 1296.000122 1791.999878
v 896.000000 1280.000122 1791.999878
v 1792.000000 1280.000122 895.999878
v 896.000000 1279.999878 -1792.000122
v 1792.000000 1279.999878 -896.000122
v 1792.000000 1295.999878 -896.000122
v 896.000000 1295.999878 -1792.000122
v 1792.000000 1296.000122 895.999878
vn -1.0000 -0.0000 -0.0000
vn -0.7071 -0.0000 0.7071
vn -0.7071 -0.0000 -0.7071
vn -0.0000 -0.0000 1.0000
vn -0.0000 -1.0000 -0.0000
vn -0.0000 1.0000 -0.0000
vn -0.0000 -0.0000 -1.0000
vn 0.7071 -0.0000 0.7071
vn 0.7071 -0.0000 -0.7071
vn 1.0000 -0.0000 -0.0000
vt 56.000000 81.000000
vt 56.000000 80.000000
vt -56.000000 80.000000
vt -56.000000 81.000000
vt -112.000000 80.000000
vt -112.000000 81.000000
vt 112.000000 80.000000
vt 112.000000 81.000000
vt 112.000000 -56.000000
vt 56.000000 -112.000000
vt -56.000000 -112.000000
vt -112.000000 -56.000000
vt -112.000000 56.000000
vt -56.000000 112.000000
vt 56.000000 112.000000
vt 112.000000 56.000000
s 1
usemtl test_texture
f 577/1041/415 578/1042/415 579/1043/415 580/1044/415
f 580/1044/416 579/1043/416 581/1045/416 582/1046/416
f 583/1047/417 578/1042/417 577/1041/417 584/1048/417
f 585/1041/418 582/1044/418 581/1043/418 586/1042/418
f 587/1049/419 586/1050/419 581/1051/419 579/1052/419 578/1053/419 583/1054/419 588/1055/419 589/1056/419
f 590/1056/420 591/1055/420 584/1054/420 577/1053/420 580/1052/420 582/1051/420 585/1050/420 592/1049/420
f 588/1042/421 583/1043/421 584/1044/421 591/1041/421
f 592/1044/422 585/1046/422 586/1045/422 587/1043/422
f 589/1042/423 588/1047/423 591/1048/423 590/1041/423
f 592/1044/424 587/1043/424 589/1042/424 590/1041/424
