# Blender 5.1.1
# www.blender.org
mtllib singleportal_review.mtl
o entity0_brush0
v -128.000000 -0.000010 -128.000000
v -128.000000 0.000029 384.000000
v -128.000000 16.000029 384.000000
v -128.000000 15.999990 -128.000000
v 128.000000 16.000029 384.000000
v 128.000000 0.000029 384.000000
v 128.000000 -0.000010 -128.000000
v 128.000000 15.999990 -128.000000
vn -1.0000 -0.0000 -0.0000
vn -0.0000 -0.0000 1.0000
vn -0.0000 -1.0000 -0.0000
vn -0.0000 1.0000 -0.0000
vn -0.0000 -0.0000 -1.0000
vn 1.0000 -0.0000 -0.0000
vt 8.000000 -0.000000
vt -24.000000 -0.000000
vt -24.000000 1.000000
vt 8.000000 1.000000
vt -8.000000 1.000000
vt -8.000000 -0.000000
vt 8.000000 -24.000000
vt -8.000000 -24.000000
vt -8.000000 8.000000
vt 8.000000 8.000000
s 1
usemtl test_texture
f 1/1/1 2/2/1 3/3/1 4/4/1
f 5/4/2 3/5/2 2/6/2 6/1/2
f 6/7/3 2/8/3 1/9/3 7/10/3
f 8/10/4 4/9/4 3/8/4 5/7/4
f 7/1/5 1/6/5 4/5/5 8/4/5
f 8/4/6 5/3/6 6/2/6 7/1/6
o portal_entrance_1
v -64.000000 -0.000010 -128.000000
v -64.000000 127.999992 -128.000015
v 64.000000 127.999992 -128.000015
v 64.000000 -0.000010 -128.000000
vn -0.0000 -0.0000 1.0000
vt 4.000000 8.000000
vt -4.000000 8.000000
vt -4.000000 -0.000000
vt 4.000000 -0.000000
s 1
usemtl test_texture
f 11/11/7 10/12/7 9/13/7 12/14/7
o entity0_brush10_stair
v -32.000000 -112.000031 -448.000000
v -32.000000 -112.000031 -384.000000
v -32.000000 -96.000031 -384.000000
v -32.000000 -96.000031 -448.000000
v 32.000000 -96.000031 -384.000000
v 32.000000 -112.000031 -384.000000
v 32.000000 -112.000031 -448.000000
v 32.000000 -96.000031 -448.000000
vn -1.0000 -0.0000 -0.0000
vn -0.0000 -0.0000 1.0000
vn -0.0000 -1.0000 -0.0000
vn -0.0000 1.0000 -0.0000
vn -0.0000 -0.0000 -1.0000
vn 1.0000 -0.0000 -0.0000
vt 14.000000 -3.500000
vt 12.000000 -3.500000
vt 12.000000 -3.000000
vt 14.000000 -3.000000
vt 1.000000 -3.000000
vt -1.000000 -3.000000
vt -1.000000 -3.500000
vt 1.000000 -3.500000
vt 1.000000 12.000000
vt -1.000000 12.000000
vt -1.000000 14.000000
vt 1.000000 14.000000
s 1
usemtl __TB_empty
f 13/15/8 14/16/8 15/17/8 16/18/8
f 17/19/9 15/20/9 14/21/9 18/22/9
f 18/23/10 14/24/10 13/25/10 19/26/10
f 20/26/11 16/25/11 15/24/11 17/23/11
f 19/22/12 13/21/12 16/20/12 20/19/12
f 20/18/13 17/17/13 18/16/13 19/15/13
o entity0_brush11
v 128.000000 0.000010 128.000000
v 128.000000 0.000029 384.000000
v 128.000000 128.000031 384.000000
v 128.000000 128.000015 127.999992
v 144.000000 128.000031 384.000000
v 144.000000 0.000029 384.000000
v 144.000000 0.000010 128.000000
v 144.000000 128.000015 127.999992
vn -1.0000 -0.0000 -0.0000
vn -0.0000 -0.0000 1.0000
vn -0.0000 -1.0000 -0.0000
vn -0.0000 1.0000 -0.0000
vn -0.0000 -0.0000 -1.0000
vn 1.0000 -0.0000 -0.0000
vt -3.500000 -0.000000
vt -11.500000 -0.000000
vt -11.500000 4.000000
vt -3.500000 4.000000
vt 4.500000 4.000000
vt 4.000000 4.000000
vt 4.000000 -0.000000
vt 4.500000 -0.000000
vt 4.500000 -12.000000
vt 4.000000 -12.000000
vt 4.000000 -4.000000
vt 4.500000 -4.000000
vt -4.000000 4.000000
vt -12.000000 4.000000
vt -12.000000 -0.000000
vt -4.000000 -0.000000
s 1
usemtl __TB_empty
f 21/27/14 22/28/14 23/29/14 24/30/14
f 25/31/15 23/32/15 22/33/15 26/34/15
f 26/35/16 22/36/16 21/37/16 27/38/16
f 28/38/17 24/37/17 23/36/17 25/35/17
f 27/34/18 21/33/18 24/32/18 28/31/18
f 28/39/19 25/40/19 26/41/19 27/42/19
o entity0_brush12
v 0.000000 112.000008 127.999992
v 0.000000 112.000031 368.000000
v 0.000000 128.000031 368.000000
v 0.000000 128.000015 127.999992
v 128.000000 128.000031 368.000000
v 128.000000 112.000031 368.000000
v 128.000000 112.000008 127.999992
v 128.000000 128.000015 127.999992
vn -1.0000 -0.0000 -0.0000
vn -0.0000 -0.0000 1.0000
vn -0.0000 -1.0000 -0.0000
vn -0.0000 1.0000 -0.0000
vn -0.0000 -0.0000 -1.0000
vn 1.0000 -0.0000 -0.0000
vt -4.000000 3.500000
vt -11.500000 3.500000
vt -11.500000 4.000000
vt -4.000000 4.000000
vt 4.000000 4.000000
vt 0.000000 4.000000
vt 0.000000 3.500000
vt 4.000000 3.500000
vt 4.000000 -11.500000
vt 0.000000 -11.500000
vt 0.000000 -4.000000
vt 4.000000 -4.000000
s 1
usemtl __TB_empty
f 29/43/20 30/44/20 31/45/20 32/46/20
f 33/47/21 31/48/21 30/49/21 34/50/21
f 34/51/22 30/52/22 29/53/22 35/54/22
f 36/54/23 32/53/23 31/52/23 33/51/23
f 35/50/24 29/49/24 32/48/24 36/47/24
f 36/46/25 33/45/25 34/44/25 35/43/25
o entity0_brush13
v -112.000000 16.000029 368.000000
v -112.000000 16.000029 384.000000
v -112.000000 128.000031 384.000000
v -112.000000 128.000031 368.000000
v 128.000000 128.000031 384.000000
v 128.000000 16.000029 384.000000
v 128.000000 16.000029 368.000000
v 128.000000 128.000031 368.000000
vn -1.0000 -0.0000 -0.0000
vn -0.0000 -0.0000 1.0000
vn -0.0000 -1.0000 -0.0000
vn -0.0000 1.0000 -0.0000
vn -0.0000 -0.0000 -1.0000
vn 1.0000 -0.0000 -0.0000
vt -11.500000 0.500000
vt -12.000000 0.500000
vt -12.000000 4.000000
vt -11.500000 4.000000
vt 4.000000 4.000000
vt -3.500000 4.000000
vt -3.500000 0.500000
vt 4.000000 0.500000
vt 4.000000 -12.000000
vt -3.500000 -12.000000
vt -3.500000 -11.500000
vt 4.000000 -11.500000
s 1
usemtl __TB_empty
f 37/55/26 38/56/26 39/57/26 40/58/26
f 41/59/27 39/60/27 38/61/27 42/62/27
f 42/63/28 38/64/28 37/65/28 43/66/28
f 44/66/29 40/65/29 39/64/29 41/63/29
f 43/62/30 37/61/30 40/60/30 44/59/30
f 44/58/31 41/57/31 42/56/31 43/55/31
o entity0_brush14_purple
v 64.000000 -0.000011 -144.000000
v 64.000000 -0.000010 -128.000000
v 64.000000 127.999992 -128.000015
v 64.000000 127.999992 -144.000015
v 128.000000 127.999992 -128.000015
v 128.000000 -0.000010 -128.000000
v 128.000000 -0.000011 -144.000000
v 128.000000 127.999992 -144.000015
vn -1.0000 -0.0000 -0.0000
vn -0.0000 -0.0000 1.0000
vn -0.0000 -1.0000 -0.0000
vn -0.0000 1.0000 -0.0000
vn -0.0000 -0.0000 -1.0000
vn 1.0000 -0.0000 -0.0000
vt 9.000000 -0.000000
vt 8.000000 -0.000000
vt 8.000000 8.000000
vt 9.000000 8.000000
vt 4.000000 8.000000
vt 4.000000 -0.000000
vt 4.000000 9.000000
vt 8.000000 9.000000
s 1
usemtl purple_test_texture
f 45/67/32 46/68/32 47/69/32 48/70/32
f 49/69/33 47/71/33 46/72/33 50/68/33
f 50/69/34 46/71/34 45/73/34 51/74/34
f 52/74/35 48/73/35 47/71/35 49/69/35
f 51/68/36 45/72/36 48/71/36 52/69/36
f 52/70/37 49/69/37 50/68/37 51/67/37
o entity0_brush15_purple
v 32.000000 111.999992 -128.000015
v 32.000000 112.000008 127.999992
v 32.000000 128.000015 127.999992
v 32.000000 127.999992 -128.000015
v 144.000000 128.000015 127.999992
v 144.000000 112.000008 127.999992
v 144.000000 111.999992 -128.000015
v 144.000000 127.999992 -128.000015
vn -1.0000 -0.0000 -0.0000
vn -0.0000 -0.0000 1.0000
vn -0.0000 -1.0000 -0.0000
vn -0.0000 1.0000 -0.0000
vn -0.0000 -0.0000 -1.0000
vn 1.0000 -0.0000 -0.0000
vt 8.000000 7.000000
vt -8.000000 7.000000
vt -8.000000 8.000000
vt 8.000000 8.000000
vt 9.000000 8.000000
vt 2.000000 8.000000
vt 2.000000 7.000000
vt 9.000000 7.000000
vt 9.000000 -8.000000
vt 2.000000 -8.000000
s 1
usemtl purple_test_texture
f 53/75/38 54/76/38 55/77/38 56/78/38
f 57/79/39 55/80/39 54/81/39 58/82/39
f 58/83/40 54/84/40 53/80/40 59/79/40
f 60/79/41 56/80/41 55/84/41 57/83/41
f 59/82/42 53/81/42 56/80/42 60/79/42
f 60/78/43 57/77/43 58/76/43 59/75/43
o entity0_brush16_purple
v 128.000000 -0.000010 -128.000000
v 128.000000 0.000010 128.000000
v 128.000000 112.000008 127.999992
v 128.000000 111.999992 -128.000015
v 144.000000 112.000008 127.999992
v 144.000000 0.000010 128.000000
v 144.000000 -0.000010 -128.000000
v 144.000000 111.999992 -128.000015
vn -1.0000 -0.0000 -0.0000
vn -0.0000 -0.0000 1.0000
vn -0.0000 -1.0000 -0.0000
vn -0.0000 1.0000 -0.0000
vn -0.0000 -0.0000 -1.0000
vn 1.0000 -0.0000 -0.0000
vt 8.000000 -0.000000
vt -8.000000 -0.000000
vt -8.000000 7.000000
vt 8.000000 7.000000
vt 9.000000 7.000000
vt 9.000000 -0.000000
vt 9.000000 -8.000000
vt 8.000000 -8.000000
vt 8.000000 8.000000
vt 9.000000 8.000000
s 1
usemtl purple_test_texture
f 61/85/44 62/86/44 63/87/44 64/88/44
f 65/89/45 63/88/45 62/85/45 66/90/45
f 66/91/46 62/92/46 61/93/46 67/94/46
f 68/94/47 64/93/47 63/92/47 65/91/47
f 67/90/48 61/85/48 64/88/48 68/89/48
f 68/88/49 65/87/49 66/86/49 67/85/49
o entity0_brush17_purple
v 64.000000 -128.000046 -640.000000
v 64.000000 -128.000015 -255.999985
v 64.000000 -0.000019 -256.000000
v 64.000000 -0.000048 -640.000000
v 80.000000 -0.000019 -256.000000
v 80.000000 -128.000015 -255.999985
v 80.000000 -128.000046 -640.000000
v 80.000000 -0.000048 -640.000000
vn -1.0000 -0.0000 -0.0000
vn -0.0000 -0.0000 1.0000
vn -0.0000 -1.0000 -0.0000
vn -0.0000 1.0000 -0.0000
vn -0.0000 -0.0000 -1.0000
vn 1.0000 -0.0000 -0.0000
vt 40.000000 -8.000000
vt 16.000000 -8.000000
vt 16.000000 -0.000000
vt 40.000000 -0.000000
vt 5.000000 -0.000000
vt 4.000000 -0.000000
vt 4.000000 -8.000000
vt 5.000000 -8.000000
vt 5.000000 16.000000
vt 4.000000 16.000000
vt 4.000000 40.000000
vt 5.000000 40.000000
s 1
usemtl purple_test_texture
f 69/95/50 70/96/50 71/97/50 72/98/50
f 73/99/51 71/100/51 70/101/51 74/102/51
f 74/103/52 70/104/52 69/105/52 75/106/52
f 76/106/53 72/105/53 71/104/53 73/103/53
f 75/102/54 69/101/54 72/100/54 76/99/54
f 76/98/55 73/97/55 74/96/55 75/95/55
o entity0_brush18_purple
v 0.000000 -128.000046 -640.000000
v 0.000000 -128.000046 -624.000000
v 0.000000 -0.000047 -624.000000
v 0.000000 -0.000048 -640.000000
v 320.000000 -0.000047 -624.000000
v 320.000000 -128.000046 -624.000000
v 320.000000 -128.000046 -640.000000
v 320.000000 -0.000048 -640.000000
vn -1.0000 -0.0000 -0.0000
vn -0.0000 -0.0000 1.0000
vn -0.0000 -1.0000 -0.0000
vn -0.0000 1.0000 -0.0000
vn -0.0000 -0.0000 -1.0000
vn 1.0000 -0.0000 -0.0000
vt 40.000000 -8.000000
vt 39.000000 -8.000000
vt 39.000000 -0.000000
vt 40.000000 -0.000000
vt 20.000000 -0.000000
vt 0.000000 -0.000000
vt 0.000000 -8.000000
vt 20.000000 -8.000000
vt 20.000000 39.000000
vt 0.000000 39.000000
vt 0.000000 40.000000
vt 20.000000 40.000000
s 1
usemtl purple_test_texture
f 77/107/56 78/108/56 79/109/56 80/110/56
f 81/111/57 79/112/57 78/113/57 82/114/57
f 82/115/58 78/116/58 77/117/58 83/118/58
f 84/118/59 80/117/59 79/116/59 81/115/59
f 83/114/60 77/113/60 80/112/60 84/111/60
f 84/110/61 81/109/61 82/108/61 83/107/61
o entity0_brush19_stair
v -32.000000 -112.000038 -512.000000
v -32.000000 -112.000031 -448.000000
v -32.000000 -80.000031 -448.000000
v -32.000000 -80.000038 -512.000000
v 32.000000 -80.000031 -448.000000
v 32.000000 -112.000031 -448.000000
v 32.000000 -112.000038 -512.000000
v 32.000000 -80.000038 -512.000000
vn -1.0000 -0.0000 -0.0000
vn -0.0000 -0.0000 1.0000
vn -0.0000 -1.0000 -0.0000
vn -0.0000 1.0000 -0.0000
vn -0.0000 -0.0000 -1.0000
vn 1.0000 -0.0000 -0.0000
vt 16.000000 -3.500000
vt 14.000000 -3.500000
vt 14.000000 -2.500000
vt 16.000000 -2.500000
vt 1.000000 -2.500000
vt -1.000000 -2.500000
vt -1.000000 -3.500000
vt 1.000000 -3.500000
vt 1.000000 14.000000
vt -1.000000 14.000000
vt -1.000000 16.000000
vt 1.000000 16.000000
s 1
usemtl __TB_empty
f 85/119/62 86/120/62 87/121/62 88/122/62
f 89/123/63 87/124/63 86/125/63 90/126/63
f 90/127/64 86/128/64 85/129/64 91/130/64
f 92/130/65 88/129/65 87/128/65 89/127/65
f 91/126/66 85/125/66 88/124/66 92/123/66
f 92/122/67 89/121/67 90/120/67 91/119/67
o portal_exit_1
v -64.000000 -128.000015 -272.000000
v -64.000000 -0.000021 -272.000000
v 64.000000 -128.000015 -272.000000
v 64.000000 -0.000021 -272.000000
vn -0.0000 -0.0000 -1.0000
vt 4.000000 -8.000000
vt -4.000000 -8.000000
vt -4.000000 -0.000000
vt 4.000000 -0.000000
s 1
usemtl test_texture
f 95/131/68 93/132/68 94/133/68 96/134/68
o entity0_brush3
v -320.000000 -128.000046 -624.000000
v -64.000000 -128.000015 -272.000000
v -64.000000 -112.000023 -272.000000
v -320.000000 -112.000046 -624.000000
v 64.000000 -112.000023 -272.000000
v 64.000000 -128.000015 -272.000000
v 320.000000 -128.000046 -624.000000
v 320.000000 -112.000046 -624.000000
vn -0.8087 -0.0000 0.5882
vn -0.0000 -0.0000 1.0000
vn -0.0000 -1.0000 -0.0000
vn -0.0000 1.0000 -0.0000
vn -0.0000 -0.0000 -1.0000
vn 0.8087 -0.0000 0.5882
vt 39.000000 -8.000000
vt 17.000000 -8.000000
vt 17.000000 -7.000000
vt 39.000000 -7.000000
vt 4.000000 -7.000000
vt -4.000000 -7.000000
vt -4.000000 -8.000000
vt 4.000000 -8.000000
vt 4.000000 17.000000
vt -4.000000 17.000000
vt -20.000000 39.000000
vt 20.000000 39.000000
vt 20.000000 -8.000000
vt -20.000000 -8.000000
vt -20.000000 -7.000000
vt 20.000000 -7.000000
s 1
usemtl test_texture
f 97/135/69 98/136/69 99/137/69 100/138/69
f 101/139/70 99/140/70 98/141/70 102/142/70
f 102/143/71 98/144/71 97/145/71 103/146/71
f 104/146/72 100/145/72 99/144/72 101/143/72
f 103/147/73 97/148/73 100/149/73 104/150/73
f 104/138/74 101/137/74 102/136/74 103/135/74
o entity0_brush4
v -320.000000 -0.000047 -624.000000
v -64.000000 -0.000021 -272.000000
v -64.000000 15.999979 -272.000000
v -320.000000 15.999953 -624.000000
v 64.000000 15.999979 -272.000000
v 64.000000 -0.000021 -272.000000
v 320.000000 -0.000047 -624.000000
v 320.000000 15.999953 -624.000000
vn -0.8087 -0.0000 0.5882
vn -0.0000 -0.0000 1.0000
vn -0.0000 -1.0000 -0.0000
vn -0.0000 1.0000 -0.0000
vn -0.0000 -0.0000 -1.0000
vn 0.8087 -0.0000 0.5882
vt 39.000000 -0.000000
vt 17.000000 -0.000000
vt 17.000000 1.000000
vt 39.000000 1.000000
vt 4.000000 1.000000
vt -4.000000 1.000000
vt -4.000000 -0.000000
vt 4.000000 -0.000000
vt 4.000000 17.000000
vt -4.000000 17.000000
vt -20.000000 39.000000
vt 20.000000 39.000000
vt 20.000000 -0.000000
vt -20.000000 -0.000000
vt -20.000000 1.000000
vt 20.000000 1.000000
s 1
usemtl test_texture
f 105/151/75 106/152/75 107/153/75 108/154/75
f 109/155/76 107/156/76 106/157/76 110/158/76
f 110/159/77 106/160/77 105/161/77 111/162/77
f 112/162/78 108/161/78 107/160/78 109/159/78
f 111/163/79 105/164/79 108/165/79 112/166/79
f 112/154/80 109/153/80 110/152/80 111/151/80
o entity0_brush5
v -32.000000 111.999992 -128.000015
v -32.000000 112.000008 127.999992
v -32.000000 128.000015 127.999992
v -32.000000 127.999992 -128.000015
v 32.000000 128.000015 127.999992
v 32.000000 112.000008 127.999992
v 32.000000 111.999992 -128.000015
v 32.000000 127.999992 -128.000015
vn -1.0000 -0.0000 -0.0000
vn -0.0000 -0.0000 1.0000
vn -0.0000 -1.0000 -0.0000
vn -0.0000 1.0000 -0.0000
vn -0.0000 -0.0000 -1.0000
vn 1.0000 -0.0000 -0.0000
vt 8.000000 7.000000
vt -8.000000 7.000000
vt -8.000000 8.000000
vt 8.000000 8.000000
vt 2.000000 8.000000
vt -2.000000 8.000000
vt -2.000000 7.000000
vt 2.000000 7.000000
vt 2.000000 -8.000000
vt -2.000000 -8.000000
s 1
usemtl test_texture
f 113/167/81 114/168/81 115/169/81 116/170/81
f 117/171/82 115/172/82 114/173/82 118/174/82
f 118/175/83 114/176/83 113/172/83 119/171/83
f 120/171/84 116/172/84 115/176/84 117/175/84
f 119/174/85 113/173/85 116/172/85 120/171/85
f 120/170/86 117/169/86 118/168/86 119/167/86
o entity0_brush6
v -128.000000 0.000010 128.000000
v -128.000000 0.000011 144.000000
v -128.000000 128.000015 143.999985
v -128.000000 128.000015 127.999992
v 0.000000 128.000015 143.999985
v 0.000000 0.000011 144.000000
v 0.000000 0.000010 128.000000
v 0.000000 128.000015 127.999992
vn -1.0000 -0.0000 -0.0000
vn -0.0000 -0.0000 1.0000
vn -0.0000 -1.0000 -0.0000
vn -0.0000 1.0000 -0.0000
vn -0.0000 -0.0000 -1.0000
vn 1.0000 -0.0000 -0.0000
vt -8.000000 -0.000000
vt -9.000000 -0.000000
vt -9.000000 8.000000
vt -8.000000 8.000000
vt 0.000000 8.000000
vt 0.000000 -0.000000
vt 0.000000 -9.000000
vt -8.000000 -9.000000
vt -8.000000 -8.000000
vt 0.000000 -8.000000
s 1
usemtl test_texture
f 121/177/87 122/178/87 123/179/87 124/180/87
f 125/181/88 123/180/88 122/177/88 126/182/88
f 126/183/89 122/184/89 121/185/89 127/186/89
f 128/186/90 124/185/90 123/184/90 125/183/90
f 127/182/91 121/177/91 124/180/91 128/181/91
f 128/180/92 125/179/92 126/178/92 127/177/92
o entity0_brush7
v -128.000000 0.000019 256.000000
v -128.000000 0.000029 384.000000
v -128.000000 128.000031 384.000000
v -128.000000 128.000015 255.999985
v -112.000000 128.000031 384.000000
v -112.000000 0.000029 384.000000
v -112.000000 0.000019 256.000000
v -112.000000 128.000015 255.999985
vn -1.0000 -0.0000 -0.0000
vn -0.0000 -0.0000 1.0000
vn -0.0000 -1.0000 -0.0000
vn -0.0000 1.0000 -0.0000
vn -0.0000 -0.0000 -1.0000
vn 1.0000 -0.0000 -0.0000
vt -16.000000 -0.000000
vt -24.000000 -0.000000
vt -24.000000 8.000000
vt -16.000000 8.000000
vt -7.000000 8.000000
vt -8.000000 8.000000
vt -8.000000 -0.000000
vt -7.000000 -0.000000
vt -7.000000 -24.000000
vt -8.000000 -24.000000
vt -8.000000 -16.000000
vt -7.000000 -16.000000
s 1
usemtl test_texture
f 129/187/93 130/188/93 131/189/93 132/190/93
f 133/191/94 131/192/94 130/193/94 134/194/94
f 134/195/95 130/196/95 129/197/95 135/198/95
f 136/198/96 132/197/96 131/196/96 133/195/96
f 135/194/97 129/193/97 132/192/97 136/191/97
f 136/190/98 133/189/98 134/188/98 135/187/98
o entity0_brush8
v -256.000000 0.000019 256.000000
v -256.000000 0.000029 384.000000
v -256.000000 16.000029 384.000000
v -256.000000 16.000019 256.000000
v -128.000000 16.000029 384.000000
v -128.000000 0.000029 384.000000
v -128.000000 0.000019 256.000000
v -128.000000 16.000019 256.000000
vn -1.0000 -0.0000 -0.0000
vn -0.0000 -0.0000 1.0000
vn -0.0000 -1.0000 -0.0000
vn -0.0000 1.0000 -0.0000
vn -0.0000 -0.0000 -1.0000
vn 1.0000 -0.0000 -0.0000
vt -16.000000 -0.000000
vt -24.000000 -0.000000
vt -24.000000 1.000000
vt -16.000000 1.000000
vt -8.000000 1.000000
vt -8.000000 -0.000000
vt -8.000000 -24.000000
vt -16.000000 -24.000000
vt -16.000000 -16.000000
vt -8.000000 -16.000000
s 1
usemtl test_texture
f 137/199/99 138/200/99 139/201/99 140/202/99
f 141/203/100 139/202/100 138/199/100 142/204/100
f 142/205/101 138/206/101 137/207/101 143/208/101
f 144/208/102 140/207/102 139/206/102 141/205/102
f 143/204/103 137/199/103 140/202/103 144/203/103
f 144/202/104 141/201/104 142/200/104 143/199/104
o entity0_brush9_stair
v -32.000000 -112.000046 -576.000000
v -32.000000 -112.000038 -512.000000
v -32.000000 -64.000038 -512.000000
v -32.000000 -64.000046 -576.000000
v 32.000000 -64.000038 -512.000000
v 32.000000 -112.000038 -512.000000
v 32.000000 -112.000046 -576.000000
v 32.000000 -64.000046 -576.000000
vn -1.0000 -0.0000 -0.0000
vn -0.0000 -0.0000 1.0000
vn -0.0000 -1.0000 -0.0000
vn -0.0000 1.0000 -0.0000
vn -0.0000 -0.0000 -1.0000
vn 1.0000 -0.0000 -0.0000
vt 18.000000 -3.500000
vt 16.000000 -3.500000
vt 16.000000 -2.000000
vt 18.000000 -2.000000
vt 1.000000 -2.000000
vt -1.000000 -2.000000
vt -1.000000 -3.500000
vt 1.000000 -3.500000
vt 1.000000 16.000000
vt -1.000000 16.000000
vt -1.000000 18.000000
vt 1.000000 18.000000
s 1
usemtl __TB_empty
f 145/209/105 146/210/105 147/211/105 148/212/105
f 149/213/106 147/214/106 146/215/106 150/216/106
f 150/217/107 146/218/107 145/219/107 151/220/107
f 152/220/108 148/219/108 147/218/108 149/217/108
f 151/216/109 145/215/109 148/214/109 152/213/109
f 152/212/110 149/211/110 150/210/110 151/209/110
o entity1_brush0_blue
v -144.000000 -0.000010 -128.000000
v -144.000000 0.000010 128.000000
v -144.000000 112.000008 127.999992
v -144.000000 111.999992 -128.000015
v -128.000000 112.000008 127.999992
v -128.000000 0.000010 128.000000
v -128.000000 -0.000010 -128.000000
v -128.000000 111.999992 -128.000015
vn -1.0000 -0.0000 -0.0000
vn -0.0000 -0.0000 1.0000
vn -0.0000 -1.0000 -0.0000
vn -0.0000 1.0000 -0.0000
vn -0.0000 -0.0000 -1.0000
vn 1.0000 -0.0000 -0.0000
vt 8.000000 -0.000000
vt -8.000000 -0.000000
vt -8.000000 7.000000
vt 8.000000 7.000000
vt -9.000000 7.000000
vt -9.000000 -0.000000
vt -8.000000 -8.000000
vt -9.000000 -8.000000
vt -9.000000 8.000000
vt -8.000000 8.000000
s 1
usemtl blue_test_texture
f 153/221/111 154/222/111 155/223/111 156/224/111
f 157/223/112 155/225/112 154/226/112 158/222/112
f 158/227/113 154/228/113 153/229/113 159/230/113
f 160/230/114 156/229/114 155/228/114 157/227/114
f 159/222/115 153/226/115 156/225/115 160/223/115
f 160/224/116 157/223/116 158/222/116 159/221/116
o entity1_brush1_blue
v -144.000000 111.999992 -128.000015
v -144.000000 112.000008 127.999992
v -144.000000 128.000015 127.999992
v -144.000000 127.999992 -128.000015
v -32.000000 128.000015 127.999992
v -32.000000 112.000008 127.999992
v -32.000000 111.999992 -128.000015
v -32.000000 127.999992 -128.000015
vn -1.0000 -0.0000 -0.0000
vn -0.0000 -0.0000 1.0000
vn -0.0000 -1.0000 -0.0000
vn -0.0000 1.0000 -0.0000
vn -0.0000 -0.0000 -1.0000
vn 1.0000 -0.0000 -0.0000
vt 8.000000 7.000000
vt -8.000000 7.000000
vt -8.000000 8.000000
vt 8.000000 8.000000
vt -2.000000 8.000000
vt -9.000000 8.000000
vt -9.000000 7.000000
vt -2.000000 7.000000
vt -2.000000 -8.000000
vt -9.000000 -8.000000
s 1
usemtl blue_test_texture
f 161/231/117 162/232/117 163/233/117 164/234/117
f 165/235/118 163/236/118 162/237/118 166/238/118
f 166/239/119 162/240/119 161/236/119 167/235/119
f 168/235/120 164/236/120 163/240/120 165/239/120
f 167/238/121 161/237/121 164/236/121 168/235/121
f 168/234/122 165/233/122 166/232/122 167/231/122
o entity1_brush2_blue
v -128.000000 -0.000011 -144.000000
v -128.000000 -0.000010 -128.000000
v -128.000000 127.999992 -128.000015
v -128.000000 127.999992 -144.000015
v -64.000000 127.999992 -128.000015
v -64.000000 -0.000010 -128.000000
v -64.000000 -0.000011 -144.000000
v -64.000000 127.999992 -144.000015
vn -1.0000 -0.0000 -0.0000
vn -0.0000 -0.0000 1.0000
vn -0.0000 -1.0000 -0.0000
vn -0.0000 1.0000 -0.0000
vn -0.0000 -0.0000 -1.0000
vn 1.0000 -0.0000 -0.0000
vt 9.000000 -0.000000
vt 8.000000 -0.000000
vt 8.000000 8.000000
vt 9.000000 8.000000
vt -4.000000 8.000000
vt -8.000000 8.000000
vt -8.000000 -0.000000
vt -4.000000 -0.000000
vt -8.000000 9.000000
vt -4.000000 9.000000
s 1
usemtl blue_test_texture
f 169/241/123 170/242/123 171/243/123 172/244/123
f 173/245/124 171/246/124 170/247/124 174/248/124
f 174/245/125 170/246/125 169/249/125 175/250/125
f 176/250/126 172/249/126 171/246/126 173/245/126
f 175/248/127 169/247/127 172/246/127 176/245/127
f 176/244/128 173/243/128 174/242/128 175/241/128
o entity1_brush3_blue
v -80.000000 -128.000046 -624.000000
v -80.000000 -128.000015 -255.999985
v -80.000000 -0.000019 -256.000000
v -80.000000 -0.000047 -624.000000
v -64.000000 -0.000019 -256.000000
v -64.000000 -128.000015 -255.999985
v -64.000000 -128.000046 -624.000000
v -64.000000 -0.000047 -624.000000
vn -1.0000 -0.0000 -0.0000
vn -0.0000 -0.0000 1.0000
vn -0.0000 -1.0000 -0.0000
vn -0.0000 1.0000 -0.0000
vn -0.0000 -0.0000 -1.0000
vn 1.0000 -0.0000 -0.0000
vt 39.000000 -8.000000
vt 16.000000 -8.000000
vt 16.000000 -0.000000
vt 39.000000 -0.000000
vt -4.000000 -0.000000
vt -5.000000 -0.000000
vt -5.000000 -8.000000
vt -4.000000 -8.000000
vt -4.000000 16.000000
vt -5.000000 16.000000
vt -5.000000 39.000000
vt -4.000000 39.000000
s 1
usemtl blue_test_texture
f 177/251/129 178/252/129 179/253/129 180/254/129
f 181/255/130 179/256/130 178/257/130 182/258/130
f 182/259/131 178/260/131 177/261/131 183/262/131
f 184/262/132 180/261/132 179/260/132 181/259/132
f 183/258/133 177/257/133 180/256/133 184/255/133
f 184/254/134 181/253/134 182/252/134 183/251/134
o entity1_brush4_blue
v -320.000000 -128.000046 -640.000000
v -320.000000 -128.000046 -624.000000
v -320.000000 -0.000047 -624.000000
v -320.000000 -0.000048 -640.000000
v 0.000000 -0.000047 -624.000000
v 0.000000 -128.000046 -624.000000
v 0.000000 -128.000046 -640.000000
v 0.000000 -0.000048 -640.000000
vn -1.0000 -0.0000 -0.0000
vn -0.0000 -0.0000 1.0000
vn -0.0000 -1.0000 -0.0000
vn -0.0000 1.0000 -0.0000
vn -0.0000 -0.0000 -1.0000
vn 1.0000 -0.0000 -0.0000
vt 40.000000 -8.000000
vt 39.000000 -8.000000
vt 39.000000 -0.000000
vt 40.000000 -0.000000
vt 0.000000 -0.000000
vt -20.000000 -0.000000
vt -20.000000 -8.000000
vt 0.000000 -8.000000
vt 0.000000 39.000000
vt -20.000000 39.000000
vt -20.000000 40.000000
vt 0.000000 40.000000
s 1
usemtl blue_test_texture
f 185/263/135 186/264/135 187/265/135 188/266/135
f 189/267/136 187/268/136 186/269/136 190/270/136
f 190/271/137 186/272/137 185/273/137 191/274/137
f 192/274/138 188/273/138 187/272/138 189/271/138
f 191/270/139 185/269/139 188/268/139 192/267/139
f 192/266/140 189/265/140 190/264/140 191/263/140
