# Blender 5.1.1
# www.blender.org
mtllib single_portals.mtl
o entity0_brush0
v -128.000000 -0.000010 -128.000000
v -128.000000 0.000010 128.000000
v -128.000000 16.000010 128.000000
v -128.000000 15.999990 -128.000000
v 128.000000 16.000010 128.000000
v 128.000000 0.000010 128.000000
v 128.000000 -0.000010 -128.000000
v 128.000000 15.999990 -128.000000
vn 1.0000 -0.0000 -0.0000
vn -0.0000 -0.0000 -1.0000
vn -0.0000 1.0000 -0.0000
vn -0.0000 -1.0000 -0.0000
vn -0.0000 -0.0000 1.0000
vn -1.0000 -0.0000 -0.0000
vt 8.000000 -0.000000
vt 8.000000 1.000000
vt -8.000000 1.000000
vt -8.000000 -0.000000
vt 8.000000 -8.000000
vt 8.000000 8.000000
vt -8.000000 8.000000
vt -8.000000 -8.000000
s 1
usemtl test_texture
f 1/1/1 4/2/1 3/3/1 2/4/1
f 5/2/2 6/1/2 2/4/2 3/3/2
f 6/5/3 7/6/3 1/7/3 2/8/3
f 8/6/4 5/5/4 3/8/4 4/7/4
f 7/1/5 8/2/5 4/3/5 1/4/5
f 8/2/6 7/1/6 6/4/6 5/3/6
o entity0_brush1
v -144.000000 -0.000005 -64.000000
v -144.000000 0.000000 0.000000
v -144.000000 112.000000 -0.000008
v -144.000000 111.999992 -64.000008
v -128.000000 112.000000 -0.000008
v -128.000000 0.000000 0.000000
v -128.000000 -0.000005 -64.000000
v -128.000000 111.999992 -64.000008
vn 1.0000 -0.0000 -0.0000
vn -0.0000 -0.0000 -1.0000
vn -0.0000 1.0000 -0.0000
vn -0.0000 -1.0000 -0.0000
vn -0.0000 -0.0000 1.0000
vn -1.0000 -0.0000 -0.0000
vt 4.000000 -0.000000
vt 4.000000 7.000000
vt 0.000000 7.000000
vt 0.000000 -0.000000
vt -8.000000 7.000000
vt -8.000000 -0.000000
vt -9.000000 -0.000000
vt -9.000000 7.000000
vt -8.000000 4.000000
vt -9.000000 4.000000
s 1
usemtl blue_test_texture
f 9/9/7 12/10/7 11/11/7 10/12/7
f 13/13/8 14/14/8 10/15/8 11/16/8
f 14/14/9 15/17/9 9/18/9 10/15/9
f 16/17/10 13/14/10 11/15/10 12/18/10
f 15/14/11 16/13/11 12/16/11 9/15/11
f 16/10/12 15/9/12 14/12/12 13/11/12
o entity0_brush10_purple
v 64.000000 -0.000019 -256.000000
v 64.000000 -0.000021 -272.000000
v 64.000000 -128.000015 -272.000000
v 64.000000 -128.000015 -255.999985
v 320.000000 -128.000046 -624.000000
v 320.000000 -0.000047 -624.000000
v 320.000000 -128.000046 -608.000000
v 320.000000 -0.000046 -608.000000
vn 1.0000 -0.0000 -0.0000
vn 0.8087 -0.0000 0.5882
vn -0.0000 1.0000 -0.0000
vn -0.0000 -1.0000 -0.0000
vn -0.8087 -0.0000 -0.5882
vn -1.0000 -0.0000 -0.0000
vt 16.000000 -0.000000
vt 16.000000 -8.000000
vt 17.000000 -8.000000
vt 17.000000 -0.000000
vt 38.000000 -8.000000
vt 38.000000 -0.000000
vt 20.000000 38.000000
vt 20.000000 39.000000
vt 4.000000 17.000000
vt 4.000000 16.000000
vt 39.000000 -0.000000
vt 39.000000 -8.000000
s 1
usemtl purple_test_texture
f 17/19/13 20/20/13 19/21/13 18/22/13
f 21/23/14 22/24/14 18/19/14 19/20/14
f 23/25/15 21/26/15 19/27/15 20/28/15
f 22/26/16 24/25/16 17/28/16 18/27/16
f 24/24/17 23/23/17 20/20/17 17/19/17
f 22/29/18 21/30/18 23/23/18 24/24/18
o entity0_brush11
v -320.000000 -0.000047 -624.000000
v -64.000000 -0.000021 -272.000000
v -64.000000 15.999979 -272.000000
v -320.000000 15.999953 -624.000000
v 64.000000 15.999979 -272.000000
v 64.000000 -0.000021 -272.000000
v 320.000000 -0.000047 -624.000000
v 320.000000 15.999953 -624.000000
vn 0.8087 -0.0000 -0.5882
vn -0.0000 -0.0000 -1.0000
vn -0.0000 1.0000 -0.0000
vn -0.0000 -1.0000 -0.0000
vn -0.0000 -0.0000 1.0000
vn -0.8087 -0.0000 -0.5882
vt 39.000000 -0.000000
vt 39.000000 1.000000
vt 17.000000 1.000000
vt 17.000000 -0.000000
vt 4.000000 1.000000
vt 4.000000 -0.000000
vt -4.000000 -0.000000
vt -4.000000 1.000000
vt 4.000000 17.000000
vt 20.000000 39.000000
vt -20.000000 39.000000
vt -4.000000 17.000000
vt 20.000000 -0.000000
vt 20.000000 1.000000
vt -20.000000 1.000000
vt -20.000000 -0.000000
s 1
usemtl test_texture
f 25/31/19 28/32/19 27/33/19 26/34/19
f 29/35/20 30/36/20 26/37/20 27/38/20
f 30/39/21 31/40/21 25/41/21 26/42/21
f 32/40/22 29/39/22 27/42/22 28/41/22
f 31/43/23 32/44/23 28/45/23 25/46/23
f 32/32/24 31/31/24 30/34/24 29/33/24
o entity0_brush12_purple
v 448.000000 -16.000010 -128.000000
v 448.000000 -15.999990 128.000000
v 448.000000 0.000010 128.000000
v 448.000000 -0.000010 -128.000000
v 688.000000 0.000010 128.000000
v 688.000000 -15.999990 128.000000
v 688.000000 -16.000010 -128.000000
v 688.000000 -0.000010 -128.000000
vn 1.0000 -0.0000 -0.0000
vn -0.0000 -0.0000 -1.0000
vn -0.0000 1.0000 -0.0000
vn -0.0000 -1.0000 -0.0000
vn -0.0000 -0.0000 1.0000
vn -1.0000 -0.0000 -0.0000
vt 8.000000 -1.000000
vt 8.000000 -0.000000
vt -8.000000 -0.000000
vt -8.000000 -1.000000
vt 43.000000 -0.000000
vt 43.000000 -1.000000
vt 28.000000 -1.000000
vt 28.000000 -0.000000
vt 43.000000 -8.000000
vt 43.000000 8.000000
vt 28.000000 8.000000
vt 28.000000 -8.000000
s 1
usemtl purple_test_texture
f 33/47/25 36/48/25 35/49/25 34/50/25
f 37/51/26 38/52/26 34/53/26 35/54/26
f 38/55/27 39/56/27 33/57/27 34/58/27
f 40/56/28 37/55/28 35/58/28 36/57/28
f 39/52/29 40/51/29 36/54/29 33/53/29
f 40/48/30 39/47/30 38/50/30 37/49/30
o entity0_brush13_purple
v 448.000000 -16.000011 -144.000000
v 448.000000 -16.000010 -128.000000
v 448.000000 127.999992 -128.000015
v 448.000000 127.999992 -144.000015
v 704.000000 127.999992 -128.000015
v 704.000000 -16.000010 -128.000000
v 704.000000 -16.000011 -144.000000
v 704.000000 127.999992 -144.000015
vn 1.0000 -0.0000 -0.0000
vn -0.0000 -0.0000 -1.0000
vn -0.0000 1.0000 -0.0000
vn -0.0000 -1.0000 -0.0000
vn -0.0000 -0.0000 1.0000
vn -1.0000 -0.0000 -0.0000
vt 9.000000 -1.000000
vt 9.000000 8.000000
vt 8.000000 8.000000
vt 8.000000 -1.000000
vt 44.000000 8.000000
vt 44.000000 -1.000000
vt 28.000000 -1.000000
vt 28.000000 8.000000
vt 44.000000 9.000000
vt 28.000000 9.000000
s 1
usemtl purple_test_texture
f 41/59/31 44/60/31 43/61/31 42/62/31
f 45/63/32 46/64/32 42/65/32 43/66/32
f 46/63/33 47/67/33 41/68/33 42/66/33
f 48/67/34 45/63/34 43/66/34 44/68/34
f 47/64/35 48/63/35 44/66/35 41/65/35
f 48/60/36 47/59/36 46/62/36 45/61/36
o entity0_brush14_purple
v 448.000000 -15.999990 128.000000
v 448.000000 -15.999990 144.000000
v 448.000000 128.000015 143.999985
v 448.000000 128.000015 127.999992
v 704.000000 128.000015 143.999985
v 704.000000 -15.999990 144.000000
v 704.000000 -15.999990 128.000000
v 704.000000 128.000015 127.999992
vn 1.0000 -0.0000 -0.0000
vn -0.0000 -0.0000 -1.0000
vn -0.0000 1.0000 -0.0000
vn -0.0000 -1.0000 -0.0000
vn -0.0000 -0.0000 1.0000
vn -1.0000 -0.0000 -0.0000
vt -8.000000 -1.000000
vt -8.000000 8.000000
vt -9.000000 8.000000
vt -9.000000 -1.000000
vt 44.000000 8.000000
vt 44.000000 -1.000000
vt 28.000000 -1.000000
vt 28.000000 8.000000
vt 44.000000 -9.000000
vt 44.000000 -8.000000
vt 28.000000 -8.000000
vt 28.000000 -9.000000
s 1
usemtl purple_test_texture
f 49/69/37 52/70/37 51/71/37 50/72/37
f 53/73/38 54/74/38 50/75/38 51/76/38
f 54/77/39 55/78/39 49/79/39 50/80/39
f 56/78/40 53/77/40 51/80/40 52/79/40
f 55/74/41 56/73/41 52/76/41 49/75/41
f 56/70/42 55/69/42 54/72/42 53/71/42
o entity0_brush15_purple
v 688.000000 -16.000010 -128.000000
v 688.000000 -16.000004 -48.000000
v 688.000000 128.000000 -48.000011
v 688.000000 127.999992 -128.000015
v 704.000000 128.000000 -48.000011
v 704.000000 -16.000004 -48.000000
v 704.000000 -16.000010 -128.000000
v 704.000000 127.999992 -128.000015
vn 1.0000 -0.0000 -0.0000
vn -0.0000 -0.0000 -1.0000
vn -0.0000 1.0000 -0.0000
vn -0.0000 -1.0000 -0.0000
vn -0.0000 -0.0000 1.0000
vn -1.0000 -0.0000 -0.0000
vt 8.000000 -1.000000
vt 8.000000 8.000000
vt 3.000000 8.000000
vt 3.000000 -1.000000
vt 44.000000 8.000000
vt 44.000000 -1.000000
vt 43.000000 -1.000000
vt 43.000000 8.000000
vt 44.000000 3.000000
vt 43.000000 3.000000
s 1
usemtl purple_test_texture
f 57/81/43 60/82/43 59/83/43 58/84/43
f 61/85/44 62/86/44 58/87/44 59/88/44
f 62/89/45 63/85/45 57/88/45 58/90/45
f 64/85/46 61/89/46 59/90/46 60/88/46
f 63/86/47 64/85/47 60/88/47 57/87/47
f 64/82/48 63/81/48 62/84/48 61/83/48
o entity0_brush16
v 256.000000 -64.000015 -160.000000
v 256.000000 -63.999989 160.000000
v 256.000000 192.000015 159.999985
v 256.000000 191.999985 -160.000015
v 272.000000 192.000015 159.999985
v 272.000000 -63.999989 160.000000
v 272.000000 -64.000015 -160.000000
v 272.000000 191.999985 -160.000015
vn 1.0000 -0.0000 -0.0000
vn -0.0000 -0.0000 -1.0000
vn -0.0000 1.0000 -0.0000
vn -0.0000 -1.0000 -0.0000
vn -0.0000 -0.0000 1.0000
vn -1.0000 -0.0000 -0.0000
vt 10.000000 -4.000000
vt 10.000000 12.000000
vt -10.000000 12.000000
vt -10.000000 -4.000000
vt 17.000000 12.000000
vt 17.000000 -4.000000
vt 16.000000 -4.000000
vt 16.000000 12.000000
vt 17.000000 -10.000000
vt 17.000000 10.000000
vt 16.000000 10.000000
vt 16.000000 -10.000000
s 1
usemtl test_texture
f 65/91/49 68/92/49 67/93/49 66/94/49
f 69/95/50 70/96/50 66/97/50 67/98/50
f 70/99/51 71/100/51 65/101/51 66/102/51
f 72/100/52 69/99/52 67/102/52 68/101/52
f 71/96/53 72/95/53 68/98/53 65/97/53
f 72/92/54 71/91/54 70/94/54 69/93/54
o entity0_brush17_purple
v 688.000000 -15.999996 48.000000
v 688.000000 -15.999990 128.000000
v 688.000000 128.000015 127.999992
v 688.000000 128.000000 47.999989
v 704.000000 128.000015 127.999992
v 704.000000 -15.999990 128.000000
v 704.000000 -15.999996 48.000000
v 704.000000 128.000000 47.999989
vn 1.0000 -0.0000 -0.0000
vn -0.0000 -0.0000 -1.0000
vn -0.0000 1.0000 -0.0000
vn -0.0000 -1.0000 -0.0000
vn -0.0000 -0.0000 1.0000
vn -1.0000 -0.0000 -0.0000
vt -3.000000 -1.000000
vt -3.000000 8.000000
vt -8.000000 8.000000
vt -8.000000 -1.000000
vt 44.000000 8.000000
vt 44.000000 -1.000000
vt 43.000000 -1.000000
vt 43.000000 8.000000
vt 44.000000 -8.000000
vt 44.000000 -3.000000
vt 43.000000 -3.000000
vt 43.000000 -8.000000
s 1
usemtl purple_test_texture
f 73/103/55 76/104/55 75/105/55 74/106/55
f 77/107/56 78/108/56 74/109/56 75/110/56
f 78/111/57 79/112/57 73/113/57 74/114/57
f 80/112/58 77/111/58 75/114/58 76/113/58
f 79/108/59 80/107/59 76/110/59 73/109/59
f 80/104/60 79/103/60 78/106/60 77/105/60
o entity0_brush18_purple
v 0.000000 -128.000046 -640.000000
v 0.000000 -128.000046 -624.000000
v 0.000000 -0.000047 -624.000000
v 0.000000 -0.000048 -640.000000
v 320.000000 -0.000047 -624.000000
v 320.000000 -128.000046 -624.000000
v 320.000000 -128.000046 -640.000000
v 320.000000 -0.000048 -640.000000
vn 1.0000 -0.0000 -0.0000
vn -0.0000 -0.0000 -1.0000
vn -0.0000 1.0000 -0.0000
vn -0.0000 -1.0000 -0.0000
vn -0.0000 -0.0000 1.0000
vn -1.0000 -0.0000 -0.0000
vt 40.000000 -8.000000
vt 40.000000 -0.000000
vt 39.000000 -0.000000
vt 39.000000 -8.000000
vt 20.000000 -0.000000
vt 20.000000 -8.000000
vt 0.000000 -8.000000
vt 0.000000 -0.000000
vt 20.000000 39.000000
vt 20.000000 40.000000
vt 0.000000 40.000000
vt 0.000000 39.000000
s 1
usemtl purple_test_texture
f 81/115/61 84/116/61 83/117/61 82/118/61
f 85/119/62 86/120/62 82/121/62 83/122/62
f 86/123/63 87/124/63 81/125/63 82/126/63
f 88/124/64 85/123/64 83/126/64 84/125/64
f 87/120/65 88/119/65 84/122/65 81/121/65
f 88/116/66 87/115/66 86/118/66 85/117/66
o entity0_brush19_blue
v -128.000000 -0.000011 -144.000000
v -128.000000 -0.000010 -128.000000
v -128.000000 127.999992 -128.000015
v -128.000000 127.999992 -144.000015
v -64.000000 127.999992 -128.000015
v -64.000000 -0.000010 -128.000000
v -64.000000 -0.000011 -144.000000
v -64.000000 127.999992 -144.000015
vn 1.0000 -0.0000 -0.0000
vn -0.0000 -0.0000 -1.0000
vn -0.0000 1.0000 -0.0000
vn -0.0000 -1.0000 -0.0000
vn -0.0000 -0.0000 1.0000
vn -1.0000 -0.0000 -0.0000
vt 9.000000 -0.000000
vt 9.000000 8.000000
vt 8.000000 8.000000
vt 8.000000 -0.000000
vt -4.000000 8.000000
vt -4.000000 -0.000000
vt -8.000000 -0.000000
vt -8.000000 8.000000
vt -4.000000 9.000000
vt -8.000000 9.000000
s 1
usemtl blue_test_texture
f 89/127/67 92/128/67 91/129/67 90/130/67
f 93/131/68 94/132/68 90/133/68 91/134/68
f 94/131/69 95/135/69 89/136/69 90/134/69
f 96/135/70 93/131/70 91/134/70 92/136/70
f 95/132/71 96/131/71 92/134/71 89/133/71
f 96/128/72 95/127/72 94/130/72 93/129/72
o entity0_brush20_purple
v 64.000000 -0.000011 -144.000000
v 64.000000 -0.000010 -128.000000
v 64.000000 127.999992 -128.000015
v 64.000000 127.999992 -144.000015
v 128.000000 127.999992 -128.000015
v 128.000000 -0.000010 -128.000000
v 128.000000 -0.000011 -144.000000
v 128.000000 127.999992 -144.000015
vn 1.0000 -0.0000 -0.0000
vn -0.0000 -0.0000 -1.0000
vn -0.0000 1.0000 -0.0000
vn -0.0000 -1.0000 -0.0000
vn -0.0000 -0.0000 1.0000
vn -1.0000 -0.0000 -0.0000
vt 9.000000 -0.000000
vt 9.000000 8.000000
vt 8.000000 8.000000
vt 8.000000 -0.000000
vt 4.000000 -0.000000
vt 4.000000 8.000000
vt 8.000000 9.000000
vt 4.000000 9.000000
s 1
usemtl purple_test_texture
f 97/137/73 100/138/73 99/139/73 98/140/73
f 101/139/74 102/140/74 98/141/74 99/142/74
f 102/139/75 103/143/75 97/144/75 98/142/75
f 104/143/76 101/139/76 99/142/76 100/144/76
f 103/140/77 104/139/77 100/142/77 97/141/77
f 104/138/78 103/137/78 102/140/78 101/139/78
o entity0_brush21_blue
v -144.000000 111.999992 -128.000015
v -144.000000 112.000008 127.999992
v -144.000000 128.000015 127.999992
v -144.000000 127.999992 -128.000015
v -32.000000 128.000015 127.999992
v -32.000000 112.000008 127.999992
v -32.000000 111.999992 -128.000015
v -32.000000 127.999992 -128.000015
vn 1.0000 -0.0000 -0.0000
vn -0.0000 -0.0000 -1.0000
vn -0.0000 1.0000 -0.0000
vn -0.0000 -1.0000 -0.0000
vn -0.0000 -0.0000 1.0000
vn -1.0000 -0.0000 -0.0000
vt 8.000000 7.000000
vt 8.000000 8.000000
vt -8.000000 8.000000
vt -8.000000 7.000000
vt -2.000000 8.000000
vt -2.000000 7.000000
vt -9.000000 7.000000
vt -9.000000 8.000000
vt -2.000000 -8.000000
vt -9.000000 -8.000000
s 1
usemtl blue_test_texture
f 105/145/79 108/146/79 107/147/79 106/148/79
f 109/149/80 110/150/80 106/151/80 107/152/80
f 110/153/81 111/149/81 105/152/81 106/154/81
f 112/149/82 109/153/82 107/154/82 108/152/82
f 111/150/83 112/149/83 108/152/83 105/151/83
f 112/146/84 111/145/84 110/148/84 109/147/84
o entity0_brush22_purple
v 32.000000 111.999992 -128.000015
v 32.000000 112.000008 127.999992
v 32.000000 128.000015 127.999992
v 32.000000 127.999992 -128.000015
v 144.000000 128.000015 127.999992
v 144.000000 112.000008 127.999992
v 144.000000 111.999992 -128.000015
v 144.000000 127.999992 -128.000015
vn 1.0000 -0.0000 -0.0000
vn -0.0000 -0.0000 -1.0000
vn -0.0000 1.0000 -0.0000
vn -0.0000 -1.0000 -0.0000
vn -0.0000 -0.0000 1.0000
vn -1.0000 -0.0000 -0.0000
vt 8.000000 7.000000
vt 8.000000 8.000000
vt -8.000000 8.000000
vt -8.000000 7.000000
vt 9.000000 8.000000
vt 9.000000 7.000000
vt 2.000000 7.000000
vt 2.000000 8.000000
vt 9.000000 -8.000000
vt 2.000000 -8.000000
s 1
usemtl purple_test_texture
f 113/155/85 116/156/85 115/157/85 114/158/85
f 117/159/86 118/160/86 114/161/86 115/162/86
f 118/163/87 119/159/87 113/162/87 114/164/87
f 120/159/88 117/163/88 115/164/88 116/162/88
f 119/160/89 120/159/89 116/162/89 113/161/89
f 120/156/90 119/155/90 118/158/90 117/157/90
o entity0_brush23
v -32.000000 111.999992 -128.000015
v -32.000000 112.000008 127.999992
v -32.000000 128.000015 127.999992
v -32.000000 127.999992 -128.000015
v 32.000000 128.000015 127.999992
v 32.000000 112.000008 127.999992
v 32.000000 111.999992 -128.000015
v 32.000000 127.999992 -128.000015
vn 1.0000 -0.0000 -0.0000
vn -0.0000 -0.0000 -1.0000
vn -0.0000 1.0000 -0.0000
vn -0.0000 -1.0000 -0.0000
vn -0.0000 -0.0000 1.0000
vn -1.0000 -0.0000 -0.0000
vt 8.000000 7.000000
vt 8.000000 8.000000
vt -8.000000 8.000000
vt -8.000000 7.000000
vt 2.000000 8.000000
vt 2.000000 7.000000
vt -2.000000 7.000000
vt -2.000000 8.000000
vt 2.000000 -8.000000
vt -2.000000 -8.000000
s 1
usemtl test_texture
f 121/165/91 124/166/91 123/167/91 122/168/91
f 125/169/92 126/170/92 122/171/92 123/172/92
f 126/173/93 127/169/93 121/172/93 122/174/93
f 128/169/94 125/173/94 123/174/94 124/172/94
f 127/170/95 128/169/95 124/172/95 121/171/95
f 128/166/96 127/165/96 126/168/96 125/167/96
o entity0_brush24
v -64.000000 0.000011 144.000000
v -64.000000 0.000012 160.000000
v -64.000000 128.000015 159.999985
v -64.000000 128.000015 143.999985
v 64.000000 128.000015 159.999985
v 64.000000 0.000012 160.000000
v 64.000000 0.000011 144.000000
v 64.000000 128.000015 143.999985
vn 1.0000 -0.0000 -0.0000
vn -0.0000 -0.0000 -1.0000
vn -0.0000 1.0000 -0.0000
vn -0.0000 -1.0000 -0.0000
vn -0.0000 -0.0000 1.0000
vn -1.0000 -0.0000 -0.0000
vt -9.000000 -0.000000
vt -9.000000 8.000000
vt -10.000000 8.000000
vt -10.000000 -0.000000
vt 4.000000 8.000000
vt 4.000000 -0.000000
vt -4.000000 -0.000000
vt -4.000000 8.000000
vt 4.000000 -10.000000
vt 4.000000 -9.000000
vt -4.000000 -9.000000
vt -4.000000 -10.000000
s 1
usemtl test_texture
f 129/175/97 132/176/97 131/177/97 130/178/97
f 133/179/98 134/180/98 130/181/98 131/182/98
f 134/183/99 135/184/99 129/185/99 130/186/99
f 136/184/100 133/183/100 131/186/100 132/185/100
f 135/180/101 136/179/101 132/182/101 129/181/101
f 136/176/102 135/175/102 134/178/102 133/177/102
o entity0_brush25
v -128.000000 0.000019 256.000000
v -128.000000 0.000029 384.000000
v -128.000000 128.000031 384.000000
v -128.000000 128.000015 255.999985
v -112.000000 128.000031 384.000000
v -112.000000 0.000029 384.000000
v -112.000000 0.000019 256.000000
v -112.000000 128.000015 255.999985
vn 1.0000 -0.0000 -0.0000
vn -0.0000 -0.0000 -1.0000
vn -0.0000 1.0000 -0.0000
vn -0.0000 -1.0000 -0.0000
vn -0.0000 -0.0000 1.0000
vn -1.0000 -0.0000 -0.0000
vt -16.000000 -0.000000
vt -16.000000 8.000000
vt -24.000000 8.000000
vt -24.000000 -0.000000
vt -7.000000 8.000000
vt -7.000000 -0.000000
vt -8.000000 -0.000000
vt -8.000000 8.000000
vt -7.000000 -24.000000
vt -7.000000 -16.000000
vt -8.000000 -16.000000
vt -8.000000 -24.000000
s 1
usemtl test_texture
f 137/187/103 140/188/103 139/189/103 138/190/103
f 141/191/104 142/192/104 138/193/104 139/194/104
f 142/195/105 143/196/105 137/197/105 138/198/105
f 144/196/106 141/195/106 139/198/106 140/197/106
f 143/192/107 144/191/107 140/194/107 137/193/107
f 144/188/108 143/187/108 142/190/108 141/189/108
o entity0_brush26
v -256.000000 0.000019 256.000000
v -256.000000 0.000029 384.000000
v -256.000000 16.000029 384.000000
v -256.000000 16.000019 256.000000
v -128.000000 16.000029 384.000000
v -128.000000 0.000029 384.000000
v -128.000000 0.000019 256.000000
v -128.000000 16.000019 256.000000
vn 1.0000 -0.0000 -0.0000
vn -0.0000 -0.0000 -1.0000
vn -0.0000 1.0000 -0.0000
vn -0.0000 -1.0000 -0.0000
vn -0.0000 -0.0000 1.0000
vn -1.0000 -0.0000 -0.0000
vt -16.000000 -0.000000
vt -16.000000 1.000000
vt -24.000000 1.000000
vt -24.000000 -0.000000
vt -8.000000 1.000000
vt -8.000000 -0.000000
vt -8.000000 -24.000000
vt -8.000000 -16.000000
vt -16.000000 -16.000000
vt -16.000000 -24.000000
s 1
usemtl test_texture
f 145/199/109 148/200/109 147/201/109 146/202/109
f 149/203/110 150/204/110 146/199/110 147/200/110
f 150/205/111 151/206/111 145/207/111 146/208/111
f 152/206/112 149/205/112 147/208/112 148/207/112
f 151/204/113 152/203/113 148/200/113 145/199/113
f 152/200/114 151/199/114 150/202/114 149/201/114
o entity0_brush4
v -320.000000 -16.000006 -64.000000
v -320.000000 -15.999995 64.000000
v -320.000000 128.000000 63.999989
v -320.000000 127.999992 -64.000008
v -304.000000 128.000000 63.999989
v -304.000000 -15.999995 64.000000
v -304.000000 -16.000006 -64.000000
v -304.000000 127.999992 -64.000008
vn 1.0000 -0.0000 -0.0000
vn -0.0000 -0.0000 -1.0000
vn -0.0000 1.0000 -0.0000
vn -0.0000 -1.0000 -0.0000
vn -0.0000 -0.0000 1.0000
vn -1.0000 -0.0000 -0.0000
vt 4.000000 -1.000000
vt 4.000000 8.000000
vt -4.000000 8.000000
vt -4.000000 -1.000000
vt -19.000000 8.000000
vt -19.000000 -1.000000
vt -20.000000 -1.000000
vt -20.000000 8.000000
vt -19.000000 -4.000000
vt -19.000000 4.000000
vt -20.000000 4.000000
vt -20.000000 -4.000000
s 1
usemtl blue_test_texture
f 153/209/115 156/210/115 155/211/115 154/212/115
f 157/213/116 158/214/116 154/215/116 155/216/116
f 158/217/117 159/218/117 153/219/117 154/220/117
f 160/218/118 157/217/118 155/220/118 156/219/118
f 159/214/119 160/213/119 156/216/119 153/215/119
f 160/210/120 159/209/120 158/212/120 157/211/120
o portal_entrance_1
v -64.000000 -0.000010 -128.000000
v -64.000000 127.999992 -128.000015
v 64.000000 127.999992 -128.000015
v 64.000000 -0.000010 -128.000000
vn -0.0000 -0.0000 1.0000
vt 4.000000 8.000000
vt -4.000000 8.000000
vt -4.000000 -0.000000
vt 4.000000 -0.000000
s 1
usemtl test_texture
f 163/221/121 162/222/121 161/223/121 164/224/121
o portal_exit_1
v -64.000000 -128.000015 -272.000000
v -64.000000 -0.000021 -272.000000
v 64.000000 -128.000015 -272.000000
v 64.000000 -0.000021 -272.000000
vn -0.0000 -0.0000 -1.0000
vt 4.000000 -8.000000
vt -4.000000 -8.000000
vt -4.000000 -0.000000
vt 4.000000 -0.000000
s 1
usemtl test_texture
f 167/225/122 165/226/122 166/227/122 168/228/122
o entity0_brush7
v -320.000000 -128.000046 -640.000000
v -320.000000 -128.000046 -624.000000
v -320.000000 -0.000047 -624.000000
v -320.000000 -0.000048 -640.000000
v 0.000000 -0.000047 -624.000000
v 0.000000 -128.000046 -624.000000
v 0.000000 -128.000046 -640.000000
v 0.000000 -0.000048 -640.000000
vn 1.0000 -0.0000 -0.0000
vn -0.0000 -0.0000 -1.0000
vn -0.0000 1.0000 -0.0000
vn -0.0000 -1.0000 -0.0000
vn -0.0000 -0.0000 1.0000
vn -1.0000 -0.0000 -0.0000
vt 40.000000 -8.000000
vt 40.000000 -0.000000
vt 39.000000 -0.000000
vt 39.000000 -8.000000
vt 0.000000 -0.000000
vt 0.000000 -8.000000
vt -20.000000 -8.000000
vt -20.000000 -0.000000
vt 0.000000 39.000000
vt 0.000000 40.000000
vt -20.000000 40.000000
vt -20.000000 39.000000
s 1
usemtl blue_test_texture
f 169/229/123 172/230/123 171/231/123 170/232/123
f 173/233/124 174/234/124 170/235/124 171/236/124
f 174/237/125 175/238/125 169/239/125 170/240/125
f 176/238/126 173/237/126 171/240/126 172/239/126
f 175/234/127 176/233/127 172/236/127 169/235/127
f 176/230/128 175/229/128 174/232/128 173/231/128
o entity0_brush8
v -320.000000 -128.000046 -624.000000
v -64.000000 -128.000015 -272.000000
v -64.000000 -112.000023 -272.000000
v -320.000000 -112.000046 -624.000000
v 64.000000 -112.000023 -272.000000
v 64.000000 -128.000015 -272.000000
v 320.000000 -128.000046 -624.000000
v 320.000000 -112.000046 -624.000000
vn 0.8087 -0.0000 -0.5882
vn -0.0000 -0.0000 -1.0000
vn -0.0000 1.0000 -0.0000
vn -0.0000 -1.0000 -0.0000
vn -0.0000 -0.0000 1.0000
vn -0.8087 -0.0000 -0.5882
vt 39.000000 -8.000000
vt 39.000000 -7.000000
vt 17.000000 -7.000000
vt 17.000000 -8.000000
vt 4.000000 -7.000000
vt 4.000000 -8.000000
vt -4.000000 -8.000000
vt -4.000000 -7.000000
vt 4.000000 17.000000
vt 20.000000 39.000000
vt -20.000000 39.000000
vt -4.000000 17.000000
vt 20.000000 -8.000000
vt 20.000000 -7.000000
vt -20.000000 -7.000000
vt -20.000000 -8.000000
s 1
usemtl test_texture
f 177/241/129 180/242/129 179/243/129 178/244/129
f 181/245/130 182/246/130 178/247/130 179/248/130
f 182/249/131 183/250/131 177/251/131 178/252/131
f 184/250/132 181/249/132 179/252/132 180/251/132
f 183/253/133 184/254/133 180/255/133 177/256/133
f 184/242/134 183/241/134 182/244/134 181/243/134
o entity0_brush9_blue
v -320.000000 -128.000046 -624.000000
v -320.000000 -128.000046 -608.000000
v -320.000000 -0.000046 -608.000000
v -320.000000 -0.000047 -624.000000
v -64.000000 -0.000019 -256.000000
v -64.000000 -128.000015 -255.999985
v -64.000000 -128.000015 -272.000000
v -64.000000 -0.000021 -272.000000
vn 1.0000 -0.0000 -0.0000
vn 0.8087 -0.0000 -0.5882
vn -0.0000 1.0000 -0.0000
vn -0.0000 -1.0000 -0.0000
vn -0.8087 -0.0000 0.5882
vn -1.0000 -0.0000 -0.0000
vt 39.000000 -8.000000
vt 39.000000 -0.000000
vt 38.000000 -0.000000
vt 38.000000 -8.000000
vt 16.000000 -0.000000
vt 16.000000 -8.000000
vt -4.000000 16.000000
vt -4.000000 17.000000
vt -20.000000 39.000000
vt -20.000000 38.000000
vt 17.000000 -8.000000
vt 17.000000 -0.000000
s 1
usemtl blue_test_texture
f 185/257/135 188/258/135 187/259/135 186/260/135
f 189/261/136 190/262/136 186/260/136 187/259/136
f 190/263/137 191/264/137 185/265/137 186/266/137
f 192/264/138 189/263/138 187/266/138 188/265/138
f 191/262/139 192/261/139 188/259/139 185/260/139
f 191/267/140 190/262/140 189/261/140 192/268/140
