# Blender 5.1.1
# www.blender.org
mtllib singleportal_skybox.mtl
o entity0_brush0
v -128.000000 -0.000010 -128.000000
v -128.000000 0.000010 128.000000
v -128.000000 16.000010 128.000000
v -128.000000 15.999990 -128.000000
v 128.000000 16.000010 128.000000
v 128.000000 0.000010 128.000000
v 128.000000 -0.000010 -128.000000
v 128.000000 15.999990 -128.000000
vn 1.0000 -0.0000 -0.0000
vn -0.0000 -0.0000 -1.0000
vn -0.0000 1.0000 -0.0000
vn -0.0000 -1.0000 -0.0000
vn -0.0000 -0.0000 1.0000
vn -1.0000 -0.0000 -0.0000
vt 8.000000 -0.000000
vt 8.000000 1.000000
vt -8.000000 1.000000
vt -8.000000 -0.000000
vt 8.000000 -8.000000
vt 8.000000 8.000000
vt -8.000000 8.000000
vt -8.000000 -8.000000
s 1
usemtl test_texture
f 1/1/1 4/2/1 3/3/1 2/4/1
f 5/2/2 6/1/2 2/4/2 3/3/2
f 6/5/3 7/6/3 1/7/3 2/8/3
f 8/6/4 5/5/4 3/8/4 4/7/4
f 7/1/5 8/2/5 4/3/5 1/4/5
f 8/2/6 7/1/6 6/4/6 5/3/6
o portal_entrance_1
v -64.000000 -0.000011 -144.000000
v -64.000000 -0.000010 -128.000000
v -64.000000 127.999992 -128.000015
v -64.000000 127.999992 -144.000015
v 64.000000 127.999992 -128.000015
v 64.000000 -0.000010 -128.000000
v 64.000000 -0.000011 -144.000000
v 64.000000 127.999992 -144.000015
vn 1.0000 -0.0000 -0.0000
vn -0.0000 -0.0000 -1.0000
vn -0.0000 1.0000 -0.0000
vn -0.0000 -1.0000 -0.0000
vn -0.0000 -0.0000 1.0000
vn -1.0000 -0.0000 -0.0000
vt 9.000000 -0.000000
vt 9.000000 8.000000
vt 8.000000 8.000000
vt 8.000000 -0.000000
vt 4.000000 8.000000
vt 4.000000 -0.000000
vt -4.000000 -0.000000
vt -4.000000 8.000000
vt 4.000000 9.000000
vt -4.000000 9.000000
s 1
usemtl test_texture
f 9/9/7 12/10/7 11/11/7 10/12/7
f 13/13/8 14/14/8 10/15/8 11/16/8
f 14/13/9 15/17/9 9/18/9 10/16/9
f 16/17/10 13/13/10 11/16/10 12/18/10
f 15/14/11 16/13/11 12/16/11 9/15/11
f 16/10/12 15/9/12 14/12/12 13/11/12
o entity0_brush10
v -560.000000 -240.000046 -704.000000
v -560.000000 -240.000046 -688.000000
v -560.000000 255.999954 -688.000000
v -560.000000 255.999954 -704.000000
v 944.000000 255.999954 -688.000000
v 944.000000 -240.000046 -688.000000
v 944.000000 -240.000046 -704.000000
v 944.000000 255.999954 -704.000000
vn 1.0000 -0.0000 -0.0000
vn -0.0000 -0.0000 -1.0000
vn -0.0000 1.0000 -0.0000
vn -0.0000 -1.0000 -0.0000
vn -0.0000 -0.0000 1.0000
vn -1.0000 -0.0000 -0.0000
vt 22.000000 -7.500000
vt 22.000000 8.000000
vt 21.500000 8.000000
vt 21.500000 -7.500000
vt 29.500000 8.000000
vt 29.500000 -7.500000
vt -17.500000 -7.500000
vt -17.500000 8.000000
vt 29.500000 21.500000
vt 29.500000 22.000000
vt -17.500000 22.000000
vt -17.500000 21.500000
s 1
usemtl __TB_empty
f 17/19/13 20/20/13 19/21/13 18/22/13
f 21/23/14 22/24/14 18/25/14 19/26/14
f 22/27/15 23/28/15 17/29/15 18/30/15
f 24/28/16 21/27/16 19/30/16 20/29/16
f 23/24/17 24/23/17 20/26/17 17/25/17
f 24/20/18 23/19/18 22/22/18 21/21/18
o entity0_brush11
v -576.000000 -240.000046 -688.000000
v -576.000000 -239.999969 448.000031
v -576.000000 256.000031 447.999969
v -576.000000 255.999954 -688.000000
v -560.000000 256.000031 447.999969
v -560.000000 -239.999969 448.000031
v -560.000000 -240.000046 -688.000000
v -560.000000 255.999954 -688.000000
vn 1.0000 -0.0000 -0.0000
vn -0.0000 -0.0000 -1.0000
vn -0.0000 1.0000 -0.0000
vn -0.0000 -1.0000 -0.0000
vn -0.0000 -0.0000 1.0000
vn -1.0000 -0.0000 -0.0000
vt 21.500000 -7.500000
vt 21.500000 8.000000
vt -14.000000 8.000000
vt -14.000000 -7.500000
vt -17.500000 8.000000
vt -17.500000 -7.500000
vt -18.000000 -7.500000
vt -18.000000 8.000000
vt -17.500000 -14.000000
vt -17.500000 21.500000
vt -18.000000 21.500000
vt -18.000000 -14.000000
s 1
usemtl __TB_empty
f 25/31/19 28/32/19 27/33/19 26/34/19
f 29/35/20 30/36/20 26/37/20 27/38/20
f 30/39/21 31/40/21 25/41/21 26/42/21
f 32/40/22 29/39/22 27/42/22 28/41/22
f 31/36/23 32/35/23 28/38/23 25/37/23
f 32/32/24 31/31/24 30/34/24 29/33/24
o entity0_brush12
v 944.000000 -240.000046 -688.000000
v 944.000000 -239.999969 448.000031
v 944.000000 256.000031 447.999969
v 944.000000 255.999954 -688.000000
v 960.000000 256.000031 447.999969
v 960.000000 -239.999969 448.000031
v 960.000000 -240.000046 -688.000000
v 960.000000 255.999954 -688.000000
vn 1.0000 -0.0000 -0.0000
vn -0.0000 -0.0000 -1.0000
vn -0.0000 1.0000 -0.0000
vn -0.0000 -1.0000 -0.0000
vn -0.0000 -0.0000 1.0000
vn -1.0000 -0.0000 -0.0000
vt 21.500000 -7.500000
vt 21.500000 8.000000
vt -14.000000 8.000000
vt -14.000000 -7.500000
vt 30.000000 8.000000
vt 30.000000 -7.500000
vt 29.500000 -7.500000
vt 29.500000 8.000000
vt 30.000000 -14.000000
vt 30.000000 21.500000
vt 29.500000 21.500000
vt 29.500000 -14.000000
s 1
usemtl __TB_empty
f 33/43/25 36/44/25 35/45/25 34/46/25
f 37/47/26 38/48/26 34/49/26 35/50/26
f 38/51/27 39/52/27 33/53/27 34/54/27
f 40/52/28 37/51/28 35/54/28 36/53/28
f 39/48/29 40/47/29 36/50/29 33/49/29
f 40/44/30 39/43/30 38/46/30 37/45/30
o entity0_brush13
v -560.000000 -239.999969 432.000031
v -560.000000 -239.999969 448.000031
v -560.000000 256.000031 447.999969
v -560.000000 256.000031 431.999969
v 944.000000 256.000031 447.999969
v 944.000000 -239.999969 448.000031
v 944.000000 -239.999969 432.000031
v 944.000000 256.000031 431.999969
vn 1.0000 -0.0000 -0.0000
vn -0.0000 -0.0000 -1.0000
vn -0.0000 1.0000 -0.0000
vn -0.0000 -1.0000 -0.0000
vn -0.0000 -0.0000 1.0000
vn -1.0000 -0.0000 -0.0000
vt -13.500000 -7.500000
vt -13.500000 8.000000
vt -14.000000 8.000000
vt -14.000000 -7.500000
vt 29.500000 8.000000
vt 29.500000 -7.500000
vt -17.500000 -7.500000
vt -17.500000 8.000000
vt 29.500000 -14.000000
vt 29.500000 -13.500000
vt -17.500000 -13.500000
vt -17.500000 -14.000000
s 1
usemtl __TB_empty
f 41/55/31 44/56/31 43/57/31 42/58/31
f 45/59/32 46/60/32 42/61/32 43/62/32
f 46/63/33 47/64/33 41/65/33 42/66/33
f 48/64/34 45/63/34 43/66/34 44/65/34
f 47/60/35 48/59/35 44/62/35 41/61/35
f 48/56/36 47/55/36 46/58/36 45/57/36
o entity0_brush14
v -560.000000 -256.000061 -688.000000
v -560.000000 -255.999969 432.000031
v -560.000000 -239.999969 432.000031
v -560.000000 -240.000046 -688.000000
v 944.000000 -239.999969 432.000031
v 944.000000 -255.999969 432.000031
v 944.000000 -256.000061 -688.000000
v 944.000000 -240.000046 -688.000000
vn 1.0000 -0.0000 -0.0000
vn -0.0000 -0.0000 -1.0000
vn -0.0000 1.0000 -0.0000
vn -0.0000 -1.0000 -0.0000
vn -0.0000 -0.0000 1.0000
vn -1.0000 -0.0000 -0.0000
vt 21.500000 -8.000000
vt 21.500000 -7.500000
vt -13.500000 -7.500000
vt -13.500000 -8.000000
vt 29.500000 -7.500000
vt 29.500000 -8.000000
vt -17.500000 -8.000000
vt -17.500000 -7.500000
vt 29.500000 -13.500000
vt 29.500000 21.500000
vt -17.500000 21.500000
vt -17.500000 -13.500000
s 1
usemtl __TB_empty
f 49/67/37 52/68/37 51/69/37 50/70/37
f 53/71/38 54/72/38 50/73/38 51/74/38
f 54/75/39 55/76/39 49/77/39 50/78/39
f 56/76/40 53/75/40 51/78/40 52/77/40
f 55/72/41 56/71/41 52/74/41 49/73/41
f 56/68/42 55/67/42 54/70/42 53/69/42
o entity0_brush15
v -560.000000 255.999954 -688.000000
v -560.000000 256.000031 431.999969
v -560.000000 272.000031 431.999969
v -560.000000 271.999939 -688.000000
v 944.000000 272.000031 431.999969
v 944.000000 256.000031 431.999969
v 944.000000 255.999954 -688.000000
v 944.000000 271.999939 -688.000000
vn 1.0000 -0.0000 -0.0000
vn -0.0000 -0.0000 -1.0000
vn -0.0000 1.0000 -0.0000
vn -0.0000 -1.0000 -0.0000
vn -0.0000 -0.0000 1.0000
vn -1.0000 -0.0000 -0.0000
vt 21.500000 8.000000
vt 21.500000 8.500000
vt -13.500000 8.500000
vt -13.500000 8.000000
vt 29.500000 8.500000
vt 29.500000 8.000000
vt -17.500000 8.000000
vt -17.500000 8.500000
vt 29.500000 -13.500000
vt 29.500000 21.500000
vt -17.500000 21.500000
vt -17.500000 -13.500000
s 1
usemtl __TB_empty
f 57/79/43 60/80/43 59/81/43 58/82/43
f 61/83/44 62/84/44 58/85/44 59/86/44
f 62/87/45 63/88/45 57/89/45 58/90/45
f 64/88/46 61/87/46 59/90/46 60/89/46
f 63/84/47 64/83/47 60/86/47 57/85/47
f 64/80/48 63/79/48 62/82/48 61/81/48
o portal_exit_1
v -64.000000 -128.000015 -272.000000
v -64.000000 -128.000015 -255.999985
v -64.000000 -0.000019 -256.000000
v -64.000000 -0.000021 -272.000000
v 64.000000 -0.000019 -256.000000
v 64.000000 -128.000015 -255.999985
v 64.000000 -128.000015 -272.000000
v 64.000000 -0.000021 -272.000000
vn 1.0000 -0.0000 -0.0000
vn -0.0000 -0.0000 -1.0000
vn -0.0000 1.0000 -0.0000
vn -0.0000 -1.0000 -0.0000
vn -0.0000 -0.0000 1.0000
vn -1.0000 -0.0000 -0.0000
vt 17.000000 -8.000000
vt 17.000000 -0.000000
vt 16.000000 -0.000000
vt 16.000000 -8.000000
vt 4.000000 -0.000000
vt 4.000000 -8.000000
vt -4.000000 -8.000000
vt -4.000000 -0.000000
vt 4.000000 16.000000
vt 4.000000 17.000000
vt -4.000000 17.000000
vt -4.000000 16.000000
s 1
usemtl test_texture
f 65/91/49 68/92/49 67/93/49 66/94/49
f 69/95/50 70/96/50 66/97/50 67/98/50
f 70/99/51 71/100/51 65/101/51 66/102/51
f 72/100/52 69/99/52 67/102/52 68/101/52
f 71/96/53 72/95/53 68/98/53 65/97/53
f 72/92/54 71/91/54 70/94/54 69/93/54
o entity0_brush3
v -320.000000 -128.000046 -624.000000
v -64.000000 -128.000015 -272.000000
v -64.000000 -112.000023 -272.000000
v -320.000000 -112.000046 -624.000000
v 64.000000 -112.000023 -272.000000
v 64.000000 -128.000015 -272.000000
v 320.000000 -128.000046 -624.000000
v 320.000000 -112.000046 -624.000000
vn 0.8087 -0.0000 -0.5882
vn -0.0000 -0.0000 -1.0000
vn -0.0000 1.0000 -0.0000
vn -0.0000 -1.0000 -0.0000
vn -0.0000 -0.0000 1.0000
vn -0.8087 -0.0000 -0.5882
vt 39.000000 -8.000000
vt 39.000000 -7.000000
vt 17.000000 -7.000000
vt 17.000000 -8.000000
vt 4.000000 -7.000000
vt 4.000000 -8.000000
vt -4.000000 -8.000000
vt -4.000000 -7.000000
vt 4.000000 17.000000
vt 20.000000 39.000000
vt -20.000000 39.000000
vt -4.000000 17.000000
vt 20.000000 -8.000000
vt 20.000000 -7.000000
vt -20.000000 -7.000000
vt -20.000000 -8.000000
s 1
usemtl test_texture
f 73/103/55 76/104/55 75/105/55 74/106/55
f 77/107/56 78/108/56 74/109/56 75/110/56
f 78/111/57 79/112/57 73/113/57 74/114/57
f 80/112/58 77/111/58 75/114/58 76/113/58
f 79/115/59 80/116/59 76/117/59 73/118/59
f 80/104/60 79/103/60 78/106/60 77/105/60
o entity0_brush4
v -320.000000 -0.000047 -624.000000
v -64.000000 -0.000021 -272.000000
v -64.000000 15.999979 -272.000000
v -320.000000 15.999953 -624.000000
v 64.000000 15.999979 -272.000000
v 64.000000 -0.000021 -272.000000
v 320.000000 -0.000047 -624.000000
v 320.000000 15.999953 -624.000000
vn 0.8087 -0.0000 -0.5882
vn -0.0000 -0.0000 -1.0000
vn -0.0000 1.0000 -0.0000
vn -0.0000 -1.0000 -0.0000
vn -0.0000 -0.0000 1.0000
vn -0.8087 -0.0000 -0.5882
vt 39.000000 -0.000000
vt 39.000000 1.000000
vt 17.000000 1.000000
vt 17.000000 -0.000000
vt 4.000000 1.000000
vt 4.000000 -0.000000
vt -4.000000 -0.000000
vt -4.000000 1.000000
vt 4.000000 17.000000
vt 20.000000 39.000000
vt -20.000000 39.000000
vt -4.000000 17.000000
vt 20.000000 -0.000000
vt 20.000000 1.000000
vt -20.000000 1.000000
vt -20.000000 -0.000000
s 1
usemtl test_texture
f 81/119/61 84/120/61 83/121/61 82/122/61
f 85/123/62 86/124/62 82/125/62 83/126/62
f 86/127/63 87/128/63 81/129/63 82/130/63
f 88/128/64 85/127/64 83/130/64 84/129/64
f 87/131/65 88/132/65 84/133/65 81/134/65
f 88/120/66 87/119/66 86/122/66 85/121/66
o entity0_brush5
v 256.000000 -64.000015 -160.000000
v 256.000000 -63.999989 160.000000
v 256.000000 192.000015 159.999985
v 256.000000 191.999985 -160.000015
v 272.000000 192.000015 159.999985
v 272.000000 -63.999989 160.000000
v 272.000000 -64.000015 -160.000000
v 272.000000 191.999985 -160.000015
vn 1.0000 -0.0000 -0.0000
vn -0.0000 -0.0000 -1.0000
vn -0.0000 1.0000 -0.0000
vn -0.0000 -1.0000 -0.0000
vn -0.0000 -0.0000 1.0000
vn -1.0000 -0.0000 -0.0000
vt 10.000000 -4.000000
vt 10.000000 12.000000
vt -10.000000 12.000000
vt -10.000000 -4.000000
vt 17.000000 12.000000
vt 17.000000 -4.000000
vt 16.000000 -4.000000
vt 16.000000 12.000000
vt 17.000000 -10.000000
vt 17.000000 10.000000
vt 16.000000 10.000000
vt 16.000000 -10.000000
s 1
usemtl test_texture
f 89/135/67 92/136/67 91/137/67 90/138/67
f 93/139/68 94/140/68 90/141/68 91/142/68
f 94/143/69 95/144/69 89/145/69 90/146/69
f 96/144/70 93/143/70 91/146/70 92/145/70
f 95/140/71 96/139/71 92/142/71 89/141/71
f 96/136/72 95/135/72 94/138/72 93/137/72
o entity0_brush6
v -32.000000 111.999992 -128.000015
v -32.000000 112.000008 127.999992
v -32.000000 128.000015 127.999992
v -32.000000 127.999992 -128.000015
v 32.000000 128.000015 127.999992
v 32.000000 112.000008 127.999992
v 32.000000 111.999992 -128.000015
v 32.000000 127.999992 -128.000015
vn 1.0000 -0.0000 -0.0000
vn -0.0000 -0.0000 -1.0000
vn -0.0000 1.0000 -0.0000
vn -0.0000 -1.0000 -0.0000
vn -0.0000 -0.0000 1.0000
vn -1.0000 -0.0000 -0.0000
vt 8.000000 7.000000
vt 8.000000 8.000000
vt -8.000000 8.000000
vt -8.000000 7.000000
vt 2.000000 8.000000
vt 2.000000 7.000000
vt -2.000000 7.000000
vt -2.000000 8.000000
vt 2.000000 -8.000000
vt -2.000000 -8.000000
s 1
usemtl test_texture
f 97/147/73 100/148/73 99/149/73 98/150/73
f 101/151/74 102/152/74 98/153/74 99/154/74
f 102/155/75 103/151/75 97/154/75 98/156/75
f 104/151/76 101/155/76 99/156/76 100/154/76
f 103/152/77 104/151/77 100/154/77 97/153/77
f 104/148/78 103/147/78 102/150/78 101/149/78
o entity0_brush7
v -64.000000 0.000011 144.000000
v -64.000000 0.000012 160.000000
v -64.000000 128.000015 159.999985
v -64.000000 128.000015 143.999985
v 64.000000 128.000015 159.999985
v 64.000000 0.000012 160.000000
v 64.000000 0.000011 144.000000
v 64.000000 128.000015 143.999985
vn 1.0000 -0.0000 -0.0000
vn -0.0000 -0.0000 -1.0000
vn -0.0000 1.0000 -0.0000
vn -0.0000 -1.0000 -0.0000
vn -0.0000 -0.0000 1.0000
vn -1.0000 -0.0000 -0.0000
vt -9.000000 -0.000000
vt -9.000000 8.000000
vt -10.000000 8.000000
vt -10.000000 -0.000000
vt 4.000000 8.000000
vt 4.000000 -0.000000
vt -4.000000 -0.000000
vt -4.000000 8.000000
vt 4.000000 -10.000000
vt 4.000000 -9.000000
vt -4.000000 -9.000000
vt -4.000000 -10.000000
s 1
usemtl test_texture
f 105/157/79 108/158/79 107/159/79 106/160/79
f 109/161/80 110/162/80 106/163/80 107/164/80
f 110/165/81 111/166/81 105/167/81 106/168/81
f 112/166/82 109/165/82 107/168/82 108/167/82
f 111/162/83 112/161/83 108/164/83 105/163/83
f 112/158/84 111/157/84 110/160/84 109/159/84
o entity0_brush8
v -128.000000 0.000019 256.000000
v -128.000000 0.000029 384.000000
v -128.000000 128.000031 384.000000
v -128.000000 128.000015 255.999985
v -112.000000 128.000031 384.000000
v -112.000000 0.000029 384.000000
v -112.000000 0.000019 256.000000
v -112.000000 128.000015 255.999985
vn 1.0000 -0.0000 -0.0000
vn -0.0000 -0.0000 -1.0000
vn -0.0000 1.0000 -0.0000
vn -0.0000 -1.0000 -0.0000
vn -0.0000 -0.0000 1.0000
vn -1.0000 -0.0000 -0.0000
vt -16.000000 -0.000000
vt -16.000000 8.000000
vt -24.000000 8.000000
vt -24.000000 -0.000000
vt -7.000000 8.000000
vt -7.000000 -0.000000
vt -8.000000 -0.000000
vt -8.000000 8.000000
vt -7.000000 -24.000000
vt -7.000000 -16.000000
vt -8.000000 -16.000000
vt -8.000000 -24.000000
s 1
usemtl test_texture
f 113/169/85 116/170/85 115/171/85 114/172/85
f 117/173/86 118/174/86 114/175/86 115/176/86
f 118/177/87 119/178/87 113/179/87 114/180/87
f 120/178/88 117/177/88 115/180/88 116/179/88
f 119/174/89 120/173/89 116/176/89 113/175/89
f 120/170/90 119/169/90 118/172/90 117/171/90
o entity0_brush9
v -256.000000 0.000019 256.000000
v -256.000000 0.000029 384.000000
v -256.000000 16.000029 384.000000
v -256.000000 16.000019 256.000000
v -128.000000 16.000029 384.000000
v -128.000000 0.000029 384.000000
v -128.000000 0.000019 256.000000
v -128.000000 16.000019 256.000000
vn 1.0000 -0.0000 -0.0000
vn -0.0000 -0.0000 -1.0000
vn -0.0000 1.0000 -0.0000
vn -0.0000 -1.0000 -0.0000
vn -0.0000 -0.0000 1.0000
vn -1.0000 -0.0000 -0.0000
vt -16.000000 -0.000000
vt -16.000000 1.000000
vt -24.000000 1.000000
vt -24.000000 -0.000000
vt -8.000000 1.000000
vt -8.000000 -0.000000
vt -8.000000 -24.000000
vt -8.000000 -16.000000
vt -16.000000 -16.000000
vt -16.000000 -24.000000
s 1
usemtl test_texture
f 121/181/91 124/182/91 123/183/91 122/184/91
f 125/185/92 126/186/92 122/181/92 123/182/92
f 126/187/93 127/188/93 121/189/93 122/190/93
f 128/188/94 125/187/94 123/190/94 124/189/94
f 127/186/95 128/185/95 124/182/95 121/181/95
f 128/182/96 127/181/96 126/184/96 125/183/96
o entity1_brush0
v -320.000000 -16.000006 -64.000000
v -320.000000 -15.999995 64.000000
v -320.000000 128.000000 63.999989
v -320.000000 127.999992 -64.000008
v -304.000000 128.000000 63.999989
v -304.000000 -15.999995 64.000000
v -304.000000 -16.000006 -64.000000
v -304.000000 127.999992 -64.000008
vn 1.0000 -0.0000 -0.0000
vn -0.0000 -0.0000 -1.0000
vn -0.0000 1.0000 -0.0000
vn -0.0000 -1.0000 -0.0000
vn -0.0000 -0.0000 1.0000
vn -1.0000 -0.0000 -0.0000
vt 4.000000 -1.000000
vt 4.000000 8.000000
vt -4.000000 8.000000
vt -4.000000 -1.000000
vt -19.000000 8.000000
vt -19.000000 -1.000000
vt -20.000000 -1.000000
vt -20.000000 8.000000
vt -19.000000 -4.000000
vt -19.000000 4.000000
vt -20.000000 4.000000
vt -20.000000 -4.000000
s 1
usemtl blue_test_texture
f 129/191/97 132/192/97 131/193/97 130/194/97
f 133/195/98 134/196/98 130/197/98 131/198/98
f 134/199/99 135/200/99 129/201/99 130/202/99
f 136/200/100 133/199/100 131/202/100 132/201/100
f 135/196/101 136/195/101 132/198/101 129/197/101
f 136/192/102 135/191/102 134/194/102 133/193/102
o entity1_brush1
v -144.000000 -0.000005 -64.000000
v -144.000000 0.000000 0.000000
v -144.000000 112.000000 -0.000008
v -144.000000 111.999992 -64.000008
v -128.000000 112.000000 -0.000008
v -128.000000 0.000000 0.000000
v -128.000000 -0.000005 -64.000000
v -128.000000 111.999992 -64.000008
vn 1.0000 -0.0000 -0.0000
vn -0.0000 -0.0000 -1.0000
vn -0.0000 1.0000 -0.0000
vn -0.0000 -1.0000 -0.0000
vn -0.0000 -0.0000 1.0000
vn -1.0000 -0.0000 -0.0000
vt 4.000000 -0.000000
vt 4.000000 7.000000
vt 0.000000 7.000000
vt 0.000000 -0.000000
vt -8.000000 7.000000
vt -8.000000 -0.000000
vt -9.000000 -0.000000
vt -9.000000 7.000000
vt -8.000000 4.000000
vt -9.000000 4.000000
s 1
usemtl blue_test_texture
f 137/203/103 140/204/103 139/205/103 138/206/103
f 141/207/104 142/208/104 138/209/104 139/210/104
f 142/208/105 143/211/105 137/212/105 138/209/105
f 144/211/106 141/208/106 139/209/106 140/212/106
f 143/208/107 144/207/107 140/210/107 137/209/107
f 144/204/108 143/203/108 142/206/108 141/205/108
o entity1_brush2
v -144.000000 111.999992 -128.000015
v -144.000000 112.000008 127.999992
v -144.000000 128.000015 127.999992
v -144.000000 127.999992 -128.000015
v -32.000000 128.000015 127.999992
v -32.000000 112.000008 127.999992
v -32.000000 111.999992 -128.000015
v -32.000000 127.999992 -128.000015
vn 1.0000 -0.0000 -0.0000
vn -0.0000 -0.0000 -1.0000
vn -0.0000 1.0000 -0.0000
vn -0.0000 -1.0000 -0.0000
vn -0.0000 -0.0000 1.0000
vn -1.0000 -0.0000 -0.0000
vt 8.000000 7.000000
vt 8.000000 8.000000
vt -8.000000 8.000000
vt -8.000000 7.000000
vt -2.000000 8.000000
vt -2.000000 7.000000
vt -9.000000 7.000000
vt -9.000000 8.000000
vt -2.000000 -8.000000
vt -9.000000 -8.000000
s 1
usemtl blue_test_texture
f 145/213/109 148/214/109 147/215/109 146/216/109
f 149/217/110 150/218/110 146/219/110 147/220/110
f 150/221/111 151/217/111 145/220/111 146/222/111
f 152/217/112 149/221/112 147/222/112 148/220/112
f 151/218/113 152/217/113 148/220/113 145/219/113
f 152/214/114 151/213/114 150/216/114 149/215/114
o entity1_brush3
v -128.000000 -0.000011 -144.000000
v -128.000000 -0.000010 -128.000000
v -128.000000 127.999992 -128.000015
v -128.000000 127.999992 -144.000015
v -64.000000 127.999992 -128.000015
v -64.000000 -0.000010 -128.000000
v -64.000000 -0.000011 -144.000000
v -64.000000 127.999992 -144.000015
vn 1.0000 -0.0000 -0.0000
vn -0.0000 -0.0000 -1.0000
vn -0.0000 1.0000 -0.0000
vn -0.0000 -1.0000 -0.0000
vn -0.0000 -0.0000 1.0000
vn -1.0000 -0.0000 -0.0000
vt 9.000000 -0.000000
vt 9.000000 8.000000
vt 8.000000 8.000000
vt 8.000000 -0.000000
vt -4.000000 8.000000
vt -4.000000 -0.000000
vt -8.000000 -0.000000
vt -8.000000 8.000000
vt -4.000000 9.000000
vt -8.000000 9.000000
s 1
usemtl blue_test_texture
f 153/223/115 156/224/115 155/225/115 154/226/115
f 157/227/116 158/228/116 154/229/116 155/230/116
f 158/227/117 159/231/117 153/232/117 154/230/117
f 160/231/118 157/227/118 155/230/118 156/232/118
f 159/228/119 160/227/119 156/230/119 153/229/119
f 160/224/120 159/223/120 158/226/120 157/225/120
o entity1_brush4
v -320.000000 -128.000046 -624.000000
v -320.000000 -128.000046 -608.000000
v -320.000000 -0.000046 -608.000000
v -320.000000 -0.000047 -624.000000
v -64.000000 -0.000019 -256.000000
v -64.000000 -128.000015 -255.999985
v -64.000000 -128.000015 -272.000000
v -64.000000 -0.000021 -272.000000
vn 1.0000 -0.0000 -0.0000
vn 0.8087 -0.0000 -0.5882
vn -0.0000 1.0000 -0.0000
vn -0.0000 -1.0000 -0.0000
vn -0.8087 -0.0000 0.5882
vn -1.0000 -0.0000 -0.0000
vt 39.000000 -8.000000
vt 39.000000 -0.000000
vt 38.000000 -0.000000
vt 38.000000 -8.000000
vt 16.000000 -0.000000
vt 16.000000 -8.000000
vt -4.000000 16.000000
vt -4.000000 17.000000
vt -20.000000 39.000000
vt -20.000000 38.000000
vt 17.000000 -8.000000
vt 17.000000 -0.000000
s 1
usemtl blue_test_texture
f 161/233/121 164/234/121 163/235/121 162/236/121
f 165/237/122 166/238/122 162/236/122 163/235/122
f 166/239/123 167/240/123 161/241/123 162/242/123
f 168/240/124 165/239/124 163/242/124 164/241/124
f 167/238/125 168/237/125 164/235/125 161/236/125
f 167/243/126 166/238/126 165/237/126 168/244/126
o entity1_brush5
v -320.000000 -128.000046 -640.000000
v -320.000000 -128.000046 -624.000000
v -320.000000 -0.000047 -624.000000
v -320.000000 -0.000048 -640.000000
v 0.000000 -0.000047 -624.000000
v 0.000000 -128.000046 -624.000000
v 0.000000 -128.000046 -640.000000
v 0.000000 -0.000048 -640.000000
vn 1.0000 -0.0000 -0.0000
vn -0.0000 -0.0000 -1.0000
vn -0.0000 1.0000 -0.0000
vn -0.0000 -1.0000 -0.0000
vn -0.0000 -0.0000 1.0000
vn -1.0000 -0.0000 -0.0000
vt 40.000000 -8.000000
vt 40.000000 -0.000000
vt 39.000000 -0.000000
vt 39.000000 -8.000000
vt 0.000000 -0.000000
vt 0.000000 -8.000000
vt -20.000000 -8.000000
vt -20.000000 -0.000000
vt 0.000000 39.000000
vt 0.000000 40.000000
vt -20.000000 40.000000
vt -20.000000 39.000000
s 1
usemtl blue_test_texture
f 169/245/127 172/246/127 171/247/127 170/248/127
f 173/249/128 174/250/128 170/251/128 171/252/128
f 174/253/129 175/254/129 169/255/129 170/256/129
f 176/254/130 173/253/130 171/256/130 172/255/130
f 175/250/131 176/249/131 172/252/131 169/251/131
f 176/246/132 175/245/132 174/248/132 173/247/132
o entity2_brush0
v 64.000000 -0.000011 -144.000000
v 64.000000 -0.000010 -128.000000
v 64.000000 127.999992 -128.000015
v 64.000000 127.999992 -144.000015
v 128.000000 127.999992 -128.000015
v 128.000000 -0.000010 -128.000000
v 128.000000 -0.000011 -144.000000
v 128.000000 127.999992 -144.000015
vn 1.0000 -0.0000 -0.0000
vn -0.0000 -0.0000 -1.0000
vn -0.0000 1.0000 -0.0000
vn -0.0000 -1.0000 -0.0000
vn -0.0000 -0.0000 1.0000
vn -1.0000 -0.0000 -0.0000
vt 9.000000 -0.000000
vt 9.000000 8.000000
vt 8.000000 8.000000
vt 8.000000 -0.000000
vt 4.000000 -0.000000
vt 4.000000 8.000000
vt 8.000000 9.000000
vt 4.000000 9.000000
s 1
usemtl purple_test_texture
f 177/257/133 180/258/133 179/259/133 178/260/133
f 181/259/134 182/260/134 178/261/134 179/262/134
f 182/259/135 183/263/135 177/264/135 178/262/135
f 184/263/136 181/259/136 179/262/136 180/264/136
f 183/260/137 184/259/137 180/262/137 177/261/137
f 184/258/138 183/257/138 182/260/138 181/259/138
o entity2_brush1
v 32.000000 111.999992 -128.000015
v 32.000000 112.000008 127.999992
v 32.000000 128.000015 127.999992
v 32.000000 127.999992 -128.000015
v 144.000000 128.000015 127.999992
v 144.000000 112.000008 127.999992
v 144.000000 111.999992 -128.000015
v 144.000000 127.999992 -128.000015
vn 1.0000 -0.0000 -0.0000
vn -0.0000 -0.0000 -1.0000
vn -0.0000 1.0000 -0.0000
vn -0.0000 -1.0000 -0.0000
vn -0.0000 -0.0000 1.0000
vn -1.0000 -0.0000 -0.0000
vt 8.000000 7.000000
vt 8.000000 8.000000
vt -8.000000 8.000000
vt -8.000000 7.000000
vt 9.000000 8.000000
vt 9.000000 7.000000
vt 2.000000 7.000000
vt 2.000000 8.000000
vt 9.000000 -8.000000
vt 2.000000 -8.000000
s 1
usemtl purple_test_texture
f 185/265/139 188/266/139 187/267/139 186/268/139
f 189/269/140 190/270/140 186/271/140 187/272/140
f 190/273/141 191/269/141 185/272/141 186/274/141
f 192/269/142 189/273/142 187/274/142 188/272/142
f 191/270/143 192/269/143 188/272/143 185/271/143
f 192/266/144 191/265/144 190/268/144 189/267/144
o entity2_brush10
v 0.000000 -128.000046 -640.000000
v 0.000000 -128.000046 -624.000000
v 0.000000 -0.000047 -624.000000
v 0.000000 -0.000048 -640.000000
v 320.000000 -0.000047 -624.000000
v 320.000000 -128.000046 -624.000000
v 320.000000 -128.000046 -640.000000
v 320.000000 -0.000048 -640.000000
vn 1.0000 -0.0000 -0.0000
vn -0.0000 -0.0000 -1.0000
vn -0.0000 1.0000 -0.0000
vn -0.0000 -1.0000 -0.0000
vn -0.0000 -0.0000 1.0000
vn -1.0000 -0.0000 -0.0000
vt 40.000000 -8.000000
vt 40.000000 -0.000000
vt 39.000000 -0.000000
vt 39.000000 -8.000000
vt 20.000000 -0.000000
vt 20.000000 -8.000000
vt 0.000000 -8.000000
vt 0.000000 -0.000000
vt 20.000000 39.000000
vt 20.000000 40.000000
vt 0.000000 40.000000
vt 0.000000 39.000000
s 1
usemtl purple_test_texture
f 193/275/145 196/276/145 195/277/145 194/278/145
f 197/279/146 198/280/146 194/281/146 195/282/146
f 198/283/147 199/284/147 193/285/147 194/286/147
f 200/284/148 197/283/148 195/286/148 196/285/148
f 199/280/149 200/279/149 196/282/149 193/281/149
f 200/276/150 199/275/150 198/278/150 197/277/150
o entity2_brush2
v 128.000000 -0.000010 -128.000000
v 128.000000 0.000010 128.000000
v 128.000000 112.000008 127.999992
v 128.000000 111.999992 -128.000015
v 144.000000 112.000008 127.999992
v 144.000000 0.000010 128.000000
v 144.000000 -0.000010 -128.000000
v 144.000000 111.999992 -128.000015
vn 1.0000 -0.0000 -0.0000
vn -0.0000 -0.0000 -1.0000
vn -0.0000 1.0000 -0.0000
vn -0.0000 -1.0000 -0.0000
vn -0.0000 -0.0000 1.0000
vn -1.0000 -0.0000 -0.0000
vt 8.000000 -0.000000
vt 8.000000 7.000000
vt -8.000000 7.000000
vt -8.000000 -0.000000
vt 9.000000 7.000000
vt 9.000000 -0.000000
vt 9.000000 -8.000000
vt 9.000000 8.000000
vt 8.000000 8.000000
vt 8.000000 -8.000000
s 1
usemtl purple_test_texture
f 201/287/151 204/288/151 203/289/151 202/290/151
f 205/291/152 206/292/152 202/287/152 203/288/152
f 206/293/153 207/294/153 201/295/153 202/296/153
f 208/294/154 205/293/154 203/296/154 204/295/154
f 207/292/155 208/291/155 204/288/155 201/287/155
f 208/288/156 207/287/156 206/290/156 205/289/156
o entity2_brush3
v 448.000000 -15.999990 128.000000
v 448.000000 -15.999990 144.000000
v 448.000000 128.000015 143.999985
v 448.000000 128.000015 127.999992
v 704.000000 128.000015 143.999985
v 704.000000 -15.999990 144.000000
v 704.000000 -15.999990 128.000000
v 704.000000 128.000015 127.999992
vn 1.0000 -0.0000 -0.0000
vn -0.0000 -0.0000 -1.0000
vn -0.0000 1.0000 -0.0000
vn -0.0000 -1.0000 -0.0000
vn -0.0000 -0.0000 1.0000
vn -1.0000 -0.0000 -0.0000
vt -8.000000 -1.000000
vt -8.000000 8.000000
vt -9.000000 8.000000
vt -9.000000 -1.000000
vt 44.000000 8.000000
vt 44.000000 -1.000000
vt 28.000000 -1.000000
vt 28.000000 8.000000
vt 44.000000 -9.000000
vt 44.000000 -8.000000
vt 28.000000 -8.000000
vt 28.000000 -9.000000
s 1
usemtl purple_test_texture
f 209/297/157 212/298/157 211/299/157 210/300/157
f 213/301/158 214/302/158 210/303/158 211/304/158
f 214/305/159 215/306/159 209/307/159 210/308/159
f 216/306/160 213/305/160 211/308/160 212/307/160
f 215/302/161 216/301/161 212/304/161 209/303/161
f 216/298/162 215/297/162 214/300/162 213/299/162
o entity2_brush4
v 448.000000 -16.000010 -128.000000
v 448.000000 -15.999990 128.000000
v 448.000000 0.000010 128.000000
v 448.000000 -0.000010 -128.000000
v 688.000000 0.000010 128.000000
v 688.000000 -15.999990 128.000000
v 688.000000 -16.000010 -128.000000
v 688.000000 -0.000010 -128.000000
vn 1.0000 -0.0000 -0.0000
vn -0.0000 -0.0000 -1.0000
vn -0.0000 1.0000 -0.0000
vn -0.0000 -1.0000 -0.0000
vn -0.0000 -0.0000 1.0000
vn -1.0000 -0.0000 -0.0000
vt 8.000000 -1.000000
vt 8.000000 -0.000000
vt -8.000000 -0.000000
vt -8.000000 -1.000000
vt 43.000000 -0.000000
vt 43.000000 -1.000000
vt 28.000000 -1.000000
vt 28.000000 -0.000000
vt 43.000000 -8.000000
vt 43.000000 8.000000
vt 28.000000 8.000000
vt 28.000000 -8.000000
s 1
usemtl purple_test_texture
f 217/309/163 220/310/163 219/311/163 218/312/163
f 221/313/164 222/314/164 218/315/164 219/316/164
f 222/317/165 223/318/165 217/319/165 218/320/165
f 224/318/166 221/317/166 219/320/166 220/319/166
f 223/314/167 224/313/167 220/316/167 217/315/167
f 224/310/168 223/309/168 222/312/168 221/311/168
o entity2_brush5
v 688.000000 -15.999996 48.000000
v 688.000000 -15.999990 128.000000
v 688.000000 128.000015 127.999992
v 688.000000 128.000000 47.999989
v 704.000000 128.000015 127.999992
v 704.000000 -15.999990 128.000000
v 704.000000 -15.999996 48.000000
v 704.000000 128.000000 47.999989
vn 1.0000 -0.0000 -0.0000
vn -0.0000 -0.0000 -1.0000
vn -0.0000 1.0000 -0.0000
vn -0.0000 -1.0000 -0.0000
vn -0.0000 -0.0000 1.0000
vn -1.0000 -0.0000 -0.0000
vt -3.000000 -1.000000
vt -3.000000 8.000000
vt -8.000000 8.000000
vt -8.000000 -1.000000
vt 44.000000 8.000000
vt 44.000000 -1.000000
vt 43.000000 -1.000000
vt 43.000000 8.000000
vt 44.000000 -8.000000
vt 44.000000 -3.000000
vt 43.000000 -3.000000
vt 43.000000 -8.000000
s 1
usemtl purple_test_texture
f 225/321/169 228/322/169 227/323/169 226/324/169
f 229/325/170 230/326/170 226/327/170 227/328/170
f 230/329/171 231/330/171 225/331/171 226/332/171
f 232/330/172 229/329/172 227/332/172 228/331/172
f 231/326/173 232/325/173 228/328/173 225/327/173
f 232/322/174 231/321/174 230/324/174 229/323/174
o entity2_brush6
v 432.000000 -16.000010 -128.000000
v 432.000000 -15.999990 128.000000
v 432.000000 128.000015 127.999992
v 432.000000 127.999992 -128.000015
v 448.000000 128.000015 127.999992
v 448.000000 -15.999990 128.000000
v 448.000000 -16.000010 -128.000000
v 448.000000 127.999992 -128.000015
vn 1.0000 -0.0000 -0.0000
vn -0.0000 -0.0000 -1.0000
vn -0.0000 1.0000 -0.0000
vn -0.0000 -1.0000 -0.0000
vn -0.0000 -0.0000 1.0000
vn -1.0000 -0.0000 -0.0000
vt 8.000000 -1.000000
vt 8.000000 8.000000
vt -8.000000 8.000000
vt -8.000000 -1.000000
vt 28.000000 8.000000
vt 28.000000 -1.000000
vt 27.000000 -1.000000
vt 27.000000 8.000000
vt 28.000000 -8.000000
vt 27.000000 -8.000000
s 1
usemtl purple_test_texture
f 233/333/175 236/334/175 235/335/175 234/336/175
f 237/337/176 238/338/176 234/339/176 235/340/176
f 238/341/177 239/337/177 233/340/177 234/342/177
f 240/337/178 237/341/178 235/342/178 236/340/178
f 239/338/179 240/337/179 236/340/179 233/339/179
f 240/334/180 239/333/180 238/336/180 237/335/180
o entity2_brush7
v 448.000000 -16.000011 -144.000000
v 448.000000 -16.000010 -128.000000
v 448.000000 127.999992 -128.000015
v 448.000000 127.999992 -144.000015
v 704.000000 127.999992 -128.000015
v 704.000000 -16.000010 -128.000000
v 704.000000 -16.000011 -144.000000
v 704.000000 127.999992 -144.000015
vn 1.0000 -0.0000 -0.0000
vn -0.0000 -0.0000 -1.0000
vn -0.0000 1.0000 -0.0000
vn -0.0000 -1.0000 -0.0000
vn -0.0000 -0.0000 1.0000
vn -1.0000 -0.0000 -0.0000
vt 9.000000 -1.000000
vt 9.000000 8.000000
vt 8.000000 8.000000
vt 8.000000 -1.000000
vt 44.000000 8.000000
vt 44.000000 -1.000000
vt 28.000000 -1.000000
vt 28.000000 8.000000
vt 44.000000 9.000000
vt 28.000000 9.000000
s 1
usemtl purple_test_texture
f 241/343/181 244/344/181 243/345/181 242/346/181
f 245/347/182 246/348/182 242/349/182 243/350/182
f 246/347/183 247/351/183 241/352/183 242/350/183
f 248/351/184 245/347/184 243/350/184 244/352/184
f 247/348/185 248/347/185 244/350/185 241/349/185
f 248/344/186 247/343/186 246/346/186 245/345/186
o entity2_brush8
v 688.000000 -16.000010 -128.000000
v 688.000000 -16.000004 -48.000000
v 688.000000 128.000000 -48.000011
v 688.000000 127.999992 -128.000015
v 704.000000 128.000000 -48.000011
v 704.000000 -16.000004 -48.000000
v 704.000000 -16.000010 -128.000000
v 704.000000 127.999992 -128.000015
vn 1.0000 -0.0000 -0.0000
vn -0.0000 -0.0000 -1.0000
vn -0.0000 1.0000 -0.0000
vn -0.0000 -1.0000 -0.0000
vn -0.0000 -0.0000 1.0000
vn -1.0000 -0.0000 -0.0000
vt 8.000000 -1.000000
vt 8.000000 8.000000
vt 3.000000 8.000000
vt 3.000000 -1.000000
vt 44.000000 8.000000
vt 44.000000 -1.000000
vt 43.000000 -1.000000
vt 43.000000 8.000000
vt 44.000000 3.000000
vt 43.000000 3.000000
s 1
usemtl purple_test_texture
f 249/353/187 252/354/187 251/355/187 250/356/187
f 253/357/188 254/358/188 250/359/188 251/360/188
f 254/361/189 255/357/189 249/360/189 250/362/189
f 256/357/190 253/361/190 251/362/190 252/360/190
f 255/358/191 256/357/191 252/360/191 249/359/191
f 256/354/192 255/353/192 254/356/192 253/355/192
o entity2_brush9
v 64.000000 -0.000019 -256.000000
v 64.000000 -0.000021 -272.000000
v 64.000000 -128.000015 -272.000000
v 64.000000 -128.000015 -255.999985
v 320.000000 -128.000046 -624.000000
v 320.000000 -0.000047 -624.000000
v 320.000000 -128.000046 -608.000000
v 320.000000 -0.000046 -608.000000
vn 1.0000 -0.0000 -0.0000
vn 0.8087 -0.0000 0.5882
vn -0.0000 1.0000 -0.0000
vn -0.0000 -1.0000 -0.0000
vn -0.8087 -0.0000 -0.5882
vn -1.0000 -0.0000 -0.0000
vt 16.000000 -0.000000
vt 16.000000 -8.000000
vt 17.000000 -8.000000
vt 17.000000 -0.000000
vt 38.000000 -8.000000
vt 38.000000 -0.000000
vt 20.000000 38.000000
vt 20.000000 39.000000
vt 4.000000 17.000000
vt 4.000000 16.000000
vt 39.000000 -0.000000
vt 39.000000 -8.000000
s 1
usemtl purple_test_texture
f 257/363/193 260/364/193 259/365/193 258/366/193
f 261/367/194 262/368/194 258/363/194 259/364/194
f 263/369/195 261/370/195 259/371/195 260/372/195
f 262/370/196 264/369/196 257/372/196 258/371/196
f 264/368/197 263/367/197 260/364/197 257/363/197
f 262/373/198 261/374/198 263/367/198 264/368/198
