# Blender 5.1.1
# www.blender.org
mtllib testscenewithportal.mtl
o entity0_brush0
v -96.000000 -16.000006 -64.000000
v -96.000000 -15.999990 128.000000
v -96.000000 16.000010 128.000000
v -96.000000 15.999995 -64.000000
v 64.000000 16.000010 128.000000
v 64.000000 -15.999990 128.000000
v 64.000000 -16.000006 -64.000000
v 64.000000 15.999995 -64.000000
vn -1.0000 -0.0000 -0.0000
vn -0.0000 -0.0000 1.0000
vn -0.0000 -1.0000 -0.0000
vn -0.0000 1.0000 -0.0000
vn -0.0000 -0.0000 -1.0000
vn 1.0000 -0.0000 -0.0000
vt 2.000000 -0.500000
vt -4.000000 -0.500000
vt -4.000000 0.500000
vt 2.000000 0.500000
vt -3.000000 0.500000
vt -3.000000 -0.500000
vt 2.000000 -4.000000
vt -3.000000 -4.000000
vt -3.000000 2.000000
vt 2.000000 2.000000
s 1
usemtl __TB_empty
f 1/1/1 2/2/1 3/3/1 4/4/1
f 5/4/2 3/5/2 2/6/2 6/1/2
f 6/7/3 2/8/3 1/9/3 7/10/3
f 8/10/4 4/9/4 3/8/4 5/7/4
f 7/1/5 1/6/5 4/5/5 8/4/5
f 8/4/6 5/3/6 6/2/6 7/1/6
o entity0_brush1
v 144.000000 -16.000015 -192.000000
v -48.000000 -16.000006 -80.000000
v -48.000000 15.999994 -80.000000
v 144.000000 15.999986 -192.000000
v 80.000000 15.999994 -80.000000
v 80.000000 -16.000006 -80.000000
v 272.000000 -16.000015 -192.000000
v 272.000000 15.999986 -192.000000
vn -0.5039 -0.0000 -0.8638
vn -0.0000 -0.0000 1.0000
vn -0.0000 -1.0000 -0.0000
vn -0.0000 1.0000 -0.0000
vn -0.0000 -0.0000 -1.0000
vn 0.5039 -0.0000 0.8638
vt 4.500000 -0.500000
vt -1.500000 -0.500000
vt -1.500000 0.500000
vt 4.500000 0.500000
vt 2.500000 0.500000
vt 2.500000 -0.500000
vt 2.500000 2.000000
vt -1.500000 2.000000
vt 4.500000 5.500000
vt 8.500000 5.500000
vt 8.500000 -0.500000
vt 8.500000 0.500000
vt 9.000000 0.500000
vt 3.000000 0.500000
vt 3.000000 -0.500000
vt 9.000000 -0.500000
s 1
usemtl __TB_empty
f 9/11/7 10/12/7 11/13/7 12/14/7
f 13/15/8 11/13/8 10/12/8 14/16/8
f 14/17/9 10/18/9 9/19/9 15/20/9
f 16/20/10 12/19/10 11/18/10 13/17/10
f 15/21/11 9/11/11 12/14/11 16/22/11
f 16/23/12 13/24/12 14/25/12 15/26/12
o entity0_brush2
v -128.000000 -16.000006 -64.000000
v -128.000000 -15.999995 64.000000
v -128.000000 176.000000 63.999989
v -128.000000 176.000000 -64.000015
v -112.000000 176.000000 63.999989
v -112.000000 -15.999995 64.000000
v -112.000000 -16.000006 -64.000000
v -112.000000 176.000000 -64.000015
vn -1.0000 -0.0000 -0.0000
vn -0.0000 -0.0000 1.0000
vn -0.0000 -1.0000 -0.0000
vn -0.0000 1.0000 -0.0000
vn -0.0000 -0.0000 -1.0000
vn 1.0000 -0.0000 -0.0000
vt 2.000000 -0.500000
vt -2.000000 -0.500000
vt -2.000000 5.500000
vt 2.000000 5.500000
vt -3.500000 5.500000
vt -4.000000 5.500000
vt -4.000000 -0.500000
vt -3.500000 -0.500000
vt -3.500000 -2.000000
vt -4.000000 -2.000000
vt -4.000000 2.000000
vt -3.500000 2.000000
vt -3.000000 2.000000
vt -3.000000 -2.000000
s 1
usemtl __TB_empty
f 17/27/13 18/28/13 19/29/13 20/30/13
f 21/31/14 19/32/14 18/33/14 22/34/14
f 22/35/15 18/36/15 17/37/15 23/38/15
f 24/39/16 20/38/16 19/35/16 21/40/16
f 23/34/17 17/33/17 20/32/17 24/31/17
f 24/30/18 21/29/18 22/28/18 23/27/18
o entity0_brush3
v 80.000000 -16.000002 -15.999999
v 80.000000 -16.000000 0.000001
v 80.000000 16.000000 -0.000001
v 80.000000 15.999999 -16.000002
v 176.000000 16.000000 -0.000001
v 176.000000 -16.000000 0.000001
v 176.000000 -16.000002 -15.999999
v 176.000000 15.999999 -16.000002
vn -1.0000 -0.0000 -0.0000
vn -0.0000 -0.0000 1.0000
vn -0.0000 -1.0000 -0.0000
vn -0.0000 1.0000 -0.0000
vn -0.0000 -0.0000 -1.0000
vn 1.0000 -0.0000 -0.0000
vt 0.500000 -0.500000
vt 0.000000 -0.500000
vt 0.000000 0.500000
vt 0.500000 0.500000
vt 5.500000 0.500000
vt 2.500000 0.500000
vt 2.500000 -0.500000
vt 5.500000 -0.500000
vt 5.500000 -0.000000
vt 2.500000 -0.000000
s 1
usemtl __TB_empty
f 25/41/19 26/42/19 27/43/19 28/44/19
f 29/45/20 27/46/20 26/47/20 30/48/20
f 30/49/21 26/50/21 25/46/21 31/45/21
f 32/45/22 28/46/22 27/50/22 29/49/22
f 31/48/23 25/47/23 28/46/23 32/45/23
f 32/44/24 29/43/24 30/42/24 31/41/24
o entity0_brush4
v 160.000000 -16.000000 0.000001
v 160.000000 -15.999997 32.000000
v 160.000000 16.000002 31.999998
v 160.000000 16.000000 -0.000001
v 176.000000 16.000002 31.999998
v 176.000000 -15.999997 32.000000
v 176.000000 -16.000000 0.000001
v 176.000000 16.000000 -0.000001
vn -1.0000 -0.0000 -0.0000
vn -0.0000 -0.0000 1.0000
vn -0.0000 -1.0000 -0.0000
vn -0.0000 1.0000 -0.0000
vn -0.0000 -0.0000 -1.0000
vn 1.0000 -0.0000 -0.0000
vt 0.000000 -0.500000
vt -1.000000 -0.500000
vt -1.000000 0.500000
vt 0.000000 0.500000
vt 5.500000 0.500000
vt 5.000000 0.500000
vt 5.000000 -0.500000
vt 5.500000 -0.500000
vt 5.500000 -1.000000
vt 5.000000 -1.000000
vt 5.000000 -0.000000
vt 5.500000 -0.000000
s 1
usemtl __TB_empty
f 33/51/25 34/52/25 35/53/25 36/54/25
f 37/55/26 35/56/26 34/57/26 38/58/26
f 38/59/27 34/60/27 33/61/27 39/62/27
f 40/62/28 36/61/28 35/60/28 37/59/28
f 39/58/29 33/57/29 36/56/29 40/55/29
f 40/54/30 37/53/30 38/52/30 39/51/30
o entity0_brush5
v -16.000000 31.999998 -32.000004
v -16.000000 32.000000 15.999997
v -16.000000 176.000000 15.999987
v -16.000000 176.000000 -32.000011
v 0.000000 176.000000 15.999987
v 0.000000 32.000000 15.999997
v 0.000000 31.999998 -32.000004
v 0.000000 176.000000 -32.000011
vn -1.0000 -0.0000 -0.0000
vn -0.0000 -0.0000 1.0000
vn -0.0000 -1.0000 -0.0000
vn -0.0000 1.0000 -0.0000
vn -0.0000 -0.0000 -1.0000
vn 1.0000 -0.0000 -0.0000
vt 1.000000 1.000000
vt -0.500000 1.000000
vt -0.500000 5.500000
vt 1.000000 5.500000
vt 0.000000 5.500000
vt 0.000000 1.000000
vt -0.500000 -0.000000
vt -1.000000 -0.000000
vt -1.000000 1.500000
vt -0.500000 1.500000
vt -0.500000 -0.500000
vt 0.000000 -0.500000
s 1
usemtl __TB_empty
f 41/63/31 42/64/31 43/65/31 44/66/31
f 45/67/32 43/65/32 42/64/32 46/68/32
f 46/69/33 42/70/33 41/71/33 47/72/33
f 48/68/34 44/64/34 43/73/34 45/74/34
f 47/68/35 41/64/35 44/65/35 48/67/35
f 48/66/36 45/65/36 46/64/36 47/63/36
o entrance_portal1
v -64.000000 48.000011 144.000000
v -64.000000 128.000015 143.999985
v -16.000000 128.000015 143.999985
v -16.000000 48.000011 144.000000
vn -0.0000 -0.0000 -1.0000
vt -0.500000 1.500000
vt -2.000000 1.500000
vt -2.000000 4.000000
vt -0.500000 4.000000
s 1
usemtl __TB_empty
f 52/75/37 49/76/37 50/77/37 51/78/37
o exit_portal1
v 80.000000 48.000004 63.999996
v 80.000000 48.000008 112.000000
v 80.000000 128.000015 111.999992
v 80.000000 128.000000 63.999989
vn -1.0000 -0.0000 -0.0000
vt -2.000000 1.500000
vt -3.500000 1.500000
vt -3.500000 4.000000
vt -2.000000 4.000000
s 1
usemtl __TB_empty
f 53/79/38 54/80/38 55/81/38 56/82/38