# Blender 5.1.1
# www.blender.org
mtllib twoplane_portal.mtl
o entity0_brush0
v -3.251060 1.260644 -3.891098
v -3.251060 1.260644 5.265305
v -3.251060 2.405195 5.265305
v -3.251060 2.405194 -3.891098
v 5.905343 2.405195 5.265305
v 5.905343 1.260644 5.265305
v 5.905343 1.260644 -3.891098
v 5.905343 2.405194 -3.891098
vn 1.0000 -0.0000 -0.0000
vn -0.0000 -0.0000 -1.0000
vn -0.0000 1.0000 -0.0000
vn -0.0000 -1.0000 -0.0000
vn -0.0000 -0.0000 1.0000
vn -1.0000 -0.0000 -0.0000
vt 4.000000 -0.000000
vt 4.000000 1.000000
vt -4.000000 1.000000
vt -4.000000 -0.000000
vt 4.000000 -4.000000
vt 4.000000 4.000000
vt -4.000000 4.000000
vt -4.000000 -4.000000
s 1
usemtl test_texture
f 1/1/1 4/2/1 3/3/1 2/4/1
f 5/2/2 6/1/2 2/4/2 3/3/2
f 6/5/3 7/6/3 1/7/3 2/8/3
f 8/6/4 5/5/4 3/8/4 4/7/4
f 7/1/5 8/2/5 4/3/5 1/4/5
f 8/2/6 7/1/6 6/4/6 5/3/6
o portal_entrance
v -5.540161 9.272496 0.687103
v -5.540161 1.260644 0.687104
v -5.540161 1.260644 -3.891098
v -5.540161 9.272496 -3.891098
vn -1.0000 -0.0000 -0.0000
vt 4.000000 7.000000
vt 4.000000 -0.000000
vt 0.000000 -0.000000
vt 0.000000 7.000000
s 1
usemtl blue_test_texture
f 12/9/7 11/10/7 10/11/7 9/12/7
o portal_exit
v 8.194444 1.260644 -3.891098
v 8.194444 1.260644 0.687104
v 8.194444 9.272496 0.687103
v 8.194444 9.272496 -3.891098
vn 1.0000 -0.0000 -0.0000
vt 4.000000 -0.000000
vt 4.000000 7.000000
vt 0.000000 7.000000
vt 0.000000 -0.000000
s 1
usemtl purple_test_texture
f 13/13/8 16/14/8 15/15/8 14/16/8
o entity0_brush3
v -5.540161 -1.028457 -0.457447
v -5.540161 -1.028457 0.687104
v -5.540161 0.116094 0.687104
v -5.540161 0.116094 -0.457447
v 8.194444 0.116094 0.687104
v 8.194444 -1.028457 0.687104
v 8.194444 -1.028457 -0.457447
v 8.194444 0.116094 -0.457447
vn 1.0000 -0.0000 -0.0000
vn -0.0000 -0.0000 -1.0000
vn -0.0000 1.0000 -0.0000
vn -0.0000 -1.0000 -0.0000
vn -0.0000 -0.0000 1.0000
vn -1.0000 -0.0000 -0.0000
vt 1.000000 -2.000000
vt 1.000000 -1.000000
vt 0.000000 -1.000000
vt 0.000000 -2.000000
vt 6.000000 -1.000000
vt 6.000000 -2.000000
vt -6.000000 -2.000000
vt -6.000000 -1.000000
vt 6.000000 -0.000000
vt 6.000000 1.000000
vt -6.000000 1.000000
vt -6.000000 -0.000000
s 1
usemtl test_texture
f 17/17/9 20/18/9 19/19/9 18/20/9
f 21/21/10 22/22/10 18/23/10 19/24/10
f 22/25/11 23/26/11 17/27/11 18/28/11
f 24/26/12 21/25/12 19/28/12 20/27/12
f 23/22/13 24/21/13 20/24/13 17/23/13
f 24/18/14 23/17/14 22/20/14 21/19/14
o entity0_brush4
v 13.917194 0.116093 -3.891098
v 13.917194 0.116094 5.265305
v 13.917194 10.417047 5.265305
v 13.917194 10.417047 -3.891098
v 15.061747 10.417047 5.265305
v 15.061747 0.116094 5.265305
v 15.061747 0.116093 -3.891098
v 15.061747 10.417047 -3.891098
vn 1.0000 -0.0000 -0.0000
vn -0.0000 -0.0000 -1.0000
vn -0.0000 1.0000 -0.0000
vn -0.0000 -1.0000 -0.0000
vn -0.0000 -0.0000 1.0000
vn -1.0000 -0.0000 -0.0000
vt 4.000000 -1.000000
vt 4.000000 8.000000
vt -4.000000 8.000000
vt -4.000000 -1.000000
vt 12.000000 8.000000
vt 12.000000 -1.000000
vt 11.000000 -1.000000
vt 11.000000 8.000000
vt 12.000000 -4.000000
vt 12.000000 4.000000
vt 11.000000 4.000000
vt 11.000000 -4.000000
s 1
usemtl purple_test_texture
f 25/29/15 28/30/15 27/31/15 26/32/15
f 29/33/16 30/34/16 26/35/16 27/36/16
f 30/37/17 31/38/17 25/39/17 26/40/17
f 32/38/18 29/37/18 27/40/18 28/39/18
f 31/34/19 32/33/19 28/36/19 25/35/19
f 32/30/20 31/29/20 30/32/20 29/31/20
o entity0_brush5
v -12.407463 0.116093 -3.891098
v -12.407463 0.116094 5.265305
v -12.407463 10.417047 5.265305
v -12.407463 10.417047 -3.891098
v -11.262911 10.417047 5.265305
v -11.262911 0.116094 5.265305
v -11.262911 0.116093 -3.891098
v -11.262911 10.417047 -3.891098
vn 1.0000 -0.0000 -0.0000
vn -0.0000 -0.0000 -1.0000
vn -0.0000 1.0000 -0.0000
vn -0.0000 -1.0000 -0.0000
vn -0.0000 -0.0000 1.0000
vn -1.0000 -0.0000 -0.0000
vt 4.000000 -1.000000
vt 4.000000 8.000000
vt -4.000000 8.000000
vt -4.000000 -1.000000
vt -11.000000 8.000000
vt -11.000000 -1.000000
vt -12.000000 -1.000000
vt -12.000000 8.000000
vt -11.000000 -4.000000
vt -11.000000 4.000000
vt -12.000000 4.000000
vt -12.000000 -4.000000
s 1
usemtl blue_test_texture
f 33/41/21 36/42/21 35/43/21 34/44/21
f 37/45/22 38/46/22 34/47/22 35/48/22
f 38/49/23 39/50/23 33/51/23 34/52/23
f 40/50/24 37/49/24 35/52/24 36/51/24
f 39/46/25 40/45/25 36/48/25 33/47/25
f 40/42/26 39/41/26 38/44/26 37/43/26
