# Blender 5.1.1
# www.blender.org
mtllib Untitled.mtl
o entity0_brush0
v 224.000000 -512.000244 -3072.000000
v 224.000000 -512.000061 -1023.999939
v 224.000000 511.999908 -1024.000000
v 224.000000 511.999756 -3072.000000
v 256.000000 511.999908 -1024.000000
v 256.000000 -512.000061 -1023.999939
v 256.000000 -512.000244 -3072.000000
v 256.000000 511.999756 -3072.000000
vn -1.0000 -0.0000 -0.0000
vn -0.0000 -0.0000 1.0000
vn -0.0000 -1.0000 -0.0000
vn -0.0000 1.0000 -0.0000
vn -0.0000 -0.0000 -1.0000
vn 1.0000 -0.0000 -0.0000
vt 6.000000 -0.000000
vt 2.000000 -0.000000
vt 2.000000 0.625000
vt 6.000000 0.625000
vt 0.531250 0.625000
vt 0.500000 0.625000
vt 0.500000 -0.000000
vt 0.531250 -0.000000
vt 0.531250 2.000000
vt 0.500000 2.000000
vt 0.500000 6.000000
vt 0.531250 6.000000
s 1
usemtl Tiles107_1K-JPG_Color_Gray
f 1/1/1 2/2/1 3/3/1 4/4/1
f 5/5/2 3/6/2 2/7/2 6/8/2
f 6/9/3 2/10/3 1/11/3 7/12/3
f 8/12/4 4/11/4 3/10/4 5/9/4
f 7/8/5 1/7/5 4/6/5 8/5/5
f 8/4/6 5/3/6 6/2/6 7/1/6
o entity0_brush1
v -256.000000 -512.000244 -3392.000000
v -256.000000 -512.000061 -1023.999939
v -256.000000 511.999908 -1024.000000
v -256.000000 511.999756 -3392.000000
v -224.000000 511.999908 -1024.000000
v -224.000000 -512.000061 -1023.999939
v -224.000000 -512.000244 -3392.000000
v -224.000000 511.999756 -3392.000000
vn -1.0000 -0.0000 -0.0000
vn -0.0000 -0.0000 1.0000
vn -0.0000 -1.0000 -0.0000
vn -0.0000 1.0000 -0.0000
vn -0.0000 -0.0000 -1.0000
vn 1.0000 -0.0000 -0.0000
vt 6.000000 -0.000000
vt 2.000000 -0.000000
vt 2.000000 0.625000
vt 6.000000 0.625000
vt 0.531250 0.625000
vt 0.500000 0.625000
vt 0.500000 -0.000000
vt 0.531250 -0.000000
vt 0.531250 2.000000
vt 0.500000 2.000000
vt 0.500000 6.000000
vt 0.531250 6.000000
s 1
usemtl Tiles107_1K-JPG_Color_Gray
f 9/13/7 10/14/7 11/15/7 12/16/7
f 13/17/8 11/18/8 10/19/8 14/20/8
f 14/21/9 10/22/9 9/23/9 15/24/9
f 16/24/10 12/23/10 11/22/10 13/21/10
f 15/20/11 9/19/11 12/18/11 16/17/11
f 16/16/12 13/15/12 14/14/12 15/13/12
o entity0_brush10
v 224.000000 -800.000244 -3424.000000
v 224.000000 -800.000000 -351.999939
v 224.000000 -544.000000 -351.999969
v 224.000000 -544.000244 -3424.000000
v 256.000000 -544.000000 -351.999969
v 256.000000 -800.000000 -351.999939
v 256.000000 -800.000244 -3424.000000
v 256.000000 -544.000244 -3424.000000
vn -1.0000 -0.0000 -0.0000
vn -0.0000 -0.0000 1.0000
vn -0.0000 -1.0000 -0.0000
vn -0.0000 1.0000 -0.0000
vn -0.0000 -0.0000 -1.0000
vn 1.0000 -0.0000 -0.0000
vt 5.000000 -2.000000
vt 1.000000 -2.000000
vt 1.000000 -1.375000
vt 5.000000 -1.375000
vt 0.531250 -1.375000
vt 0.500000 -1.375000
vt 0.500000 -2.000000
vt 0.531250 -2.000000
vt 0.531250 1.000000
vt 0.500000 1.000000
vt 0.500000 5.000000
vt 0.531250 5.000000
s 1
usemtl Tiles107_1K-JPG_Color_Gray
f 17/25/13 18/26/13 19/27/13 20/28/13
f 21/29/14 19/30/14 18/31/14 22/32/14
f 22/33/15 18/34/15 17/35/15 23/36/15
f 24/36/16 20/35/16 19/34/16 21/33/16
f 23/32/17 17/31/17 20/30/17 24/29/17
f 24/28/18 21/27/18 22/26/18 23/25/18
o entity0_brush11
v 1248.000000 -800.000244 -3424.000000
v 1248.000000 -800.000000 -351.999939
v 1248.000000 511.999969 -352.000031
v 1248.000000 511.999756 -3424.000000
v 1280.000000 511.999969 -352.000031
v 1280.000000 -800.000000 -351.999939
v 1280.000000 -800.000244 -3424.000000
v 1280.000000 511.999756 -3424.000000
vn -1.0000 -0.0000 -0.0000
vn -0.0000 -0.0000 1.0000
vn -0.0000 -1.0000 -0.0000
vn -0.0000 1.0000 -0.0000
vn -0.0000 -0.0000 -1.0000
vn 1.0000 -0.0000 -0.0000
vt 5.000000 -1.000000
vt 1.000000 -1.000000
vt 1.000000 -0.375000
vt 5.000000 -0.375000
vt 0.531250 -0.375000
vt 0.500000 -0.375000
vt 0.500000 -1.000000
vt 0.531250 -1.000000
vt 0.531250 1.000000
vt 0.500000 1.000000
vt 0.500000 5.000000
vt 0.531250 5.000000
s 1
usemtl Tiles107_1K-JPG_Color_Gray
f 25/37/19 26/38/19 27/39/19 28/40/19
f 29/41/20 27/42/20 26/43/20 30/44/20
f 30/45/21 26/46/21 25/47/21 31/48/21
f 32/48/22 28/47/22 27/46/22 29/45/22
f 31/44/23 25/43/23 28/42/23 32/41/23
f 32/40/24 29/39/24 30/38/24 31/37/24
o entity0_brush12
v -224.000000 -192.000214 -2816.000000
v -224.000000 -320.000214 -2816.000000
v -224.000000 -320.000092 -1024.000000
v -224.000000 -192.000076 -1024.000000
v -160.000000 -320.000092 -1024.000000
v -160.000000 -320.000214 -2816.000000
vn -1.0000 -0.0000 -0.0000
vn -0.0000 -0.0000 1.0000
vn -0.0000 -1.0000 -0.0000
vn -0.0000 -0.0000 -1.0000
vn 0.8944 0.4472 -0.0000
vt 2.750000 -0.156250
vt 2.750000 -0.281250
vt 1.000000 -0.281250
vt 1.000000 -0.156250
vt -0.343750 -0.156250
vt -0.343750 -0.281250
vt -0.281250 -0.281250
vt -0.281250 1.000000
vt -0.343750 1.000000
vt -0.343750 2.750000
vt -0.281250 2.750000
vt 2.093750 0.250000
vt 0.343750 0.250000
vt 0.343750 0.125000
vt 2.093750 0.125000
s 1
usemtl Tiles108_1K-JPG_Color
f 33/49/25 34/50/25 35/51/25 36/52/25
f 36/53/26 35/54/26 37/55/26
f 37/56/27 35/57/27 34/58/27 38/59/27
f 38/55/28 34/54/28 33/53/28
f 33/60/29 36/61/29 37/62/29 38/63/29
o entity0_brush13
v 960.000000 -800.000244 -3424.000000
v 960.000000 -800.000244 -3392.000000
v 960.000000 543.999756 -3392.000000
v 960.000000 543.999756 -3424.000000
v 1280.000000 543.999756 -3392.000000
v 1280.000000 -800.000244 -3392.000000
v 1280.000000 -800.000244 -3424.000000
v 1280.000000 543.999756 -3424.000000
vn -1.0000 -0.0000 -0.0000
vn -0.0000 -0.0000 1.0000
vn -0.0000 -1.0000 -0.0000
vn -0.0000 1.0000 -0.0000
vn -0.0000 -0.0000 -1.0000
vn 1.0000 -0.0000 -0.0000
vt 3.343750 -0.781250
vt 3.312500 -0.781250
vt 3.312500 0.531250
vt 3.343750 0.531250
vt 1.250000 0.531250
vt 0.937500 0.531250
vt 0.937500 -0.781250
vt 1.250000 -0.781250
vt 0.250000 2.968750
vt 0.093750 2.968750
vt 0.093750 3.000000
vt 0.250000 3.000000
vt 3.000000 0.054687
vt 2.968750 0.054687
vt 2.968750 0.000000
vt 3.000000 0.000000
s 1
usemtl Tiles107_1K-JPG_Color_Gray
f 39/64/30 40/65/30 41/66/30 42/67/30
f 43/68/31 41/69/31 40/70/31 44/71/31
f 44/72/32 40/73/32 39/74/32 45/75/32
f 46/75/33 42/74/33 41/73/33 43/72/33
f 45/71/34 39/70/34 42/69/34 46/68/34
f 46/76/35 43/77/35 44/78/35 45/79/35
o entity0_brush14
v 256.000000 -800.000244 -3424.000000
v 256.000000 -800.000244 -3392.000000
v 256.000000 543.999756 -3392.000000
v 256.000000 543.999756 -3424.000000
v 576.000000 543.999756 -3392.000000
v 576.000000 -800.000244 -3392.000000
v 576.000000 -800.000244 -3424.000000
v 576.000000 543.999756 -3424.000000
vn -1.0000 -0.0000 -0.0000
vn -0.0000 -0.0000 1.0000
vn -0.0000 -1.0000 -0.0000
vn -0.0000 1.0000 -0.0000
vn -0.0000 -0.0000 -1.0000
vn 1.0000 -0.0000 -0.0000
vt 3.000000 0.000000
vt 2.968750 0.000000
vt 2.968750 0.054687
vt 3.000000 0.054687
vt 0.562500 0.531250
vt 0.250000 0.531250
vt 0.250000 -0.781250
vt 0.562500 -0.781250
vt -0.093750 2.968750
vt -0.250000 2.968750
vt -0.250000 3.000000
vt -0.093750 3.000000
vt 3.343750 0.531250
vt 3.312500 0.531250
vt 3.312500 -0.781250
vt 3.343750 -0.781250
s 1
usemtl Tiles107_1K-JPG_Color_Gray
f 47/80/36 48/81/36 49/82/36 50/83/36
f 51/84/37 49/85/37 48/86/37 52/87/37
f 52/88/38 48/89/38 47/90/38 53/91/38
f 54/91/39 50/90/39 49/89/39 51/88/39
f 53/87/40 47/86/40 50/85/40 54/84/40
f 54/92/41 51/93/41 52/94/41 53/95/41
o entity0_brush15
v 576.000000 -256.000244 -3424.000000
v 576.000000 -256.000244 -3392.000000
v 576.000000 543.999756 -3392.000000
v 576.000000 543.999756 -3424.000000
v 960.000000 543.999756 -3392.000000
v 960.000000 -256.000244 -3392.000000
v 960.000000 -256.000244 -3424.000000
v 960.000000 543.999756 -3424.000000
vn -1.0000 -0.0000 -0.0000
vn -0.0000 -0.0000 1.0000
vn -0.0000 -1.0000 -0.0000
vn -0.0000 1.0000 -0.0000
vn -0.0000 -0.0000 -1.0000
vn 1.0000 -0.0000 -0.0000
vt 3.343750 -0.250000
vt 3.312500 -0.250000
vt 3.312500 0.531250
vt 3.343750 0.531250
vt 0.937500 0.531250
vt 0.562500 0.531250
vt 0.562500 -0.250000
vt 0.937500 -0.250000
vt 0.937500 3.312500
vt 0.562500 3.312500
vt 0.562500 3.343750
vt 0.937500 3.343750
vt 0.093750 3.000000
vt -0.093750 3.000000
vt -0.093750 2.968750
vt 0.093750 2.968750
s 1
usemtl Tiles107_1K-JPG_Color_Gray
f 55/96/42 56/97/42 57/98/42 58/99/42
f 59/100/43 57/101/43 56/102/43 60/103/43
f 60/104/44 56/105/44 55/106/44 61/107/44
f 62/108/45 58/109/45 57/110/45 59/111/45
f 61/103/46 55/102/46 58/101/46 62/100/46
f 62/99/47 59/98/47 60/97/47 61/96/47
o entity0_brush16
v 576.000000 -800.000244 -3424.000000
v 576.000000 -800.000244 -3392.000000
v 576.000000 -640.000244 -3392.000000
v 576.000000 -640.000244 -3424.000000
v 960.000000 -640.000244 -3392.000000
v 960.000000 -800.000244 -3392.000000
v 960.000000 -800.000244 -3424.000000
v 960.000000 -640.000244 -3424.000000
vn -1.0000 -0.0000 -0.0000
vn -0.0000 -0.0000 1.0000
vn -0.0000 -1.0000 -0.0000
vn -0.0000 1.0000 -0.0000
vn -0.0000 -0.0000 -1.0000
vn 1.0000 -0.0000 -0.0000
vt 3.343750 -0.781250
vt 3.312500 -0.781250
vt 3.312500 -0.625000
vt 3.343750 -0.625000
vt 0.937500 -0.625000
vt 0.562500 -0.625000
vt 0.562500 -0.781250
vt 0.937500 -0.781250
vt 0.093750 2.968750
vt -0.093750 2.968750
vt -0.093750 3.000000
vt 0.093750 3.000000
vt 0.937500 3.343750
vt 0.562500 3.343750
vt 0.562500 3.312500
vt 0.937500 3.312500
s 1
usemtl Tiles107_1K-JPG_Color_Gray
f 63/112/48 64/113/48 65/114/48 66/115/48
f 67/116/49 65/117/49 64/118/49 68/119/49
f 68/120/50 64/121/50 63/122/50 69/123/50
f 70/124/51 66/125/51 65/126/51 67/127/51
f 69/119/52 63/118/52 66/117/52 70/116/52
f 70/115/53 67/114/53 68/113/53 69/112/53
o entity0_brush17
v 256.000000 -800.000305 -4032.000000
v 256.000000 -800.000305 -4000.000000
v 256.000000 543.999695 -4000.000000
v 256.000000 543.999695 -4032.000000
v 1280.000000 543.999695 -4000.000000
v 1280.000000 -800.000305 -4000.000000
v 1280.000000 -800.000305 -4032.000000
v 1280.000000 543.999695 -4032.000000
vn -1.0000 -0.0000 -0.0000
vn -0.0000 -0.0000 1.0000
vn -0.0000 -1.0000 -0.0000
vn -0.0000 1.0000 -0.0000
vn -0.0000 -0.0000 -1.0000
vn 1.0000 -0.0000 -0.0000
vt 3.593750 -0.014915
vt 3.562500 -0.014915
vt 3.562500 0.054688
vt 3.593750 0.054688
vt 1.250000 0.054688
vt 0.250000 0.054688
vt 0.250000 -0.014915
vt 1.250000 -0.014915
vt 1.250000 3.562500
vt 0.250000 3.562500
vt 0.250000 3.593750
vt 1.250000 3.593750
s 1
usemtl Tiles107_1K-JPG_Color_Gray
f 71/128/54 72/129/54 73/130/54 74/131/54
f 75/132/55 73/133/55 72/134/55 76/135/55
f 76/136/56 72/137/56 71/138/56 77/139/56
f 78/139/57 74/138/57 73/137/57 75/136/57
f 77/135/58 71/134/58 74/133/58 78/132/58
f 78/131/59 75/130/59 76/129/59 77/128/59
o entity0_brush2
v 224.000000 -0.000077 -1024.000000
v 224.000000 0.000077 1024.000000
v 224.000000 512.000061 1023.999939
v 224.000000 511.999908 -1024.000000
v 256.000000 512.000061 1023.999939
v 256.000000 0.000077 1024.000000
v 256.000000 -0.000077 -1024.000000
v 256.000000 511.999908 -1024.000000
vn -1.0000 -0.0000 -0.0000
vn -0.0000 -0.0000 1.0000
vn -0.0000 -1.0000 -0.0000
vn -0.0000 1.0000 -0.0000
vn -0.0000 -0.0000 -1.0000
vn 1.0000 -0.0000 -0.0000
vt 2.000000 -0.000000
vt -2.000000 -0.000000
vt -2.000000 0.625000
vt 2.000000 0.625000
vt 0.531250 0.625000
vt 0.500000 0.625000
vt 0.500000 -0.000000
vt 0.531250 -0.000000
vt 0.531250 -2.000000
vt 0.500000 -2.000000
vt 0.500000 2.000000
vt 0.531250 2.000000
s 1
usemtl Tiles107_1K-JPG_Color_Gray
f 79/140/60 80/141/60 81/142/60 82/143/60
f 83/144/61 81/145/61 80/146/61 84/147/61
f 84/148/62 80/149/62 79/150/62 85/151/62
f 86/151/63 82/150/63 81/149/63 83/148/63
f 85/147/64 79/146/64 82/145/64 86/144/64
f 86/143/65 83/142/65 84/141/65 85/140/65
o entity0_brush3
v -256.000000 -0.000077 -1024.000000
v -256.000000 0.000077 1024.000000
v -256.000000 512.000061 1023.999939
v -256.000000 511.999908 -1024.000000
v -224.000000 512.000061 1023.999939
v -224.000000 0.000077 1024.000000
v -224.000000 -0.000077 -1024.000000
v -224.000000 511.999908 -1024.000000
vn -1.0000 -0.0000 -0.0000
vn -0.0000 -0.0000 1.0000
vn -0.0000 -1.0000 -0.0000
vn -0.0000 1.0000 -0.0000
vn -0.0000 -0.0000 -1.0000
vn 1.0000 -0.0000 -0.0000
vt 2.000000 -0.000000
vt -2.000000 -0.000000
vt -2.000000 0.625000
vt 2.000000 0.625000
vt 0.531250 0.625000
vt 0.500000 0.625000
vt 0.500000 -0.000000
vt 0.531250 -0.000000
vt 0.531250 -2.000000
vt 0.500000 -2.000000
vt 0.500000 2.000000
vt 0.531250 2.000000
s 1
usemtl Tiles107_1K-JPG_Color_Gray
f 87/152/66 88/153/66 89/154/66 90/155/66
f 91/156/67 89/157/67 88/158/67 92/159/67
f 92/160/68 88/161/68 87/162/68 93/163/68
f 94/163/69 90/162/69 89/161/69 91/160/69
f 93/159/70 87/158/70 90/157/70 94/156/70
f 94/155/71 91/154/71 92/153/71 93/152/71
o entity0_brush4
v -256.000000 -31.999922 1024.000000
v -256.000000 -31.999920 1056.000000
v -256.000000 544.000061 1056.000000
v -256.000000 544.000061 1023.999939
v 256.000000 544.000061 1056.000000
v 256.000000 -31.999920 1056.000000
v 256.000000 -31.999922 1024.000000
v 256.000000 544.000061 1023.999939
vn -1.0000 -0.0000 -0.0000
vn -0.0000 -0.0000 1.0000
vn -0.0000 -1.0000 -0.0000
vn -0.0000 1.0000 -0.0000
vn -0.0000 -0.0000 -1.0000
vn 1.0000 -0.0000 -0.0000
vt -1.000000 0.000000
vt -1.031250 0.000000
vt -1.031250 0.054688
vt -1.000000 0.054688
vt 0.250000 0.054688
vt -0.250000 0.054688
vt -0.250000 0.000000
vt 0.250000 0.000000
vt 0.250000 -1.031250
vt -0.250000 -1.031250
vt -0.250000 -1.000000
vt 0.250000 -1.000000
s 1
usemtl Tiles107_1K-JPG_Color_Gray
f 95/164/72 96/165/72 97/166/72 98/167/72
f 99/168/73 97/169/73 96/170/73 100/171/73
f 100/172/74 96/173/74 95/174/74 101/175/74
f 102/175/75 98/174/75 97/173/75 99/172/75
f 101/171/76 95/170/76 98/169/76 102/168/76
f 102/167/77 99/166/77 100/165/77 101/164/77
o entity0_brush5
v -256.000000 511.999756 -3392.000000
v -256.000000 512.000061 1023.999939
v -256.000000 544.000061 1023.999939
v -256.000000 543.999756 -3392.000000
v 256.000000 544.000061 1023.999939
v 256.000000 512.000061 1023.999939
v 256.000000 511.999756 -3392.000000
v 256.000000 543.999756 -3392.000000
vn -1.0000 -0.0000 -0.0000
vn -0.0000 -0.0000 1.0000
vn -0.0000 -1.0000 -0.0000
vn -0.0000 1.0000 -0.0000
vn -0.0000 -0.0000 -1.0000
vn 1.0000 -0.0000 -0.0000
vt 0.062500 -0.015625
vt -0.062500 -0.015625
vt -0.062500 0.015625
vt 0.062500 0.015625
vt 0.062500 -0.062500
vt -0.062500 -0.062500
vt -0.062500 0.062500
vt 0.062500 0.062500
s 1
usemtl Tiles107_1K-JPG_Color_Gray
f 103/176/78 104/177/78 105/178/78 106/179/78
f 107/179/79 105/178/79 104/177/79 108/176/79
f 108/180/80 104/181/80 103/182/80 109/183/80
f 110/183/81 106/182/81 105/181/81 107/180/81
f 109/176/82 103/177/82 106/178/82 110/179/82
f 110/179/83 107/178/83 108/177/83 109/176/83
o entity0_brush6
v 224.000000 -544.000061 -1023.999939
v 224.000000 -544.000000 0.000041
v 224.000000 -32.000000 0.000002
v 224.000000 -32.000076 -1024.000000
v 256.000000 -32.000000 0.000002
v 256.000000 -544.000000 0.000041
v 256.000000 -544.000061 -1023.999939
v 256.000000 -32.000076 -1024.000000
vn -1.0000 -0.0000 -0.0000
vn -0.0000 -0.0000 1.0000
vn -0.0000 -1.0000 -0.0000
vn -0.0000 1.0000 -0.0000
vn -0.0000 -0.0000 -1.0000
vn 1.0000 -0.0000 -0.0000
vt 4.000000 -0.000000
vt 0.000000 -0.000000
vt 0.000000 0.625000
vt 4.000000 0.625000
vt 0.531250 0.625000
vt 0.500000 0.625000
vt 0.500000 -0.000000
vt 0.531250 -0.000000
vt 0.500000 4.000000
vt 0.531250 4.000000
s 1
usemtl Tiles107_1K-JPG_Color_Gray
f 111/184/84 112/185/84 113/186/84 114/187/84
f 115/188/85 113/189/85 112/190/85 116/191/85
f 116/191/86 112/190/86 111/192/86 117/193/86
f 118/193/87 114/192/87 113/190/87 115/191/87
f 117/191/88 111/190/88 114/189/88 118/188/88
f 118/187/89 115/186/89 116/185/89 117/184/89
o entity0_brush7
v -256.000000 -544.000061 -1023.999939
v -256.000000 -544.000000 0.000041
v -256.000000 -32.000000 0.000002
v -256.000000 -32.000076 -1024.000000
v -224.000000 -32.000000 0.000002
v -224.000000 -544.000000 0.000041
v -224.000000 -544.000061 -1023.999939
v -224.000000 -32.000076 -1024.000000
vn -1.0000 -0.0000 -0.0000
vn -0.0000 -0.0000 1.0000
vn -0.0000 -1.0000 -0.0000
vn -0.0000 1.0000 -0.0000
vn -0.0000 -0.0000 -1.0000
vn 1.0000 -0.0000 -0.0000
vt 4.000000 -0.000000
vt 0.000000 -0.000000
vt 0.000000 0.625000
vt 4.000000 0.625000
vt 0.531250 0.625000
vt 0.500000 0.625000
vt 0.500000 -0.000000
vt 0.531250 -0.000000
vt 0.500000 4.000000
vt 0.531250 4.000000
s 1
usemtl Tiles107_1K-JPG_Color_Gray
f 119/194/90 120/195/90 121/196/90 122/197/90
f 123/198/91 121/199/91 120/200/91 124/201/91
f 124/201/92 120/200/92 119/202/92 125/203/92
f 126/203/93 122/202/93 121/200/93 123/201/93
f 125/201/94 119/200/94 122/199/94 126/198/94
f 126/197/95 123/196/95 124/195/95 125/194/95
o entity0_brush8
v -256.000000 -544.000000 0.000041
v -256.000000 -544.000000 32.000042
v -256.000000 -31.999998 32.000004
v -256.000000 -32.000000 0.000002
v 256.000000 -31.999998 32.000004
v 256.000000 -544.000000 32.000042
v 256.000000 -544.000000 0.000041
v 256.000000 -32.000000 0.000002
vn -1.0000 -0.0000 -0.0000
vn -0.0000 -0.0000 1.0000
vn -0.0000 -1.0000 -0.0000
vn -0.0000 1.0000 -0.0000
vn -0.0000 -0.0000 -1.0000
vn 1.0000 -0.0000 -0.0000
vt 0.000000 -0.000000
vt -0.031250 -0.000000
vt -0.031250 0.054688
vt 0.000000 0.054688
vt 0.250000 0.054688
vt -0.250000 0.054688
vt -0.250000 -0.000000
vt 0.250000 -0.000000
vt 0.250000 -0.031250
vt -0.250000 -0.031250
vt -0.250000 -0.000000
vt 0.250000 -0.000000
s 1
usemtl Tiles107_1K-JPG_Color_Gray
f 127/204/96 128/205/96 129/206/96 130/207/96
f 131/208/97 129/209/97 128/210/97 132/211/97
f 132/212/98 128/213/98 127/214/98 133/215/98
f 134/215/99 130/214/99 129/213/99 131/212/99
f 133/211/100 127/210/100 130/209/100 134/208/100
f 134/207/101 131/206/101 132/205/101 133/204/101
o entity0_brush9
v -256.000000 -512.000244 -3424.000000
v -256.000000 -512.000244 -3392.000000
v -256.000000 543.999756 -3392.000000
v -256.000000 543.999756 -3424.000000
v 256.000000 543.999756 -3392.000000
v 256.000000 -512.000244 -3392.000000
v 256.000000 -512.000244 -3424.000000
v 256.000000 543.999756 -3424.000000
vn -1.0000 -0.0000 -0.0000
vn -0.0000 -0.0000 1.0000
vn -0.0000 -1.0000 -0.0000
vn -0.0000 1.0000 -0.0000
vn -0.0000 -0.0000 -1.0000
vn 1.0000 -0.0000 -0.0000
vt 3.000000 0.000000
vt 2.968750 0.000000
vt 2.968750 0.054688
vt 3.000000 0.054688
vt 0.250000 0.054688
vt -0.250000 0.054688
vt -0.250000 0.000000
vt 0.250000 0.000000
vt 0.250000 2.968750
vt -0.250000 2.968750
vt -0.250000 3.000000
vt 0.250000 3.000000
s 1
usemtl Tiles107_1K-JPG_Color_Gray
f 135/216/102 136/217/102 137/218/102 138/219/102
f 139/220/103 137/221/103 136/222/103 140/223/103
f 140/224/104 136/225/104 135/226/104 141/227/104
f 142/227/105 138/226/105 137/225/105 139/224/105
f 141/223/106 135/222/106 138/221/106 142/220/106
f 142/219/107 139/218/107 140/217/107 141/216/107
o entity2_brush0
v -256.000000 -32.000076 -1024.000000
v -256.000000 -31.999922 1024.000000
v -256.000000 0.000077 1024.000000
v -256.000000 -0.000077 -1024.000000
v 256.000000 0.000077 1024.000000
v 256.000000 -31.999922 1024.000000
v 256.000000 -32.000076 -1024.000000
v 256.000000 -0.000077 -1024.000000
vn -1.0000 -0.0000 -0.0000
vn -0.0000 -0.0000 1.0000
vn -0.0000 -1.0000 -0.0000
vn -0.0000 1.0000 -0.0000
vn -0.0000 -0.0000 -1.0000
vn 1.0000 -0.0000 -0.0000
vt 0.062500 -0.015625
vt -0.062500 -0.015625
vt -0.062500 0.015625
vt 0.062500 0.015625
vt 0.062500 -0.062500
vt -0.062500 -0.062500
vt -0.062500 0.062500
vt 0.062500 0.062500
s 1
usemtl Tiles107_1K-JPG_Color_Gray
f 143/228/108 144/229/108 145/230/108 146/231/108
f 147/231/109 145/230/109 144/229/109 148/228/109
f 148/232/110 144/233/110 143/234/110 149/235/110
f 150/235/111 146/234/111 145/233/111 147/232/111
f 149/228/112 143/229/112 146/230/112 150/231/112
f 150/231/113 147/230/113 148/229/113 149/228/113
o entity2_brush1
v -224.000000 0.000042 560.000000
v -224.000000 0.000043 576.000000
v -224.000000 48.000042 576.000000
v -224.000000 48.000042 560.000000
v 224.000000 48.000042 576.000000
v 224.000000 0.000043 576.000000
v 224.000000 0.000042 560.000000
v 224.000000 48.000042 560.000000
vn -1.0000 -0.0000 -0.0000
vn -0.0000 -0.0000 1.0000
vn -0.0000 -1.0000 -0.0000
vn -0.0000 1.0000 -0.0000
vn -0.0000 -0.0000 -1.0000
vn 1.0000 -0.0000 -0.0000
vt -0.671875 0.500000
vt -0.687500 0.500000
vt -0.687500 0.523438
vt -0.671875 0.523438
vt 0.218750 0.523438
vt -0.218750 0.523438
vt -0.218750 0.500000
vt 0.218750 0.500000
vt 0.218750 -0.687500
vt -0.218750 -0.687500
vt -0.218750 -0.671875
vt 0.218750 -0.671875
s 1
usemtl Tiles107_1K-JPG_Color_Gray
f 151/236/114 152/237/114 153/238/114 154/239/114
f 155/240/115 153/241/115 152/242/115 156/243/115
f 156/244/116 152/245/116 151/246/116 157/247/116
f 158/247/117 154/246/117 153/245/117 155/244/117
f 157/243/118 151/242/118 154/241/118 158/240/118
f 158/239/119 155/238/119 156/237/119 157/236/119
o entity2_brush2
v -224.000000 0.000004 48.000000
v -224.000000 0.000010 128.000000
v -224.000000 48.000011 128.000000
v -224.000000 48.000004 47.999996
v 224.000000 48.000011 128.000000
v 224.000000 0.000010 128.000000
v 224.000000 0.000004 48.000000
v 224.000000 48.000004 47.999996
vn -1.0000 -0.0000 -0.0000
vn -0.0000 -0.0000 1.0000
vn -0.0000 -1.0000 -0.0000
vn -0.0000 1.0000 -0.0000
vn -0.0000 -0.0000 -1.0000
vn 1.0000 -0.0000 -0.0000
vt -0.421875 -0.031250
vt -0.437500 -0.031250
vt -0.437500 -0.007812
vt -0.421875 -0.007812
vt 0.218750 -0.007812
vt -0.218750 -0.007812
vt -0.218750 -0.031250
vt 0.218750 -0.031250
vt 0.218750 -0.437500
vt -0.218750 -0.437500
vt -0.218750 -0.421875
vt 0.218750 -0.421875
s 1
usemtl Tiles107_1K-JPG_Color_Gray
f 159/248/120 160/249/120 161/250/120 162/251/120
f 163/252/121 161/253/121 160/254/121 164/255/121
f 164/256/122 160/257/122 159/258/122 165/259/122
f 166/259/123 162/258/123 161/257/123 163/256/123
f 165/255/124 159/254/124 162/253/124 166/252/124
f 166/251/125 163/250/125 164/249/125 165/248/125
o entity2_brush3
v -224.000000 -0.000002 -32.000000
v -224.000000 0.000004 48.000000
v -224.000000 96.000000 47.999992
v -224.000000 96.000000 -32.000008
v 224.000000 96.000000 47.999992
v 224.000000 0.000004 48.000000
v 224.000000 -0.000002 -32.000000
v 224.000000 96.000000 -32.000008
vn -1.0000 -0.0000 -0.0000
vn -0.0000 -0.0000 1.0000
vn -0.0000 -1.0000 -0.0000
vn -0.0000 1.0000 -0.0000
vn -0.0000 -0.0000 -1.0000
vn 1.0000 -0.0000 -0.0000
vt -0.421875 -0.031250
vt -0.437500 -0.031250
vt -0.437500 -0.007812
vt -0.421875 -0.007812
vt 0.218750 -0.007812
vt -0.218750 -0.007812
vt -0.218750 -0.031250
vt 0.218750 -0.031250
vt 0.218750 -0.437500
vt -0.218750 -0.437500
vt -0.218750 -0.421875
vt 0.218750 -0.421875
s 1
usemtl Tiles107_1K-JPG_Color_Gray
f 167/260/126 168/261/126 169/262/126 170/263/126
f 171/264/127 169/265/127 168/266/127 172/267/127
f 172/268/128 168/269/128 167/270/128 173/271/128
f 174/271/129 170/270/129 169/269/129 171/268/129
f 173/267/130 167/266/130 170/265/130 174/264/130
f 174/263/131 171/262/131 172/261/131 173/260/131
o entity2_brush4
v -224.000000 -0.000053 -704.000000
v -224.000000 -0.000034 -448.000000
v -224.000000 127.999947 -704.000000
v 224.000000 127.999947 -704.000000
v 224.000000 -0.000034 -448.000000
v 224.000000 -0.000053 -704.000000
vn -1.0000 -0.0000 -0.0000
vn -0.0000 0.8944 0.4472
vn -0.0000 -1.0000 -0.0000
vn -0.0000 -0.0000 -1.0000
vn 1.0000 -0.0000 -0.0000
vt -0.062500 -0.031250
vt -0.187500 -0.031250
vt -0.062500 -0.000000
vt 0.218750 0.031250
vt -0.218750 0.031250
vt -0.218750 -0.031250
vt 0.218750 -0.031250
vt 0.218750 -0.187500
vt -0.218750 -0.187500
vt -0.218750 -0.062500
vt 0.218750 -0.062500
vt -0.218750 -0.000000
vt 0.218750 -0.000000
s 1
usemtl Tiles107_1K-JPG_Color_Gray
f 175/272/132 176/273/132 177/274/132
f 178/275/133 177/276/133 176/277/133 179/278/133
f 179/279/134 176/280/134 175/281/134 180/282/134
f 180/278/135 175/277/135 177/283/135 178/284/135
f 179/273/136 180/272/136 178/274/136
o entity3_brush0
v -224.000000 -512.000061 -1023.999939
v -224.000000 -512.000000 -63.999962
v -224.000000 -192.000076 -1024.000000
v -128.000000 -192.000076 -1024.000000
v -128.000000 -512.000000 -63.999962
v -128.000000 -512.000061 -1023.999939
vn -1.0000 -0.0000 -0.0000
vn -0.0000 0.9487 0.3162
vn -0.0000 -1.0000 -0.0000
vn -0.0000 -0.0000 -1.0000
vn 1.0000 -0.0000 -0.0000
vt -0.062500 -0.031250
vt -0.187500 -0.031250
vt -0.062500 -0.000000
vt -0.031250 0.031250
vt -0.218750 0.031250
vt -0.218750 -0.031250
vt -0.031250 -0.031250
vt -0.031250 -0.187500
vt -0.218750 -0.187500
vt -0.218750 -0.062500
vt -0.031250 -0.062500
vt -0.218750 -0.000000
vt -0.031250 -0.000000
s 1
usemtl Tiles107_1K-JPG_Color_Gray
f 181/285/137 182/286/137 183/287/137
f 184/288/138 183/289/138 182/290/138 185/291/138
f 185/292/139 182/293/139 181/294/139 186/295/139
f 186/291/140 181/290/140 183/296/140 184/297/140
f 185/286/141 186/285/141 184/287/141
o entity3_brush1
v -64.000000 -32.000095 -1280.000000
v -64.000000 -32.000088 -1152.000000
v -64.000000 -0.000087 -1152.000000
v -64.000000 -0.000097 -1280.000000
v 64.000000 -0.000087 -1152.000000
v 64.000000 -32.000088 -1152.000000
v 64.000000 -32.000095 -1280.000000
v 64.000000 -0.000097 -1280.000000
vn -1.0000 -0.0000 -0.0000
vn -0.0000 -0.0000 1.0000
vn -0.0000 -1.0000 -0.0000
vn -0.0000 1.0000 -0.0000
vn -0.0000 -0.0000 -1.0000
vn 1.0000 -0.0000 -0.0000
vt 0.296875 -0.031250
vt 0.265625 -0.031250
vt 0.265625 -0.000000
vt 0.296875 -0.000000
vt 0.015625 -0.000000
vt -0.015625 -0.000000
vt -0.015625 -0.031250
vt 0.015625 -0.031250
vt 0.015625 0.265625
vt -0.015625 0.265625
vt -0.015625 0.296875
vt 0.015625 0.296875
s 1
usemtl Tiles108_1K-JPG_Color
f 187/298/142 188/299/142 189/300/142 190/301/142
f 191/302/143 189/303/143 188/304/143 192/305/143
f 192/306/144 188/307/144 187/308/144 193/309/144
f 194/309/145 190/308/145 189/307/145 191/306/145
f 193/305/146 187/304/146 190/303/146 194/302/146
f 194/301/147 191/300/147 192/299/147 193/298/147
o entity3_brush10
v 48.000000 -512.000183 -2320.000000
v 48.000000 -512.000183 -2288.000000
v 48.000000 -192.000168 -2288.000000
v 48.000000 -192.000168 -2320.000000
v 80.000000 -192.000168 -2288.000000
v 80.000000 -512.000183 -2288.000000
v 80.000000 -512.000183 -2320.000000
v 80.000000 -192.000168 -2320.000000
vn -1.0000 -0.0000 -0.0000
vn -0.0000 -0.0000 1.0000
vn -0.0000 -1.0000 -0.0000
vn -0.0000 1.0000 -0.0000
vn -0.0000 -0.0000 -1.0000
vn 1.0000 -0.0000 -0.0000
vt 2.203125 -0.500000
vt 2.171875 -0.500000
vt 2.171875 -0.187500
vt 2.203125 -0.187500
vt -0.046875 -0.187500
vt -0.078125 -0.187500
vt -0.078125 -0.500000
vt -0.046875 -0.500000
vt -0.046875 2.171875
vt -0.078125 2.171875
vt -0.078125 2.203125
vt -0.046875 2.203125
s 1
usemtl Tiles108_1K-JPG_Color
f 195/310/148 196/311/148 197/312/148 198/313/148
f 199/314/149 197/315/149 196/316/149 200/317/149
f 200/318/150 196/319/150 195/320/150 201/321/150
f 202/321/151 198/320/151 197/319/151 199/318/151
f 201/317/152 195/316/152 198/315/152 202/314/152
f 202/313/153 199/312/153 200/311/153 201/310/153
o entity3_brush11
v 0.000000 -192.000183 -2368.000000
v 0.000000 -192.000168 -2240.000000
v 0.000000 -160.000168 -2240.000000
v 0.000000 -160.000183 -2368.000000
v 128.000000 -160.000168 -2240.000000
v 128.000000 -192.000168 -2240.000000
v 128.000000 -192.000183 -2368.000000
v 128.000000 -160.000183 -2368.000000
vn -1.0000 -0.0000 -0.0000
vn -0.0000 -0.0000 1.0000
vn -0.0000 -1.0000 -0.0000
vn -0.0000 1.0000 -0.0000
vn -0.0000 -0.0000 -1.0000
vn 1.0000 -0.0000 -0.0000
vt 0.484375 -0.031250
vt 0.453125 -0.031250
vt 0.453125 -0.000000
vt 0.484375 -0.000000
vt 0.000000 -0.000000
vt -0.031250 -0.000000
vt -0.031250 -0.031250
vt 0.000000 -0.031250
vt 0.000000 0.453125
vt -0.031250 0.453125
vt -0.031250 0.484375
vt 0.000000 0.484375
s 1
usemtl Tiles108_1K-JPG_Color
f 203/322/154 204/323/154 205/324/154 206/325/154
f 207/326/155 205/327/155 204/328/155 208/329/155
f 208/330/156 204/331/156 203/332/156 209/333/156
f 210/333/157 206/332/157 205/331/157 207/330/157
f 209/329/158 203/328/158 206/327/158 210/326/158
f 210/325/159 207/324/159 208/323/159 209/322/159
o entity3_brush12
v -224.000000 -512.000244 -3072.000000
v -224.000000 -512.000183 -2816.000000
v -224.000000 -320.000214 -2816.000000
v -224.000000 -320.000244 -3072.000000
v 0.000000 -320.000214 -2816.000000
v 0.000000 -512.000183 -2816.000000
v 0.000000 -512.000244 -3072.000000
v 0.000000 -320.000244 -3072.000000
vn -1.0000 -0.0000 -0.0000
vn -0.0000 -0.0000 1.0000
vn -0.0000 -1.0000 -0.0000
vn -0.0000 1.0000 -0.0000
vn -0.0000 -0.0000 -1.0000
vn 1.0000 -0.0000 -0.0000
vt 1.750000 -0.031250
vt 1.625000 -0.031250
vt 1.625000 0.000000
vt 1.750000 0.000000
vt 0.218750 0.000000
vt -0.218750 0.000000
vt -0.218750 -0.031250
vt 0.218750 -0.031250
vt 0.218750 1.625000
vt -0.218750 1.625000
vt -0.218750 1.750000
vt 0.218750 1.750000
s 1
usemtl Tiles108_1K-JPG_Color
f 211/334/160 212/335/160 213/336/160 214/337/160
f 215/338/161 213/339/161 212/340/161 216/341/161
f 216/342/162 212/343/162 211/344/162 217/345/162
f 218/345/163 214/344/163 213/343/163 215/342/163
f 217/341/164 211/340/164 214/339/164 218/338/164
f 218/337/165 215/336/165 216/335/165 217/334/165
o entity3_brush13
v 0.000000 -512.000244 -3072.000000
v 0.000000 -512.000183 -2816.000000
v 0.000000 -64.000214 -2816.000000
v 0.000000 -64.000229 -3072.000000
v 224.000000 -64.000214 -2816.000000
v 224.000000 -512.000183 -2816.000000
v 224.000000 -512.000244 -3072.000000
v 224.000000 -64.000229 -3072.000000
vn -1.0000 -0.0000 -0.0000
vn -0.0000 -0.0000 1.0000
vn -0.0000 -1.0000 -0.0000
vn -0.0000 1.0000 -0.0000
vn -0.0000 -0.0000 -1.0000
vn 1.0000 -0.0000 -0.0000
vt 1.750000 -0.031250
vt 1.625000 -0.031250
vt 1.625000 -0.000000
vt 1.750000 -0.000000
vt 0.218750 -0.000000
vt -0.218750 -0.000000
vt -0.218750 -0.031250
vt 0.218750 -0.031250
vt 0.218750 1.625000
vt -0.218750 1.625000
vt -0.218750 1.750000
vt 0.218750 1.750000
s 1
usemtl Tiles108_1K-JPG_Color
f 219/346/166 220/347/166 221/348/166 222/349/166
f 223/350/167 221/351/167 220/352/167 224/353/167
f 224/354/168 220/355/168 219/356/168 225/357/168
f 226/357/169 222/356/169 221/355/169 223/354/169
f 225/353/170 219/352/170 222/351/170 226/350/170
f 226/349/171 223/348/171 224/347/171 225/346/171
o entity3_brush14
v 0.000000 -128.000214 -2752.000000
v 0.000000 -128.000198 -2624.000000
v 0.000000 -96.000198 -2624.000000
v 0.000000 -96.000206 -2752.000000
v 128.000000 -96.000198 -2624.000000
v 128.000000 -128.000198 -2624.000000
v 128.000000 -128.000214 -2752.000000
v 128.000000 -96.000206 -2752.000000
vn -1.0000 -0.0000 -0.0000
vn -0.0000 -0.0000 1.0000
vn -0.0000 -1.0000 -0.0000
vn -0.0000 1.0000 -0.0000
vn -0.0000 -0.0000 -1.0000
vn 1.0000 -0.0000 -0.0000
vt 0.484375 -0.031250
vt 0.453125 -0.031250
vt 0.453125 -0.000000
vt 0.484375 -0.000000
vt 0.000000 -0.000000
vt -0.031250 -0.000000
vt -0.031250 -0.031250
vt 0.000000 -0.031250
vt 0.000000 0.453125
vt -0.031250 0.453125
vt -0.031250 0.484375
vt 0.000000 0.484375
s 1
usemtl Tiles108_1K-JPG_Color
f 227/358/172 228/359/172 229/360/172 230/361/172
f 231/362/173 229/363/173 228/364/173 232/365/173
f 232/366/174 228/367/174 227/368/174 233/369/174
f 234/369/175 230/368/175 229/367/175 231/366/175
f 233/365/176 227/364/176 230/363/176 234/362/176
f 234/361/177 231/360/177 232/359/177 233/358/177
o entity3_brush15
v 48.000000 -512.000183 -2704.000000
v 48.000000 -512.000183 -2672.000000
v 48.000000 -128.000198 -2672.000000
v 48.000000 -128.000198 -2704.000000
v 80.000000 -128.000198 -2672.000000
v 80.000000 -512.000183 -2672.000000
v 80.000000 -512.000183 -2704.000000
v 80.000000 -128.000198 -2704.000000
vn -1.0000 -0.0000 -0.0000
vn -0.0000 -0.0000 1.0000
vn -0.0000 -1.0000 -0.0000
vn -0.0000 1.0000 -0.0000
vn -0.0000 -0.0000 -1.0000
vn 1.0000 -0.0000 -0.0000
vt 2.203125 -0.500000
vt 2.171875 -0.500000
vt 2.171875 -0.187500
vt 2.203125 -0.187500
vt -0.046875 -0.187500
vt -0.078125 -0.187500
vt -0.078125 -0.500000
vt -0.046875 -0.500000
vt -0.046875 2.171875
vt -0.078125 2.171875
vt -0.078125 2.203125
vt -0.046875 2.203125
s 1
usemtl Tiles108_1K-JPG_Color
f 235/370/178 236/371/178 237/372/178 238/373/178
f 239/374/179 237/375/179 236/376/179 240/377/179
f 240/378/180 236/379/180 235/380/180 241/381/180
f 242/381/181 238/380/181 237/379/181 239/378/181
f 241/377/182 235/376/182 238/375/182 242/374/182
f 242/373/183 239/372/183 240/371/183 241/370/183
o entity3_brush16
v -224.000000 -96.000229 -3072.000000
v -224.000000 -96.000214 -2816.000000
v -224.000000 -64.000214 -2816.000000
v -224.000000 -64.000229 -3072.000000
v 0.000000 -64.000214 -2816.000000
v 0.000000 -96.000214 -2816.000000
v 0.000000 -96.000229 -3072.000000
v 0.000000 -64.000229 -3072.000000
vn -1.0000 -0.0000 -0.0000
vn -0.0000 -0.0000 1.0000
vn -0.0000 -1.0000 -0.0000
vn -0.0000 1.0000 -0.0000
vn -0.0000 -0.0000 -1.0000
vn 1.0000 -0.0000 -0.0000
vt 1.750000 -0.031250
vt 1.625000 -0.031250
vt 1.625000 -0.000000
vt 1.750000 -0.000000
vt 0.218750 -0.000000
vt -0.218750 -0.000000
vt -0.218750 -0.031250
vt 0.218750 -0.031250
vt 0.218750 1.625000
vt -0.218750 1.625000
vt -0.218750 1.750000
vt 0.218750 1.750000
s 1
usemtl Tiles108_1K-JPG_Color
f 243/382/184 244/383/184 245/384/184 246/385/184
f 247/386/185 245/387/185 244/388/185 248/389/185
f 248/390/186 244/391/186 243/392/186 249/393/186
f 250/393/187 246/392/187 245/391/187 247/390/187
f 249/389/188 243/388/188 246/387/188 250/386/188
f 250/385/189 247/384/189 248/383/189 249/382/189
o entity3_brush17
v -64.000000 -32.000114 -1536.000000
v -64.000000 -32.000107 -1408.000000
v -64.000000 -0.000106 -1408.000000
v -64.000000 -0.000116 -1536.000000
v 64.000000 -0.000106 -1408.000000
v 64.000000 -32.000107 -1408.000000
v 64.000000 -32.000114 -1536.000000
v 64.000000 -0.000116 -1536.000000
vn -1.0000 -0.0000 -0.0000
vn -0.0000 -0.0000 1.0000
vn -0.0000 -1.0000 -0.0000
vn -0.0000 1.0000 -0.0000
vn -0.0000 -0.0000 -1.0000
vn 1.0000 -0.0000 -0.0000
vt 0.359375 -0.031250
vt 0.328125 -0.031250
vt 0.328125 -0.000000
vt 0.359375 -0.000000
vt 0.015625 -0.000000
vt -0.015625 -0.000000
vt -0.015625 -0.031250
vt 0.015625 -0.031250
vt 0.015625 0.328125
vt -0.015625 0.328125
vt -0.015625 0.359375
vt 0.015625 0.359375
s 1
usemtl Tiles108_1K-JPG_Color
f 251/394/190 252/395/190 253/396/190 254/397/190
f 255/398/191 253/399/191 252/400/191 256/401/191
f 256/402/192 252/403/192 251/404/192 257/405/192
f 258/405/193 254/404/193 253/403/193 255/402/193
f 257/401/194 251/400/194 254/399/194 258/398/194
f 258/397/195 255/396/195 256/395/195 257/394/195
o entity3_brush18
v 256.000000 511.999756 -3424.000000
v 256.000000 511.999969 -352.000031
v 256.000000 544.000000 -352.000031
v 256.000000 543.999756 -3424.000000
v 1280.000000 544.000000 -352.000031
v 1280.000000 511.999969 -352.000031
v 1280.000000 511.999756 -3424.000000
v 1280.000000 543.999756 -3424.000000
vn -1.0000 -0.0000 -0.0000
vn -0.0000 -0.0000 1.0000
vn -0.0000 -1.0000 -0.0000
vn -0.0000 1.0000 -0.0000
vn -0.0000 -0.0000 -1.0000
vn 1.0000 -0.0000 -0.0000
vt 0.062500 -0.015625
vt -0.062500 -0.015625
vt -0.062500 0.015625
vt 0.062500 0.015625
vt 0.062500 0.015625
vt -0.062500 0.015625
vt -0.062500 -0.015625
vt 0.062500 -0.015625
vt 0.062500 -0.062500
vt -0.062500 -0.062500
vt -0.062500 0.062500
vt 0.062500 0.062500
s 1
usemtl Tiles107_1K-JPG_Color_Gray
f 259/406/196 260/407/196 261/408/196 262/409/196
f 263/410/197 261/411/197 260/412/197 264/413/197
f 264/414/198 260/415/198 259/416/198 265/417/198
f 266/417/199 262/416/199 261/415/199 263/414/199
f 265/413/200 259/412/200 262/411/200 266/410/200
f 266/409/201 263/408/201 264/407/201 265/406/201
o entity3_brush19
v -128.000000 -512.000061 -1023.999939
v -128.000000 -512.000061 -447.999969
v -128.000000 -192.000076 -1024.000000
v -32.000000 -192.000076 -1024.000000
v -32.000000 -512.000061 -447.999969
v -32.000000 -512.000061 -1023.999939
vn -1.0000 -0.0000 -0.0000
vn -0.0000 0.8742 0.4856
vn -0.0000 -1.0000 -0.0000
vn -0.0000 -0.0000 -1.0000
vn 1.0000 -0.0000 -0.0000
vt -0.062500 -0.031250
vt -0.137500 -0.031250
vt -0.062500 -0.000000
vt 0.156250 0.031250
vt -0.031250 0.031250
vt -0.031250 -0.006250
vt 0.156250 -0.006250
vt 0.156250 -0.137500
vt -0.031250 -0.137500
vt -0.031250 -0.062500
vt 0.156250 -0.062500
vt 0.156250 -0.031250
vt -0.031250 -0.031250
vt -0.031250 -0.000000
vt 0.156250 -0.000000
s 1
usemtl Tiles107_1K-JPG_Color_Gray
f 267/418/202 268/419/202 269/420/202
f 270/421/203 269/422/203 268/423/203 271/424/203
f 271/425/204 268/426/204 267/427/204 272/428/204
f 272/429/205 267/430/205 269/431/205 270/432/205
f 271/419/206 272/418/206 270/420/206
o entity3_brush2
v -256.000000 -544.000244 -3424.000000
v -256.000000 -544.000000 0.000041
v -256.000000 -512.000000 0.000039
v -256.000000 -512.000244 -3424.000000
v 256.000000 -512.000000 0.000039
v 256.000000 -544.000000 0.000041
v 256.000000 -544.000244 -3424.000000
v 256.000000 -512.000244 -3424.000000
vn -1.0000 -0.0000 -0.0000
vn -0.0000 -0.0000 1.0000
vn -0.0000 -1.0000 -0.0000
vn -0.0000 1.0000 -0.0000
vn -0.0000 -0.0000 -1.0000
vn 1.0000 -0.0000 -0.0000
vt 0.062500 -0.015625
vt -0.062500 -0.015625
vt -0.062500 0.015625
vt 0.062500 0.015625
vt 0.062500 -0.062500
vt -0.062500 -0.062500
vt -0.062500 0.062500
vt 0.062500 0.062500
s 1
usemtl Tiles107_1K-JPG_Color_Gray
f 273/433/207 274/434/207 275/435/207 276/436/207
f 277/436/208 275/435/208 274/434/208 278/433/208
f 278/437/209 274/438/209 273/439/209 279/440/209
f 280/440/210 276/439/210 275/438/210 277/437/210
f 279/433/211 273/434/211 276/435/211 280/436/211
f 280/436/212 277/435/212 278/434/212 279/433/212
o entity3_brush20
v -32.000000 -512.000061 -1023.999939
v -32.000000 -512.000061 -703.999939
v -32.000000 -192.000076 -1024.000000
v 64.000000 -192.000076 -1024.000000
v 64.000000 -512.000061 -703.999939
v 64.000000 -512.000061 -1023.999939
vn -1.0000 -0.0000 -0.0000
vn -0.0000 0.7071 0.7071
vn -0.0000 -1.0000 -0.0000
vn -0.0000 -0.0000 -1.0000
vn 1.0000 -0.0000 -0.0000
vt -0.062500 -0.031250
vt -0.104167 -0.031250
vt -0.062500 -0.000000
vt 0.343750 0.031250
vt 0.156250 0.031250
vt 0.156250 0.010417
vt 0.343750 0.010417
vt 0.343750 -0.104167
vt 0.156250 -0.104167
vt 0.156250 -0.062500
vt 0.343750 -0.062500
vt 0.343750 -0.031250
vt 0.156250 -0.031250
vt 0.156250 -0.000000
vt 0.343750 -0.000000
s 1
usemtl Tiles107_1K-JPG_Color_Gray
f 281/441/213 282/442/213 283/443/213
f 284/444/214 283/445/214 282/446/214 285/447/214
f 285/448/215 282/449/215 281/450/215 286/451/215
f 286/452/216 281/453/216 283/454/216 284/455/216
f 285/442/217 286/441/217 284/443/217
o entity3_brush21
v 256.000000 223.999741 -3392.000000
v -32.000000 -64.000259 -3392.000000
v -32.000000 -64.000229 -3072.000000
v 256.000000 223.999771 -3072.000000
v 256.000000 -64.000229 -3072.000000
v 256.000000 -64.000259 -3392.000000
vn -0.7071 0.7071 -0.0000
vn -0.0000 -0.0000 1.0000
vn -0.0000 -1.0000 -0.0000
vn -0.0000 -0.0000 -1.0000
vn 1.0000 -0.0000 -0.0000
vt 0.718750 0.185417
vt 0.156250 0.185417
vt 0.156250 0.164583
vt 0.718750 0.164583
vt -0.162500 0.040625
vt -0.200000 0.012500
vt -0.162500 0.012500
vt 0.718750 0.204167
vt 0.156250 0.204167
vt 0.156250 0.245833
vt 0.718750 0.245833
vt 6.843748 0.040625
vt 6.218748 0.040625
vt 6.218748 0.012500
vt 6.843748 0.012500
s 1
usemtl Tiles107_1K-JPG_Color_Gray
f 287/456/218 288/457/218 289/458/218 290/459/218
f 290/460/219 289/461/219 291/462/219
f 291/463/220 289/464/220 288/465/220 292/466/220
f 292/462/221 288/461/221 287/460/221
f 287/467/222 290/468/222 291/469/222 292/470/222
o entity3_brush3
v -16.000000 -512.000122 -1232.000000
v -16.000000 -512.000061 -1200.000000
v -16.000000 -32.000092 -1200.000000
v -16.000000 -32.000092 -1232.000000
v 16.000000 -32.000092 -1200.000000
v 16.000000 -512.000061 -1200.000000
v 16.000000 -512.000122 -1232.000000
v 16.000000 -32.000092 -1232.000000
vn -1.0000 -0.0000 -0.0000
vn -0.0000 -0.0000 1.0000
vn -0.0000 -1.0000 -0.0000
vn -0.0000 1.0000 -0.0000
vn -0.0000 -0.0000 -1.0000
vn 1.0000 -0.0000 -0.0000
vt 1.203125 -0.031250
vt 1.171875 -0.031250
vt 1.171875 -0.000000
vt 1.203125 -0.000000
vt 0.015625 -0.000000
vt -0.015625 -0.000000
vt -0.015625 -0.031250
vt 0.015625 -0.031250
vt 0.015625 1.171875
vt -0.015625 1.171875
vt -0.015625 1.203125
vt 0.015625 1.203125
s 1
usemtl Tiles108_1K-JPG_Color
f 293/471/223 294/472/223 295/473/223 296/474/223
f 297/475/224 295/476/224 294/477/224 298/478/224
f 298/479/225 294/480/225 293/481/225 299/482/225
f 300/482/226 296/481/226 295/480/226 297/479/226
f 299/478/227 293/477/227 296/476/227 300/475/227
f 300/474/228 297/473/228 298/472/228 299/471/228
o entity3_brush4
v -16.000000 -512.000122 -1488.000000
v -16.000000 -512.000122 -1456.000000
v -16.000000 -32.000111 -1456.000000
v -16.000000 -32.000111 -1488.000000
v 16.000000 -32.000111 -1456.000000
v 16.000000 -512.000122 -1456.000000
v 16.000000 -512.000122 -1488.000000
v 16.000000 -32.000111 -1488.000000
vn -1.0000 -0.0000 -0.0000
vn -0.0000 -0.0000 1.0000
vn -0.0000 -1.0000 -0.0000
vn -0.0000 1.0000 -0.0000
vn -0.0000 -0.0000 -1.0000
vn 1.0000 -0.0000 -0.0000
vt 1.453125 -0.031250
vt 1.421875 -0.031250
vt 1.421875 -0.000000
vt 1.453125 -0.000000
vt 0.015625 -0.000000
vt -0.015625 -0.000000
vt -0.015625 -0.031250
vt 0.015625 -0.031250
vt 0.015625 1.421875
vt -0.015625 1.421875
vt -0.015625 1.453125
vt 0.015625 1.453125
s 1
usemtl Tiles108_1K-JPG_Color
f 301/483/229 302/484/229 303/485/229 304/486/229
f 305/487/230 303/488/230 302/489/230 306/490/230
f 306/491/231 302/492/231 301/493/231 307/494/231
f 308/494/232 304/493/232 303/492/232 305/491/232
f 307/490/233 301/489/233 304/488/233 308/487/233
f 308/486/234 305/485/234 306/484/234 307/483/234
o entity3_brush5
v -64.000000 -512.000122 -1920.000000
v -64.000000 -512.000122 -1664.000000
v -64.000000 -0.000126 -1664.000000
v -64.000000 -0.000145 -1920.000000
v 224.000000 -0.000126 -1664.000000
v 224.000000 -512.000122 -1664.000000
v 224.000000 -512.000122 -1920.000000
v 224.000000 -0.000145 -1920.000000
vn -1.0000 -0.0000 -0.0000
vn -0.0000 -0.0000 1.0000
vn -0.0000 -1.0000 -0.0000
vn -0.0000 1.0000 -0.0000
vn -0.0000 -0.0000 -1.0000
vn 1.0000 -0.0000 -0.0000
vt 1.750000 -0.031250
vt 1.625000 -0.031250
vt 1.625000 -0.000000
vt 1.750000 -0.000000
vt 0.218750 -0.000000
vt -0.218750 -0.000000
vt -0.218750 -0.031250
vt 0.218750 -0.031250
vt 0.218750 1.625000
vt -0.218750 1.625000
vt -0.218750 1.750000
vt 0.218750 1.750000
s 1
usemtl Tiles108_1K-JPG_Color
f 309/495/235 310/496/235 311/497/235 312/498/235
f 313/499/236 311/500/236 310/501/236 314/502/236
f 314/503/237 310/504/237 309/505/237 315/506/237
f 316/506/238 312/505/238 311/504/238 313/503/238
f 315/502/239 309/501/239 312/500/239 316/499/239
f 316/498/240 313/497/240 314/496/240 315/495/240
o entity3_brush6
v -80.000000 -512.000183 -2128.000000
v -80.000000 -512.000183 -2096.000000
v -80.000000 -224.000153 -2096.000000
v -80.000000 -224.000168 -2128.000000
v -48.000000 -224.000153 -2096.000000
v -48.000000 -512.000183 -2096.000000
v -48.000000 -512.000183 -2128.000000
v -48.000000 -224.000168 -2128.000000
vn -1.0000 -0.0000 -0.0000
vn -0.0000 -0.0000 1.0000
vn -0.0000 -1.0000 -0.0000
vn -0.0000 1.0000 -0.0000
vn -0.0000 -0.0000 -1.0000
vn 1.0000 -0.0000 -0.0000
vt 1.890625 -0.500000
vt 1.859375 -0.500000
vt 1.859375 -0.148438
vt 1.890625 -0.148438
vt 0.078125 -0.148438
vt 0.046875 -0.148438
vt 0.046875 -0.500000
vt 0.078125 -0.500000
vt 0.078125 1.859375
vt 0.046875 1.859375
vt 0.046875 1.890625
vt 0.078125 1.890625
s 1
usemtl Tiles108_1K-JPG_Color
f 317/507/241 318/508/241 319/509/241 320/510/241
f 321/511/242 319/512/242 318/513/242 322/514/242
f 322/515/243 318/516/243 317/517/243 323/518/243
f 324/518/244 320/517/244 319/516/244 321/515/244
f 323/514/245 317/513/245 320/512/245 324/511/245
f 324/510/246 321/509/246 322/508/246 323/507/246
o entity3_brush7
v -128.000000 -224.000168 -2176.000000
v -128.000000 -224.000153 -2048.000000
v -128.000000 -192.000153 -2048.000000
v -128.000000 -192.000168 -2176.000000
v 0.000000 -192.000153 -2048.000000
v 0.000000 -224.000153 -2048.000000
v 0.000000 -224.000168 -2176.000000
v 0.000000 -192.000168 -2176.000000
vn -1.0000 -0.0000 -0.0000
vn -0.0000 -0.0000 1.0000
vn -0.0000 -1.0000 -0.0000
vn -0.0000 1.0000 -0.0000
vn -0.0000 -0.0000 -1.0000
vn 1.0000 -0.0000 -0.0000
vt 0.484375 -0.000000
vt 0.453125 -0.000000
vt 0.453125 0.031250
vt 0.484375 0.031250
vt 0.031250 0.031250
vt 0.000000 0.031250
vt 0.000000 -0.000000
vt 0.031250 -0.000000
vt 0.031250 0.453125
vt 0.000000 0.453125
vt 0.000000 0.484375
vt 0.031250 0.484375
s 1
usemtl Tiles108_1K-JPG_Color
f 325/519/247 326/520/247 327/521/247 328/522/247
f 329/523/248 327/524/248 326/525/248 330/526/248
f 330/527/249 326/528/249 325/529/249 331/530/249
f 332/530/250 328/529/250 327/528/250 329/527/250
f 331/526/251 325/525/251 328/524/251 332/523/251
f 332/522/252 329/521/252 330/520/252 331/519/252
o entity3_brush8
v -80.000000 -512.000183 -2512.000000
v -80.000000 -512.000183 -2480.000000
v -80.000000 -160.000183 -2480.000000
v -80.000000 -160.000183 -2512.000000
v -48.000000 -160.000183 -2480.000000
v -48.000000 -512.000183 -2480.000000
v -48.000000 -512.000183 -2512.000000
v -48.000000 -160.000183 -2512.000000
vn -1.0000 -0.0000 -0.0000
vn -0.0000 -0.0000 1.0000
vn -0.0000 -1.0000 -0.0000
vn -0.0000 1.0000 -0.0000
vn -0.0000 -0.0000 -1.0000
vn 1.0000 -0.0000 -0.0000
vt 2.203125 -0.500000
vt 2.171875 -0.500000
vt 2.171875 -0.187500
vt 2.203125 -0.187500
vt 0.078125 -0.187500
vt 0.046875 -0.187500
vt 0.046875 -0.500000
vt 0.078125 -0.500000
vt 0.078125 2.171875
vt 0.046875 2.171875
vt 0.046875 2.203125
vt 0.078125 2.203125
s 1
usemtl Tiles108_1K-JPG_Color
f 333/531/253 334/532/253 335/533/253 336/534/253
f 337/535/254 335/536/254 334/537/254 338/538/254
f 338/539/255 334/540/255 333/541/255 339/542/255
f 340/542/256 336/541/256 335/540/256 337/539/256
f 339/538/257 333/537/257 336/536/257 340/535/257
f 340/534/258 337/533/258 338/532/258 339/531/258
o entity3_brush9
v -128.000000 -160.000198 -2560.000000
v -128.000000 -160.000183 -2432.000000
v -128.000000 -128.000183 -2432.000000
v -128.000000 -128.000198 -2560.000000
v 0.000000 -128.000183 -2432.000000
v 0.000000 -160.000183 -2432.000000
v 0.000000 -160.000198 -2560.000000
v 0.000000 -128.000198 -2560.000000
vn -1.0000 -0.0000 -0.0000
vn -0.0000 -0.0000 1.0000
vn -0.0000 -1.0000 -0.0000
vn -0.0000 1.0000 -0.0000
vn -0.0000 -0.0000 -1.0000
vn 1.0000 -0.0000 -0.0000
vt 0.484375 -0.031250
vt 0.453125 -0.031250
vt 0.453125 -0.000000
vt 0.484375 -0.000000
vt 0.031250 -0.000000
vt 0.000000 -0.000000
vt 0.000000 -0.031250
vt 0.031250 -0.031250
vt 0.031250 0.453125
vt 0.000000 0.453125
vt 0.000000 0.484375
vt 0.031250 0.484375
s 1
usemtl Tiles108_1K-JPG_Color
f 341/543/259 342/544/259 343/545/259 344/546/259
f 345/547/260 343/548/260 342/549/260 346/550/260
f 346/551/261 342/552/261 341/553/261 347/554/261
f 348/554/262 344/553/262 343/552/262 345/551/262
f 347/550/263 341/549/263 344/548/263 348/547/263
f 348/546/264 345/545/264 346/544/264 347/543/264
o entity4_brush0
v 832.000000 -0.000232 -3072.000000
v 832.000000 -128.000229 -3072.000000
v 832.000000 -128.000198 -2624.000000
v 832.000000 -0.000198 -2624.000000
v 960.000000 -128.000198 -2624.000000
v 960.000000 -128.000229 -3072.000000
vn -1.0000 -0.0000 -0.0000
vn -0.0000 -0.0000 1.0000
vn -0.0000 -1.0000 -0.0000
vn -0.0000 -0.0000 -1.0000
vn 0.7071 0.7071 -0.0000
vt 3.000000 0.031250
vt 3.000000 -0.093750
vt 2.562500 -0.093750
vt 2.562500 0.031250
vt 0.687500 0.031250
vt 0.687500 -0.093750
vt 0.812500 -0.093750
vt 0.812500 2.562500
vt 0.687500 2.562500
vt 0.687500 3.000000
vt 0.812500 3.000000
s 1
usemtl Tiles108_1K-JPG_Color
f 349/555/265 350/556/265 351/557/265 352/558/265
f 352/559/266 351/560/266 353/561/266
f 353/562/267 351/563/267 350/564/267 354/565/267
f 354/561/268 350/560/268 349/559/268
f 349/564/269 352/563/269 353/562/269 354/565/269
o entity4_brush1
v 1088.000000 -0.000232 -3072.000000
v 960.000000 -128.000229 -3072.000000
v 960.000000 -128.000168 -2176.000000
v 1088.000000 -0.000164 -2176.000000
v 1088.000000 -128.000168 -2176.000000
v 1088.000000 -128.000229 -3072.000000
vn -0.7071 0.7071 -0.0000
vn -0.0000 -0.0000 1.0000
vn -0.0000 -1.0000 -0.0000
vn -0.0000 -0.0000 -1.0000
vn 1.0000 -0.0000 -0.0000
vt 0.937500 3.000000
vt 0.812500 3.000000
vt 0.812500 2.125000
vt 0.937500 2.125000
vt 0.937500 0.031250
vt 0.812500 -0.093750
vt 0.937500 -0.093750
vt 3.000000 0.031250
vt 2.125000 0.031250
vt 2.125000 -0.093750
vt 3.000000 -0.093750
s 1
usemtl Tiles108_1K-JPG_Color
f 355/566/270 356/567/270 357/568/270 358/569/270
f 358/570/271 357/571/271 359/572/271
f 359/569/272 357/568/272 356/567/272 360/566/272
f 360/572/273 356/571/273 355/570/273
f 355/573/274 358/574/274 359/575/274 360/576/274
o entity4_brush10
v 256.000000 -800.000244 -3072.000000
v 256.000000 -800.000183 -2336.000000
v 256.000000 -64.000229 -3072.000000
v 352.000000 -64.000229 -3072.000000
v 352.000000 -800.000183 -2336.000000
v 352.000000 -800.000244 -3072.000000
vn -1.0000 -0.0000 -0.0000
vn -0.0000 0.7071 0.7071
vn -0.0000 -1.0000 -0.0000
vn -0.0000 -0.0000 -1.0000
vn 1.0000 -0.0000 -0.0000
vt 0.204167 -0.059375
vt 0.108333 -0.059375
vt 0.204167 0.012500
vt 0.906250 0.164583
vt 0.718750 0.164583
vt 0.718750 0.116667
vt 0.906250 0.116667
vt 0.906250 0.108333
vt 0.718750 0.108333
vt 0.718750 0.204167
vt 0.906250 0.204167
vt 0.906250 -0.059375
vt 0.718750 -0.059375
vt 0.718750 0.012500
vt 0.906250 0.012500
s 1
usemtl Tiles107_1K-JPG_Color_Gray
f 361/577/275 362/578/275 363/579/275
f 364/580/276 363/581/276 362/582/276 365/583/276
f 365/584/277 362/585/277 361/586/277 366/587/277
f 366/588/278 361/589/278 363/590/278 364/591/278
f 365/578/279 366/577/279 364/579/279
o entity4_brush11
v 352.000000 -800.000244 -3070.545410
v 352.000000 -800.000183 -2736.000000
v 352.000000 -64.000229 -3070.545410
v 448.000000 -64.000229 -3070.545410
v 448.000000 -800.000183 -2736.000000
v 448.000000 -800.000244 -3070.545410
vn -1.0000 -0.0000 -0.0000
vn -0.0000 0.4138 0.9104
vn -0.0000 -1.0000 -0.0000
vn -0.0000 -0.0000 -1.0000
vn 1.0000 -0.0000 -0.0000
vt 0.203977 -0.059375
vt 0.160417 -0.059375
vt 0.203977 0.012500
vt 1.093750 -0.039583
vt 0.906250 -0.039583
vt 0.906250 -0.087500
vt 1.093750 -0.087500
vt 1.093750 0.160417
vt 0.906250 0.160417
vt 0.906250 0.203977
vt 1.093750 0.203977
vt 1.093750 -0.059375
vt 0.906250 -0.059375
vt 0.906250 0.012500
vt 1.093750 0.012500
s 1
usemtl Tiles107_1K-JPG_Color_Gray
f 367/592/280 368/593/280 369/594/280
f 370/595/281 369/596/281 368/597/281 371/598/281
f 371/599/282 368/600/282 367/601/282 372/602/282
f 372/603/283 367/604/283 369/605/283 370/606/283
f 371/593/284 372/592/284 370/594/284
o entity4_brush12
v -224.000000 -96.000259 -3392.000000
v -224.000000 -96.000229 -3072.000000
v -224.000000 -64.000229 -3072.000000
v -224.000000 -64.000259 -3392.000000
v 1248.000000 -64.000229 -3072.000000
v 1248.000000 -96.000229 -3072.000000
v 1248.000000 -96.000259 -3392.000000
v 1248.000000 -64.000259 -3392.000000
vn -1.0000 -0.0000 -0.0000
vn -0.0000 -0.0000 1.0000
vn -0.0000 -1.0000 -0.0000
vn -0.0000 1.0000 -0.0000
vn -0.0000 -0.0000 -1.0000
vn 1.0000 -0.0000 -0.0000
vt 3.312500 -1.500000
vt 3.000000 -1.500000
vt 3.000000 -1.062500
vt 3.312500 -1.062500
vt 0.218750 -1.062500
vt -0.218750 -1.062500
vt -0.218750 -1.500000
vt 0.218750 -1.500000
vt 0.218750 3.000000
vt -0.218750 3.000000
vt -0.218750 3.312500
vt 0.218750 3.312500
s 1
usemtl Tiles108_1K-JPG_Color
f 373/607/285 374/608/285 375/609/285 376/610/285
f 377/611/286 375/612/286 374/613/286 378/614/286
f 378/615/287 374/616/287 373/617/287 379/618/287
f 380/618/288 376/617/288 375/616/288 377/615/288
f 379/614/289 373/613/289 376/612/289 380/611/289
f 380/610/290 377/609/290 378/608/290 379/607/290
o entity4_brush13
v 224.000000 -832.000244 -3424.000000
v 224.000000 -832.000000 -351.999939
v 224.000000 -800.000000 -351.999939
v 224.000000 -800.000244 -3424.000000
v 1280.000000 -800.000000 -351.999939
v 1280.000000 -832.000000 -351.999939
v 1280.000000 -832.000244 -3424.000000
v 1280.000000 -800.000244 -3424.000000
vn -1.0000 -0.0000 -0.0000
vn -0.0000 -0.0000 1.0000
vn -0.0000 -1.0000 -0.0000
vn -0.0000 1.0000 -0.0000
vn -0.0000 -0.0000 -1.0000
vn 1.0000 -0.0000 -0.0000
vt 0.062500 -0.015625
vt -0.062500 -0.015625
vt -0.062500 0.015625
vt 0.062500 0.015625
vt 0.062500 -0.062500
vt -0.062500 -0.062500
vt -0.062500 0.062500
vt 0.062500 0.062500
s 1
usemtl Tiles107_1K-JPG_Color_Gray
f 381/619/291 382/620/291 383/621/291 384/622/291
f 385/622/292 383/621/292 382/620/292 386/619/292
f 386/623/293 382/624/293 381/625/293 387/626/293
f 388/626/294 384/625/294 383/624/294 385/623/294
f 387/619/295 381/620/295 384/621/295 388/622/295
f 388/622/296 385/621/296 386/620/296 387/619/296
o entity4_brush14
v 256.000000 -192.000092 -1280.000000
v 256.000000 -192.000076 -960.000000
v 256.000000 -160.000076 -960.000000
v 256.000000 -160.000092 -1280.000000
v 1248.000000 -160.000076 -960.000000
v 1248.000000 -192.000076 -960.000000
v 1248.000000 -192.000092 -1280.000000
v 1248.000000 -160.000092 -1280.000000
vn -1.0000 -0.0000 -0.0000
vn -0.0000 -0.0000 1.0000
vn -0.0000 -1.0000 -0.0000
vn -0.0000 1.0000 -0.0000
vn -0.0000 -0.0000 -1.0000
vn 1.0000 -0.0000 -0.0000
vt 1.250000 -2.812500
vt 0.937500 -2.812500
vt 0.937500 -2.375000
vt 1.250000 -2.375000
vt 0.218750 -2.375000
vt -0.076087 -2.375000
vt -0.076087 -2.812500
vt 0.218750 -2.812500
vt 0.218750 0.937500
vt -0.076087 0.937500
vt -0.076087 1.250000
vt 0.218750 1.250000
s 1
usemtl Tiles108_1K-JPG_Color
f 389/627/297 390/628/297 391/629/297 392/630/297
f 393/631/298 391/632/298 390/633/298 394/634/298
f 394/635/299 390/636/299 389/637/299 395/638/299
f 396/638/300 392/637/300 391/636/300 393/635/300
f 395/634/301 389/633/301 392/632/301 396/631/301
f 396/630/302 393/629/302 394/628/302 395/627/302
o entity4_brush15
v 256.000000 -480.000061 -671.999939
v 256.000000 -480.000031 -351.999969
v 256.000000 -448.000031 -351.999969
v 256.000000 -448.000061 -671.999939
v 1248.000000 -448.000031 -351.999969
v 1248.000000 -480.000031 -351.999969
v 1248.000000 -480.000061 -671.999939
v 1248.000000 -448.000061 -671.999939
vn -1.0000 -0.0000 -0.0000
vn -0.0000 -0.0000 1.0000
vn -0.0000 -1.0000 -0.0000
vn -0.0000 1.0000 -0.0000
vn -0.0000 -0.0000 -1.0000
vn 1.0000 -0.0000 -0.0000
vt 0.656250 -6.749998
vt 0.343750 -6.749998
vt 0.343750 -6.312498
vt 0.656250 -6.312498
vt 0.218750 -6.312498
vt -0.076087 -6.312498
vt -0.076087 -6.749998
vt 0.218750 -6.749998
vt 0.218750 0.343750
vt -0.076087 0.343750
vt -0.076087 0.656250
vt 0.218750 0.656250
s 1
usemtl Tiles108_1K-JPG_Color
f 397/639/303 398/640/303 399/641/303 400/642/303
f 401/643/304 399/644/304 398/645/304 402/646/304
f 402/647/305 398/648/305 397/649/305 403/650/305
f 404/650/306 400/649/306 399/648/306 401/647/306
f 403/646/307 397/645/307 400/644/307 404/643/307
f 404/642/308 401/641/308 402/640/308 403/639/308
o entity4_brush16
v 768.000000 -256.000244 -3392.000000
v 768.000000 -384.000244 -3392.000000
v 768.000000 -384.000214 -2896.000000
v 768.000000 -256.000214 -2896.000000
v 896.000000 -384.000214 -2896.000000
v 896.000000 -384.000244 -3392.000000
vn -1.0000 -0.0000 -0.0000
vn -0.0000 -0.0000 1.0000
vn -0.0000 -1.0000 -0.0000
vn -0.0000 -0.0000 -1.0000
vn 0.7071 0.7071 -0.0000
vt 3.312500 -0.250000
vt 3.312500 -0.375000
vt 2.828125 -0.375000
vt 2.828125 -0.250000
vt 0.750000 -0.250000
vt 0.750000 -0.375000
vt 0.875000 -0.375000
vt 0.875000 2.828125
vt 0.750000 2.828125
vt 0.750000 3.312500
vt 0.875000 3.312500
s 1
usemtl Tiles107_1K-JPG_Color_Gray
f 405/651/309 406/652/309 407/653/309 408/654/309
f 408/655/310 407/656/310 409/657/310
f 409/658/311 407/659/311 406/660/311 410/661/311
f 410/657/312 406/656/312 405/655/312
f 405/660/313 408/659/313 409/658/313 410/661/313
o entity4_brush17
v 832.000000 -512.000244 -3392.000000
v 832.000000 -640.000244 -3392.000000
v 576.000000 -640.000000 -351.999939
v 576.000000 -512.000000 -351.999969
v 704.000000 -640.000000 -351.999939
v 960.000000 -640.000244 -3392.000000
vn -0.9965 -0.0000 -0.0839
vn -0.0000 -0.0000 1.0000
vn -0.0000 -1.0000 -0.0000
vn -0.0000 -0.0000 -1.0000
vn 0.7059 0.7059 0.0594
vt 3.312500 -0.500000
vt 3.312500 -0.625000
vt 0.343750 -0.625000
vt 0.343750 -0.500000
vt 0.562500 -0.500000
vt 0.562500 -0.625000
vt 0.687500 -0.625000
vt 0.687500 0.343750
vt 0.562500 0.343750
vt 0.812500 3.312500
vt 0.937500 3.312500
vt 0.937500 -0.625000
vt 0.812500 -0.625000
vt 0.812500 -0.500000
vt 1.140625 3.171875
vt 0.890625 0.203125
vt 1.015625 0.203125
vt 1.265625 3.171875
s 1
usemtl Tiles107_1K-JPG_Color_Gray
f 411/662/314 412/663/314 413/664/314 414/665/314
f 414/666/315 413/667/315 415/668/315
f 415/669/316 413/670/316 412/671/316 416/672/316
f 416/673/317 412/674/317 411/675/317
f 411/676/318 414/677/318 415/678/318 416/679/318
o entity4_brush18
v 768.000000 -256.000244 -3392.000000
v 640.000000 -384.000244 -3392.000000
v 640.000000 -384.000214 -2896.000000
v 768.000000 -256.000214 -2896.000000
v 768.000000 -384.000214 -2896.000000
v 768.000000 -384.000244 -3392.000000
vn -0.7071 0.7071 -0.0000
vn -0.0000 -0.0000 1.0000
vn -0.0000 -1.0000 -0.0000
vn -0.0000 -0.0000 -1.0000
vn 1.0000 -0.0000 -0.0000
vt 0.750000 3.312500
vt 0.625000 3.312500
vt 0.625000 2.828125
vt 0.750000 2.828125
vt 0.750000 -0.250000
vt 0.625000 -0.375000
vt 0.750000 -0.375000
vt 3.312500 -0.250000
vt 2.828125 -0.250000
vt 2.828125 -0.375000
vt 3.312500 -0.375000
s 1
usemtl Tiles107_1K-JPG_Color_Gray
f 417/680/319 418/681/319 419/682/319 420/683/319
f 420/684/320 419/685/320 421/686/320
f 421/683/321 419/682/321 418/681/321 422/680/321
f 422/686/322 418/685/322 417/684/322
f 417/687/323 420/688/323 421/689/323 422/690/323
o entity4_brush19
v 704.000000 -512.000244 -3392.000000
v 576.000000 -640.000244 -3392.000000
v 832.000000 -640.000000 -351.999939
v 960.000000 -512.000000 -351.999969
v 960.000000 -640.000000 -351.999939
v 704.000000 -640.000244 -3392.000000
vn -0.7059 0.7059 0.0594
vn -0.0000 -0.0000 1.0000
vn -0.0000 -1.0000 -0.0000
vn -0.0000 -0.0000 -1.0000
vn 0.9965 -0.0000 -0.0839
vt 1.015625 3.171875
vt 0.890625 3.171875
vt 1.140625 0.203125
vt 1.265625 0.203125
vt 0.937500 -0.500000
vt 0.812500 -0.625000
vt 0.937500 -0.625000
vt 0.937500 0.343750
vt 0.812500 0.343750
vt 0.562500 3.312500
vt 0.687500 3.312500
vt 0.687500 -0.625000
vt 0.562500 -0.625000
vt 0.687500 -0.500000
vt 3.312500 -0.500000
vt 0.343750 -0.500000
vt 0.343750 -0.625000
vt 3.312500 -0.625000
s 1
usemtl Tiles107_1K-JPG_Color_Gray
f 423/691/324 424/692/324 425/693/324 426/694/324
f 426/695/325 425/696/325 427/697/325
f 427/698/326 425/699/326 424/700/326 428/701/326
f 428/702/327 424/703/327 423/704/327
f 423/705/328 426/706/328 427/707/328 428/708/328
o entity4_brush2
v 1088.000000 -0.000164 -2176.000000
v 960.000000 -128.000168 -2176.000000
v 768.000000 -128.000092 -1280.000000
v 896.000000 -0.000097 -1280.000000
v 896.000000 -128.000092 -1280.000000
v 1088.000000 -128.000168 -2176.000000
vn -0.6991 0.6991 -0.1498
vn -0.0000 -0.0000 1.0000
vn -0.0000 -1.0000 -0.0000
vn -0.0000 -0.0000 -1.0000
vn 0.9778 -0.0000 0.2095
vt 1.031250 2.998607
vt 0.906250 2.998607
vt 0.718750 2.125557
vt 0.843750 2.125557
vt 0.937500 0.031250
vt 0.812500 -0.093750
vt 0.937500 -0.093750
vt 0.937500 -0.093750
vt 0.812500 -0.093750
vt 0.937500 0.031250
vt 3.000000 0.031250
vt 2.125000 0.031250
vt 2.125000 -0.093750
vt 3.000000 -0.093750
s 1
usemtl Tiles108_1K-JPG_Color
f 429/709/329 430/710/329 431/711/329 432/712/329
f 432/713/330 431/714/330 433/715/330
f 433/712/331 431/711/331 430/710/331 434/709/331
f 434/716/332 430/717/332 429/718/332
f 429/719/333 432/720/333 433/721/333 434/722/333
o entity4_brush20
v 686.484192 -320.000122 -1664.000000
v 686.484192 -448.000122 -1664.000000
v 576.000000 -512.000000 -351.999969
v 576.000000 -384.000031 -351.999969
v 704.000000 -512.000000 -351.999969
v 814.484192 -448.000122 -1664.000000
vn -0.9965 -0.0000 -0.0839
vn -0.0000 -0.0000 1.0000
vn -0.0000 -0.9988 -0.0487
vn -0.0000 -0.0000 -1.0000
vn 0.7040 0.7040 0.0936
vt 1.625000 -0.312500
vt 1.625000 -0.437500
vt 0.343750 -0.500000
vt 0.343750 -0.375000
vt 0.562500 -0.375000
vt 0.562500 -0.500000
vt 0.687500 -0.500000
vt 0.687500 0.343750
vt 0.562500 0.343750
vt 0.670395 1.625000
vt 0.795395 1.625000
vt 0.795395 -0.437500
vt 0.670395 -0.437500
vt 0.670395 -0.312500
vt 0.998520 1.484375
vt 0.890625 0.203125
vt 1.015625 0.203125
vt 1.123520 1.484375
s 1
usemtl Tiles107_1K-JPG_Color_Gray
f 435/723/334 436/724/334 437/725/334 438/726/334
f 438/727/335 437/728/335 439/729/335
f 439/730/336 437/731/336 436/732/336 440/733/336
f 440/734/337 436/735/337 435/736/337
f 435/737/338 438/738/338 439/739/338 440/740/338
o entity4_brush21
v 849.515808 -320.000122 -1664.000000
v 721.515808 -448.000122 -1664.000000
v 832.000000 -512.000000 -351.999969
v 960.000000 -384.000031 -351.999969
v 960.000000 -512.000000 -351.999969
v 849.515808 -448.000122 -1664.000000
vn -0.7040 0.7040 0.0936
vn -0.0000 -0.0000 1.0000
vn -0.0000 -0.9988 -0.0487
vn -0.0000 -0.0000 -1.0000
vn 0.9965 -0.0000 -0.0839
vt 1.157730 1.484375
vt 1.032730 1.484375
vt 1.140625 0.203125
vt 1.265625 0.203125
vt 0.937500 -0.375000
vt 0.812500 -0.500000
vt 0.937500 -0.500000
vt 0.937500 0.343750
vt 0.812500 0.343750
vt 0.704605 1.625000
vt 0.829605 1.625000
vt 0.829605 -0.437500
vt 0.704605 -0.437500
vt 0.829605 -0.312500
vt 1.625000 -0.312500
vt 0.343750 -0.375000
vt 0.343750 -0.500000
vt 1.625000 -0.437500
s 1
usemtl Tiles107_1K-JPG_Color_Gray
f 441/741/339 442/742/339 443/743/339 444/744/339
f 444/745/340 443/746/340 445/747/340
f 445/748/341 443/749/341 442/750/341 446/751/341
f 446/752/342 442/753/342 441/754/342
f 441/755/343 444/756/343 445/757/343 446/758/343
o entity4_brush3
v 1232.000000 -256.000183 -2432.000000
v 1104.000000 -336.000183 -2432.000000
v 1120.000000 -800.000061 -575.999939
v 1248.000000 -720.000061 -575.999939
v 1248.000000 -800.000061 -575.999939
v 1232.000000 -336.000183 -2432.000000
vn -0.5180 0.8288 0.2117
vn -0.0000 -0.0000 1.0000
vn -0.0000 -0.9701 -0.2425
vn -0.0000 -0.0000 -1.0000
vn 1.0000 -0.0000 -0.0086
vt -0.906250 2.250000
vt -0.781250 2.250000
vt -0.796875 0.437500
vt -0.921875 0.437500
vt -0.921875 -0.475000
vt -0.796875 -0.506250
vt -0.921875 -0.506250
vt -0.906250 -0.325000
vt -0.781250 -0.325000
vt -0.906250 -0.293750
vt 2.250000 -0.293750
vt 0.437500 -0.475000
vt 0.437500 -0.506250
vt 2.250000 -0.325000
s 1
usemtl Tiles108_1K-JPG_Color
f 447/759/344 448/760/344 449/761/344 450/762/344
f 450/763/345 449/764/345 451/765/345
f 451/762/346 449/761/346 448/760/346 452/759/346
f 452/766/347 448/767/347 447/768/347
f 447/769/348 450/770/348 451/771/348 452/772/348
o entity4_brush4
v 256.000000 -544.000122 -1920.000000
v 256.000000 -608.000122 -1920.000000
v 256.000000 -736.000122 -1472.000000
v 256.000000 -672.000122 -1472.000000
v 384.000000 -736.000122 -1472.000000
v 384.000000 -608.000122 -1920.000000
vn -1.0000 -0.0000 -0.0000
vn -0.0000 -0.0000 1.0000
vn -0.0000 -0.9615 -0.2747
vn -0.0000 -0.0000 -1.0000
vn 0.4333 0.8666 0.2476
vt 1.875000 -0.437500
vt 1.875000 -0.462500
vt 1.437500 -0.512500
vt 1.437500 -0.487500
vt 0.250000 -0.487500
vt 0.250000 -0.512500
vt 0.375000 -0.512500
vt 0.375000 1.437500
vt 0.250000 1.437500
vt 0.250000 1.875000
vt 0.375000 1.875000
vt 0.375000 -0.462500
vt 0.250000 -0.462500
vt 0.250000 -0.437500
s 1
usemtl Tiles108_1K-JPG_Color
f 453/773/349 454/774/349 455/775/349 456/776/349
f 456/777/350 455/778/350 457/779/350
f 457/780/351 455/781/351 454/782/351 458/783/351
f 458/784/352 454/785/352 453/786/352
f 453/782/353 456/781/353 457/780/353 458/783/353
o entity4_brush5
v 352.000000 -768.000000 -351.999939
v 352.000000 -768.000000 -319.999939
v 352.000000 255.999969 -320.000031
v 352.000000 255.999969 -352.000031
v 1696.000000 255.999969 -320.000031
v 1696.000000 -768.000000 -319.999939
v 1696.000000 -768.000000 -351.999939
v 1696.000000 255.999969 -352.000031
vn -1.0000 -0.0000 -0.0000
vn -0.0000 -0.0000 1.0000
vn -0.0000 -1.0000 -0.0000
vn -0.0000 1.0000 -0.0000
vn -0.0000 -0.0000 -1.0000
vn 1.0000 -0.0000 -0.0000
vt -0.203125 -0.093750
vt -0.218750 -0.093750
vt -0.218750 0.906250
vt -0.203125 0.906250
vt 0.453125 0.041385
vt -0.203125 0.041385
vt -0.203125 -0.005912
vt 0.453125 -0.005912
vt 2.312500 0.044341
vt 1.000000 0.044341
vt 1.000000 0.045819
vt 2.312500 0.045819
s 1
usemtl Tiles107_1K-JPG_Color_Gray
f 459/787/354 460/788/354 461/789/354 462/790/354
f 463/791/355 461/792/355 460/793/355 464/794/355
f 464/795/356 460/796/356 459/797/356 465/798/356
f 466/798/357 462/797/357 461/796/357 463/795/357
f 465/794/358 459/793/358 462/792/358 466/791/358
f 466/790/359 463/789/359 464/788/359 465/787/359
o entity4_brush6
v 256.000000 -672.000122 -1472.000000
v 256.000000 -736.000122 -1472.000000
v 256.000000 -800.000061 -1023.999939
v 256.000000 -736.000061 -1023.999939
v 384.000000 -800.000061 -1023.999939
v 384.000000 -736.000122 -1472.000000
vn -1.0000 -0.0000 -0.0000
vn -0.0000 -0.0000 1.0000
vn -0.0000 -0.9899 -0.1414
vn -0.0000 -0.0000 -1.0000
vn 0.4436 0.8872 0.1267
vt 0.875000 -0.462500
vt 0.875000 -0.487500
vt 0.437500 -0.512500
vt 0.437500 -0.487500
vt 0.250000 -0.487500
vt 0.250000 -0.512500
vt 0.375000 -0.512500
vt 0.375000 0.437500
vt 0.250000 0.437500
vt 0.250000 0.875000
vt 0.375000 0.875000
vt 0.375000 -0.487500
vt 0.250000 -0.462500
s 1
usemtl Tiles108_1K-JPG_Color
f 467/799/360 468/800/360 469/801/360 470/802/360
f 470/803/361 469/804/361 471/805/361
f 471/806/362 469/807/362 468/808/362 472/809/362
f 472/810/363 468/803/363 467/811/363
f 467/808/364 470/807/364 471/806/364 472/809/364
o entity4_brush7
v 256.000000 -736.000061 -1023.999939
v 256.000000 -800.000061 -1023.999939
v 256.000000 -800.000061 -575.999939
v 256.000000 -736.000061 -575.999939
v 384.000000 -800.000061 -575.999939
v 384.000000 -800.000061 -1023.999939
vn -1.0000 -0.0000 -0.0000
vn -0.0000 -0.0000 1.0000
vn -0.0000 -1.0000 -0.0000
vn -0.0000 -0.0000 -1.0000
vn 0.4472 0.8944 -0.0000
vt 0.875000 -0.487500
vt 0.875000 -0.512500
vt 0.437500 -0.512500
vt 0.437500 -0.487500
vt 0.250000 -0.487500
vt 0.250000 -0.512500
vt 0.375000 -0.512500
vt 0.375000 0.437500
vt 0.250000 0.437500
vt 0.250000 0.875000
vt 0.375000 0.875000
s 1
usemtl Tiles108_1K-JPG_Color
f 473/812/365 474/813/365 475/814/365 476/815/365
f 476/816/366 475/817/366 477/818/366
f 477/819/367 475/820/367 474/821/367 478/822/367
f 478/818/368 474/817/368 473/816/368
f 473/821/369 476/820/369 477/819/369 478/822/369
o entity4_brush8
v 256.000000 -352.000183 -2368.000000
v 256.000000 -416.000183 -2368.000000
v 256.000000 -608.000122 -1920.000000
v 256.000000 -544.000122 -1920.000000
v 384.000000 -608.000122 -1920.000000
v 384.000000 -416.000183 -2368.000000
vn -1.0000 -0.0000 -0.0000
vn -0.0000 -0.0000 1.0000
vn -0.0000 -0.9191 -0.3939
vn -0.0000 -0.0000 -1.0000
vn 0.4176 0.8352 0.3579
vt 1.875000 -0.412500
vt 1.875000 -0.437500
vt 1.437500 -0.512500
vt 1.437500 -0.487500
vt 0.250000 -0.487500
vt 0.250000 -0.512500
vt 0.375000 -0.512500
vt 0.375000 1.437500
vt 0.250000 1.437500
vt 0.250000 1.875000
vt 0.375000 1.875000
vt 0.375000 -0.437500
vt 0.250000 -0.437500
vt 0.250000 -0.412500
s 1
usemtl Tiles108_1K-JPG_Color
f 479/823/370 480/824/370 481/825/370 482/826/370
f 482/827/371 481/828/371 483/829/371
f 483/830/372 481/831/372 480/832/372 484/833/372
f 484/834/373 480/835/373 479/836/373
f 479/832/374 482/831/374 483/830/374 484/833/374
o entity4_brush9
v 256.000000 -96.000214 -2816.000000
v 256.000000 -160.000214 -2816.000000
v 256.000000 -416.000183 -2368.000000
v 256.000000 -352.000183 -2368.000000
v 384.000000 -416.000183 -2368.000000
v 384.000000 -160.000214 -2816.000000
vn -1.0000 -0.0000 -0.0000
vn -0.0000 -0.0000 1.0000
vn -0.0000 -0.8682 -0.4961
vn -0.0000 -0.0000 -1.0000
vn 0.3982 0.7964 0.4551
vt 1.875000 -0.387500
vt 1.875000 -0.412500
vt 1.437500 -0.512500
vt 1.437500 -0.487500
vt 0.250000 -0.487500
vt 0.250000 -0.512500
vt 0.375000 -0.512500
vt 0.375000 1.437500
vt 0.250000 1.437500
vt 0.250000 1.875000
vt 0.375000 1.875000
vt 0.375000 -0.412500
vt 0.250000 -0.412500
vt 0.250000 -0.387500
s 1
usemtl Tiles108_1K-JPG_Color
f 485/837/375 486/838/375 487/839/375 488/840/375
f 488/841/376 487/842/376 489/843/376
f 489/844/377 487/845/377 486/846/377 490/847/377
f 490/848/378 486/849/378 485/850/378
f 485/846/379 488/845/379 489/844/379 490/847/379
