# Blender 5.1.1
# www.blender.org
mtllib vertical_chamber_review.mtl
o entity0_black_0
v -256.000000 960.000000 -170.666748
v -256.000000 -64.000015 -170.666672
v -256.000000 -63.999989 170.666672
v -256.000000 960.000000 170.666595
v -208.000000 -64.000015 -218.666672
v -208.000000 960.000000 -218.666748
v -208.000000 960.000000 218.666595
v -208.000000 -63.999985 218.666672
vn -1.0000 -0.0000 -0.0000
vn -0.7071 -0.0000 -0.7071
vn -0.7071 -0.0000 0.7071
vn -0.0000 -1.0000 -0.0000
vn -0.0000 1.0000 -0.0000
vn 1.0000 -0.0000 -0.0000
vt 5.333333 30.000000
vt 5.333333 -2.000000
vt -5.333333 -2.000000
vt -5.333333 30.000000
vt 6.833333 -2.000000
vt 6.833333 30.000000
vt -6.833333 30.000000
vt -6.833333 -2.000000
vt -6.500000 -6.833333
vt -8.000000 -5.333333
vt -8.000000 5.333333
vt -6.500000 6.833333
s 1
usemtl __TB_empty
f 1/1/1 2/2/1 3/3/1 4/4/1
f 5/5/2 2/2/2 1/1/2 6/6/2
f 7/7/3 4/4/3 3/3/3 8/8/3
f 8/9/4 3/10/4 2/11/4 5/12/4
f 6/12/5 1/11/5 4/10/5 7/9/5
f 8/8/6 5/5/6 6/6/6 7/7/6
o entity0_black_1
v -208.000000 -63.999989 138.666672
v -208.000000 -63.999985 218.666672
v -208.000000 960.000000 218.666595
v -208.000000 960.000000 138.666595
v -170.666672 -63.999981 256.000000
v -170.666672 960.000000 255.999924
v -90.666664 960.000000 255.999924
v -90.666664 -63.999981 256.000000
vn -1.0000 -0.0000 -0.0000
vn -0.7071 -0.0000 0.7071
vn -0.0000 -0.0000 1.0000
vn -0.0000 -1.0000 -0.0000
vn -0.0000 1.0000 -0.0000
vn 0.7071 -0.0000 -0.7071
vt -4.333333 -2.000000
vt -6.833333 -2.000000
vt -6.833333 30.000000
vt -4.333333 30.000000
vt -8.000000 -2.000000
vt -8.000000 30.000000
vt -2.833333 30.000000
vt -5.333333 30.000000
vt -5.333333 -2.000000
vt -2.833333 -2.000000
vt -2.833333 -8.000000
vt -5.333333 -8.000000
vt -6.500000 -6.833333
vt -6.500000 -4.333333
vt -6.500000 -2.000000
vt -6.500000 30.000000
s 1
usemtl __TB_empty
f 9/13/7 10/14/7 11/15/7 12/16/7
f 11/15/8 10/14/8 13/17/8 14/18/8
f 15/19/9 14/20/9 13/21/9 16/22/9
f 16/23/10 13/24/10 10/25/10 9/26/10
f 12/26/11 11/25/11 14/24/11 15/23/11
f 16/22/12 9/27/12 12/28/12 15/19/12
o entity0_brush10
v 128.000000 928.000000 -208.000076
v 128.000000 928.000000 207.999924
v 128.000000 976.000000 207.999924
v 128.000000 976.000000 -208.000076
v 336.000000 976.000000 207.999924
v 336.000000 928.000000 207.999924
v 336.000000 928.000000 -208.000076
v 336.000000 976.000000 -208.000076
vn -1.0000 -0.0000 -0.0000
vn -0.0000 -0.0000 1.0000
vn -0.0000 -1.0000 -0.0000
vn -0.0000 1.0000 -0.0000
vn -0.0000 -0.0000 -1.0000
vn 1.0000 -0.0000 -0.0000
vt 6.500000 29.000000
vt -6.500000 29.000000
vt -6.500000 30.500000
vt 6.500000 30.500000
vt 10.500000 30.500000
vt 4.000000 30.500000
vt 4.000000 29.000000
vt 10.500000 29.000000
vt 10.500000 -6.500000
vt 4.000000 -6.500000
vt 4.000000 6.500000
vt 10.500000 6.500000
s 1
usemtl __TB_empty
f 17/29/13 18/30/13 19/31/13 20/32/13
f 21/33/14 19/34/14 18/35/14 22/36/14
f 22/37/15 18/38/15 17/39/15 23/40/15
f 24/40/16 20/39/16 19/38/16 21/37/16
f 23/36/17 17/35/17 20/34/17 24/33/17
f 24/32/18 21/31/18 22/30/18 23/29/18
o entity0_brush11
v 128.000000 -80.000015 -208.000000
v 128.000000 -79.999985 208.000000
v 128.000000 -31.999985 208.000000
v 128.000000 -32.000015 -208.000000
v 336.000000 -31.999985 208.000000
v 336.000000 -79.999985 208.000000
v 336.000000 -80.000015 -208.000000
v 336.000000 -32.000015 -208.000000
vn -1.0000 -0.0000 -0.0000
vn -0.0000 -0.0000 1.0000
vn -0.0000 -1.0000 -0.0000
vn -0.0000 1.0000 -0.0000
vn -0.0000 -0.0000 -1.0000
vn 1.0000 -0.0000 -0.0000
vt 6.500000 -2.500000
vt -6.500000 -2.500000
vt -6.500000 -1.000000
vt 6.500000 -1.000000
vt 10.500000 -1.000000
vt 4.000000 -1.000000
vt 4.000000 -2.500000
vt 10.500000 -2.500000
vt 10.500000 -6.500000
vt 4.000000 -6.500000
vt 4.000000 6.500000
vt 10.500000 6.500000
s 1
usemtl __TB_empty
f 25/41/19 26/42/19 27/43/19 28/44/19
f 29/45/20 27/46/20 26/47/20 30/48/20
f 30/49/21 26/50/21 25/51/21 31/52/21
f 32/52/22 28/51/22 27/50/22 29/49/22
f 31/48/23 25/47/23 28/46/23 32/45/23
f 32/44/24 29/43/24 30/42/24 31/41/24
o entity0_brush12
v 208.000000 -32.000004 -31.999998
v 208.000000 -31.999998 32.000004
v 208.000000 16.000002 31.999998
v 208.000000 15.999997 -32.000000
v 256.000000 16.000002 31.999998
v 256.000000 -31.999998 32.000004
v 256.000000 -32.000004 -31.999998
v 256.000000 15.999997 -32.000000
vn -1.0000 -0.0000 -0.0000
vn -0.0000 -0.0000 1.0000
vn -0.0000 -1.0000 -0.0000
vn -0.0000 1.0000 -0.0000
vn -0.0000 -0.0000 -1.0000
vn 1.0000 -0.0000 -0.0000
vt 1.000000 -1.000000
vt -1.000000 -1.000000
vt -1.000000 0.500000
vt 1.000000 0.500000
vt 8.000000 0.500000
vt 6.500000 0.500000
vt 6.500000 -1.000000
vt 8.000000 -1.000000
vt 6.500000 1.000000
vt 8.000000 1.000000
s 1
usemtl __TB_empty
f 33/53/25 34/54/25 35/55/25 36/56/25
f 37/57/26 35/58/26 34/59/26 38/60/26
f 38/60/27 34/59/27 33/61/27 39/62/27
f 40/62/28 36/61/28 35/59/28 37/60/28
f 39/60/29 33/59/29 36/58/29 40/57/29
f 40/56/30 37/55/30 38/54/30 39/53/30
o entity0_brush13
v 208.000000 -31.999998 32.000004
v 208.000000 -31.999992 96.000000
v 208.000000 16.000002 31.999998
v 256.000000 16.000002 31.999998
v 256.000000 -31.999992 96.000000
v 256.000000 -31.999998 32.000004
vn -1.0000 -0.0000 -0.0000
vn -0.0000 0.8000 0.6000
vn -0.0000 -1.0000 -0.0000
vn -0.0000 -0.0000 -1.0000
vn 1.0000 -0.0000 -0.0000
vt -1.000000 -1.000000
vt -3.000000 -1.000000
vt -1.000000 0.500000
vt 8.000000 -1.000000
vt 6.500000 -1.000000
vt 6.500000 -3.000000
vt 8.000000 -3.000000
vt 6.500000 0.500000
vt 8.000000 0.500000
s 1
usemtl __TB_empty
f 41/63/31 42/64/31 43/65/31
f 44/66/32 43/67/32 42/68/32 45/69/32
f 45/69/33 42/68/33 41/67/33 46/66/33
f 46/66/34 41/67/34 43/70/34 44/71/34
f 45/64/35 46/63/35 44/65/35
o entity0_brush14
v 208.000000 -32.000008 -96.000000
v 208.000000 -32.000004 -31.999998
v 208.000000 15.999997 -32.000000
v 256.000000 15.999997 -32.000000
v 256.000000 -32.000004 -31.999998
v 256.000000 -32.000008 -96.000000
vn -1.0000 -0.0000 -0.0000
vn -0.0000 -0.0000 1.0000
vn -0.0000 -1.0000 -0.0000
vn -0.0000 0.8000 -0.6000
vn 1.0000 -0.0000 -0.0000
vt 3.000000 -1.000000
vt 1.000000 -1.000000
vt 1.000000 0.500000
vt 8.000000 0.500000
vt 6.500000 0.500000
vt 6.500000 -1.000000
vt 8.000000 -1.000000
vt 8.000000 1.000000
vt 6.500000 1.000000
vt 6.500000 3.000000
vt 8.000000 3.000000
s 1
usemtl __TB_empty
f 47/72/36 48/73/36 49/74/36
f 50/75/37 49/76/37 48/77/37 51/78/37
f 51/79/38 48/80/38 47/81/38 52/82/38
f 52/82/39 47/81/39 49/80/39 50/79/39
f 51/73/40 52/72/40 50/74/40
o portal_entrance_2
v 336.000000 912.000000 -128.000076
v 336.000000 912.000000 143.999924
v 592.000000 912.000000 143.999924
v 592.000000 912.000000 -128.000076
vn -0.0000 -1.0000 -0.0000
vt 18.500000 -4.500000
vt 10.500000 -4.500000
vt 10.500000 4.000000
vt 18.500000 4.000000
s 1
usemtl __TB_empty
f 55/83/41 54/84/41 53/85/41 56/86/41
o entity0_white_16
v 592.000000 912.000000 -208.000076
v 592.000000 912.000000 207.999924
v 592.000000 960.000000 207.999924
v 592.000000 960.000000 -208.000076
v 602.666687 960.000000 207.999924
v 602.666687 912.000000 207.999924
v 672.000000 912.000000 138.666595
v 602.666687 912.000000 -208.000076
v 672.000000 912.000000 -138.666748
v 672.000000 960.000000 -138.666748
v 602.666687 960.000000 -208.000076
v 672.000000 960.000000 138.666595
vn -1.0000 -0.0000 -0.0000
vn -0.0000 -0.0000 1.0000
vn -0.0000 -1.0000 -0.0000
vn -0.0000 1.0000 -0.0000
vn -0.0000 -0.0000 -1.0000
vn 0.7071 -0.0000 0.7071
vn 0.7071 -0.0000 -0.7071
vn 1.0000 -0.0000 -0.0000
vt 6.500000 28.500000
vt -6.500000 28.500000
vt -6.500000 30.000000
vt 6.500000 30.000000
vt 18.833334 30.000000
vt 18.500000 30.000000
vt 18.500000 28.500000
vt 18.833334 28.500000
vt 21.000000 -4.333333
vt 18.833334 -6.500000
vt 18.500000 -6.500000
vt 18.500000 6.500000
vt 18.833334 6.500000
vt 21.000000 4.333333
vt -4.333333 30.000000
vt -4.333333 28.500000
vt 21.000000 28.500000
vt 21.000000 30.000000
vt 4.333333 28.500000
vt 4.333333 30.000000
s 1
usemtl __TB_empty
f 57/87/42 58/88/42 59/89/42 60/90/42
f 61/91/43 59/92/43 58/93/43 62/94/43
f 63/95/44 62/96/44 58/97/44 57/98/44 64/99/44 65/100/44
f 66/100/45 67/99/45 60/98/45 59/97/45 61/96/45 68/95/45
f 64/94/46 57/93/46 60/92/46 67/91/46
f 68/101/47 61/89/47 62/88/47 63/102/47
f 65/103/48 64/94/48 67/91/48 66/104/48
f 68/101/49 63/102/49 65/105/49 66/106/49
o entity0_brush17
v 256.000000 960.000000 -138.666748
v 256.000000 912.000000 -138.666748
v 256.000000 912.000000 138.666595
v 256.000000 960.000000 138.666595
v 325.333344 912.000000 207.999924
v 325.333344 960.000000 207.999924
v 325.333344 912.000000 -208.000076
v 325.333344 960.000000 -208.000076
v 336.000000 960.000000 207.999924
v 336.000000 912.000000 207.999924
v 336.000000 912.000000 -208.000076
v 336.000000 960.000000 -208.000076
vn -1.0000 -0.0000 -0.0000
vn -0.7071 -0.0000 0.7071
vn -0.7071 -0.0000 -0.7071
vn -0.0000 -0.0000 1.0000
vn -0.0000 -1.0000 -0.0000
vn -0.0000 1.0000 -0.0000
vn -0.0000 -0.0000 -1.0000
vn 1.0000 -0.0000 -0.0000
vt 4.333333 30.000000
vt 4.333333 28.500000
vt -4.333333 28.500000
vt -4.333333 30.000000
vt -6.500000 28.500000
vt -6.500000 30.000000
vt 10.166667 28.500000
vt 8.000000 28.500000
vt 8.000000 30.000000
vt 10.166667 30.000000
vt 10.500000 30.000000
vt 10.500000 28.500000
vt 10.500000 -6.500000
vt 10.166667 -6.500000
vt 8.000000 -4.333333
vt 8.000000 4.333333
vt 10.166667 6.500000
vt 10.500000 6.500000
vt 6.500000 30.000000
vt 6.500000 28.500000
s 1
usemtl __TB_empty
f 69/107/50 70/108/50 71/109/50 72/110/50
f 72/110/51 71/109/51 73/111/51 74/112/51
f 75/113/52 70/114/52 69/115/52 76/116/52
f 77/117/53 74/116/53 73/113/53 78/118/53
f 78/119/54 73/120/54 71/121/54 70/122/54 75/123/54 79/124/54
f 80/124/55 76/123/55 69/122/55 72/121/55 74/120/55 77/119/55
f 79/118/56 75/113/56 76/116/56 80/117/56
f 80/125/57 77/112/57 78/111/57 79/126/57
o entity0_white_18
v 336.000000 912.000000 -208.000076
v 336.000000 912.000000 -128.000076
v 336.000000 960.000000 -128.000076
v 336.000000 960.000000 -208.000076
v 592.000000 960.000000 -128.000076
v 592.000000 912.000000 -128.000076
v 592.000000 912.000000 -208.000076
v 592.000000 960.000000 -208.000076
vn -1.0000 -0.0000 -0.0000
vn -0.0000 -0.0000 1.0000
vn -0.0000 -1.0000 -0.0000
vn -0.0000 1.0000 -0.0000
vn -0.0000 -0.0000 -1.0000
vn 1.0000 -0.0000 -0.0000
vt 6.500000 28.500000
vt 4.000000 28.500000
vt 4.000000 30.000000
vt 6.500000 30.000000
vt 18.500000 30.000000
vt 10.500000 30.000000
vt 10.500000 28.500000
vt 18.500000 28.500000
vt 18.500000 4.000000
vt 10.500000 4.000000
vt 10.500000 6.500000
vt 18.500000 6.500000
s 1
usemtl __TB_empty
f 81/127/58 82/128/58 83/129/58 84/130/58
f 85/131/59 83/132/59 82/133/59 86/134/59
f 86/135/60 82/136/60 81/137/60 87/138/60
f 88/138/61 84/137/61 83/136/61 85/135/61
f 87/134/62 81/133/62 84/132/62 88/131/62
f 88/130/63 85/129/63 86/128/63 87/127/63
o entity0_white_19
v 336.000000 912.000000 143.999924
v 336.000000 912.000000 207.999924
v 336.000000 960.000000 207.999924
v 336.000000 960.000000 143.999924
v 592.000000 960.000000 207.999924
v 592.000000 912.000000 207.999924
v 592.000000 912.000000 143.999924
v 592.000000 960.000000 143.999924
vn -1.0000 -0.0000 -0.0000
vn -0.0000 -0.0000 1.0000
vn -0.0000 -1.0000 -0.0000
vn -0.0000 1.0000 -0.0000
vn -0.0000 -0.0000 -1.0000
vn 1.0000 -0.0000 -0.0000
vt -4.500000 28.500000
vt -6.500000 28.500000
vt -6.500000 30.000000
vt -4.500000 30.000000
vt 18.500000 30.000000
vt 10.500000 30.000000
vt 10.500000 28.500000
vt 18.500000 28.500000
vt 18.500000 -6.500000
vt 10.500000 -6.500000
vt 10.500000 -4.500000
vt 18.500000 -4.500000
s 1
usemtl __TB_empty
f 89/139/64 90/140/64 91/141/64 92/142/64
f 93/143/65 91/144/65 90/145/65 94/146/65
f 94/147/66 90/148/66 89/149/66 95/150/66
f 96/150/67 92/149/67 91/148/67 93/147/67
f 95/146/68 89/145/68 92/144/68 96/143/68
f 96/142/69 93/141/69 94/140/69 95/139/69
o entity0_black_2
v -208.000000 960.000000 -138.666748
v -208.000000 960.000000 -218.666748
v -208.000000 -64.000015 -218.666672
v -208.000000 -64.000008 -138.666672
v -170.666672 -64.000023 -256.000000
v -170.666672 960.000000 -256.000061
v -90.666664 -64.000023 -256.000000
v -90.666664 960.000000 -256.000061
vn -1.0000 -0.0000 -0.0000
vn -0.7071 -0.0000 -0.7071
vn -0.0000 -1.0000 -0.0000
vn -0.0000 1.0000 -0.0000
vn -0.0000 -0.0000 -1.0000
vn 0.7071 -0.0000 0.7071
vt 4.333333 30.000000
vt 6.833333 30.000000
vt 6.833333 -2.000000
vt 4.333333 -2.000000
vt 8.000000 -2.000000
vt 8.000000 30.000000
vt -6.500000 4.333333
vt -6.500000 6.833333
vt -5.333333 8.000000
vt -2.833333 8.000000
vt -2.833333 -2.000000
vt -5.333333 -2.000000
vt -5.333333 30.000000
vt -2.833333 30.000000
s 1
usemtl __TB_empty
f 97/151/70 98/152/70 99/153/70 100/154/70
f 101/155/71 99/153/71 98/152/71 102/156/71
f 100/157/72 99/158/72 101/159/72 103/160/72
f 104/160/73 102/159/73 98/158/73 97/157/73
f 103/161/74 101/162/74 102/163/74 104/164/74
f 104/156/75 97/151/75 100/154/75 103/155/75
o entity0_black_20
v 128.000000 -64.000015 -208.000000
v 128.000000 -63.999985 208.000000
v 128.000000 -15.999985 208.000000
v 128.000000 -16.000015 -208.000000
v 138.666672 -15.999985 208.000000
v 138.666672 -63.999985 208.000000
v 208.000000 -63.999989 138.666672
v 138.666672 -64.000015 -208.000000
v 208.000000 -64.000008 -138.666672
v 208.000000 -16.000010 -138.666672
v 138.666672 -16.000015 -208.000000
v 208.000000 -15.999990 138.666672
vn -1.0000 -0.0000 -0.0000
vn -0.0000 -0.0000 1.0000
vn -0.0000 -1.0000 -0.0000
vn -0.0000 1.0000 -0.0000
vn -0.0000 -0.0000 -1.0000
vn 0.7071 -0.0000 -0.7071
vn 0.7071 -0.0000 0.7071
vn 1.0000 -0.0000 -0.0000
vt 6.500000 -2.000000
vt -6.500000 -2.000000
vt -6.500000 -0.500000
vt 6.500000 -0.500000
vt 4.333333 -0.500000
vt 4.000000 -0.500000
vt 4.000000 -2.000000
vt 4.333333 -2.000000
vt 6.500000 -4.333333
vt 4.333333 -6.500000
vt 4.000000 -6.500000
vt 4.000000 6.500000
vt 4.333333 6.500000
vt 6.500000 4.333333
vt -4.333333 -0.500000
vt -4.333333 -2.000000
s 1
usemtl __TB_empty
f 105/165/76 106/166/76 107/167/76 108/168/76
f 109/169/77 107/170/77 106/171/77 110/172/77
f 111/173/78 110/174/78 106/175/78 105/176/78 112/177/78 113/178/78
f 114/178/79 115/177/79 108/176/79 107/175/79 109/174/79 116/173/79
f 112/172/80 105/171/80 108/170/80 115/169/80
f 113/172/81 112/165/81 115/168/81 114/169/81
f 116/179/82 109/167/82 110/166/82 111/180/82
f 113/172/83 114/169/83 116/179/83 111/180/83
o entity0_black_21
v -208.000000 -16.000010 -138.666672
v -208.000000 -64.000008 -138.666672
v -208.000000 -63.999989 138.666672
v -208.000000 -15.999990 138.666672
v -138.666672 -63.999985 208.000000
v -138.666672 -15.999985 208.000000
v -138.666672 -64.000015 -208.000000
v -138.666672 -16.000015 -208.000000
v -128.000000 -15.999985 208.000000
v -128.000000 -63.999985 208.000000
v -128.000000 -64.000015 -208.000000
v -128.000000 -16.000015 -208.000000
vn -1.0000 -0.0000 -0.0000
vn -0.7071 -0.0000 0.7071
vn -0.7071 -0.0000 -0.7071
vn -0.0000 -0.0000 1.0000
vn -0.0000 -1.0000 -0.0000
vn -0.0000 1.0000 -0.0000
vn -0.0000 -0.0000 -1.0000
vn 1.0000 -0.0000 -0.0000
vt 4.333333 -0.500000
vt 4.333333 -2.000000
vt -4.333333 -2.000000
vt -4.333333 -0.500000
vt -6.500000 -2.000000
vt -6.500000 -0.500000
vt -4.000000 -0.500000
vt -4.000000 -2.000000
vt -4.000000 -6.500000
vt -4.333333 -6.500000
vt -6.500000 -4.333333
vt -6.500000 4.333333
vt -4.333333 6.500000
vt -4.000000 6.500000
vt 6.500000 -0.500000
vt 6.500000 -2.000000
s 1
usemtl __TB_empty
f 117/181/84 118/182/84 119/183/84 120/184/84
f 120/184/85 119/183/85 121/185/85 122/186/85
f 123/183/86 118/185/86 117/186/86 124/184/86
f 125/187/87 122/184/87 121/183/87 126/188/87
f 126/189/88 121/190/88 119/191/88 118/192/88 123/193/88 127/194/88
f 128/194/89 124/193/89 117/192/89 120/191/89 122/190/89 125/189/89
f 127/188/90 123/183/90 124/184/90 128/187/90
f 128/195/91 125/186/91 126/185/91 127/196/91
o entity0_white_22
v 592.000000 -64.000015 -208.000000
v 592.000000 -63.999985 208.000000
v 592.000000 -15.999985 208.000000
v 592.000000 -16.000015 -208.000000
v 602.666687 -15.999985 208.000000
v 602.666687 -63.999985 208.000000
v 672.000000 -63.999989 138.666672
v 602.666687 -64.000015 -208.000000
v 672.000000 -64.000008 -138.666672
v 672.000000 -16.000010 -138.666672
v 602.666687 -16.000015 -208.000000
v 672.000000 -15.999990 138.666672
vn -1.0000 -0.0000 -0.0000
vn -0.0000 -0.0000 1.0000
vn -0.0000 -1.0000 -0.0000
vn -0.0000 1.0000 -0.0000
vn -0.0000 -0.0000 -1.0000
vn 0.7071 -0.0000 -0.7071
vn 0.7071 -0.0000 0.7071
vn 1.0000 -0.0000 -0.0000
vt 6.500000 -2.000000
vt -6.500000 -2.000000
vt -6.500000 -0.500000
vt 6.500000 -0.500000
vt 18.833334 -0.500000
vt 18.500000 -0.500000
vt 18.500000 -2.000000
vt 18.833334 -2.000000
vt 21.000000 -4.333333
vt 18.833334 -6.500000
vt 18.500000 -6.500000
vt 18.500000 6.500000
vt 18.833334 6.500000
vt 21.000000 4.333333
vt 4.333333 -2.000000
vt 4.333333 -0.500000
vt -4.333333 -0.500000
vt -4.333333 -2.000000
s 1
usemtl __TB_empty
f 129/197/92 130/198/92 131/199/92 132/200/92
f 133/201/93 131/202/93 130/203/93 134/204/93
f 135/205/94 134/206/94 130/207/94 129/208/94 136/209/94 137/210/94
f 138/210/95 139/209/95 132/208/95 131/207/95 133/206/95 140/205/95
f 136/204/96 129/203/96 132/202/96 139/201/96
f 137/211/97 136/197/97 139/200/97 138/212/97
f 140/213/98 133/199/98 134/198/98 135/214/98
f 137/211/99 138/212/99 140/213/99 135/214/99
o entity0_white_23
v 256.000000 -16.000010 -138.666672
v 256.000000 -64.000008 -138.666672
v 256.000000 -63.999989 138.666672
v 256.000000 -15.999990 138.666672
v 325.333344 -63.999985 208.000000
v 325.333344 -15.999985 208.000000
v 325.333344 -64.000015 -208.000000
v 325.333344 -16.000015 -208.000000
v 336.000000 -15.999985 208.000000
v 336.000000 -63.999985 208.000000
v 336.000000 -64.000015 -208.000000
v 336.000000 -16.000015 -208.000000
vn -1.0000 -0.0000 -0.0000
vn -0.7071 -0.0000 0.7071
vn -0.7071 -0.0000 -0.7071
vn -0.0000 -0.0000 1.0000
vn -0.0000 -1.0000 -0.0000
vn -0.0000 1.0000 -0.0000
vn -0.0000 -0.0000 -1.0000
vn 1.0000 -0.0000 -0.0000
vt 4.333333 -0.500000
vt 4.333333 -2.000000
vt -4.333333 -2.000000
vt -4.333333 -0.500000
vt -6.500000 -2.000000
vt -6.500000 -0.500000
vt 10.166667 -2.000000
vt 8.000000 -2.000000
vt 8.000000 -0.500000
vt 10.166667 -0.500000
vt 10.500000 -0.500000
vt 10.500000 -2.000000
vt 10.500000 -6.500000
vt 10.166667 -6.500000
vt 8.000000 -4.333333
vt 8.000000 4.333333
vt 10.166667 6.500000
vt 10.500000 6.500000
vt 6.500000 -0.500000
vt 6.500000 -2.000000
s 1
usemtl __TB_empty
f 141/215/100 142/216/100 143/217/100 144/218/100
f 144/218/101 143/217/101 145/219/101 146/220/101
f 147/221/102 142/222/102 141/223/102 148/224/102
f 149/225/103 146/224/103 145/221/103 150/226/103
f 150/227/104 145/228/104 143/229/104 142/230/104 147/231/104 151/232/104
f 152/232/105 148/231/105 141/230/105 144/229/105 146/228/105 149/227/105
f 151/226/106 147/221/106 148/224/106 152/225/106
f 152/233/107 149/220/107 150/219/107 151/234/107
o entity0_black_24
v 128.000000 912.000000 -208.000076
v 128.000000 912.000000 207.999924
v 128.000000 960.000000 207.999924
v 128.000000 960.000000 -208.000076
v 138.666672 960.000000 207.999924
v 138.666672 912.000000 207.999924
v 208.000000 912.000000 138.666595
v 138.666672 912.000000 -208.000076
v 208.000000 912.000000 -138.666748
v 208.000000 960.000000 -138.666748
v 138.666672 960.000000 -208.000076
v 208.000000 960.000000 138.666595
vn -1.0000 -0.0000 -0.0000
vn -0.0000 -0.0000 1.0000
vn -0.0000 -1.0000 -0.0000
vn -0.0000 1.0000 -0.0000
vn -0.0000 -0.0000 -1.0000
vn 0.7071 -0.0000 -0.7071
vn 0.7071 -0.0000 0.7071
vn 1.0000 -0.0000 -0.0000
vt 6.500000 28.500000
vt -6.500000 28.500000
vt -6.500000 30.000000
vt 6.500000 30.000000
vt 4.333333 30.000000
vt 4.000000 30.000000
vt 4.000000 28.500000
vt 4.333333 28.500000
vt 6.500000 -4.333333
vt 4.333333 -6.500000
vt 4.000000 -6.500000
vt 4.000000 6.500000
vt 4.333333 6.500000
vt 6.500000 4.333333
vt -4.333333 30.000000
vt -4.333333 28.500000
s 1
usemtl __TB_empty
f 153/235/108 154/236/108 155/237/108 156/238/108
f 157/239/109 155/240/109 154/241/109 158/242/109
f 159/243/110 158/244/110 154/245/110 153/246/110 160/247/110 161/248/110
f 162/248/111 163/247/111 156/246/111 155/245/111 157/244/111 164/243/111
f 160/242/112 153/241/112 156/240/112 163/239/112
f 161/242/113 160/235/113 163/238/113 162/239/113
f 164/249/114 157/237/114 158/236/114 159/250/114
f 161/242/115 162/239/115 164/249/115 159/250/115
o entity0_black_25
v -208.000000 960.000000 -138.666748
v -208.000000 912.000000 -138.666748
v -208.000000 912.000000 138.666595
v -208.000000 960.000000 138.666595
v -138.666672 912.000000 207.999924
v -138.666672 960.000000 207.999924
v -138.666672 912.000000 -208.000076
v -138.666672 960.000000 -208.000076
v -128.000000 960.000000 207.999924
v -128.000000 912.000000 207.999924
v -128.000000 912.000000 -208.000076
v -128.000000 960.000000 -208.000076
vn -1.0000 -0.0000 -0.0000
vn -0.7071 -0.0000 0.7071
vn -0.7071 -0.0000 -0.7071
vn -0.0000 -0.0000 1.0000
vn -0.0000 -1.0000 -0.0000
vn -0.0000 1.0000 -0.0000
vn -0.0000 -0.0000 -1.0000
vn 1.0000 -0.0000 -0.0000
vt 4.333333 30.000000
vt 4.333333 28.500000
vt -4.333333 28.500000
vt -4.333333 30.000000
vt -6.500000 28.500000
vt -6.500000 30.000000
vt -4.000000 30.000000
vt -4.000000 28.500000
vt -4.000000 -6.500000
vt -4.333333 -6.500000
vt -6.500000 -4.333333
vt -6.500000 4.333333
vt -4.333333 6.500000
vt -4.000000 6.500000
vt 6.500000 30.000000
vt 6.500000 28.500000
s 1
usemtl __TB_empty
f 165/251/116 166/252/116 167/253/116 168/254/116
f 168/254/117 167/253/117 169/255/117 170/256/117
f 171/253/118 166/255/118 165/256/118 172/254/118
f 173/257/119 170/254/119 169/253/119 174/258/119
f 174/259/120 169/260/120 167/261/120 166/262/120 171/263/120 175/264/120
f 176/264/121 172/263/121 165/262/121 168/261/121 170/260/121 173/259/121
f 175/258/122 171/253/122 172/254/122 176/257/122
f 176/265/123 173/256/123 174/255/123 175/266/123
o portal_entrance_1
v -128.000000 912.000000 -128.000076
v -128.000000 912.000000 143.999924
v 128.000000 912.000000 143.999924
v 128.000000 912.000000 -128.000076
vn -0.0000 -1.0000 -0.0000
vt 4.000000 -4.500000
vt -4.000000 -4.500000
vt -4.000000 4.000000
vt 4.000000 4.000000
s 1
usemtl __TB_empty
f 179/267/124 178/268/124 177/269/124 180/270/124
o entity0_black_27
v -128.000000 -63.999989 144.000000
v -128.000000 -63.999985 208.000000
v -128.000000 -15.999985 208.000000
v -128.000000 -15.999990 144.000000
v 128.000000 -15.999985 208.000000
v 128.000000 -63.999985 208.000000
v 128.000000 -63.999989 144.000000
v 128.000000 -15.999990 144.000000
vn -1.0000 -0.0000 -0.0000
vn -0.0000 -0.0000 1.0000
vn -0.0000 -1.0000 -0.0000
vn -0.0000 1.0000 -0.0000
vn -0.0000 -0.0000 -1.0000
vn 1.0000 -0.0000 -0.0000
vt -4.500000 -2.000000
vt -6.500000 -2.000000
vt -6.500000 -0.500000
vt -4.500000 -0.500000
vt 4.000000 -0.500000
vt -4.000000 -0.500000
vt -4.000000 -2.000000
vt 4.000000 -2.000000
vt 4.000000 -6.500000
vt -4.000000 -6.500000
vt -4.000000 -4.500000
vt 4.000000 -4.500000
s 1
usemtl __TB_empty
f 181/271/125 182/272/125 183/273/125 184/274/125
f 185/275/126 183/276/126 182/277/126 186/278/126
f 186/279/127 182/280/127 181/281/127 187/282/127
f 188/282/128 184/281/128 183/280/128 185/279/128
f 187/278/129 181/277/129 184/276/129 188/275/129
f 188/274/130 185/273/130 186/272/130 187/271/130
o entity0_black_28
v -128.000000 -64.000015 -208.000000
v -128.000000 -64.000008 -127.999992
v -128.000000 -16.000010 -128.000000
v -128.000000 -16.000015 -208.000000
v 128.000000 -16.000010 -128.000000
v 128.000000 -64.000008 -127.999992
v 128.000000 -64.000015 -208.000000
v 128.000000 -16.000015 -208.000000
vn -1.0000 -0.0000 -0.0000
vn -0.0000 -0.0000 1.0000
vn -0.0000 -1.0000 -0.0000
vn -0.0000 1.0000 -0.0000
vn -0.0000 -0.0000 -1.0000
vn 1.0000 -0.0000 -0.0000
vt 6.500000 -2.000000
vt 4.000000 -2.000000
vt 4.000000 -0.500000
vt 6.500000 -0.500000
vt -4.000000 -0.500000
vt -4.000000 -2.000000
vt 4.000000 4.000000
vt -4.000000 4.000000
vt -4.000000 6.500000
vt 4.000000 6.500000
s 1
usemtl __TB_empty
f 189/283/131 190/284/131 191/285/131 192/286/131
f 193/285/132 191/287/132 190/288/132 194/284/132
f 194/289/133 190/290/133 189/291/133 195/292/133
f 196/292/134 192/291/134 191/290/134 193/289/134
f 195/284/135 189/288/135 192/287/135 196/285/135
f 196/286/136 193/285/136 194/284/136 195/283/136
o entity0_white_29
v 336.000000 -63.999989 144.000000
v 336.000000 -63.999985 208.000000
v 336.000000 -15.999985 208.000000
v 336.000000 -15.999990 144.000000
v 592.000000 -15.999985 208.000000
v 592.000000 -63.999985 208.000000
v 592.000000 -63.999989 144.000000
v 592.000000 -15.999990 144.000000
vn -1.0000 -0.0000 -0.0000
vn -0.0000 -0.0000 1.0000
vn -0.0000 -1.0000 -0.0000
vn -0.0000 1.0000 -0.0000
vn -0.0000 -0.0000 -1.0000
vn 1.0000 -0.0000 -0.0000
vt -4.500000 -2.000000
vt -6.500000 -2.000000
vt -6.500000 -0.500000
vt -4.500000 -0.500000
vt 18.500000 -0.500000
vt 10.500000 -0.500000
vt 10.500000 -2.000000
vt 18.500000 -2.000000
vt 18.500000 -6.500000
vt 10.500000 -6.500000
vt 10.500000 -4.500000
vt 18.500000 -4.500000
s 1
usemtl __TB_empty
f 197/293/137 198/294/137 199/295/137 200/296/137
f 201/297/138 199/298/138 198/299/138 202/300/138
f 202/301/139 198/302/139 197/303/139 203/304/139
f 204/304/140 200/303/140 199/302/140 201/301/140
f 203/300/141 197/299/141 200/298/141 204/297/141
f 204/296/142 201/295/142 202/294/142 203/293/142
o entity0_black_3
v -90.666664 -64.000023 -256.000000
v -138.666672 -64.000015 -208.000000
v -138.666672 960.000000 -208.000076
v -90.666664 960.000000 -256.000061
v 138.666672 960.000000 -208.000076
v 138.666672 -64.000015 -208.000000
v 90.666664 -64.000023 -256.000000
v 90.666664 960.000000 -256.000061
vn -0.7071 -0.0000 -0.7071
vn -0.0000 -0.0000 1.0000
vn -0.0000 -1.0000 -0.0000
vn -0.0000 1.0000 -0.0000
vn -0.0000 -0.0000 -1.0000
vn 0.7071 -0.0000 -0.7071
vt 8.000000 -2.000000
vt 6.500000 -2.000000
vt 6.500000 30.000000
vt 8.000000 30.000000
vt 4.333333 30.000000
vt -4.333333 30.000000
vt -4.333333 -2.000000
vt 4.333333 -2.000000
vt 4.333333 6.500000
vt -4.333333 6.500000
vt -2.833333 8.000000
vt 2.833333 8.000000
vt 2.833333 -2.000000
vt -2.833333 -2.000000
vt -2.833333 30.000000
vt 2.833333 30.000000
s 1
usemtl __TB_empty
f 205/305/143 206/306/143 207/307/143 208/308/143
f 209/309/144 207/310/144 206/311/144 210/312/144
f 210/313/145 206/314/145 205/315/145 211/316/145
f 212/316/146 208/315/146 207/314/146 209/313/146
f 211/317/147 205/318/147 208/319/147 212/320/147
f 212/308/148 209/307/148 210/306/148 211/305/148
o entity0_white_30
v 336.000000 -64.000015 -208.000000
v 336.000000 -64.000008 -127.999992
v 336.000000 -16.000010 -128.000000
v 336.000000 -16.000015 -208.000000
v 592.000000 -16.000010 -128.000000
v 592.000000 -64.000008 -127.999992
v 592.000000 -64.000015 -208.000000
v 592.000000 -16.000015 -208.000000
vn -1.0000 -0.0000 -0.0000
vn -0.0000 -0.0000 1.0000
vn -0.0000 -1.0000 -0.0000
vn -0.0000 1.0000 -0.0000
vn -0.0000 -0.0000 -1.0000
vn 1.0000 -0.0000 -0.0000
vt 6.500000 -2.000000
vt 4.000000 -2.000000
vt 4.000000 -0.500000
vt 6.500000 -0.500000
vt 18.500000 -0.500000
vt 10.500000 -0.500000
vt 10.500000 -2.000000
vt 18.500000 -2.000000
vt 18.500000 4.000000
vt 10.500000 4.000000
vt 10.500000 6.500000
vt 18.500000 6.500000
s 1
usemtl __TB_empty
f 213/321/149 214/322/149 215/323/149 216/324/149
f 217/325/150 215/326/150 214/327/150 218/328/150
f 218/329/151 214/330/151 213/331/151 219/332/151
f 220/332/152 216/331/152 215/330/152 217/329/152
f 219/328/153 213/327/153 216/326/153 220/325/153
f 220/324/154 217/323/154 218/322/154 219/321/154
o entity0_brush31
v -128.000000 912.000000 143.999924
v -128.000000 912.000000 207.999924
v -128.000000 960.000000 207.999924
v -128.000000 960.000000 143.999924
v 128.000000 960.000000 207.999924
v 128.000000 912.000000 207.999924
v 128.000000 912.000000 143.999924
v 128.000000 960.000000 143.999924
vn -1.0000 -0.0000 -0.0000
vn -0.0000 -0.0000 1.0000
vn -0.0000 -1.0000 -0.0000
vn -0.0000 1.0000 -0.0000
vn -0.0000 -0.0000 -1.0000
vn 1.0000 -0.0000 -0.0000
vt -4.500000 28.500000
vt -6.500000 28.500000
vt -6.500000 30.000000
vt -4.500000 30.000000
vt 4.000000 30.000000
vt -4.000000 30.000000
vt -4.000000 28.500000
vt 4.000000 28.500000
vt 4.000000 -6.500000
vt -4.000000 -6.500000
vt -4.000000 -4.500000
vt 4.000000 -4.500000
s 1
usemtl __TB_empty
f 221/333/155 222/334/155 223/335/155 224/336/155
f 225/337/156 223/338/156 222/339/156 226/340/156
f 226/341/157 222/342/157 221/343/157 227/344/157
f 228/344/158 224/343/158 223/342/158 225/341/158
f 227/340/159 221/339/159 224/338/159 228/337/159
f 228/336/160 225/335/160 226/334/160 227/333/160
o entity0_black_32
v -128.000000 912.000000 -208.000076
v -128.000000 912.000000 -128.000076
v -128.000000 960.000000 -128.000076
v -128.000000 960.000000 -208.000076
v 128.000000 960.000000 -128.000076
v 128.000000 912.000000 -128.000076
v 128.000000 912.000000 -208.000076
v 128.000000 960.000000 -208.000076
vn -1.0000 -0.0000 -0.0000
vn -0.0000 -0.0000 1.0000
vn -0.0000 -1.0000 -0.0000
vn -0.0000 1.0000 -0.0000
vn -0.0000 -0.0000 -1.0000
vn 1.0000 -0.0000 -0.0000
vt 6.500000 28.500000
vt 4.000000 28.500000
vt 4.000000 30.000000
vt 6.500000 30.000000
vt -4.000000 30.000000
vt -4.000000 28.500000
vt 4.000000 4.000000
vt -4.000000 4.000000
vt -4.000000 6.500000
vt 4.000000 6.500000
s 1
usemtl __TB_empty
f 229/345/161 230/346/161 231/347/161 232/348/161
f 233/347/162 231/349/162 230/350/162 234/346/162
f 234/351/163 230/352/163 229/353/163 235/354/163
f 236/354/164 232/353/164 231/352/164 233/351/164
f 235/346/165 229/350/165 232/349/165 236/347/165
f 236/348/166 233/347/166 234/346/166 235/345/166
o portal_exit_2
v 336.000000 -15.999990 144.000000
v 336.000000 -16.000010 -128.000000
v 592.000000 -15.999990 144.000000
v 592.000000 -16.000010 -128.000000
vn -0.0000 1.0000 -0.0000
vt 18.500000 4.000000
vt 10.500000 4.000000
vt 10.500000 -4.500000
vt 18.500000 -4.500000
s 1
usemtl __TB_empty
f 240/355/167 238/356/167 237/357/167 239/358/167
o portal_exit_1
v -128.000000 -15.999990 144.000000
v -128.000000 -16.000010 -128.000000
v 128.000000 -15.999990 144.000000
v 128.000000 -16.000010 -128.000000
vn -0.0000 1.0000 -0.0000
vt 4.000000 4.000000
vt -4.000000 4.000000
vt -4.000000 -4.500000
vt 4.000000 -4.500000
s 1
usemtl __TB_empty
f 244/359/168 242/360/168 241/361/168 243/362/168
o entity0_brick_35
v 128.000000 -32.000015 -224.000000
v 128.000000 -32.000015 -208.000000
v 128.000000 928.000000 -208.000076
v 128.000000 928.000000 -224.000076
v 336.000000 928.000000 -208.000076
v 336.000000 -32.000015 -208.000000
v 336.000000 -32.000015 -224.000000
v 336.000000 928.000000 -224.000076
vn -1.0000 -0.0000 -0.0000
vn -0.0000 -0.0000 1.0000
vn -0.0000 -1.0000 -0.0000
vn -0.0000 1.0000 -0.0000
vn -0.0000 -0.0000 -1.0000
vn 1.0000 -0.0000 -0.0000
vt 7.000000 -1.000000
vt 6.500000 -1.000000
vt 6.500000 29.000000
vt 7.000000 29.000000
vt 10.500000 29.000000
vt 4.000000 29.000000
vt 4.000000 -1.000000
vt 10.500000 -1.000000
vt 10.500000 6.500000
vt 4.000000 6.500000
vt 4.000000 7.000000
vt 10.500000 7.000000
s 1
usemtl __TB_empty
f 245/363/169 246/364/169 247/365/169 248/366/169
f 249/367/170 247/368/170 246/369/170 250/370/170
f 250/371/171 246/372/171 245/373/171 251/374/171
f 252/374/172 248/373/172 247/372/172 249/371/172
f 251/370/173 245/369/173 248/368/173 252/367/173
f 252/366/174 249/365/174 250/364/174 251/363/174
o entity0_brick_36
v 128.000000 -31.999985 208.000000
v 128.000000 -31.999983 224.000000
v 128.000000 928.000000 223.999924
v 128.000000 928.000000 207.999924
v 336.000000 928.000000 223.999924
v 336.000000 -31.999983 224.000000
v 336.000000 -31.999985 208.000000
v 336.000000 928.000000 207.999924
vn -1.0000 -0.0000 -0.0000
vn -0.0000 -0.0000 1.0000
vn -0.0000 -1.0000 -0.0000
vn -0.0000 1.0000 -0.0000
vn -0.0000 -0.0000 -1.0000
vn 1.0000 -0.0000 -0.0000
vt -6.500000 -1.000000
vt -7.000000 -1.000000
vt -7.000000 29.000000
vt -6.500000 29.000000
vt 10.500000 29.000000
vt 4.000000 29.000000
vt 4.000000 -1.000000
vt 10.500000 -1.000000
vt 10.500000 -7.000000
vt 4.000000 -7.000000
vt 4.000000 -6.500000
vt 10.500000 -6.500000
s 1
usemtl __TB_empty
f 253/375/175 254/376/175 255/377/175 256/378/175
f 257/379/176 255/380/176 254/381/176 258/382/176
f 258/383/177 254/384/177 253/385/177 259/386/177
f 260/386/178 256/385/178 255/384/178 257/383/178
f 259/382/179 253/381/179 256/380/179 260/379/179
f 260/378/180 257/377/180 258/376/180 259/375/180
o entity0_black_4
v -138.666672 -63.999985 208.000000
v -90.666664 -63.999981 256.000000
v -90.666664 960.000000 255.999924
v -138.666672 960.000000 207.999924
v 90.666664 960.000000 255.999924
v 90.666664 -63.999981 256.000000
v 138.666672 -63.999985 208.000000
v 138.666672 960.000000 207.999924
vn -0.7071 -0.0000 0.7071
vn -0.0000 -0.0000 1.0000
vn -0.0000 -1.0000 -0.0000
vn -0.0000 1.0000 -0.0000
vn -0.0000 -0.0000 -1.0000
vn 0.7071 -0.0000 0.7071
vt -6.500000 -2.000000
vt -8.000000 -2.000000
vt -8.000000 30.000000
vt -6.500000 30.000000
vt 2.833333 30.000000
vt -2.833333 30.000000
vt -2.833333 -2.000000
vt 2.833333 -2.000000
vt 2.833333 -8.000000
vt -2.833333 -8.000000
vt -4.333333 -6.500000
vt 4.333333 -6.500000
vt 4.333333 -2.000000
vt -4.333333 -2.000000
vt -4.333333 30.000000
vt 4.333333 30.000000
s 1
usemtl __TB_empty
f 261/387/181 262/388/181 263/389/181 264/390/181
f 265/391/182 263/392/182 262/393/182 266/394/182
f 266/395/183 262/396/183 261/397/183 267/398/183
f 268/398/184 264/397/184 263/396/184 265/395/184
f 267/399/185 261/400/185 264/401/185 268/402/185
f 267/387/186 268/390/186 265/389/186 266/388/186
o entity0_white_5
v 672.000000 -64.000015 -218.666672
v 672.000000 -63.999985 218.666672
v 672.000000 960.000000 218.666595
v 672.000000 960.000000 -218.666748
v 720.000000 -63.999989 170.666672
v 720.000000 -64.000015 -170.666672
v 720.000000 960.000000 -170.666748
v 720.000000 960.000000 170.666595
vn -1.0000 -0.0000 -0.0000
vn -0.0000 -1.0000 -0.0000
vn -0.0000 1.0000 -0.0000
vn 0.7071 -0.0000 0.7071
vn 0.7071 -0.0000 -0.7071
vn 1.0000 -0.0000 -0.0000
vt 6.833333 -2.000000
vt -6.833333 -2.000000
vt -6.833333 30.000000
vt 6.833333 30.000000
vt 22.500000 -5.333333
vt 21.000000 -6.833333
vt 21.000000 6.833333
vt 22.500000 5.333333
vt 22.500000 30.000000
vt 21.000000 30.000000
vt 21.000000 -2.000000
vt 22.500000 -2.000000
vt 5.333333 -2.000000
vt 5.333333 30.000000
vt -5.333333 30.000000
vt -5.333333 -2.000000
s 1
usemtl __TB_empty
f 269/403/187 270/404/187 271/405/187 272/406/187
f 273/407/188 270/408/188 269/409/188 274/410/188
f 275/410/189 272/409/189 271/408/189 276/407/189
f 276/411/190 271/412/190 270/413/190 273/414/190
f 274/415/191 269/403/191 272/406/191 275/416/191
f 274/415/192 275/416/192 276/417/192 273/418/192
o entity0_white_6
v 672.000000 960.000000 -138.666748
v 554.666687 960.000000 -256.000061
v 554.666687 -64.000023 -256.000000
v 672.000000 -64.000008 -138.666672
v 634.666687 -64.000023 -256.000000
v 672.000000 -64.000015 -218.666672
v 672.000000 960.000000 -218.666748
v 634.666687 960.000000 -256.000061
vn -0.7071 -0.0000 0.7071
vn -0.0000 -1.0000 -0.0000
vn -0.0000 1.0000 -0.0000
vn -0.0000 -0.0000 -1.0000
vn 0.7071 -0.0000 -0.7071
vn 1.0000 -0.0000 -0.0000
vt 4.333333 30.000000
vt 8.000000 30.000000
vt 8.000000 -2.000000
vt 4.333333 -2.000000
vt 21.000000 4.333333
vt 17.333334 8.000000
vt 19.833334 8.000000
vt 21.000000 6.833333
vt 19.833334 -2.000000
vt 17.333334 -2.000000
vt 17.333334 30.000000
vt 19.833334 30.000000
vt 6.833333 -2.000000
vt 6.833333 30.000000
s 1
usemtl __TB_empty
f 277/419/193 278/420/193 279/421/193 280/422/193
f 280/423/194 279/424/194 281/425/194 282/426/194
f 283/426/195 284/425/195 278/424/195 277/423/195
f 281/427/196 279/428/196 278/429/196 284/430/196
f 282/431/197 281/421/197 284/420/197 283/432/197
f 283/432/198 277/419/198 280/422/198 282/431/198
o entity0_white_7
v 672.000000 -63.999989 138.666672
v 554.666687 -63.999981 256.000000
v 554.666687 960.000000 255.999924
v 672.000000 960.000000 138.666595
v 634.666687 960.000000 255.999924
v 634.666687 -63.999981 256.000000
v 672.000000 -63.999985 218.666672
v 672.000000 960.000000 218.666595
vn -0.7071 -0.0000 -0.7071
vn -0.0000 -0.0000 1.0000
vn -0.0000 -1.0000 -0.0000
vn -0.0000 1.0000 -0.0000
vn 0.7071 -0.0000 0.7071
vn 1.0000 -0.0000 -0.0000
vt -4.333333 -2.000000
vt -8.000000 -2.000000
vt -8.000000 30.000000
vt -4.333333 30.000000
vt 19.833334 30.000000
vt 17.333334 30.000000
vt 17.333334 -2.000000
vt 19.833334 -2.000000
vt 21.000000 -6.833333
vt 19.833334 -8.000000
vt 17.333334 -8.000000
vt 21.000000 -4.333333
vt -6.833333 30.000000
vt -6.833333 -2.000000
s 1
usemtl __TB_empty
f 285/433/199 286/434/199 287/435/199 288/436/199
f 289/437/200 287/438/200 286/439/200 290/440/200
f 291/441/201 290/442/201 286/443/201 285/444/201
f 288/444/202 287/443/202 289/442/202 292/441/202
f 292/445/203 289/435/203 290/434/203 291/446/203
f 285/433/204 288/436/204 292/445/204 291/446/204
o entity0_white_8
v 373.333344 -64.000023 -256.000000
v 325.333344 -64.000015 -208.000000
v 325.333344 960.000000 -208.000076
v 373.333344 960.000000 -256.000061
v 602.666687 960.000000 -208.000076
v 602.666687 -64.000015 -208.000000
v 554.666687 -64.000023 -256.000000
v 554.666687 960.000000 -256.000061
vn -0.7071 -0.0000 -0.7071
vn -0.0000 -0.0000 1.0000
vn -0.0000 -1.0000 -0.0000
vn -0.0000 1.0000 -0.0000
vn -0.0000 -0.0000 -1.0000
vn 0.7071 -0.0000 -0.7071
vt 8.000000 -2.000000
vt 6.500000 -2.000000
vt 6.500000 30.000000
vt 8.000000 30.000000
vt 18.833334 30.000000
vt 10.166667 30.000000
vt 10.166667 -2.000000
vt 18.833334 -2.000000
vt 18.833334 6.500000
vt 10.166667 6.500000
vt 11.666667 8.000000
vt 17.333334 8.000000
vt 17.333334 -2.000000
vt 11.666667 -2.000000
vt 11.666667 30.000000
vt 17.333334 30.000000
s 1
usemtl __TB_empty
f 293/447/205 294/448/205 295/449/205 296/450/205
f 297/451/206 295/452/206 294/453/206 298/454/206
f 298/455/207 294/456/207 293/457/207 299/458/207
f 300/458/208 296/457/208 295/456/208 297/455/208
f 299/459/209 293/460/209 296/461/209 300/462/209
f 300/450/210 297/449/210 298/448/210 299/447/210
o entity0_white_9
v 325.333344 -63.999985 208.000000
v 373.333344 -63.999981 256.000000
v 373.333344 960.000000 255.999924
v 325.333344 960.000000 207.999924
v 554.666687 960.000000 255.999924
v 554.666687 -63.999981 256.000000
v 602.666687 -63.999985 208.000000
v 602.666687 960.000000 207.999924
vn -0.7071 -0.0000 0.7071
vn -0.0000 -0.0000 1.0000
vn -0.0000 -1.0000 -0.0000
vn -0.0000 1.0000 -0.0000
vn -0.0000 -0.0000 -1.0000
vn 0.7071 -0.0000 0.7071
vt -6.500000 -2.000000
vt -8.000000 -2.000000
vt -8.000000 30.000000
vt -6.500000 30.000000
vt 17.333334 30.000000
vt 11.666667 30.000000
vt 11.666667 -2.000000
vt 17.333334 -2.000000
vt 17.333334 -8.000000
vt 11.666667 -8.000000
vt 10.166667 -6.500000
vt 18.833334 -6.500000
vt 18.833334 -2.000000
vt 10.166667 -2.000000
vt 10.166667 30.000000
vt 18.833334 30.000000
s 1
usemtl __TB_empty
f 301/463/211 302/464/211 303/465/211 304/466/211
f 305/467/212 303/468/212 302/469/212 306/470/212
f 306/471/213 302/472/213 301/473/213 307/474/213
f 308/474/214 304/473/214 303/472/214 305/471/214
f 307/475/215 301/476/215 304/477/215 308/478/215
f 308/466/216 305/465/216 306/464/216 307/463/216
