# Blender 5.1.1
# www.blender.org
mtllib vertical_and_stair_chamber_3.mtl
o entity0_brush0
v -256.000000 960.000000 -170.666748
v -256.000000 -64.000015 -170.666672
v -256.000000 -63.999989 170.666672
v -256.000000 960.000000 170.666595
v -208.000000 -64.000015 -218.666672
v -208.000000 960.000000 -218.666748
v -208.000000 960.000000 218.666595
v -208.000000 -63.999985 218.666672
vn -1.0000 -0.0000 -0.0000
vn -0.7071 -0.0000 -0.7071
vn -0.7071 -0.0000 0.7071
vn -0.0000 -1.0000 -0.0000
vn -0.0000 1.0000 -0.0000
vn 1.0000 -0.0000 -0.0000
vt 5.333333 30.000000
vt 5.333333 -2.000000
vt -5.333333 -2.000000
vt -5.333333 30.000000
vt 6.833333 -2.000000
vt 6.833333 30.000000
vt -6.833333 30.000000
vt -6.833333 -2.000000
vt -6.500000 -6.833333
vt -8.000000 -5.333333
vt -8.000000 5.333333
vt -6.500000 6.833333
s 1
usemtl __TB_empty
f 1/1/1 2/2/1 3/3/1 4/4/1
f 5/5/2 2/2/2 1/1/2 6/6/2
f 7/7/3 4/4/3 3/3/3 8/8/3
f 8/9/4 3/10/4 2/11/4 5/12/4
f 6/12/5 1/11/5 4/10/5 7/9/5
f 8/8/6 5/5/6 6/6/6 7/7/6
o entity0_brush1
v -208.000000 -63.999989 138.666672
v -208.000000 -63.999985 218.666672
v -208.000000 960.000000 218.666595
v -208.000000 960.000000 138.666595
v -170.666672 -63.999981 256.000000
v -170.666672 960.000000 255.999924
v -90.666664 960.000000 255.999924
v -90.666664 -63.999981 256.000000
vn -1.0000 -0.0000 -0.0000
vn -0.7071 -0.0000 0.7071
vn -0.0000 -0.0000 1.0000
vn -0.0000 -1.0000 -0.0000
vn -0.0000 1.0000 -0.0000
vn 0.7071 -0.0000 -0.7071
vt -4.333333 -2.000000
vt -6.833333 -2.000000
vt -6.833333 30.000000
vt -4.333333 30.000000
vt -8.000000 -2.000000
vt -8.000000 30.000000
vt -2.833333 30.000000
vt -5.333333 30.000000
vt -5.333333 -2.000000
vt -2.833333 -2.000000
vt -2.833333 -8.000000
vt -5.333333 -8.000000
vt -6.500000 -6.833333
vt -6.500000 -4.333333
vt -6.500000 -2.000000
vt -6.500000 30.000000
s 1
usemtl __TB_empty
f 9/13/7 10/14/7 11/15/7 12/16/7
f 11/15/8 10/14/8 13/17/8 14/18/8
f 15/19/9 14/20/9 13/21/9 16/22/9
f 16/23/10 13/24/10 10/25/10 9/26/10
f 12/26/11 11/25/11 14/24/11 15/23/11
f 16/22/12 9/27/12 12/28/12 15/19/12
o entity0_brush10
v 128.000000 928.000000 -208.000076
v 128.000000 928.000000 207.999924
v 128.000000 976.000000 207.999924
v 128.000000 976.000000 -208.000076
v 336.000000 976.000000 207.999924
v 336.000000 928.000000 207.999924
v 336.000000 928.000000 -208.000076
v 336.000000 976.000000 -208.000076
vn -1.0000 -0.0000 -0.0000
vn -0.0000 -0.0000 1.0000
vn -0.0000 -1.0000 -0.0000
vn -0.0000 1.0000 -0.0000
vn -0.0000 -0.0000 -1.0000
vn 1.0000 -0.0000 -0.0000
vt 6.500000 29.000000
vt -6.500000 29.000000
vt -6.500000 30.500000
vt 6.500000 30.500000
vt 10.500000 30.500000
vt 4.000000 30.500000
vt 4.000000 29.000000
vt 10.500000 29.000000
vt 10.500000 -6.500000
vt 4.000000 -6.500000
vt 4.000000 6.500000
vt 10.500000 6.500000
s 1
usemtl __TB_empty
f 17/29/13 18/30/13 19/31/13 20/32/13
f 21/33/14 19/34/14 18/35/14 22/36/14
f 22/37/15 18/38/15 17/39/15 23/40/15
f 24/40/16 20/39/16 19/38/16 21/37/16
f 23/36/17 17/35/17 20/34/17 24/33/17
f 24/32/18 21/31/18 22/30/18 23/29/18
o entity0_brush11
v 128.000000 -80.000015 -208.000000
v 128.000000 -79.999985 208.000000
v 128.000000 -31.999985 208.000000
v 128.000000 -32.000015 -208.000000
v 336.000000 -31.999985 208.000000
v 336.000000 -79.999985 208.000000
v 336.000000 -80.000015 -208.000000
v 336.000000 -32.000015 -208.000000
vn -1.0000 -0.0000 -0.0000
vn -0.0000 -0.0000 1.0000
vn -0.0000 -1.0000 -0.0000
vn -0.0000 1.0000 -0.0000
vn -0.0000 -0.0000 -1.0000
vn 1.0000 -0.0000 -0.0000
vt 6.500000 -2.500000
vt -6.500000 -2.500000
vt -6.500000 -1.000000
vt 6.500000 -1.000000
vt 10.500000 -1.000000
vt 4.000000 -1.000000
vt 4.000000 -2.500000
vt 10.500000 -2.500000
vt 10.500000 -6.500000
vt 4.000000 -6.500000
vt 4.000000 6.500000
vt 10.500000 6.500000
s 1
usemtl __TB_empty
f 25/41/19 26/42/19 27/43/19 28/44/19
f 29/45/20 27/46/20 26/47/20 30/48/20
f 30/49/21 26/50/21 25/51/21 31/52/21
f 32/52/22 28/51/22 27/50/22 29/49/22
f 31/48/23 25/47/23 28/46/23 32/45/23
f 32/44/24 29/43/24 30/42/24 31/41/24
o entity0_white_12
v 208.000000 63.999992 -80.000008
v 208.000000 64.000008 79.999992
v 208.000000 80.000008 79.999992
v 208.000000 79.999992 -80.000008
v 256.000000 80.000008 79.999992
v 256.000000 64.000008 79.999992
v 256.000000 63.999992 -80.000008
v 256.000000 79.999992 -80.000008
vn -1.0000 -0.0000 -0.0000
vn -0.0000 -0.0000 1.0000
vn -0.0000 -1.0000 -0.0000
vn -0.0000 1.0000 -0.0000
vn -0.0000 -0.0000 -1.0000
vn 1.0000 -0.0000 -0.0000
vt 2.500000 2.000000
vt -2.500000 2.000000
vt -2.500000 2.500000
vt 2.500000 2.500000
vt 8.000000 2.500000
vt 6.500000 2.500000
vt 6.500000 2.000000
vt 8.000000 2.000000
vt 8.000000 -2.500000
vt 6.500000 -2.500000
s 1
usemtl __TB_empty
f 33/53/25 34/54/25 35/55/25 36/56/25
f 37/57/26 35/58/26 34/59/26 38/60/26
f 38/61/27 34/62/27 33/58/27 39/57/27
f 40/57/28 36/58/28 35/62/28 37/61/28
f 39/60/29 33/59/29 36/58/29 40/57/29
f 40/56/30 37/55/30 38/54/30 39/53/30
o entity0_white_13
v 208.000000 -31.999994 80.000000
v 208.000000 -31.999985 192.000000
v 208.000000 80.000008 79.999992
v 256.000000 80.000008 79.999992
v 256.000000 -31.999985 192.000000
v 256.000000 -31.999994 80.000000
vn -1.0000 -0.0000 -0.0000
vn -0.0000 0.7071 0.7071
vn -0.0000 -1.0000 -0.0000
vn -0.0000 -0.0000 -1.0000
vn 1.0000 -0.0000 -0.0000
vt -2.500000 -1.000000
vt -6.000000 -1.000000
vt -2.500000 2.500000
vt 8.000000 -2.500000
vt 6.500000 -2.500000
vt 6.500000 -6.000000
vt 8.000000 -6.000000
vt 8.000000 -1.000000
vt 6.500000 -1.000000
vt 6.500000 2.500000
vt 8.000000 2.500000
s 1
usemtl __TB_empty
f 41/63/31 42/64/31 43/65/31
f 44/66/32 43/67/32 42/68/32 45/69/32
f 45/69/33 42/68/33 41/67/33 46/66/33
f 46/70/34 41/71/34 43/72/34 44/73/34
f 45/64/35 46/63/35 44/65/35
o entity0_white_14
v 208.000000 -32.000015 -192.000000
v 208.000000 -32.000008 -80.000000
v 208.000000 79.999992 -80.000008
v 256.000000 79.999992 -80.000008
v 256.000000 -32.000008 -80.000000
v 256.000000 -32.000015 -192.000000
vn -1.0000 -0.0000 -0.0000
vn -0.0000 -0.0000 1.0000
vn -0.0000 -1.0000 -0.0000
vn -0.0000 0.7071 -0.7071
vn 1.0000 -0.0000 -0.0000
vt 6.000000 -1.000000
vt 2.500000 -1.000000
vt 2.500000 2.500000
vt 8.000000 2.500000
vt 6.500000 2.500000
vt 6.500000 -1.000000
vt 8.000000 -1.000000
vt 6.500000 6.000000
vt 8.000000 6.000000
s 1
usemtl __TB_empty
f 47/74/36 48/75/36 49/76/36
f 50/77/37 49/78/37 48/79/37 51/80/37
f 51/77/38 48/78/38 47/81/38 52/82/38
f 52/82/39 47/81/39 49/78/39 50/77/39
f 51/75/40 52/74/40 50/76/40
o portal_entrance_2
v 336.000000 912.000000 -128.000076
v 336.000000 912.000000 143.999924
v 592.000000 912.000000 143.999924
v 592.000000 912.000000 -128.000076
vn -0.0000 -1.0000 -0.0000
vt 18.500000 -4.500000
vt 10.500000 -4.500000
vt 10.500000 4.000000
vt 18.500000 4.000000
s 1
usemtl __TB_empty
f 55/83/41 54/84/41 53/85/41 56/86/41
o entity0_brush16
v 592.000000 912.000000 -208.000076
v 592.000000 912.000000 207.999924
v 592.000000 960.000000 207.999924
v 592.000000 960.000000 -208.000076
v 602.666687 960.000000 207.999924
v 602.666687 912.000000 207.999924
v 672.000000 912.000000 138.666595
v 602.666687 912.000000 -208.000076
v 672.000000 912.000000 -138.666748
v 672.000000 960.000000 -138.666748
v 602.666687 960.000000 -208.000076
v 672.000000 960.000000 138.666595
vn -1.0000 -0.0000 -0.0000
vn -0.0000 -0.0000 1.0000
vn -0.0000 -1.0000 -0.0000
vn -0.0000 1.0000 -0.0000
vn -0.0000 -0.0000 -1.0000
vn 0.7071 -0.0000 0.7071
vn 0.7071 -0.0000 -0.7071
vn 1.0000 -0.0000 -0.0000
vt 6.500000 28.500000
vt -6.500000 28.500000
vt -6.500000 30.000000
vt 6.500000 30.000000
vt 18.833334 30.000000
vt 18.500000 30.000000
vt 18.500000 28.500000
vt 18.833334 28.500000
vt 21.000000 -4.333333
vt 18.833334 -6.500000
vt 18.500000 -6.500000
vt 18.500000 6.500000
vt 18.833334 6.500000
vt 21.000000 4.333333
vt -4.333333 30.000000
vt -4.333333 28.500000
vt 21.000000 28.500000
vt 21.000000 30.000000
vt 4.333333 28.500000
vt 4.333333 30.000000
s 1
usemtl __TB_empty
f 57/87/42 58/88/42 59/89/42 60/90/42
f 61/91/43 59/92/43 58/93/43 62/94/43
f 63/95/44 62/96/44 58/97/44 57/98/44 64/99/44 65/100/44
f 66/100/45 67/99/45 60/98/45 59/97/45 61/96/45 68/95/45
f 64/94/46 57/93/46 60/92/46 67/91/46
f 68/101/47 61/89/47 62/88/47 63/102/47
f 65/103/48 64/94/48 67/91/48 66/104/48
f 68/101/49 63/102/49 65/105/49 66/106/49
o entity0_brush17
v 256.000000 960.000000 -138.666748
v 256.000000 912.000000 -138.666748
v 256.000000 912.000000 138.666595
v 256.000000 960.000000 138.666595
v 325.333344 912.000000 207.999924
v 325.333344 960.000000 207.999924
v 325.333344 912.000000 -208.000076
v 325.333344 960.000000 -208.000076
v 336.000000 960.000000 207.999924
v 336.000000 912.000000 207.999924
v 336.000000 912.000000 -208.000076
v 336.000000 960.000000 -208.000076
vn -1.0000 -0.0000 -0.0000
vn -0.7071 -0.0000 0.7071
vn -0.7071 -0.0000 -0.7071
vn -0.0000 -0.0000 1.0000
vn -0.0000 -1.0000 -0.0000
vn -0.0000 1.0000 -0.0000
vn -0.0000 -0.0000 -1.0000
vn 1.0000 -0.0000 -0.0000
vt 4.333333 30.000000
vt 4.333333 28.500000
vt -4.333333 28.500000
vt -4.333333 30.000000
vt -6.500000 28.500000
vt -6.500000 30.000000
vt 10.166667 28.500000
vt 8.000000 28.500000
vt 8.000000 30.000000
vt 10.166667 30.000000
vt 10.500000 30.000000
vt 10.500000 28.500000
vt 10.500000 -6.500000
vt 10.166667 -6.500000
vt 8.000000 -4.333333
vt 8.000000 4.333333
vt 10.166667 6.500000
vt 10.500000 6.500000
vt 6.500000 30.000000
vt 6.500000 28.500000
s 1
usemtl __TB_empty
f 69/107/50 70/108/50 71/109/50 72/110/50
f 72/110/51 71/109/51 73/111/51 74/112/51
f 75/113/52 70/114/52 69/115/52 76/116/52
f 77/117/53 74/116/53 73/113/53 78/118/53
f 78/119/54 73/120/54 71/121/54 70/122/54 75/123/54 79/124/54
f 80/124/55 76/123/55 69/122/55 72/121/55 74/120/55 77/119/55
f 79/118/56 75/113/56 76/116/56 80/117/56
f 80/125/57 77/112/57 78/111/57 79/126/57
o entity0_brush18
v 336.000000 912.000000 -208.000076
v 336.000000 912.000000 -128.000076
v 336.000000 960.000000 -128.000076
v 336.000000 960.000000 -208.000076
v 592.000000 960.000000 -128.000076
v 592.000000 912.000000 -128.000076
v 592.000000 912.000000 -208.000076
v 592.000000 960.000000 -208.000076
vn -1.0000 -0.0000 -0.0000
vn -0.0000 -0.0000 1.0000
vn -0.0000 -1.0000 -0.0000
vn -0.0000 1.0000 -0.0000
vn -0.0000 -0.0000 -1.0000
vn 1.0000 -0.0000 -0.0000
vt 6.500000 28.500000
vt 4.000000 28.500000
vt 4.000000 30.000000
vt 6.500000 30.000000
vt 18.500000 30.000000
vt 10.500000 30.000000
vt 10.500000 28.500000
vt 18.500000 28.500000
vt 18.500000 4.000000
vt 10.500000 4.000000
vt 10.500000 6.500000
vt 18.500000 6.500000
s 1
usemtl __TB_empty
f 81/127/58 82/128/58 83/129/58 84/130/58
f 85/131/59 83/132/59 82/133/59 86/134/59
f 86/135/60 82/136/60 81/137/60 87/138/60
f 88/138/61 84/137/61 83/136/61 85/135/61
f 87/134/62 81/133/62 84/132/62 88/131/62
f 88/130/63 85/129/63 86/128/63 87/127/63
o entity0_brush19
v 336.000000 912.000000 143.999924
v 336.000000 912.000000 207.999924
v 336.000000 960.000000 207.999924
v 336.000000 960.000000 143.999924
v 592.000000 960.000000 207.999924
v 592.000000 912.000000 207.999924
v 592.000000 912.000000 143.999924
v 592.000000 960.000000 143.999924
vn -1.0000 -0.0000 -0.0000
vn -0.0000 -0.0000 1.0000
vn -0.0000 -1.0000 -0.0000
vn -0.0000 1.0000 -0.0000
vn -0.0000 -0.0000 -1.0000
vn 1.0000 -0.0000 -0.0000
vt -4.500000 28.500000
vt -6.500000 28.500000
vt -6.500000 30.000000
vt -4.500000 30.000000
vt 18.500000 30.000000
vt 10.500000 30.000000
vt 10.500000 28.500000
vt 18.500000 28.500000
vt 18.500000 -6.500000
vt 10.500000 -6.500000
vt 10.500000 -4.500000
vt 18.500000 -4.500000
s 1
usemtl __TB_empty
f 89/139/64 90/140/64 91/141/64 92/142/64
f 93/143/65 91/144/65 90/145/65 94/146/65
f 94/147/66 90/148/66 89/149/66 95/150/66
f 96/150/67 92/149/67 91/148/67 93/147/67
f 95/146/68 89/145/68 92/144/68 96/143/68
f 96/142/69 93/141/69 94/140/69 95/139/69
o entity0_brush2
v -208.000000 960.000000 -138.666748
v -208.000000 960.000000 -218.666748
v -208.000000 -64.000015 -218.666672
v -208.000000 -64.000008 -138.666672
v -170.666672 -64.000023 -256.000000
v -170.666672 960.000000 -256.000061
v -90.666664 -64.000023 -256.000000
v -90.666664 960.000000 -256.000061
vn -1.0000 -0.0000 -0.0000
vn -0.7071 -0.0000 -0.7071
vn -0.0000 -1.0000 -0.0000
vn -0.0000 1.0000 -0.0000
vn -0.0000 -0.0000 -1.0000
vn 0.7071 -0.0000 0.7071
vt 4.333333 30.000000
vt 6.833333 30.000000
vt 6.833333 -2.000000
vt 4.333333 -2.000000
vt 8.000000 -2.000000
vt 8.000000 30.000000
vt -6.500000 4.333333
vt -6.500000 6.833333
vt -5.333333 8.000000
vt -2.833333 8.000000
vt -2.833333 -2.000000
vt -5.333333 -2.000000
vt -5.333333 30.000000
vt -2.833333 30.000000
s 1
usemtl __TB_empty
f 97/151/70 98/152/70 99/153/70 100/154/70
f 101/155/71 99/153/71 98/152/71 102/156/71
f 100/157/72 99/158/72 101/159/72 103/160/72
f 104/160/73 102/159/73 98/158/73 97/157/73
f 103/161/74 101/162/74 102/163/74 104/164/74
f 104/156/75 97/151/75 100/154/75 103/155/75
o entity0_brush20
v 128.000000 -64.000015 -208.000000
v 128.000000 -63.999985 208.000000
v 128.000000 -15.999985 208.000000
v 128.000000 -16.000015 -208.000000
v 138.666672 -15.999985 208.000000
v 138.666672 -63.999985 208.000000
v 208.000000 -63.999989 138.666672
v 138.666672 -64.000015 -208.000000
v 208.000000 -64.000008 -138.666672
v 208.000000 -16.000010 -138.666672
v 138.666672 -16.000015 -208.000000
v 208.000000 -15.999990 138.666672
vn -1.0000 -0.0000 -0.0000
vn -0.0000 -0.0000 1.0000
vn -0.0000 -1.0000 -0.0000
vn -0.0000 1.0000 -0.0000
vn -0.0000 -0.0000 -1.0000
vn 0.7071 -0.0000 -0.7071
vn 0.7071 -0.0000 0.7071
vn 1.0000 -0.0000 -0.0000
vt 6.500000 -2.000000
vt -6.500000 -2.000000
vt -6.500000 -0.500000
vt 6.500000 -0.500000
vt 4.333333 -0.500000
vt 4.000000 -0.500000
vt 4.000000 -2.000000
vt 4.333333 -2.000000
vt 6.500000 -4.333333
vt 4.333333 -6.500000
vt 4.000000 -6.500000
vt 4.000000 6.500000
vt 4.333333 6.500000
vt 6.500000 4.333333
vt -4.333333 -0.500000
vt -4.333333 -2.000000
s 1
usemtl __TB_empty
f 105/165/76 106/166/76 107/167/76 108/168/76
f 109/169/77 107/170/77 106/171/77 110/172/77
f 111/173/78 110/174/78 106/175/78 105/176/78 112/177/78 113/178/78
f 114/178/79 115/177/79 108/176/79 107/175/79 109/174/79 116/173/79
f 112/172/80 105/171/80 108/170/80 115/169/80
f 113/172/81 112/165/81 115/168/81 114/169/81
f 116/179/82 109/167/82 110/166/82 111/180/82
f 113/172/83 114/169/83 116/179/83 111/180/83
o entity0_brush21
v -208.000000 -16.000010 -138.666672
v -208.000000 -64.000008 -138.666672
v -208.000000 -63.999989 138.666672
v -208.000000 -15.999990 138.666672
v -138.666672 -63.999985 208.000000
v -138.666672 -15.999985 208.000000
v -138.666672 -64.000015 -208.000000
v -138.666672 -16.000015 -208.000000
v -128.000000 -15.999985 208.000000
v -128.000000 -63.999985 208.000000
v -128.000000 -64.000015 -208.000000
v -128.000000 -16.000015 -208.000000
vn -1.0000 -0.0000 -0.0000
vn -0.7071 -0.0000 0.7071
vn -0.7071 -0.0000 -0.7071
vn -0.0000 -0.0000 1.0000
vn -0.0000 -1.0000 -0.0000
vn -0.0000 1.0000 -0.0000
vn -0.0000 -0.0000 -1.0000
vn 1.0000 -0.0000 -0.0000
vt 4.333333 -0.500000
vt 4.333333 -2.000000
vt -4.333333 -2.000000
vt -4.333333 -0.500000
vt -6.500000 -2.000000
vt -6.500000 -0.500000
vt -4.000000 -0.500000
vt -4.000000 -2.000000
vt -4.000000 -6.500000
vt -4.333333 -6.500000
vt -6.500000 -4.333333
vt -6.500000 4.333333
vt -4.333333 6.500000
vt -4.000000 6.500000
vt 6.500000 -0.500000
vt 6.500000 -2.000000
s 1
usemtl __TB_empty
f 117/181/84 118/182/84 119/183/84 120/184/84
f 120/184/85 119/183/85 121/185/85 122/186/85
f 123/183/86 118/185/86 117/186/86 124/184/86
f 125/187/87 122/184/87 121/183/87 126/188/87
f 126/189/88 121/190/88 119/191/88 118/192/88 123/193/88 127/194/88
f 128/194/89 124/193/89 117/192/89 120/191/89 122/190/89 125/189/89
f 127/188/90 123/183/90 124/184/90 128/187/90
f 128/195/91 125/186/91 126/185/91 127/196/91
o entity0_brush22
v 592.000000 -64.000015 -208.000000
v 592.000000 -63.999985 208.000000
v 592.000000 -15.999985 208.000000
v 592.000000 -16.000015 -208.000000
v 602.666687 -15.999985 208.000000
v 602.666687 -63.999985 208.000000
v 672.000000 -63.999989 138.666672
v 602.666687 -64.000015 -208.000000
v 672.000000 -64.000008 -138.666672
v 672.000000 -16.000010 -138.666672
v 602.666687 -16.000015 -208.000000
v 672.000000 -15.999990 138.666672
vn -1.0000 -0.0000 -0.0000
vn -0.0000 -0.0000 1.0000
vn -0.0000 -1.0000 -0.0000
vn -0.0000 1.0000 -0.0000
vn -0.0000 -0.0000 -1.0000
vn 0.7071 -0.0000 -0.7071
vn 0.7071 -0.0000 0.7071
vn 1.0000 -0.0000 -0.0000
vt 6.500000 -2.000000
vt -6.500000 -2.000000
vt -6.500000 -0.500000
vt 6.500000 -0.500000
vt 18.833334 -0.500000
vt 18.500000 -0.500000
vt 18.500000 -2.000000
vt 18.833334 -2.000000
vt 21.000000 -4.333333
vt 18.833334 -6.500000
vt 18.500000 -6.500000
vt 18.500000 6.500000
vt 18.833334 6.500000
vt 21.000000 4.333333
vt 4.333333 -2.000000
vt 4.333333 -0.500000
vt -4.333333 -0.500000
vt -4.333333 -2.000000
s 1
usemtl __TB_empty
f 129/197/92 130/198/92 131/199/92 132/200/92
f 133/201/93 131/202/93 130/203/93 134/204/93
f 135/205/94 134/206/94 130/207/94 129/208/94 136/209/94 137/210/94
f 138/210/95 139/209/95 132/208/95 131/207/95 133/206/95 140/205/95
f 136/204/96 129/203/96 132/202/96 139/201/96
f 137/211/97 136/197/97 139/200/97 138/212/97
f 140/213/98 133/199/98 134/198/98 135/214/98
f 137/211/99 138/212/99 140/213/99 135/214/99
o entity0_brush23
v 256.000000 -16.000010 -138.666672
v 256.000000 -64.000008 -138.666672
v 256.000000 -63.999989 138.666672
v 256.000000 -15.999990 138.666672
v 325.333344 -63.999985 208.000000
v 325.333344 -15.999985 208.000000
v 325.333344 -64.000015 -208.000000
v 325.333344 -16.000015 -208.000000
v 336.000000 -15.999985 208.000000
v 336.000000 -63.999985 208.000000
v 336.000000 -64.000015 -208.000000
v 336.000000 -16.000015 -208.000000
vn -1.0000 -0.0000 -0.0000
vn -0.7071 -0.0000 0.7071
vn -0.7071 -0.0000 -0.7071
vn -0.0000 -0.0000 1.0000
vn -0.0000 -1.0000 -0.0000
vn -0.0000 1.0000 -0.0000
vn -0.0000 -0.0000 -1.0000
vn 1.0000 -0.0000 -0.0000
vt 4.333333 -0.500000
vt 4.333333 -2.000000
vt -4.333333 -2.000000
vt -4.333333 -0.500000
vt -6.500000 -2.000000
vt -6.500000 -0.500000
vt 10.166667 -2.000000
vt 8.000000 -2.000000
vt 8.000000 -0.500000
vt 10.166667 -0.500000
vt 10.500000 -0.500000
vt 10.500000 -2.000000
vt 10.500000 -6.500000
vt 10.166667 -6.500000
vt 8.000000 -4.333333
vt 8.000000 4.333333
vt 10.166667 6.500000
vt 10.500000 6.500000
vt 6.500000 -0.500000
vt 6.500000 -2.000000
s 1
usemtl __TB_empty
f 141/215/100 142/216/100 143/217/100 144/218/100
f 144/218/101 143/217/101 145/219/101 146/220/101
f 147/221/102 142/222/102 141/223/102 148/224/102
f 149/225/103 146/224/103 145/221/103 150/226/103
f 150/227/104 145/228/104 143/229/104 142/230/104 147/231/104 151/232/104
f 152/232/105 148/231/105 141/230/105 144/229/105 146/228/105 149/227/105
f 151/226/106 147/221/106 148/224/106 152/225/106
f 152/233/107 149/220/107 150/219/107 151/234/107
o entity0_brush24
v 128.000000 912.000000 -208.000076
v 128.000000 912.000000 207.999924
v 128.000000 960.000000 207.999924
v 128.000000 960.000000 -208.000076
v 138.666672 960.000000 207.999924
v 138.666672 912.000000 207.999924
v 208.000000 912.000000 138.666595
v 138.666672 912.000000 -208.000076
v 208.000000 912.000000 -138.666748
v 208.000000 960.000000 -138.666748
v 138.666672 960.000000 -208.000076
v 208.000000 960.000000 138.666595
vn -1.0000 -0.0000 -0.0000
vn -0.0000 -0.0000 1.0000
vn -0.0000 -1.0000 -0.0000
vn -0.0000 1.0000 -0.0000
vn -0.0000 -0.0000 -1.0000
vn 0.7071 -0.0000 -0.7071
vn 0.7071 -0.0000 0.7071
vn 1.0000 -0.0000 -0.0000
vt 6.500000 28.500000
vt -6.500000 28.500000
vt -6.500000 30.000000
vt 6.500000 30.000000
vt 4.333333 30.000000
vt 4.000000 30.000000
vt 4.000000 28.500000
vt 4.333333 28.500000
vt 6.500000 -4.333333
vt 4.333333 -6.500000
vt 4.000000 -6.500000
vt 4.000000 6.500000
vt 4.333333 6.500000
vt 6.500000 4.333333
vt -4.333333 30.000000
vt -4.333333 28.500000
s 1
usemtl __TB_empty
f 153/235/108 154/236/108 155/237/108 156/238/108
f 157/239/109 155/240/109 154/241/109 158/242/109
f 159/243/110 158/244/110 154/245/110 153/246/110 160/247/110 161/248/110
f 162/248/111 163/247/111 156/246/111 155/245/111 157/244/111 164/243/111
f 160/242/112 153/241/112 156/240/112 163/239/112
f 161/242/113 160/235/113 163/238/113 162/239/113
f 164/249/114 157/237/114 158/236/114 159/250/114
f 161/242/115 162/239/115 164/249/115 159/250/115
o entity0_brush25
v -208.000000 960.000000 -138.666748
v -208.000000 912.000000 -138.666748
v -208.000000 912.000000 138.666595
v -208.000000 960.000000 138.666595
v -138.666672 912.000000 207.999924
v -138.666672 960.000000 207.999924
v -138.666672 912.000000 -208.000076
v -138.666672 960.000000 -208.000076
v -128.000000 960.000000 207.999924
v -128.000000 912.000000 207.999924
v -128.000000 912.000000 -208.000076
v -128.000000 960.000000 -208.000076
vn -1.0000 -0.0000 -0.0000
vn -0.7071 -0.0000 0.7071
vn -0.7071 -0.0000 -0.7071
vn -0.0000 -0.0000 1.0000
vn -0.0000 -1.0000 -0.0000
vn -0.0000 1.0000 -0.0000
vn -0.0000 -0.0000 -1.0000
vn 1.0000 -0.0000 -0.0000
vt 4.333333 30.000000
vt 4.333333 28.500000
vt -4.333333 28.500000
vt -4.333333 30.000000
vt -6.500000 28.500000
vt -6.500000 30.000000
vt -4.000000 30.000000
vt -4.000000 28.500000
vt -4.000000 -6.500000
vt -4.333333 -6.500000
vt -6.500000 -4.333333
vt -6.500000 4.333333
vt -4.333333 6.500000
vt -4.000000 6.500000
vt 6.500000 30.000000
vt 6.500000 28.500000
s 1
usemtl __TB_empty
f 165/251/116 166/252/116 167/253/116 168/254/116
f 168/254/117 167/253/117 169/255/117 170/256/117
f 171/253/118 166/255/118 165/256/118 172/254/118
f 173/257/119 170/254/119 169/253/119 174/258/119
f 174/259/120 169/260/120 167/261/120 166/262/120 171/263/120 175/264/120
f 176/264/121 172/263/121 165/262/121 168/261/121 170/260/121 173/259/121
f 175/258/122 171/253/122 172/254/122 176/257/122
f 176/265/123 173/256/123 174/255/123 175/266/123
o portal_entrance_1
v -128.000000 912.000000 -128.000076
v -128.000000 912.000000 143.999924
v 128.000000 912.000000 143.999924
v 128.000000 912.000000 -128.000076
vn -0.0000 -1.0000 -0.0000
vt 4.000000 -4.500000
vt -4.000000 -4.500000
vt -4.000000 4.000000
vt 4.000000 4.000000
s 1
usemtl __TB_empty
f 179/267/124 178/268/124 177/269/124 180/270/124
o entity0_brush27
v -128.000000 -63.999989 144.000000
v -128.000000 -63.999985 208.000000
v -128.000000 -15.999985 208.000000
v -128.000000 -15.999990 144.000000
v 128.000000 -15.999985 208.000000
v 128.000000 -63.999985 208.000000
v 128.000000 -63.999989 144.000000
v 128.000000 -15.999990 144.000000
vn -1.0000 -0.0000 -0.0000
vn -0.0000 -0.0000 1.0000
vn -0.0000 -1.0000 -0.0000
vn -0.0000 1.0000 -0.0000
vn -0.0000 -0.0000 -1.0000
vn 1.0000 -0.0000 -0.0000
vt -4.500000 -2.000000
vt -6.500000 -2.000000
vt -6.500000 -0.500000
vt -4.500000 -0.500000
vt 4.000000 -0.500000
vt -4.000000 -0.500000
vt -4.000000 -2.000000
vt 4.000000 -2.000000
vt 4.000000 -6.500000
vt -4.000000 -6.500000
vt -4.000000 -4.500000
vt 4.000000 -4.500000
s 1
usemtl __TB_empty
f 181/271/125 182/272/125 183/273/125 184/274/125
f 185/275/126 183/276/126 182/277/126 186/278/126
f 186/279/127 182/280/127 181/281/127 187/282/127
f 188/282/128 184/281/128 183/280/128 185/279/128
f 187/278/129 181/277/129 184/276/129 188/275/129
f 188/274/130 185/273/130 186/272/130 187/271/130
o entity0_brush28
v -128.000000 -64.000015 -208.000000
v -128.000000 -64.000008 -127.999992
v -128.000000 -16.000010 -128.000000
v -128.000000 -16.000015 -208.000000
v 128.000000 -16.000010 -128.000000
v 128.000000 -64.000008 -127.999992
v 128.000000 -64.000015 -208.000000
v 128.000000 -16.000015 -208.000000
vn -1.0000 -0.0000 -0.0000
vn -0.0000 -0.0000 1.0000
vn -0.0000 -1.0000 -0.0000
vn -0.0000 1.0000 -0.0000
vn -0.0000 -0.0000 -1.0000
vn 1.0000 -0.0000 -0.0000
vt 6.500000 -2.000000
vt 4.000000 -2.000000
vt 4.000000 -0.500000
vt 6.500000 -0.500000
vt -4.000000 -0.500000
vt -4.000000 -2.000000
vt 4.000000 4.000000
vt -4.000000 4.000000
vt -4.000000 6.500000
vt 4.000000 6.500000
s 1
usemtl __TB_empty
f 189/283/131 190/284/131 191/285/131 192/286/131
f 193/285/132 191/287/132 190/288/132 194/284/132
f 194/289/133 190/290/133 189/291/133 195/292/133
f 196/292/134 192/291/134 191/290/134 193/289/134
f 195/284/135 189/288/135 192/287/135 196/285/135
f 196/286/136 193/285/136 194/284/136 195/283/136
o entity0_brush29
v 336.000000 -63.999989 144.000000
v 336.000000 -63.999985 208.000000
v 336.000000 -15.999985 208.000000
v 336.000000 -15.999990 144.000000
v 592.000000 -15.999985 208.000000
v 592.000000 -63.999985 208.000000
v 592.000000 -63.999989 144.000000
v 592.000000 -15.999990 144.000000
vn -1.0000 -0.0000 -0.0000
vn -0.0000 -0.0000 1.0000
vn -0.0000 -1.0000 -0.0000
vn -0.0000 1.0000 -0.0000
vn -0.0000 -0.0000 -1.0000
vn 1.0000 -0.0000 -0.0000
vt -4.500000 -2.000000
vt -6.500000 -2.000000
vt -6.500000 -0.500000
vt -4.500000 -0.500000
vt 18.500000 -0.500000
vt 10.500000 -0.500000
vt 10.500000 -2.000000
vt 18.500000 -2.000000
vt 18.500000 -6.500000
vt 10.500000 -6.500000
vt 10.500000 -4.500000
vt 18.500000 -4.500000
s 1
usemtl __TB_empty
f 197/293/137 198/294/137 199/295/137 200/296/137
f 201/297/138 199/298/138 198/299/138 202/300/138
f 202/301/139 198/302/139 197/303/139 203/304/139
f 204/304/140 200/303/140 199/302/140 201/301/140
f 203/300/141 197/299/141 200/298/141 204/297/141
f 204/296/142 201/295/142 202/294/142 203/293/142
o entity0_brush3
v -90.666664 -64.000023 -256.000000
v -138.666672 -64.000015 -208.000000
v -138.666672 960.000000 -208.000076
v -90.666664 960.000000 -256.000061
v 138.666672 960.000000 -208.000076
v 138.666672 -64.000015 -208.000000
v 90.666664 -64.000023 -256.000000
v 90.666664 960.000000 -256.000061
vn -0.7071 -0.0000 -0.7071
vn -0.0000 -0.0000 1.0000
vn -0.0000 -1.0000 -0.0000
vn -0.0000 1.0000 -0.0000
vn -0.0000 -0.0000 -1.0000
vn 0.7071 -0.0000 -0.7071
vt 8.000000 -2.000000
vt 6.500000 -2.000000
vt 6.500000 30.000000
vt 8.000000 30.000000
vt 4.333333 30.000000
vt -4.333333 30.000000
vt -4.333333 -2.000000
vt 4.333333 -2.000000
vt 4.333333 6.500000
vt -4.333333 6.500000
vt -2.833333 8.000000
vt 2.833333 8.000000
vt 2.833333 -2.000000
vt -2.833333 -2.000000
vt -2.833333 30.000000
vt 2.833333 30.000000
s 1
usemtl __TB_empty
f 205/305/143 206/306/143 207/307/143 208/308/143
f 209/309/144 207/310/144 206/311/144 210/312/144
f 210/313/145 206/314/145 205/315/145 211/316/145
f 212/316/146 208/315/146 207/314/146 209/313/146
f 211/317/147 205/318/147 208/319/147 212/320/147
f 212/308/148 209/307/148 210/306/148 211/305/148
o entity0_brush30
v 336.000000 -64.000015 -208.000000
v 336.000000 -64.000008 -127.999992
v 336.000000 -16.000010 -128.000000
v 336.000000 -16.000015 -208.000000
v 592.000000 -16.000010 -128.000000
v 592.000000 -64.000008 -127.999992
v 592.000000 -64.000015 -208.000000
v 592.000000 -16.000015 -208.000000
vn -1.0000 -0.0000 -0.0000
vn -0.0000 -0.0000 1.0000
vn -0.0000 -1.0000 -0.0000
vn -0.0000 1.0000 -0.0000
vn -0.0000 -0.0000 -1.0000
vn 1.0000 -0.0000 -0.0000
vt 6.500000 -2.000000
vt 4.000000 -2.000000
vt 4.000000 -0.500000
vt 6.500000 -0.500000
vt 18.500000 -0.500000
vt 10.500000 -0.500000
vt 10.500000 -2.000000
vt 18.500000 -2.000000
vt 18.500000 4.000000
vt 10.500000 4.000000
vt 10.500000 6.500000
vt 18.500000 6.500000
s 1
usemtl __TB_empty
f 213/321/149 214/322/149 215/323/149 216/324/149
f 217/325/150 215/326/150 214/327/150 218/328/150
f 218/329/151 214/330/151 213/331/151 219/332/151
f 220/332/152 216/331/152 215/330/152 217/329/152
f 219/328/153 213/327/153 216/326/153 220/325/153
f 220/324/154 217/323/154 218/322/154 219/321/154
o entity0_brush31
v -128.000000 912.000000 143.999924
v -128.000000 912.000000 207.999924
v -128.000000 960.000000 207.999924
v -128.000000 960.000000 143.999924
v 128.000000 960.000000 207.999924
v 128.000000 912.000000 207.999924
v 128.000000 912.000000 143.999924
v 128.000000 960.000000 143.999924
vn -1.0000 -0.0000 -0.0000
vn -0.0000 -0.0000 1.0000
vn -0.0000 -1.0000 -0.0000
vn -0.0000 1.0000 -0.0000
vn -0.0000 -0.0000 -1.0000
vn 1.0000 -0.0000 -0.0000
vt -4.500000 28.500000
vt -6.500000 28.500000
vt -6.500000 30.000000
vt -4.500000 30.000000
vt 4.000000 30.000000
vt -4.000000 30.000000
vt -4.000000 28.500000
vt 4.000000 28.500000
vt 4.000000 -6.500000
vt -4.000000 -6.500000
vt -4.000000 -4.500000
vt 4.000000 -4.500000
s 1
usemtl __TB_empty
f 221/333/155 222/334/155 223/335/155 224/336/155
f 225/337/156 223/338/156 222/339/156 226/340/156
f 226/341/157 222/342/157 221/343/157 227/344/157
f 228/344/158 224/343/158 223/342/158 225/341/158
f 227/340/159 221/339/159 224/338/159 228/337/159
f 228/336/160 225/335/160 226/334/160 227/333/160
o entity0_brush32
v -128.000000 912.000000 -208.000076
v -128.000000 912.000000 -128.000076
v -128.000000 960.000000 -128.000076
v -128.000000 960.000000 -208.000076
v 128.000000 960.000000 -128.000076
v 128.000000 912.000000 -128.000076
v 128.000000 912.000000 -208.000076
v 128.000000 960.000000 -208.000076
vn -1.0000 -0.0000 -0.0000
vn -0.0000 -0.0000 1.0000
vn -0.0000 -1.0000 -0.0000
vn -0.0000 1.0000 -0.0000
vn -0.0000 -0.0000 -1.0000
vn 1.0000 -0.0000 -0.0000
vt 6.500000 28.500000
vt 4.000000 28.500000
vt 4.000000 30.000000
vt 6.500000 30.000000
vt -4.000000 30.000000
vt -4.000000 28.500000
vt 4.000000 4.000000
vt -4.000000 4.000000
vt -4.000000 6.500000
vt 4.000000 6.500000
s 1
usemtl __TB_empty
f 229/345/161 230/346/161 231/347/161 232/348/161
f 233/347/162 231/349/162 230/350/162 234/346/162
f 234/351/163 230/352/163 229/353/163 235/354/163
f 236/354/164 232/353/164 231/352/164 233/351/164
f 235/346/165 229/350/165 232/349/165 236/347/165
f 236/348/166 233/347/166 234/346/166 235/345/166
o portal_exit_1
v 336.000000 -15.999990 144.000000
v 336.000000 -16.000010 -128.000000
v 592.000000 -15.999990 144.000000
v 592.000000 -16.000010 -128.000000
vn -0.0000 1.0000 -0.0000
vt 18.500000 4.000000
vt 10.500000 4.000000
vt 10.500000 -4.500000
vt 18.500000 -4.500000
s 1
usemtl __TB_empty
f 240/355/167 238/356/167 237/357/167 239/358/167
o portal_exit_2
v -128.000000 -15.999990 144.000000
v -128.000000 -16.000010 -128.000000
v 128.000000 -15.999990 144.000000
v 128.000000 -16.000010 -128.000000
vn -0.0000 1.0000 -0.0000
vt 4.000000 4.000000
vt -4.000000 4.000000
vt -4.000000 -4.500000
vt 4.000000 -4.500000
s 1
usemtl __TB_empty
f 244/359/168 242/360/168 241/361/168 243/362/168
o entity0_brush35
v 128.000000 -32.000015 -224.000000
v 128.000000 -32.000015 -208.000000
v 128.000000 928.000000 -208.000076
v 128.000000 928.000000 -224.000076
v 336.000000 928.000000 -208.000076
v 336.000000 -32.000015 -208.000000
v 336.000000 -32.000015 -224.000000
v 336.000000 928.000000 -224.000076
vn -1.0000 -0.0000 -0.0000
vn -0.0000 -0.0000 1.0000
vn -0.0000 -1.0000 -0.0000
vn -0.0000 1.0000 -0.0000
vn -0.0000 -0.0000 -1.0000
vn 1.0000 -0.0000 -0.0000
vt 7.000000 -1.000000
vt 6.500000 -1.000000
vt 6.500000 29.000000
vt 7.000000 29.000000
vt 10.500000 29.000000
vt 4.000000 29.000000
vt 4.000000 -1.000000
vt 10.500000 -1.000000
vt 10.500000 6.500000
vt 4.000000 6.500000
vt 4.000000 7.000000
vt 10.500000 7.000000
s 1
usemtl __TB_empty
f 245/363/169 246/364/169 247/365/169 248/366/169
f 249/367/170 247/368/170 246/369/170 250/370/170
f 250/371/171 246/372/171 245/373/171 251/374/171
f 252/374/172 248/373/172 247/372/172 249/371/172
f 251/370/173 245/369/173 248/368/173 252/367/173
f 252/366/174 249/365/174 250/364/174 251/363/174
o entity0_brush36
v 128.000000 -31.999985 208.000000
v 128.000000 -31.999983 224.000000
v 128.000000 928.000000 223.999924
v 128.000000 928.000000 207.999924
v 336.000000 928.000000 223.999924
v 336.000000 -31.999983 224.000000
v 336.000000 -31.999985 208.000000
v 336.000000 928.000000 207.999924
vn -1.0000 -0.0000 -0.0000
vn -0.0000 -0.0000 1.0000
vn -0.0000 -1.0000 -0.0000
vn -0.0000 1.0000 -0.0000
vn -0.0000 -0.0000 -1.0000
vn 1.0000 -0.0000 -0.0000
vt -6.500000 -1.000000
vt -7.000000 -1.000000
vt -7.000000 29.000000
vt -6.500000 29.000000
vt 10.500000 29.000000
vt 4.000000 29.000000
vt 4.000000 -1.000000
vt 10.500000 -1.000000
vt 10.500000 -7.000000
vt 4.000000 -7.000000
vt 4.000000 -6.500000
vt 10.500000 -6.500000
s 1
usemtl __TB_empty
f 253/375/175 254/376/175 255/377/175 256/378/175
f 257/379/176 255/380/176 254/381/176 258/382/176
f 258/383/177 254/384/177 253/385/177 259/386/177
f 260/386/178 256/385/178 255/384/178 257/383/178
f 259/382/179 253/381/179 256/380/179 260/379/179
f 260/378/180 257/377/180 258/376/180 259/375/180
o portal_entrance_3
v 240.000000 64.000008 79.999992
v 240.000000 -31.999994 80.000000
v 240.000000 -32.000008 -80.000000
v 240.000000 63.999992 -80.000008
vn 1.0000 -0.0000 -0.0000
vt 2.500000 2.000000
vt -2.500000 2.000000
vt -2.500000 -1.000000
vt 2.500000 -1.000000
s 1
usemtl __TB_empty
f 264/387/181 261/388/181 262/389/181 263/390/181
o entity0_brick_38
v 801.248230 6448.504883 -1393.085083
v 801.248230 6448.504883 -369.085083
v 801.248230 7088.504883 -369.085083
v 801.248230 7088.504395 -1393.085083
v 817.248230 7088.504883 -369.085083
v 817.248230 6448.504883 -369.085083
v 817.248230 6448.504883 -1393.085083
v 817.248230 7088.504395 -1393.085083
vn -1.0000 -0.0000 -0.0000
vn -0.0000 -0.0000 1.0000
vn -0.0000 -1.0000 -0.0000
vn -0.0000 1.0000 -0.0000
vn -0.0000 -0.0000 -1.0000
vn 1.0000 -0.0000 -0.0000
vt 1.453125 -0.062500
vt 0.453125 -0.062500
vt 0.453125 0.562500
vt 1.453125 0.562500
vt -0.781250 0.562500
vt -0.796875 0.562500
vt -0.796875 -0.062500
vt -0.781250 -0.062500
vt -0.781250 0.453125
vt -0.796875 0.453125
vt -0.796875 1.453125
vt -0.781250 1.453125
s 1
usemtl Tiles075_1K-JPG_Color
f 265/391/182 266/392/182 267/393/182 268/394/182
f 269/395/183 267/396/183 266/397/183 270/398/183
f 270/399/184 266/400/184 265/401/184 271/402/184
f 272/402/185 268/401/185 267/400/185 269/399/185
f 271/398/186 265/397/186 268/396/186 272/395/186
f 272/394/187 269/393/187 270/392/187 271/391/187
o entity0_brick_39
v 817.248230 6448.504883 -1393.085083
v 817.248230 6448.504883 -1377.085083
v 817.248230 7088.504395 -1377.085083
v 817.248230 7088.504395 -1393.085083
v 1809.248291 7088.504395 -1377.085083
v 1809.248291 6448.504883 -1377.085083
v 1809.248291 6448.504883 -1393.085083
v 1809.248291 7088.504395 -1393.085083
vn -1.0000 -0.0000 -0.0000
vn -0.0000 -0.0000 1.0000
vn -0.0000 -1.0000 -0.0000
vn -0.0000 1.0000 -0.0000
vn -0.0000 -0.0000 -1.0000
vn 1.0000 -0.0000 -0.0000
vt 1.453125 -0.062500
vt 1.437500 -0.062500
vt 1.437500 0.562500
vt 1.453125 0.562500
vt 0.187500 0.562500
vt -0.781250 0.562500
vt -0.781250 -0.062500
vt 0.187500 -0.062500
vt 0.187500 1.437500
vt -0.781250 1.437500
vt -0.781250 1.453125
vt 0.187500 1.453125
s 1
usemtl Tiles075_1K-JPG_Color
f 273/403/188 274/404/188 275/405/188 276/406/188
f 277/407/189 275/408/189 274/409/189 278/410/189
f 278/411/190 274/412/190 273/413/190 279/414/190
f 280/414/191 276/413/191 275/412/191 277/411/191
f 279/410/192 273/409/192 276/408/192 280/407/192
f 280/406/193 277/405/193 278/404/193 279/403/193
o entity0_brush4
v -138.666672 -63.999985 208.000000
v -90.666664 -63.999981 256.000000
v -90.666664 960.000000 255.999924
v -138.666672 960.000000 207.999924
v 90.666664 960.000000 255.999924
v 90.666664 -63.999981 256.000000
v 138.666672 -63.999985 208.000000
v 138.666672 960.000000 207.999924
vn -0.7071 -0.0000 0.7071
vn -0.0000 -0.0000 1.0000
vn -0.0000 -1.0000 -0.0000
vn -0.0000 1.0000 -0.0000
vn -0.0000 -0.0000 -1.0000
vn 0.7071 -0.0000 0.7071
vt -6.500000 -2.000000
vt -8.000000 -2.000000
vt -8.000000 30.000000
vt -6.500000 30.000000
vt 2.833333 30.000000
vt -2.833333 30.000000
vt -2.833333 -2.000000
vt 2.833333 -2.000000
vt 2.833333 -8.000000
vt -2.833333 -8.000000
vt -4.333333 -6.500000
vt 4.333333 -6.500000
vt 4.333333 -2.000000
vt -4.333333 -2.000000
vt -4.333333 30.000000
vt 4.333333 30.000000
s 1
usemtl __TB_empty
f 281/415/194 282/416/194 283/417/194 284/418/194
f 285/419/195 283/420/195 282/421/195 286/422/195
f 286/423/196 282/424/196 281/425/196 287/426/196
f 288/426/197 284/425/197 283/424/197 285/423/197
f 287/427/198 281/428/198 284/429/198 288/430/198
f 287/415/199 288/418/199 285/417/199 286/416/199
o entity0_brick_40
v 817.248230 6448.504883 -385.085083
v 817.248230 6448.504883 -369.085083
v 817.248230 7088.504883 -369.085083
v 817.248230 7088.504883 -385.085083
v 1809.248291 7088.504883 -369.085083
v 1809.248291 6448.504883 -369.085083
v 1809.248291 6448.504883 -385.085083
v 1809.248291 7088.504883 -385.085083
vn -1.0000 -0.0000 -0.0000
vn -0.0000 -0.0000 1.0000
vn -0.0000 -1.0000 -0.0000
vn -0.0000 1.0000 -0.0000
vn -0.0000 -0.0000 -1.0000
vn 1.0000 -0.0000 -0.0000
vt 0.468750 -0.062500
vt 0.453125 -0.062500
vt 0.453125 0.562500
vt 0.468750 0.562500
vt 0.187500 0.562500
vt -0.781250 0.562500
vt -0.781250 -0.062500
vt 0.187500 -0.062500
vt 0.187500 0.453125
vt -0.781250 0.453125
vt -0.781250 0.468750
vt 0.187500 0.468750
s 1
usemtl Tiles075_1K-JPG_Color
f 289/431/200 290/432/200 291/433/200 292/434/200
f 293/435/201 291/436/201 290/437/201 294/438/201
f 294/439/202 290/440/202 289/441/202 295/442/202
f 296/442/203 292/441/203 291/440/203 293/439/203
f 295/438/204 289/437/204 292/436/204 296/435/204
f 296/434/205 293/433/205 294/432/205 295/431/205
o entity0_blackwhite_41
v 817.248230 7088.504395 -1377.085083
v 817.248230 7088.504883 -385.085083
v 817.248230 7120.504883 -385.085083
v 817.248230 7120.504395 -1377.085083
v 1809.248291 7120.504883 -385.085083
v 1809.248291 7088.504883 -385.085083
v 1809.248291 7088.504395 -1377.085083
v 1809.248291 7120.504395 -1377.085083
vn -1.0000 -0.0000 -0.0000
vn -0.0000 -0.0000 1.0000
vn -0.0000 -1.0000 -0.0000
vn -0.0000 1.0000 -0.0000
vn -0.0000 -0.0000 -1.0000
vn 1.0000 -0.0000 -0.0000
vt 1.437500 0.562500
vt 0.468750 0.562500
vt 0.468750 0.593750
vt 1.437500 0.593750
vt 0.187500 0.593750
vt -0.781250 0.593750
vt -0.781250 0.562500
vt 0.187500 0.562500
vt 0.187500 0.468750
vt -0.781250 0.468750
vt -0.781250 1.437500
vt 0.187500 1.437500
s 1
usemtl Tiles058_1K-JPG_Color
f 297/443/206 298/444/206 299/445/206 300/446/206
f 301/447/207 299/448/207 298/449/207 302/450/207
f 302/451/208 298/452/208 297/453/208 303/454/208
f 304/454/209 300/453/209 299/452/209 301/451/209
f 303/450/210 297/449/210 300/448/210 304/447/210
f 304/446/211 301/445/211 302/444/211 303/443/211
o entity0_blackwhite_42
v 817.248230 6448.504883 -1377.085083
v 817.248230 6448.504883 -385.085083
v 817.248230 6480.504883 -385.085083
v 817.248230 6480.504883 -1377.085083
v 1809.248291 6480.504883 -385.085083
v 1809.248291 6448.504883 -385.085083
v 1809.248291 6448.504883 -1377.085083
v 1809.248291 6480.504883 -1377.085083
vn -1.0000 -0.0000 -0.0000
vn -0.0000 -0.0000 1.0000
vn -0.0000 -1.0000 -0.0000
vn -0.0000 1.0000 -0.0000
vn -0.0000 -0.0000 -1.0000
vn 1.0000 -0.0000 -0.0000
vt 1.437500 -0.062500
vt 0.468750 -0.062500
vt 0.468750 -0.031250
vt 1.437500 -0.031250
vt 0.187500 -0.031250
vt -0.781250 -0.031250
vt -0.781250 -0.062500
vt 0.187500 -0.062500
vt 0.187500 0.468750
vt -0.781250 0.468750
vt -0.781250 1.437500
vt 0.187500 1.437500
s 1
usemtl Tiles058_1K-JPG_Color
f 305/455/212 306/456/212 307/457/212 308/458/212
f 309/459/213 307/460/213 306/461/213 310/462/213
f 310/463/214 306/464/214 305/465/214 311/466/214
f 312/466/215 308/465/215 307/464/215 309/463/215
f 311/462/216 305/461/216 308/460/216 312/459/216
f 312/458/217 309/457/217 310/456/217 311/455/217
o portal_exit_3
v 1809.248291 6480.504883 -913.085083
v 1809.248291 6480.504883 -753.085083
v 1809.248291 6576.504883 -753.085083
v 1809.248291 6576.504883 -913.085083
vn -1.0000 -0.0000 -0.0000
vt 31.500000 -1.000000
vt 26.500000 -1.000000
vt 26.500000 2.000000
vt 31.500000 2.000000
s 1
usemtl __TB_empty
f 313/467/218 314/468/218 315/469/218 316/470/218
o portal_entrance_4
v 1445.565552 6480.438477 -855.135681
v 1445.565552 6480.438477 -423.135681
v 1445.565552 6739.638184 -423.135681
v 1445.565552 6739.638184 -855.135681
vn 1.0000 -0.0000 -0.0000
vt 46.500000 -1.000000
vt 46.500000 8.000000
vt 33.000000 8.000000
vt 33.000000 -1.000000
s 1
usemtl __TB_empty
f 317/471/219 320/472/219 319/473/219 318/474/219
o entity0_brick_45
v 1809.248291 6448.504883 -753.085083
v 1809.248291 6448.504883 -369.085083
v 1809.248291 7088.504883 -369.085083
v 1809.248291 7088.504883 -753.085083
v 1825.248291 7088.504883 -369.085083
v 1825.248291 6448.504883 -369.085083
v 1825.248291 6448.504883 -753.085083
v 1825.248291 7088.504883 -753.085083
vn -1.0000 -0.0000 -0.0000
vn -0.0000 -0.0000 1.0000
vn -0.0000 -1.0000 -0.0000
vn -0.0000 1.0000 -0.0000
vn -0.0000 -0.0000 -1.0000
vn 1.0000 -0.0000 -0.0000
vt 0.828125 -0.062500
vt 0.453125 -0.062500
vt 0.453125 0.562500
vt 0.828125 0.562500
vt 0.203125 0.562500
vt 0.187500 0.562500
vt 0.187500 -0.062500
vt 0.203125 -0.062500
vt 0.203125 0.453125
vt 0.187500 0.453125
vt 0.187500 0.828125
vt 0.203125 0.828125
s 1
usemtl Tiles075_1K-JPG_Color
f 321/475/220 322/476/220 323/477/220 324/478/220
f 325/479/221 323/480/221 322/481/221 326/482/221
f 326/483/222 322/484/222 321/485/222 327/486/222
f 328/486/223 324/485/223 323/484/223 325/483/223
f 327/482/224 321/481/224 324/480/224 328/479/224
f 328/478/225 325/477/225 326/476/225 327/475/225
o entity0_brick_46
v 1809.248291 6480.504883 -961.085083
v 1809.248291 6480.504883 -913.085083
v 1809.248291 7088.504883 -913.085083
v 1809.248291 7088.504883 -961.085083
v 1825.248291 7088.504883 -913.085083
v 1825.248291 6480.504883 -913.085083
v 1825.248291 6480.504883 -961.085083
v 1825.248291 7088.504883 -961.085083
vn -1.0000 -0.0000 -0.0000
vn -0.0000 -0.0000 1.0000
vn -0.0000 -1.0000 -0.0000
vn -0.0000 1.0000 -0.0000
vn -0.0000 -0.0000 -1.0000
vn 1.0000 -0.0000 -0.0000
vt 1.031250 -0.031250
vt 0.984375 -0.031250
vt 0.984375 0.562500
vt 1.031250 0.562500
vt 0.203125 0.562500
vt 0.187500 0.562500
vt 0.187500 -0.031250
vt 0.203125 -0.031250
vt 0.203125 0.984375
vt 0.187500 0.984375
vt 0.187500 1.031250
vt 0.203125 1.031250
s 1
usemtl Tiles075_1K-JPG_Color
f 329/487/226 330/488/226 331/489/226 332/490/226
f 333/491/227 331/492/227 330/493/227 334/494/227
f 334/495/228 330/496/228 329/497/228 335/498/228
f 336/498/229 332/497/229 331/496/229 333/495/229
f 335/494/230 329/493/230 332/492/230 336/491/230
f 336/490/231 333/489/231 334/488/231 335/487/231
o entity0_brush47
v 1809.248291 6448.504883 -961.085083
v 1809.248291 6448.504883 -801.085083
v 1809.248291 6480.504883 -801.085083
v 1809.248291 6480.504883 -961.085083
v 1825.248291 6480.504883 -801.085083
v 1825.248291 6448.504883 -801.085083
v 1825.248291 6448.504883 -961.085083
v 1825.248291 6480.504883 -961.085083
vn -1.0000 -0.0000 -0.0000
vn -0.0000 -0.0000 1.0000
vn -0.0000 -1.0000 -0.0000
vn -0.0000 1.0000 -0.0000
vn -0.0000 -0.0000 -1.0000
vn 1.0000 -0.0000 -0.0000
vt 33.000000 -2.000000
vt 28.000000 -2.000000
vt 28.000000 -1.000000
vt 33.000000 -1.000000
vt 6.500000 -1.000000
vt 6.000000 -1.000000
vt 6.000000 -2.000000
vt 6.500000 -2.000000
vt 6.500000 28.000000
vt 6.000000 28.000000
vt 6.000000 33.000000
vt 6.500000 33.000000
s 1
usemtl __TB_empty
f 337/499/232 338/500/232 339/501/232 340/502/232
f 341/503/233 339/504/233 338/505/233 342/506/233
f 342/507/234 338/508/234 337/509/234 343/510/234
f 344/510/235 340/509/235 339/508/235 341/507/235
f 343/506/236 337/505/236 340/504/236 344/503/236
f 344/502/237 341/501/237 342/500/237 343/499/237
o entity0_blackwhite_48
v 1441.248291 6768.504883 -1393.085083
v 1441.248291 6768.504883 -401.085083
v 1441.248291 6800.504883 -401.085083
v 1441.248291 6800.504395 -1393.085083
v 1809.248291 6800.504883 -401.085083
v 1809.248291 6768.504883 -401.085083
v 1809.248291 6768.504883 -1393.085083
v 1809.248291 6800.504395 -1393.085083
vn -1.0000 -0.0000 -0.0000
vn -0.0000 -0.0000 1.0000
vn -0.0000 -1.0000 -0.0000
vn -0.0000 1.0000 -0.0000
vn -0.0000 -0.0000 -1.0000
vn 1.0000 -0.0000 -0.0000
vt 1.453125 0.250000
vt 0.484375 0.250000
vt 0.484375 0.281250
vt 1.453125 0.281250
vt 0.187500 0.281250
vt -0.171875 0.281250
vt -0.171875 0.250000
vt 0.187500 0.250000
vt 0.187500 0.484375
vt -0.171875 0.484375
vt -0.171875 1.453125
vt 0.187500 1.453125
s 1
usemtl Tiles058_1K-JPG_Color
f 345/511/238 346/512/238 347/513/238 348/514/238
f 349/515/239 347/516/239 346/517/239 350/518/239
f 350/519/240 346/520/240 345/521/240 351/522/240
f 352/522/241 348/521/241 347/520/241 349/519/241
f 351/518/242 345/517/242 348/516/242 352/515/242
f 352/514/243 349/513/243 350/512/243 351/511/243
o entity0_black_49
v 993.248230 6640.504883 -1385.085083
v 993.248230 6480.504883 -1385.085083
v 993.248230 6480.504883 -889.085083
v 993.248230 6640.504883 -889.085083
v 1441.248291 6480.504883 -889.085083
v 1441.248291 6480.504883 -1385.085083
vn -1.0000 -0.0000 -0.0000
vn -0.0000 -0.0000 1.0000
vn -0.0000 -1.0000 -0.0000
vn -0.0000 -0.0000 -1.0000
vn 0.3363 0.9417 -0.0000
vt 1.445312 0.125000
vt 1.445312 -0.031250
vt 0.960938 -0.031250
vt 0.960938 0.125000
vt -0.609375 0.125000
vt -0.609375 -0.031250
vt -0.171875 -0.031250
vt -0.171875 0.960938
vt -0.609375 0.960938
vt -0.609375 1.445312
vt -0.171875 1.445312
vt -0.218750 0.460938
vt -0.218750 -0.023438
vt 0.218750 -0.023438
vt 0.218750 0.460938
s 1
usemtl Tiles058_1K-JPG_Color
f 353/523/244 354/524/244 355/525/244 356/526/244
f 356/527/245 355/528/245 357/529/245
f 357/530/246 355/531/246 354/532/246 358/533/246
f 358/529/247 354/528/247 353/527/247
f 353/534/248 356/535/248 357/536/248 358/537/248
o entity0_brush5
v 672.000000 -64.000015 -218.666672
v 672.000000 -63.999985 218.666672
v 672.000000 960.000000 218.666595
v 672.000000 960.000000 -218.666748
v 720.000000 -63.999989 170.666672
v 720.000000 -64.000015 -170.666672
v 720.000000 960.000000 -170.666748
v 720.000000 960.000000 170.666595
vn -1.0000 -0.0000 -0.0000
vn -0.0000 -1.0000 -0.0000
vn -0.0000 1.0000 -0.0000
vn 0.7071 -0.0000 0.7071
vn 0.7071 -0.0000 -0.7071
vn 1.0000 -0.0000 -0.0000
vt 6.833333 -2.000000
vt -6.833333 -2.000000
vt -6.833333 30.000000
vt 6.833333 30.000000
vt 22.500000 -5.333333
vt 21.000000 -6.833333
vt 21.000000 6.833333
vt 22.500000 5.333333
vt 22.500000 30.000000
vt 21.000000 30.000000
vt 21.000000 -2.000000
vt 22.500000 -2.000000
vt 5.333333 -2.000000
vt 5.333333 30.000000
vt -5.333333 30.000000
vt -5.333333 -2.000000
s 1
usemtl __TB_empty
f 359/538/249 360/539/249 361/540/249 362/541/249
f 363/542/250 360/543/250 359/544/250 364/545/250
f 365/545/251 362/544/251 361/543/251 366/542/251
f 366/546/252 361/547/252 360/548/252 363/549/252
f 364/550/253 359/538/253 362/541/253 365/551/253
f 364/550/254 365/551/254 366/552/254 363/553/254
o entity0_brush50
v 817.248230 6480.504883 -1377.085083
v 817.248230 6480.504883 -385.085083
v 817.248230 6640.504883 -385.085083
v 817.248230 6640.504883 -1377.085083
v 993.248230 6640.504883 -385.085083
v 993.248230 6480.504883 -385.085083
v 993.248230 6480.504883 -1377.085083
v 993.248230 6640.504883 -1377.085083
vn -1.0000 -0.0000 -0.0000
vn -0.0000 -0.0000 1.0000
vn -0.0000 -1.0000 -0.0000
vn -0.0000 1.0000 -0.0000
vn -0.0000 -0.0000 -1.0000
vn 1.0000 -0.0000 -0.0000
vt 1.437500 -0.031250
vt 0.468750 -0.031250
vt 0.468750 0.125000
vt 1.437500 0.125000
vt -0.609375 0.125000
vt -0.781250 0.125000
vt -0.781250 -0.031250
vt -0.609375 -0.031250
vt -0.609375 0.468750
vt -0.781250 0.468750
vt -0.781250 1.437500
vt -0.609375 1.437500
s 1
usemtl Tiles058_1K-JPG_Color
f 367/554/255 368/555/255 369/556/255 370/557/255
f 371/558/256 369/559/256 368/560/256 372/561/256
f 372/562/257 368/563/257 367/564/257 373/565/257
f 374/565/258 370/564/258 369/563/258 371/562/258
f 373/561/259 367/560/259 370/559/259 374/558/259
f 374/557/260 371/556/260 372/555/260 373/554/260
o entity0_black_51
v 1441.248291 6800.504883 -889.085083
v 993.248230 6640.504883 -889.085083
v 993.248230 6640.504883 -393.085083
v 1441.248291 6800.504883 -393.085083
v 1441.248291 6640.504883 -393.085083
v 1441.248291 6640.504883 -889.085083
vn -0.3363 0.9417 -0.0000
vn -0.0000 -0.0000 1.0000
vn -0.0000 -1.0000 -0.0000
vn -0.0000 -0.0000 -1.0000
vn 1.0000 -0.0000 -0.0000
vt 0.218750 -0.023438
vt -0.218750 -0.023438
vt -0.218750 -0.507812
vt 0.218750 -0.507812
vt -0.171875 0.281250
vt -0.609375 0.125000
vt -0.171875 0.125000
vt -0.171875 0.476562
vt -0.609375 0.476562
vt -0.609375 0.960938
vt -0.171875 0.960938
vt 0.960938 0.281250
vt 0.476562 0.281250
vt 0.476562 0.125000
vt 0.960938 0.125000
s 1
usemtl Tiles058_1K-JPG_Color
f 375/566/261 376/567/261 377/568/261 378/569/261
f 378/570/262 377/571/262 379/572/262
f 379/573/263 377/574/263 376/575/263 380/576/263
f 380/572/264 376/571/264 375/570/264
f 375/577/265 378/578/265 379/579/265 380/580/265
o entity0_black_52
v 993.248230 6480.504883 -889.085083
v 993.248230 6480.504883 -393.085083
v 993.248230 6640.504883 -393.085083
v 993.248230 6640.504883 -889.085083
v 1441.248291 6640.504883 -393.085083
v 1441.248291 6480.504883 -393.085083
v 1441.248291 6480.504883 -889.085083
v 1441.248291 6640.504883 -889.085083
vn -1.0000 -0.0000 -0.0000
vn -0.0000 -0.0000 1.0000
vn -0.0000 -1.0000 -0.0000
vn -0.0000 1.0000 -0.0000
vn -0.0000 -0.0000 -1.0000
vn 1.0000 -0.0000 -0.0000
vt 0.960938 -0.031250
vt 0.476562 -0.031250
vt 0.476562 0.125000
vt 0.960938 0.125000
vt -0.171875 0.125000
vt -0.609375 0.125000
vt -0.609375 -0.031250
vt -0.171875 -0.031250
vt -0.171875 0.476562
vt -0.609375 0.476562
vt -0.609375 0.960938
vt -0.171875 0.960938
s 1
usemtl Tiles058_1K-JPG_Color
f 381/581/266 382/582/266 383/583/266 384/584/266
f 385/585/267 383/586/267 382/587/267 386/588/267
f 386/589/268 382/590/268 381/591/268 387/592/268
f 388/592/269 384/591/269 383/590/269 385/589/269
f 387/588/270 381/587/270 384/586/270 388/585/270
f 388/584/271 385/583/271 386/582/271 387/581/271
o portal_exit_4
v 1809.248291 6771.704590 -1393.085083
v 1809.248291 6771.704590 -961.085083
v 1809.248291 7030.904297 -961.085083
v 1809.248291 7030.904297 -1393.085083
vn -1.0000 -0.0000 -0.0000
vt 46.500000 9.000000
vt 33.000000 9.000000
vt 33.000000 18.000000
vt 46.500000 18.000000
s 1
usemtl __TB_empty
f 389/593/272 390/594/272 391/595/272 392/596/272
o entity0_brick_54
v 1809.248291 6576.504883 -913.085083
v 1809.248291 6576.504883 -753.085083
v 1809.248291 7088.504883 -753.085083
v 1809.248291 7088.504883 -913.085083
v 1825.248291 7088.504883 -753.085083
v 1825.248291 6576.504883 -753.085083
v 1825.248291 6576.504883 -913.085083
v 1825.248291 7088.504883 -913.085083
vn -1.0000 -0.0000 -0.0000
vn -0.0000 -0.0000 1.0000
vn -0.0000 -1.0000 -0.0000
vn -0.0000 1.0000 -0.0000
vn -0.0000 -0.0000 -1.0000
vn 1.0000 -0.0000 -0.0000
vt 0.984375 0.062500
vt 0.828125 0.062500
vt 0.828125 0.562500
vt 0.984375 0.562500
vt 0.203125 0.562500
vt 0.187500 0.562500
vt 0.187500 0.062500
vt 0.203125 0.062500
vt 0.203125 0.828125
vt 0.187500 0.828125
vt 0.187500 0.984375
vt 0.203125 0.984375
s 1
usemtl Tiles075_1K-JPG_Color
f 393/597/273 394/598/273 395/599/273 396/600/273
f 397/601/274 395/602/274 394/603/274 398/604/274
f 398/605/275 394/606/275 393/607/275 399/608/275
f 400/608/276 396/607/276 395/606/276 397/605/276
f 399/604/277 393/603/277 396/602/277 400/601/277
f 400/600/278 397/599/278 398/598/278 399/597/278
o entity0_brush6
v 672.000000 960.000000 -138.666748
v 554.666687 960.000000 -256.000061
v 554.666687 -64.000023 -256.000000
v 672.000000 -64.000008 -138.666672
v 634.666687 -64.000023 -256.000000
v 672.000000 -64.000015 -218.666672
v 672.000000 960.000000 -218.666748
v 634.666687 960.000000 -256.000061
vn -0.7071 -0.0000 0.7071
vn -0.0000 -1.0000 -0.0000
vn -0.0000 1.0000 -0.0000
vn -0.0000 -0.0000 -1.0000
vn 0.7071 -0.0000 -0.7071
vn 1.0000 -0.0000 -0.0000
vt 4.333333 30.000000
vt 8.000000 30.000000
vt 8.000000 -2.000000
vt 4.333333 -2.000000
vt 21.000000 4.333333
vt 17.333334 8.000000
vt 19.833334 8.000000
vt 21.000000 6.833333
vt 19.833334 -2.000000
vt 17.333334 -2.000000
vt 17.333334 30.000000
vt 19.833334 30.000000
vt 6.833333 -2.000000
vt 6.833333 30.000000
s 1
usemtl __TB_empty
f 401/609/279 402/610/279 403/611/279 404/612/279
f 404/613/280 403/614/280 405/615/280 406/616/280
f 407/616/281 408/615/281 402/614/281 401/613/281
f 405/617/282 403/618/282 402/619/282 408/620/282
f 406/621/283 405/611/283 408/610/283 407/622/283
f 407/622/284 401/609/284 404/612/284 406/621/284
o entity0_brush7
v 672.000000 -63.999989 138.666672
v 554.666687 -63.999981 256.000000
v 554.666687 960.000000 255.999924
v 672.000000 960.000000 138.666595
v 634.666687 960.000000 255.999924
v 634.666687 -63.999981 256.000000
v 672.000000 -63.999985 218.666672
v 672.000000 960.000000 218.666595
vn -0.7071 -0.0000 -0.7071
vn -0.0000 -0.0000 1.0000
vn -0.0000 -1.0000 -0.0000
vn -0.0000 1.0000 -0.0000
vn 0.7071 -0.0000 0.7071
vn 1.0000 -0.0000 -0.0000
vt -4.333333 -2.000000
vt -8.000000 -2.000000
vt -8.000000 30.000000
vt -4.333333 30.000000
vt 19.833334 30.000000
vt 17.333334 30.000000
vt 17.333334 -2.000000
vt 19.833334 -2.000000
vt 21.000000 -6.833333
vt 19.833334 -8.000000
vt 17.333334 -8.000000
vt 21.000000 -4.333333
vt -6.833333 30.000000
vt -6.833333 -2.000000
s 1
usemtl __TB_empty
f 409/623/285 410/624/285 411/625/285 412/626/285
f 413/627/286 411/628/286 410/629/286 414/630/286
f 415/631/287 414/632/287 410/633/287 409/634/287
f 412/634/288 411/633/288 413/632/288 416/631/288
f 416/635/289 413/625/289 414/624/289 415/636/289
f 409/623/290 412/626/290 416/635/290 415/636/290
o entity0_brush8
v 373.333344 -64.000023 -256.000000
v 325.333344 -64.000015 -208.000000
v 325.333344 960.000000 -208.000076
v 373.333344 960.000000 -256.000061
v 602.666687 960.000000 -208.000076
v 602.666687 -64.000015 -208.000000
v 554.666687 -64.000023 -256.000000
v 554.666687 960.000000 -256.000061
vn -0.7071 -0.0000 -0.7071
vn -0.0000 -0.0000 1.0000
vn -0.0000 -1.0000 -0.0000
vn -0.0000 1.0000 -0.0000
vn -0.0000 -0.0000 -1.0000
vn 0.7071 -0.0000 -0.7071
vt 8.000000 -2.000000
vt 6.500000 -2.000000
vt 6.500000 30.000000
vt 8.000000 30.000000
vt 18.833334 30.000000
vt 10.166667 30.000000
vt 10.166667 -2.000000
vt 18.833334 -2.000000
vt 18.833334 6.500000
vt 10.166667 6.500000
vt 11.666667 8.000000
vt 17.333334 8.000000
vt 17.333334 -2.000000
vt 11.666667 -2.000000
vt 11.666667 30.000000
vt 17.333334 30.000000
s 1
usemtl __TB_empty
f 417/637/291 418/638/291 419/639/291 420/640/291
f 421/641/292 419/642/292 418/643/292 422/644/292
f 422/645/293 418/646/293 417/647/293 423/648/293
f 424/648/294 420/647/294 419/646/294 421/645/294
f 423/649/295 417/650/295 420/651/295 424/652/295
f 424/640/296 421/639/296 422/638/296 423/637/296
o entity0_brush9
v 325.333344 -63.999985 208.000000
v 373.333344 -63.999981 256.000000
v 373.333344 960.000000 255.999924
v 325.333344 960.000000 207.999924
v 554.666687 960.000000 255.999924
v 554.666687 -63.999981 256.000000
v 602.666687 -63.999985 208.000000
v 602.666687 960.000000 207.999924
vn -0.7071 -0.0000 0.7071
vn -0.0000 -0.0000 1.0000
vn -0.0000 -1.0000 -0.0000
vn -0.0000 1.0000 -0.0000
vn -0.0000 -0.0000 -1.0000
vn 0.7071 -0.0000 0.7071
vt -6.500000 -2.000000
vt -8.000000 -2.000000
vt -8.000000 30.000000
vt -6.500000 30.000000
vt 17.333334 30.000000
vt 11.666667 30.000000
vt 11.666667 -2.000000
vt 17.333334 -2.000000
vt 17.333334 -8.000000
vt 11.666667 -8.000000
vt 10.166667 -6.500000
vt 18.833334 -6.500000
vt 18.833334 -2.000000
vt 10.166667 -2.000000
vt 10.166667 30.000000
vt 18.833334 30.000000
s 1
usemtl __TB_empty
f 425/653/297 426/654/297 427/655/297 428/656/297
f 429/657/298 427/658/298 426/659/298 430/660/298
f 430/661/299 426/662/299 425/663/299 431/664/299
f 432/664/300 428/663/300 427/662/300 429/661/300
f 431/665/301 425/666/301 428/667/301 432/668/301
f 432/656/302 429/655/302 430/654/302 431/653/302
o entity0_brick_45.001
v 1813.549683 6448.504883 -1390.953735
v 1813.549683 6448.504883 -940.727356
v 1813.549683 7115.278809 -940.727356
v 1813.549683 7115.278809 -1390.953735
v 1835.069580 7115.278809 -940.727356
v 1835.069580 6448.504883 -940.727356
v 1835.069580 6448.504883 -1390.953735
v 1835.069580 7115.278809 -1390.953735
vn -1.0000 -0.0000 -0.0000
vn -0.0000 -0.0000 1.0000
vn -0.0000 -1.0000 -0.0000
vn -0.0000 1.0000 -0.0000
vn -0.0000 -0.0000 -1.0000
vn 1.0000 -0.0000 -0.0000
vt 0.828125 -0.062500
vt 0.453125 -0.062500
vt 0.453125 0.562500
vt 0.828125 0.562500
vt 0.203125 0.562500
vt 0.187500 0.562500
vt 0.187500 -0.062500
vt 0.203125 -0.062500
vt 0.203125 0.453125
vt 0.187500 0.453125
vt 0.187500 0.828125
vt 0.203125 0.828125
s 1
usemtl Tiles075_1K-JPG_Color.002
f 433/669/303 434/670/303 435/671/303 436/672/303
f 437/673/304 435/674/304 434/675/304 438/676/304
f 438/677/305 434/678/305 433/679/305 439/680/305
f 440/680/306 436/679/306 435/678/306 437/677/306
f 439/676/307 433/675/307 436/674/307 440/673/307
f 440/672/308 437/671/308 438/670/308 439/669/308
