mtllib unnamed.mtl
# vertices
v 0 64 -80
v 0 64 16
v 0 80 16
v 0 80 -80
v 96 80 16
v 96 64 16
v 96 64 -80
v 96 80 -80

# texture coordinates
vt 2.5 2
vt -0.5 2
vt -0.5 2.5
vt 2.5 2.5
vt 3 2.5
vt 0 2.5
vt 0 2
vt 3 2
vt 3 -0.5
vt 0 -0.5

# normals
vn -1 0 -0
vn 0 0 1
vn 0 -1 -0
vn 0 1 -0
vn 0 0 -1
vn 1 0 -0

o entity0_brush0
usemtl __TB_empty
f  1/1/1  2/2/1  3/3/1  4/4/1
usemtl __TB_empty
f  5/5/2  3/6/2  2/7/2  6/8/2
usemtl __TB_empty
f  6/9/3  2/10/3  1/6/3  7/5/3
usemtl __TB_empty
f  8/5/4  4/6/4  3/10/4  5/9/4
usemtl __TB_empty
f  7/8/5  1/7/5  4/6/5  8/5/5
usemtl __TB_empty
f  8/4/6  5/3/6  6/2/6  7/1/6

