# Blender 5.1.1
# www.blender.org
mtllib rocket jumper.mtl
o Cube
v -0.243945 0.522355 -0.790287
v -0.243945 0.855221 -0.027270
v -0.243945 0.522355 -4.000000
v -0.243945 1.216384 -4.000000
v 0.243945 0.522355 -0.790287
v 0.243945 0.855221 -0.027270
v 0.243945 0.522355 -4.000000
v 0.243945 1.216384 -4.000000
v -0.330400 -0.472440 -0.790287
v -0.618671 -0.638873 -0.027270
v -0.330400 -0.472440 -4.000000
v -0.931447 -0.819454 -4.000000
v -0.574345 -0.049915 -0.790287
v -0.862615 -0.216348 -0.027270
v -0.574345 -0.049915 -4.000000
v -1.175391 -0.396929 -4.000000
v 0.574345 -0.049915 -0.790287
v 0.862615 -0.216348 -0.027270
v 0.574345 -0.049915 -4.000000
v 1.175391 -0.396929 -4.000000
v 0.330400 -0.472440 -0.790287
v 0.618671 -0.638873 -0.027270
v 0.330400 -0.472439 -4.000000
v 0.931447 -0.819454 -4.000000
v 0.000000 1.188157 -3.874348
v 0.000000 0.705423 0.620504
v 1.130005 0.367161 -3.874348
v 0.506275 0.217988 0.620504
v 0.698381 -0.961239 -3.874348
v 0.360848 -0.570699 0.483541
v -0.698381 -0.961239 -3.874348
v -0.360848 -0.570699 0.483541
v -1.130005 0.367161 -3.874348
v -0.506275 0.217988 0.620504
v 0.565002 0.777659 -3.874348
v 0.335449 0.461705 0.620504
v 0.000000 0.898953 -2.189084
v 0.645170 0.277792 -2.189084
v 0.914193 -0.297039 -3.874348
v 0.409585 -0.176356 0.620504
v 0.459845 -0.727268 -2.014546
v 0.000000 -0.961239 -3.874348
v 0.000000 -0.570699 0.620504
v -0.459845 -0.727268 -2.014546
v -0.914193 -0.297039 -3.874348
v -0.409585 -0.176356 0.620504
v -0.645170 0.277792 -2.189084
v -0.565002 0.777659 -3.874348
v -0.335449 0.461705 0.620504
v -0.427477 0.588372 -2.189084
v -0.521953 -0.224738 -2.189084
v 0.000000 -0.727268 -2.189084
v 0.521953 -0.224738 -2.189084
v 0.427477 0.588372 -2.189084
v 0.000000 0.776639 1.871114
v 0.646437 0.277792 1.871114
v 0.528391 -0.727268 1.871114
v -0.528391 -0.727268 1.871114
v -0.646437 0.277792 1.871114
v 0.427477 0.466058 1.871114
v 0.501726 -0.224738 1.871114
v 0.000000 -0.727268 1.871114
v -0.501726 -0.224738 1.871114
v -0.427477 0.466058 1.871114
v 0.000000 1.107405 3.220222
v 0.795175 0.366112 2.446728
v 0.353308 -0.958493 2.246586
v -0.353308 -0.958493 2.246586
v -0.795175 0.366112 2.446728
v 0.563388 0.814115 2.649726
v 0.643310 -0.296191 2.246586
v 0.000000 -0.958493 2.246586
v -0.643310 -0.296191 2.246586
v -0.563388 0.814115 2.649726
v 0.000000 1.184762 5.633695
v 0.795175 0.366111 5.633695
v 0.353308 -0.958493 5.633695
v -0.353308 -0.958493 5.633695
v -0.795175 0.366111 5.633695
v 0.563388 0.775437 5.633695
v 0.643310 -0.296191 5.633695
v 0.000000 -0.958493 5.633695
v -0.643310 -0.296191 5.633695
v -0.563388 0.775437 5.633695
v 0.000000 0.859337 -4.000442
v 0.817278 0.265550 -4.000442
v 0.505106 -0.695218 -4.000442
v -0.505106 -0.695218 -4.000442
v -0.817278 0.265550 -4.000442
v 0.408639 0.562444 -4.000442
v 0.661192 -0.214834 -4.000442
v 0.000000 -0.695218 -4.000442
v -0.661192 -0.214834 -4.000442
v -0.408639 0.562444 -4.000442
vn -0.9962 0.0866 -0.0000
vn 0.4231 -0.9061 -0.0000
vn 0.5731 0.8195 -0.0000
vn -0.9631 0.1785 -0.2014
vn 0.3270 -0.9233 -0.2014
vn 0.6361 0.7449 -0.2014
vn 0.9566 -0.2879 -0.0442
vn -0.2290 0.9724 -0.0442
vn -0.7276 -0.6845 -0.0442
vn -0.0000 -0.0000 1.0000
vn 0.6340 0.7502 0.1876
vn -0.0000 -0.9923 -0.1240
vn -0.0000 0.9701 -0.2425
vn -0.1666 -0.9860 -0.0000
vn -0.0000 0.9923 0.1240
vn -0.0000 -0.9701 -0.2425
vn 0.5731 -0.8195 -0.0000
vn 0.4231 0.9061 -0.0000
vn -0.9962 -0.0866 -0.0000
vn -0.7276 0.6845 0.0442
vn -0.2290 -0.9724 0.0442
vn 0.9566 0.2879 0.0442
vn 0.6361 -0.7449 0.2014
vn 0.3270 0.9233 0.2014
vn -0.9631 -0.1785 0.2014
vn -0.0000 0.7071 -0.7071
vn -0.0000 -0.0156 0.9999
vn -0.0000 -0.0156 -0.9999
vn -0.0000 1.0000 -0.0000
vn 0.8177 0.5732 0.0526
vn 0.9917 -0.1207 0.0442
vn 0.0027 -0.9983 0.0588
vn -0.7397 0.6674 -0.0858
vn -0.9703 -0.2379 0.0429
vn -0.5869 0.8078 0.0556
vn -0.4074 -0.1324 -0.9036
vn -0.5822 0.8013 0.1375
vn -0.6662 0.7231 0.1828
vn -0.8177 0.5732 0.0526
vn -0.9319 -0.2708 0.2411
vn -0.9613 -0.2008 0.1884
vn -0.9917 -0.1207 0.0442
vn 0.0195 -0.9914 0.1295
vn -0.0195 -0.9914 0.1295
vn -0.0027 -0.9983 0.0588
vn 0.9613 -0.2008 0.1884
vn 0.9319 -0.2708 0.2411
vn 0.9703 -0.2379 0.0429
vn 0.6662 0.7231 0.1828
vn 0.5822 0.8013 0.1375
vn 0.5869 0.8078 0.0556
vn 0.9398 -0.1906 -0.2835
vn -0.9951 -0.0094 -0.0987
vn 0.5872 0.8082 -0.0460
vn -0.0180 -0.9930 -0.1167
vn 0.9619 -0.2589 -0.0882
vn -0.5872 0.8082 -0.0460
vn -0.9619 -0.2589 -0.0882
vn 0.7397 0.6674 -0.0858
vn 0.0180 -0.9930 -0.1167
vn 0.9951 -0.0094 -0.0987
vn 0.8799 0.4751 0.0030
vn -0.9398 -0.1906 -0.2835
vn 0.7096 0.6133 -0.3468
vn -0.0000 -0.8515 -0.5244
vn -0.3619 0.8812 -0.3042
vn 0.9744 -0.2203 -0.0453
vn -0.9744 -0.2203 -0.0453
vn 0.3619 0.8812 -0.3042
vn -0.7096 0.6133 -0.3468
vn -0.0000 -1.0000 -0.0000
vn -0.5269 0.8499 -0.0061
vn 0.9160 -0.4011 -0.0000
vn -0.9160 -0.4011 -0.0000
vn 0.5269 0.8499 -0.0061
vn -0.8799 0.4751 0.0030
vn 0.9747 -0.2235 -0.0000
vn -0.9747 -0.2235 -0.0000
vn -0.0000 -0.0000 -1.0000
vn 0.2518 0.3465 -0.9036
vn -0.0000 -0.4283 -0.9036
vn 0.4074 -0.1324 -0.9036
vn -0.2518 0.3465 -0.9036
vt 0.125000 0.750000
vt 0.125000 0.500000
vt 0.458333 0.500000
vt 0.458333 0.750000
vt 0.791667 0.500000
vt 0.791667 0.750000
vt 1.125000 0.500000
vt 1.125000 0.750000
vt 0.875000 0.750000
vt 1.208333 0.750000
vt 1.541667 0.750000
vt 1.875000 0.750000
vt 0.875000 0.500000
vt 1.208333 0.500000
vt 1.541667 0.500000
vt 1.875000 0.500000
vt 0.375000 0.500000
vt 0.708333 0.500000
vt 1.041667 0.500000
vt 1.375000 0.500000
vt 0.625000 0.500000
vt 0.958333 0.500000
vt 1.291667 0.500000
vt 1.625000 0.500000
vt 0.375000 0.750000
vt 0.708333 0.750000
vt 1.041667 0.750000
vt 1.375000 0.750000
vt 0.625000 0.750000
vt 0.958333 0.750000
vt 1.291667 0.750000
vt 1.625000 0.750000
vt 0.900000 0.750000
vt 0.900000 1.000000
vt 0.800000 1.000000
vt 0.800000 0.750000
vt 0.700000 0.750000
vt 0.700000 1.000000
vt 0.600000 1.000000
vt 0.600000 0.750000
vt 0.500000 0.750000
vt 0.500000 1.000000
vt 0.400000 1.000000
vt 0.400000 0.750000
vt 0.100000 1.000000
vt 0.200000 1.000000
vt 0.300000 0.750000
vt 0.300000 1.000000
vt 0.200000 0.750000
vt 0.100000 0.750000
vt 0.000000 1.000000
vt 0.000000 0.750000
vt 0.300000 0.500000
vt 0.200000 0.500000
vt 0.100000 0.500000
vt 0.000000 0.500000
vt 0.400000 0.500000
vt 0.500000 0.500000
vt 0.600000 0.500000
vt 0.700000 0.500000
vt 0.800000 0.500000
vt 0.900000 0.500000
vt 1.000000 0.500000
vt 1.000000 0.750000
vt 1.000000 1.000000
vt 0.478254 0.324164
vt 0.364127 0.407082
vt 0.250000 0.490000
vt 0.135873 0.407082
vt 0.021746 0.324164
vt 0.065339 0.190000
vt 0.108932 0.055836
vt 0.250000 0.055836
vt 0.391068 0.055836
vt 0.434661 0.190000
vt 0.750000 0.490000
vt 0.864127 0.407082
vt 0.978254 0.324164
vt 0.934661 0.190000
vt 0.891068 0.055836
vt 0.750000 0.055836
vt 0.608932 0.055836
vt 0.565339 0.190000
vt 0.521746 0.324164
vt 0.635873 0.407082
s 0
f 1/1/1 3/2/1 11/3/1 9/4/1
f 9/4/2 11/3/2 19/5/2 17/6/2
f 17/6/3 19/5/3 3/7/3 1/8/3
f 2/9/4 1/1/4 9/4/4 10/10/4
f 10/10/5 9/4/5 17/6/5 18/11/5
f 18/11/6 17/6/6 1/8/6 2/12/6
f 4/13/7 2/9/7 10/10/7 12/14/7
f 12/14/8 10/10/8 18/11/8 20/15/8
f 20/15/9 18/11/9 2/12/9 4/16/9
f 3/2/10 4/13/10 12/14/10 11/3/10
f 11/3/10 12/14/10 20/15/10 19/5/10
f 19/5/10 20/15/10 4/16/10 3/7/10
f 3/2/11 7/17/11 15/18/11 11/3/11
f 11/3/12 15/18/12 23/19/12 19/5/12
f 19/5/13 23/19/13 7/20/13 3/7/13
f 8/21/14 4/13/14 12/14/14 16/22/14
f 16/22/15 12/14/15 20/15/15 24/23/15
f 24/23/16 20/15/16 4/16/16 8/24/16
f 7/17/10 8/21/10 16/22/10 15/18/10
f 15/18/10 16/22/10 24/23/10 23/19/10
f 23/19/10 24/23/10 8/24/10 7/20/10
f 7/17/17 5/25/17 13/26/17 15/18/17
f 15/18/18 13/26/18 21/27/18 23/19/18
f 23/19/19 21/27/19 5/28/19 7/20/19
f 6/29/20 8/21/20 16/22/20 14/30/20
f 14/30/21 16/22/21 24/23/21 22/31/21
f 22/31/22 24/23/22 8/24/22 6/32/22
f 5/25/23 6/29/23 14/30/23 13/26/23
f 13/26/24 14/30/24 22/31/24 21/27/24
f 21/27/25 22/31/25 6/32/25 5/28/25
f 5/25/26 1/1/26 9/4/26 13/26/26
f 13/26/10 9/4/10 17/6/10 21/27/10
f 21/27/10 17/6/10 1/8/10 5/28/10
f 2/9/27 6/29/27 14/30/27 10/10/27
f 10/10/28 14/30/28 22/31/28 18/11/28
f 18/11/29 22/31/29 6/32/29 2/12/29
f 54/33/30 36/34/30 28/35/30 38/36/30
f 53/37/31 40/38/31 30/39/31 41/40/31
f 52/41/32 43/42/32 32/43/32 44/44/32
f 49/45/33 34/46/33 59/46/33 64/45/33
f 51/47/34 46/48/34 34/46/34 47/49/34
f 50/50/35 49/45/35 26/51/35 37/52/35
f 45/53/36 33/54/36 89/54/36 93/53/36
f 48/55/37 50/50/37 37/52/37 25/56/37
f 33/54/38 47/49/38 50/50/38 48/55/38
f 47/49/39 34/46/39 49/45/39 50/50/39
f 45/53/40 51/47/40 47/49/40 33/54/40
f 31/57/41 44/44/41 51/47/41 45/53/41
f 44/44/42 32/43/42 46/48/42 51/47/42
f 42/58/43 52/41/43 44/44/43 31/57/43
f 29/59/44 41/40/44 52/41/44 42/58/44
f 41/40/45 30/39/45 43/42/45 52/41/45
f 39/60/46 53/37/46 41/40/46 29/59/46
f 27/61/47 38/36/47 53/37/47 39/60/47
f 38/36/48 28/35/48 40/38/48 53/37/48
f 35/62/49 54/33/49 38/36/49 27/61/49
f 25/63/50 37/64/50 54/33/50 35/62/50
f 37/64/51 26/65/51 36/34/51 54/33/51
f 61/38/52 56/35/52 66/35/52 71/38/52
f 46/48/53 32/43/53 58/43/53 63/48/53
f 36/34/54 26/65/54 55/65/54 60/34/54
f 43/42/55 30/39/55 57/39/55 62/42/55
f 40/38/56 28/35/56 56/35/56 61/38/56
f 26/51/57 49/45/57 64/45/57 55/51/57
f 34/46/58 46/48/58 63/48/58 59/46/58
f 28/35/59 36/34/59 60/34/59 56/35/59
f 32/43/60 43/42/60 62/42/60 58/43/60
f 30/39/61 40/38/61 61/38/61 57/39/61
f 66/35/62 70/34/62 80/34/62 76/35/62
f 59/46/63 63/48/63 73/48/63 69/46/63
f 56/35/64 60/34/64 70/34/64 66/35/64
f 62/42/65 57/39/65 67/39/65 72/42/65
f 55/51/66 64/45/66 74/45/66 65/51/66
f 57/39/67 61/38/67 71/38/67 67/39/67
f 63/48/68 58/43/68 68/43/68 73/48/68
f 60/34/69 55/65/69 65/65/69 70/34/69
f 58/43/65 62/42/65 72/42/65 68/43/65
f 64/45/70 59/46/70 69/46/70 74/45/70
f 76/66/10 80/67/10 75/68/10 84/69/10 79/70/10 83/71/10 78/72/10 82/73/10 77/74/10 81/75/10
f 72/42/71 67/39/71 77/39/71 82/42/71
f 65/51/72 74/45/72 84/45/72 75/51/72
f 67/39/73 71/38/73 81/38/73 77/39/73
f 73/48/74 68/43/74 78/43/74 83/48/74
f 70/34/75 65/65/75 75/65/75 80/34/75
f 68/43/71 72/42/71 82/42/71 78/43/71
f 74/45/76 69/46/76 79/46/76 84/45/76
f 71/38/77 66/35/77 76/35/77 81/38/77
f 69/46/78 73/48/78 83/48/78 79/46/78
f 85/76/79 90/77/79 86/78/79 91/79/79 87/80/79 92/81/79 88/82/79 93/83/79 89/84/79 94/85/79
f 35/62/80 27/61/80 86/61/80 90/62/80
f 42/58/81 31/57/81 88/57/81 92/58/81
f 39/60/82 29/59/82 87/59/82 91/60/82
f 33/54/83 48/55/83 94/55/83 89/54/83
f 31/57/36 45/53/36 93/53/36 88/57/36
f 25/63/80 35/62/80 90/62/80 85/63/80
f 29/59/81 42/58/81 92/58/81 87/59/81
f 27/61/82 39/60/82 91/60/82 86/61/82
f 48/55/83 25/56/83 85/56/83 94/55/83
