# Blender 5.1.0
# www.blender.org
mtllib wedge.mtl
o Cube
v 1.000000 1.000000 0.047540
v 1.000000 -1.000000 0.047540
v 1.000000 1.000000 1.000000
v 1.000000 -1.000000 1.000000
v -1.000000 1.000000 0.047540
v -1.000000 -1.000000 0.047540
v -1.000000 1.000000 1.000000
v -1.000000 -1.000000 1.000000
v 0.000000 -1.000000 -4.622218
v 1.000000 0.000000 0.047540
v -1.000000 0.000000 0.047540
v 0.000000 1.000000 -4.622218
v 0.000000 0.000000 -4.622218
vn -0.0000 1.0000 -0.0000
vn -0.0000 -0.0000 1.0000
vn -1.0000 -0.0000 -0.0000
vn -0.0000 -1.0000 -0.0000
vn 1.0000 -0.0000 -0.0000
vn 0.9778 -0.0000 -0.2094
vn -0.9778 -0.0000 -0.2094
vt 0.625000 0.500000
vt 0.750000 0.500000
vt 0.875000 0.500000
vt 0.875000 0.750000
vt 0.625000 0.750000
vt 0.375000 0.750000
vt 0.625000 1.000000
vt 0.375000 1.000000
vt 0.375000 0.000000
vt 0.625000 0.000000
vt 0.625000 0.250000
vt 0.500000 0.250000
vt 0.375000 0.250000
vt 0.125000 0.500000
vt 0.250000 0.500000
vt 0.375000 0.500000
vt 0.125000 0.750000
vt 0.500000 0.500000
vt 0.500000 0.375000
vt 0.625000 0.375000
vt 0.375000 0.375000
s 0
usemtl Material
f 1/1/1 12/2/1 5/3/1 7/4/1 3/5/1
f 4/6/2 3/5/2 7/7/2 8/8/2
f 8/9/3 7/10/3 5/11/3 11/12/3 6/13/3
f 6/14/4 9/15/4 2/16/4 4/6/4 8/17/4
f 2/16/5 10/18/5 1/1/5 3/5/5 4/6/5
f 13/19/6 12/20/6 1/1/6 10/18/6
f 9/21/6 13/19/6 10/18/6 2/16/6
f 6/13/7 11/12/7 13/19/7 9/21/7
f 11/12/7 5/11/7 12/20/7 13/19/7
